<?xml version="1.0" encoding="utf-8"?>
<!-- Generator: Adobe Illustrator 20.0.0, SVG Export Plug-In . SVG Version: 6.00 Build 0)  -->
<svg version="1.1" id="Artwork_aboveguides" xmlns="http://www.w3.org/2000/svg" xmlns:xlink="http://www.w3.org/1999/xlink"
	 x="0px" y="0px" viewBox="0 0 100.39 100.38" style="enable-background:new 0 0 100.39 100.38;" xml:space="preserve">
<title>nav</title>
<path d="M64.48,50.19L98.8,15.87c2.118-2.115,2.12-5.547,0.005-7.665C98.803,8.203,98.802,8.202,98.8,8.2l-6.61-6.61
	c-2.115-2.118-5.547-2.12-7.665-0.005c-0.002,0.002-0.003,0.003-0.005,0.005L50.2,35.9L15.88,1.59
	c-2.115-2.118-5.547-2.12-7.665-0.005C8.213,1.587,8.212,1.588,8.21,1.59l-6.62,6.6c-2.118,2.115-2.12,5.547-0.005,7.665
	c0.002,0.002,0.003,0.003,0.005,0.005l34.32,34.33L1.59,84.51c-2.118,2.115-2.12,5.547-0.005,7.665
	c0.002,0.002,0.003,0.003,0.005,0.005l6.61,6.61c2.115,2.118,5.547,2.12,7.665,0.005c0.002-0.002,0.003-0.003,0.005-0.005
	l34.32-34.32l34.32,34.32c2.115,2.118,5.547,2.12,7.665,0.005c0.002-0.002,0.003-0.003,0.005-0.005l6.61-6.61
	c2.118-2.115,2.12-5.547,0.005-7.665c-0.002-0.002-0.003-0.003-0.005-0.005L64.48,50.19z"/>
</svg>
