<?xml version="1.0" standalone="no"?>
<!DOCTYPE svg PUBLIC "-//W3C//DTD SVG 1.1//EN" "http://www.w3.org/Graphics/SVG/1.1/DTD/svg11.dtd" >
<svg xmlns="http://www.w3.org/2000/svg">
<metadata></metadata>
<defs>
<font id="kohinoormedium" horiz-adv-x="1120" >
<font-face units-per-em="2048" ascent="1536" descent="-512" />
<missing-glyph horiz-adv-x="520" />
<glyph unicode="&#xfb01;" horiz-adv-x="1294" d="M45 961v180h180v114q0 147 95.5 241.5t281.5 94.5q96 0 182 -22l-39 -207q-64 20 -139 20q-69 0 -99 -32t-30 -99v-110h266v-180h-270v-961h-252v961h-176zM838 1450q0 68 44 114t107 46q69 0 113.5 -45.5t44.5 -114.5q0 -64 -45 -107t-113 -43q-63 0 -107 43.5 t-44 106.5zM870 0v1141h252v-1141h-252z" />
<glyph unicode="&#xfb02;" horiz-adv-x="1368" d="M45 961v180h180v114q0 147 95.5 241.5t281.5 94.5q96 0 182 -22l-39 -207q-64 20 -139 20q-69 0 -99 -32t-30 -99v-110h266v-180h-270v-961h-252v961h-176zM901 260v1292h252v-1226q0 -66 25.5 -94.5t78.5 -28.5q39 0 62 10v-203q-63 -26 -145 -26q-130 0 -201.5 72.5 t-71.5 203.5z" />
<glyph unicode="&#xfb03;" horiz-adv-x="1980" d="M45 961v180h180v114q0 147 95.5 241.5t281.5 94.5q96 0 182 -22l-39 -207q-64 20 -139 20q-69 0 -99 -32t-30 -99v-110h434v114q0 147 95.5 241.5t281.5 94.5q96 0 182 -22l-38 -207q-64 20 -140 20q-69 0 -99 -32t-30 -99v-110h267v-180h-271v-961h-252v961h-434v-961 h-252v961h-176zM1524 1450q0 68 44 114t107 46q69 0 113.5 -45.5t44.5 -114.5q0 -64 -45 -107t-113 -43q-63 0 -107 43.5t-44 106.5zM1556 0v1141h252v-1141h-252z" />
<glyph unicode="&#xfb04;" horiz-adv-x="2054" d="M45 961v180h180v114q0 147 95.5 241.5t281.5 94.5q96 0 182 -22l-39 -207q-64 20 -139 20q-69 0 -99 -32t-30 -99v-110h434v114q0 147 95.5 241.5t281.5 94.5q96 0 182 -22l-38 -207q-64 20 -140 20q-69 0 -99 -32t-30 -99v-110h267v-180h-271v-961h-252v961h-434v-961 h-252v961h-176zM1587 260v1292h252v-1226q0 -66 26 -94.5t79 -28.5q38 0 61 10v-203q-63 -26 -145 -26q-130 0 -201.5 72.5t-71.5 203.5z" />
<glyph horiz-adv-x="2048" />
<glyph horiz-adv-x="2048" />
<glyph unicode="&#xd;" horiz-adv-x="2048" />
<glyph unicode=" "  horiz-adv-x="520" />
<glyph unicode="&#x09;" horiz-adv-x="520" />
<glyph unicode="&#xa0;" horiz-adv-x="520" />
<glyph unicode="!" horiz-adv-x="620" d="M147 150q0 71 46.5 119t113.5 48q71 0 118.5 -47.5t47.5 -119.5q0 -65 -48 -111.5t-118 -46.5q-66 0 -113 46.5t-47 111.5zM154 1485h309q-2 -48 -26.5 -472t-26.5 -466h-201q-2 47 -27.5 470.5t-27.5 467.5z" />
<glyph unicode="&#x22;" horiz-adv-x="778" d="M82 1475h260l-39 -504h-182zM436 1475h260l-39 -504h-180z" />
<glyph unicode="#" horiz-adv-x="1417" d="M70 391l22 189h240l47 276h-240l21 188h246l59 383h215l-59 -383h311l59 383h215l-59 -383h201l-23 -188h-207l-41 -276h201l-21 -189h-206l-60 -391h-217l60 391h-310l-59 -391h-217l59 391h-237zM549 580h313l41 276h-309z" />
<glyph unicode="$" horiz-adv-x="1122" d="M57 172l144 193q60 -56 155 -101t205 -45t164.5 45.5t54.5 118.5q0 37 -13.5 65.5t-46.5 54t-71 45.5t-104 50l-123 55q-150 66 -224.5 157.5t-74.5 219.5q0 156 102.5 259t263.5 130l-6 271h211l-6 -267q66 -9 123 -28t94.5 -43t58.5 -40.5t35 -31.5l-149 -178 q-49 47 -120 77.5t-150 30.5q-96 0 -149.5 -43t-53.5 -116q0 -70 53 -116.5t166 -98.5l106 -50q87 -39 143 -72.5t102.5 -78t67.5 -100t21 -127.5q0 -93 -40 -172.5t-126 -139.5t-208 -80l6 -284h-211l4 276q-237 20 -404 164z" />
<glyph unicode="%" horiz-adv-x="1765" d="M92 1053q0 190 91.5 291.5t248.5 101.5q158 0 244 -96.5t86 -286.5q0 -196 -91 -296.5t-249 -100.5q-330 0 -330 387zM276 164l117 -111l1125 1227l-119 111zM285 1055q0 -119 38.5 -178.5t106.5 -59.5q74 0 106.5 56t32.5 182q0 239 -147 239q-69 0 -103 -57.5 t-34 -181.5zM1006 369q0 190 91 291.5t249 101.5q157 0 242 -96.5t85 -286.5q0 -196 -90.5 -296.5t-249.5 -100.5q-327 0 -327 387zM1196 371q0 -119 38.5 -178.5t106.5 -59.5q74 0 107 56t33 182q0 239 -148 239q-69 0 -103 -57.5t-34 -181.5z" />
<glyph unicode="&#x26;" horiz-adv-x="1447" d="M57 375q0 151 88 246t244 155q-119 136 -119 293q0 155 109.5 261t288.5 106q176 0 279.5 -101.5t103.5 -257.5q0 -134 -80.5 -235t-237.5 -154q160 -167 295 -278q39 62 61.5 157t22.5 191h219q0 -126 -38.5 -256.5t-106.5 -222.5q40 -35 92 -76t128 -98.5t91 -69.5v-35 h-305q-87 63 -152 119q-179 -156 -481 -156q-127 0 -226.5 36t-158 96.5t-88 131.5t-29.5 148zM299 393q0 -96 78.5 -163.5t214.5 -67.5q175 0 285 92q-254 233 -367 358q-104 -29 -157.5 -81.5t-53.5 -137.5zM496 1069q0 -65 35 -131t71 -96q121 36 173 90.5t52 136.5 q0 75 -45.5 121.5t-122.5 46.5q-73 0 -118 -43.5t-45 -124.5z" />
<glyph unicode="'" horiz-adv-x="423" d="M82 1475h260l-39 -504h-182z" />
<glyph unicode="(" horiz-adv-x="731" d="M164 598q0 176 36 344t87 287t115 222t112 159t86 88h240v-25q-92 -87 -171 -195t-146 -242.5t-105.5 -299.5t-38.5 -338t38.5 -338.5t105.5 -300.5t146 -243.5t171 -194.5v-23h-240q-38 31 -86 87.5t-112 159.5t-115 223t-87 287.5t-36 342.5z" />
<glyph unicode=")" horiz-adv-x="731" d="M-109 -479q92 86 171 194.5t145.5 243.5t104.5 300.5t38 338.5t-38 338t-104.5 299.5t-145.5 243t-171 194.5v25h240q38 -32 85.5 -88t111.5 -159t115 -222t86.5 -287t35.5 -344q0 -175 -36 -342.5t-87 -287.5t-115 -223t-112 -159.5t-86 -87.5h-238v23z" />
<glyph unicode="*" horiz-adv-x="854" d="M55 1077l60 185l112 -35l129 -72l-26 143v121h194v-119l-28 -145l129 72l114 37l60 -187l-113 -37l-147 -16l110 -102l70 -97l-158 -112l-72 94l-61 133l-63 -133l-70 -96l-158 114l70 97l108 98l-147 20z" />
<glyph unicode="+" d="M63 606v203h392v393h209v-393h391v-203h-391v-393h-209v393h-392z" />
<glyph unicode="," horiz-adv-x="563" d="M61 -221q90 39 140.5 92t50.5 115q0 56 -33.5 91t-99.5 60v25q0 64 45.5 109.5t116.5 45.5q86 0 138 -60t52 -159q0 -76 -28.5 -148.5t-76 -128.5t-106.5 -97t-121 -62z" />
<glyph unicode="-" horiz-adv-x="749" d="M49 535v208h649v-208h-649z" />
<glyph unicode="." horiz-adv-x="548" d="M100 158q0 75 50 125.5t122 50.5q74 0 124 -50.5t50 -125.5q0 -71 -50.5 -120.5t-123.5 -49.5q-72 0 -122 49.5t-50 120.5z" />
<glyph unicode="/" horiz-adv-x="768" d="M-8 -307l569 1802h215l-571 -1802h-213z" />
<glyph unicode="0" horiz-adv-x="1198" d="M100 698q0 374 127.5 555t382.5 181t371.5 -176t116.5 -547q0 -731 -512 -731q-256 0 -371 174.5t-115 543.5zM354 711q0 -265 58.5 -389.5t189.5 -124.5q137 0 189.5 116.5t52.5 384.5q0 263 -60 391t-192 128q-134 0 -186 -118.5t-52 -387.5z" />
<glyph unicode="1" horiz-adv-x="942" d="M23 1130l438 283h258v-1413h-252v733q0 216 8 404h-8l-143 -99l-156 -108z" />
<glyph unicode="2" horiz-adv-x="1067" d="M78 215q116 109 279 285.5t216 249.5q117 152 117 278q0 91 -46 138.5t-122 47.5q-80 0 -122.5 -55t-49.5 -139l-256 49q22 156 135.5 259.5t307.5 103.5q192 0 303.5 -102t111.5 -269q0 -118 -44 -226.5t-140 -224.5q-123 -143 -197 -217q-7 -7 -85 -82t-103 -98v-8 q95 10 295 10h297v-215h-854z" />
<glyph unicode="3" horiz-adv-x="1075" d="M39 246l233 114q81 -167 242 -167q211 0 211 217q0 101 -66 148.5t-204 47.5h-95v211h93q118 0 170.5 52t52.5 165q0 89 -44 138t-132 49q-80 0 -125 -46.5t-53 -125.5l-244 28q13 154 125 255.5t299 101.5q207 0 316.5 -96t109.5 -283q0 -124 -60 -207t-153 -113v-8 q52 -5 96.5 -23.5t82.5 -53t59.5 -93t21.5 -135.5q0 -212 -130.5 -326t-361.5 -114q-169 0 -283 75.5t-161 188.5z" />
<glyph unicode="4" horiz-adv-x="1144" d="M47 524l567 889h297v-881h195v-210h-195v-322h-243v322h-568zM305 532h363v236q0 254 16 385h-8q-66 -125 -152 -262z" />
<glyph unicode="5" horiz-adv-x="1140" d="M94 256l248 111q66 -174 225 -174q104 0 156.5 66t52.5 187q0 123 -55.5 185.5t-163.5 62.5q-103 0 -172 -73l-223 79l59 713h740v-213h-517l-36 -364l10 -2q32 26 87.5 43.5t112.5 17.5q205 0 307.5 -107t102.5 -313q0 -226 -127.5 -359.5t-351.5 -133.5 q-342 0 -455 274z" />
<glyph unicode="6" horiz-adv-x="1142" d="M117 518q0 145 39 284t106.5 252.5t151 204.5t178.5 154h332v-33q-174 -98 -286 -215.5t-183 -263.5l6 -4q57 33 168 33q193 0 306.5 -109.5t113.5 -331.5q0 -233 -132 -371t-346 -138q-454 0 -454 538zM367 524q0 -178 63 -256t166 -78q102 0 151.5 66t49.5 203 q0 127 -60.5 194.5t-175.5 67.5q-83 0 -180 -37q-14 -62 -14 -160z" />
<glyph unicode="7" horiz-adv-x="962" d="M6 1186v227h854l53 -235q-209 -278 -320.5 -567t-111.5 -566v-45h-254v49q0 282 114 586.5t294 554.5v8q-148 -12 -303 -12h-326z" />
<glyph unicode="8" horiz-adv-x="1187" d="M113 383q0 132 69.5 215.5t182.5 118.5v8q-92 22 -152.5 102t-60.5 207q0 191 119.5 295.5t326.5 104.5q215 0 327.5 -95.5t112.5 -285.5q0 -120 -61 -201t-154 -113v-8q52 -11 95.5 -33t80.5 -59t57.5 -95.5t20.5 -133.5q0 -211 -129 -320.5t-358 -109.5 q-477 0 -477 403zM362 399q0 -104 58 -159.5t176 -55.5q231 0 231 215q0 213 -235 213q-120 0 -175 -58.5t-55 -154.5zM397 1036q0 -105 49 -162t148 -57q197 0 197 217q0 89 -50.5 141t-146.5 52q-99 0 -148 -50.5t-49 -140.5z" />
<glyph unicode="9" horiz-adv-x="1105" d="M76 938q0 231 131.5 363.5t345.5 132.5q451 0 451 -533q0 -140 -38.5 -278.5t-104 -254t-148.5 -210t-176 -158.5h-332v33q343 196 469 493l-4 4q-67 -26 -166 -26q-193 0 -310.5 108t-117.5 326zM326 973q0 -258 231 -258q90 0 186 41q9 79 9 137q0 173 -61.5 251.5 t-160.5 78.5q-204 0 -204 -250z" />
<glyph unicode=":" horiz-adv-x="548" d="M100 164q0 75 50 125.5t122 50.5q74 0 124 -50.5t50 -125.5q0 -71 -50.5 -120.5t-123.5 -49.5q-72 0 -122 49.5t-50 120.5zM100 954q0 75 50 125.5t122 50.5q74 0 124 -50.5t50 -125.5q0 -71 -50.5 -120.5t-123.5 -49.5q-72 0 -122 49.5t-50 120.5z" />
<glyph unicode=";" horiz-adv-x="563" d="M51 -223q91 39 141 93t50 116q0 57 -35 91.5t-98 59.5v25q0 65 44.5 110t114.5 45q87 0 139 -60t52 -159q0 -150 -99.5 -271.5t-230.5 -164.5zM111 954q0 76 49.5 127.5t120.5 51.5q75 0 125.5 -51.5t50.5 -127.5q0 -71 -50.5 -120.5t-125.5 -49.5q-71 0 -120.5 50 t-49.5 120z" />
<glyph unicode="&#x3c;" d="M63 612v197l992 436v-252l-406 -168l-301 -106v-8l299 -111l408 -168v-254z" />
<glyph unicode="=" d="M63 371v204h992v-204h-992zM63 840v204h992v-204h-992z" />
<glyph unicode="&#x3e;" d="M63 178v254l408 166l299 107v8l-299 110l-408 170v252l992 -434v-197z" />
<glyph unicode="?" horiz-adv-x="888" d="M-16 1348q146 151 432 151q187 0 293 -89t106 -251q0 -126 -49.5 -215.5t-169.5 -195.5l-268 -234q-113 41 -113 141q0 52 35.5 100t86 86.5t101 78.5t86 92t35.5 110q0 74 -45 117t-123 43q-46 0 -85 -11.5t-69.5 -33.5t-48 -38t-38.5 -40zM252 150q0 73 47 120t115 47 q74 0 119 -46t45 -121q0 -67 -46.5 -112.5t-119.5 -45.5q-69 0 -114.5 45t-45.5 113z" />
<glyph unicode="@" horiz-adv-x="2002" d="M125 434q0 207 73 389t202 312.5t313 206t397 75.5q349 0 558.5 -183.5t209.5 -490.5q0 -281 -139 -456.5t-367 -175.5q-169 0 -227 110h-8q-81 -108 -234 -108q-158 0 -236.5 91t-78.5 238q0 118 31 213.5t82.5 158.5t121 105.5t142.5 61t151 18.5q80 0 161 -20t132 -55 l-70 -437q-12 -78 -12 -104q0 -82 76 -82q81 0 142 64t89.5 156t28.5 192q0 244 -152.5 377t-435.5 133q-159 0 -297 -61t-233 -164t-149 -242.5t-54 -294.5q0 -284 151 -429t435 -145q92 0 179.5 23.5t143.5 60.5l80 -174q-177 -104 -438 -104q-374 0 -571 197t-197 544z M809 481q0 -95 33.5 -137.5t105.5 -42.5q100 0 164 80q0 45 10 102l49 312q-46 12 -90 12q-115 0 -193.5 -90t-78.5 -236z" />
<glyph unicode="A" horiz-adv-x="1308" d="M25 0l444 1436h369l446 -1436h-268l-109 365h-516l-108 -365h-258zM455 580h389l-90 307q-8 30 -28.5 101t-30.5 107t-22 84.5t-18 80.5h-8q-23 -109 -98 -367z" />
<glyph unicode="B" horiz-adv-x="1286" d="M170 0v1436h487q76 0 139.5 -11t120 -38t96 -69t62.5 -106t23 -147q0 -119 -57.5 -200.5t-145.5 -110.5v-9q116 -13 195 -93.5t79 -223.5q0 -66 -14.5 -124t-52.5 -115t-97 -98t-155 -66t-219 -25h-461zM424 215h244q241 0 241 203q0 56 -20.5 96.5t-57 63t-80.5 33 t-98 10.5h-229v-406zM424 836h192q119 0 176.5 51.5t57.5 144.5q0 189 -227 189h-199v-385z" />
<glyph unicode="C" horiz-adv-x="1193" d="M106 705q0 351 159 550t458 199q275 0 422 -147l-166 -189q-32 33 -61 55t-87 42t-129 20q-333 0 -333 -512q0 -252 89.5 -386t266.5 -134q166 0 266 108l142 -182q-56 -62 -165.5 -105.5t-267.5 -43.5q-125 0 -224.5 34t-168 96t-114 152.5t-66.5 200t-21 242.5z" />
<glyph unicode="D" horiz-adv-x="1359" d="M176 0v1436h420q339 0 499 -170.5t160 -522.5q0 -126 -20.5 -233.5t-68.5 -203t-122 -162.5t-187.5 -105.5t-258.5 -38.5h-422zM432 215h150q219 0 314 125t95 379q0 139 -28 237t-83 155.5t-129 83.5t-173 26h-146v-1006z" />
<glyph unicode="E" horiz-adv-x="1126" d="M176 0v1436h817v-215h-561v-385h486v-215h-486v-406h588v-215h-844z" />
<glyph unicode="F" horiz-adv-x="1064" d="M176 0v1436h815v-215h-559v-439h486v-215h-486v-567h-256z" />
<glyph unicode="G" horiz-adv-x="1331" d="M106 709q0 152 33.5 276t92.5 211t142 146t180.5 86.5t209.5 27.5q93 0 171 -16t128.5 -42.5t79.5 -47.5t49 -43l-164 -183q-109 109 -276 109q-79 0 -144 -24t-120.5 -78t-87 -155t-31.5 -241q0 -283 95 -412.5t290 -129.5q123 0 180 32v510h256v-629 q-175 -126 -490 -126q-295 0 -444.5 183.5t-149.5 545.5z" />
<glyph unicode="H" horiz-adv-x="1454" d="M176 0v1436h256v-609h588v609h256v-1436h-256v612h-588v-612h-256z" />
<glyph unicode="I" horiz-adv-x="645" d="M195 0v1436h256v-1436h-256z" />
<glyph unicode="J" horiz-adv-x="866" d="M18 29l80 227q86 -57 195 -57q77 0 109 34.5t32 110.5v1092h256v-1108q0 -160 -97.5 -257.5t-297.5 -97.5q-100 0 -171.5 18t-105.5 38z" />
<glyph unicode="K" horiz-adv-x="1271" d="M176 0v1436h256v-1436h-256zM459 719v8l454 709h297l-471 -707l516 -729h-321z" />
<glyph unicode="L" horiz-adv-x="1026" d="M176 0v1436h256v-1221h563v-215h-819z" />
<glyph unicode="M" horiz-adv-x="1804" d="M180 0v1436h398l325 -869h8l324 869h389v-1436h-244v1133h-10q-22 -53 -180 -474.5t-180 -474.5h-226l-356 949h-12v-1133h-236z" />
<glyph unicode="N" horiz-adv-x="1472" d="M180 0v1436h320l364 -697q156 -305 189 -395h10q-10 141 -10 487v605h241v-1436h-313l-381 723q-131 261 -180 395h-10q14 -140 14 -454v-664h-244z" />
<glyph unicode="O" horiz-adv-x="1372" d="M106 709q0 193 42.5 338t121.5 233.5t185 132t239 43.5q135 0 238 -40t179.5 -125.5t116.5 -227.5t40 -338q0 -192 -43 -336.5t-123 -233t-186.5 -132t-239.5 -43.5q-135 0 -238 39.5t-178.5 125t-114.5 227t-39 337.5zM369 727q0 -284 82.5 -407t240.5 -123q74 0 129 26 t96.5 84.5t62.5 159.5t21 244q0 145 -22 248t-65 164t-101 88.5t-135 27.5q-72 0 -126.5 -25.5t-96.5 -83t-64 -159t-22 -244.5z" />
<glyph unicode="P" horiz-adv-x="1196" d="M176 0v1436h461q112 0 199.5 -23t153.5 -72t101 -131t35 -194q0 -106 -30 -192.5t-93 -152.5t-167.5 -102.5t-245.5 -36.5h-158v-532h-256zM432 745h148q155 0 217.5 61t62.5 175q0 123 -65 179.5t-203 56.5h-160v-472z" />
<glyph unicode="Q" horiz-adv-x="1411" d="M121 711q0 192 43 336.5t122.5 233t186 132t240.5 43.5q136 0 240 -40.5t180.5 -126t116.5 -228t40 -338.5q0 -272 -80 -440.5t-213 -225.5v-8l369 -225l-248 -143l-395 307h-25q-277 0 -424 169q-153 177 -153 554zM385 727q0 -145 23 -249t67 -164.5t102 -88.5t134 -28 q77 0 133 26t98 85t63 160t21 245q0 283 -83.5 404.5t-244.5 121.5q-74 0 -129 -25.5t-97.5 -83t-64.5 -159t-22 -244.5z" />
<glyph unicode="R" horiz-adv-x="1241" d="M176 0v1436h426q241 0 366.5 -99.5t125.5 -316.5q0 -173 -87.5 -273t-224.5 -122v-9q53 -25 93.5 -69t91.5 -131l235 -416h-305l-246 465q-28 49 -67 70.5t-99 21.5h-55v-557h-254zM430 766h143q134 0 197.5 56.5t63.5 174.5q0 224 -263 224h-141v-455z" />
<glyph unicode="S" horiz-adv-x="1142" d="M57 147l148 211q172 -159 362 -159q109 0 168.5 50.5t59.5 127.5q0 42 -23 77.5t-61.5 62t-89 51t-106 49t-111 51.5t-106 63t-89 79t-61.5 103.5t-23 133.5q0 175 136.5 292t346.5 117q141 0 248 -46.5t162 -104.5l-158 -193q-121 121 -272 121q-94 0 -147.5 -46.5 t-53.5 -119.5q0 -54 37 -98t96 -75.5t130 -62t142 -68.5t130 -85t96 -120t37 -165q0 -82 -33.5 -155.5t-96.5 -131.5t-163.5 -92t-224.5 -34q-169 0 -294 53t-186 114z" />
<glyph unicode="T" horiz-adv-x="1015" d="M12 1221v215h989v-215h-364v-1221h-258v1221h-367z" />
<glyph unicode="U" horiz-adv-x="1417" d="M170 489v947h256v-899q0 -338 293 -338q134 0 203 73t69 234v930h256v-895q0 -147 -42.5 -257t-119.5 -175.5t-177 -97t-222 -31.5q-257 0 -386.5 137t-129.5 372z" />
<glyph unicode="V" horiz-adv-x="1310" d="M18 1436h283l264 -875q5 -18 45 -156.5t52 -195.5h8q18 94 90 354l264 873h268l-465 -1436h-346z" />
<glyph unicode="W" horiz-adv-x="1941" d="M16 1436h275l174 -697q82 -341 86 -463h8q6 52 20 121t33.5 150.5t24.5 105.5l180 783h320l190 -785q2 -11 19.5 -87t25 -110t17.5 -88t14 -87h8q12 138 84 432l176 725h254l-366 -1436h-320l-178 743q-72 316 -84 418h-8q-14 -101 -74 -373l-193 -788h-319z" />
<glyph unicode="X" horiz-adv-x="1257" d="M20 0l465 735l-438 701h307l281 -488h8l272 488h293l-436 -699l465 -737h-307l-309 518h-9l-297 -518h-295z" />
<glyph unicode="Y" horiz-adv-x="1216" d="M0 1436h287l323 -695h8l326 695h273l-480 -953v-483h-256v483z" />
<glyph unicode="Z" horiz-adv-x="1107" d="M51 209l670 999v9h-600v219h872l37 -209l-663 -1000v-8h669v-219h-948z" />
<glyph unicode="[" horiz-adv-x="708" d="M209 -498v2194h500v-174h-279v-1848h279v-172h-500z" />
<glyph unicode="\" horiz-adv-x="768" d="M-8 1495h213l571 -1802h-213z" />
<glyph unicode="]" horiz-adv-x="708" d="M0 -326h279v1848h-279v174h500v-2194h-500v172z" />
<glyph unicode="^" horiz-adv-x="1138" d="M72 594l366 842h262l369 -842h-248l-141 342l-109 299h-8l-108 -299l-142 -342h-241z" />
<glyph unicode="_" horiz-adv-x="1052" d="M6 -82h1041v-190h-1041v190z" />
<glyph unicode="`" horiz-adv-x="1036" d="M221 1542l225 131l367 -293l-137 -112z" />
<glyph unicode="a" horiz-adv-x="1118" d="M88 291q0 127 76 212t214 123q116 32 269 33q28 0 58 -2v103q0 106 -49.5 149t-143.5 43q-152 0 -219 -131l-180 135q148 203 399 203q212 0 321 -86.5t109 -277.5v-480q0 -122 90 -122h31v-177q-45 -28 -117 -28q-149 0 -207 129h-8q-109 -137 -309 -137 q-155 0 -244.5 91.5t-89.5 219.5zM336 313q0 -61 40 -99t111 -38q69 0 127 31t91 78v196q-31 2 -59 2q-133 0 -213 -35q-97 -42 -97 -135z" />
<glyph unicode="b" horiz-adv-x="1185" d="M152 47v1505h247v-473h9q103 74 243 74q97 0 175.5 -30t140 -93.5t95.5 -173t34 -258.5q0 -181 -64 -318.5t-195.5 -218.5t-316.5 -81q-227 0 -368 67zM403 207q64 -23 142 -23q141 0 220 97.5t79 291.5q0 369 -254 369q-59 0 -109 -22t-78 -58v-655z" />
<glyph unicode="c" horiz-adv-x="1007" d="M90 557q0 297 139.5 450.5t372.5 153.5q130 0 224 -40.5t145 -106.5l-170 -166q-79 102 -203 102q-121 0 -185.5 -86.5t-64.5 -283.5q0 -390 248 -390q134 0 205 103l160 -154q-122 -159 -388 -159q-483 0 -483 577z" />
<glyph unicode="d" horiz-adv-x="1191" d="M90 514q0 133 27.5 240.5t75.5 179.5t114 120t140 69.5t157 21.5q88 0 187 -23v430h249v-1552h-194l-43 102h-8q-36 -46 -110.5 -84t-176.5 -38q-193 0 -305.5 132.5t-112.5 401.5zM346 539q0 -183 64 -269t170 -86q143 0 217 129v588q-26 15 -73 25t-87 10 q-69 0 -119.5 -19t-90.5 -62.5t-60.5 -122.5t-20.5 -193z" />
<glyph unicode="e" horiz-adv-x="1146" d="M90 573q0 282 141.5 435t374.5 153q210 0 326.5 -123t116.5 -333q0 -94 -13 -201h-698q6 -164 80.5 -242t228.5 -78q82 0 148.5 29t107.5 68l111 -183q-150 -118 -396 -118q-528 0 -528 593zM342 680h467v45q0 240 -213 240q-109 0 -178.5 -74.5t-75.5 -210.5z" />
<glyph unicode="f" horiz-adv-x="776" d="M45 961v180h180v114q0 147 95.5 241.5t281.5 94.5q96 0 182 -22l-39 -207q-64 20 -139 20q-69 0 -99 -32t-30 -99v-110h266v-180h-270v-961h-252v961h-176z" />
<glyph unicode="g" horiz-adv-x="1183" d="M90 561q0 128 34.5 235t102 187.5t174.5 125t244 44.5q245 0 387 -66v-1058q0 -224 -136 -341.5t-366 -117.5q-304 0 -428 143l144 189q43 -55 119.5 -89t171.5 -34q132 0 190.5 59t58.5 193v75h-8q-34 -31 -97.5 -52t-148.5 -21q-93 0 -169.5 27t-139.5 86t-98 164.5 t-35 250.5zM342 578q0 -79 12.5 -138.5t34 -97t54.5 -61t69 -32.5t82 -9q122 0 190 77v609q-68 24 -147 24q-139 0 -217 -94.5t-78 -277.5z" />
<glyph unicode="h" horiz-adv-x="1222" d="M152 0v1552h251v-530h9q49 53 128 92t183 39q168 0 261 -96.5t93 -280.5v-776h-254v729q0 99 -46.5 153t-137.5 54q-75 0 -140 -44.5t-96 -109.5v-782h-251z" />
<glyph unicode="i" horiz-adv-x="600" d="M143 1450q0 68 44 114t108 46q69 0 113.5 -45.5t44.5 -114.5q0 -64 -45 -107t-113 -43q-63 0 -107.5 43.5t-44.5 106.5zM176 0v1141h252v-1141h-252z" />
<glyph unicode="j" horiz-adv-x="565" d="M-59 -248q58 22 95 47.5t66.5 68.5t42.5 107.5t13 157.5v1008h252v-1016q0 -460 -387 -576zM125 1450q0 69 44.5 114.5t109.5 45.5q68 0 112.5 -45.5t44.5 -114.5q0 -63 -45 -106.5t-112 -43.5q-65 0 -109.5 43.5t-44.5 106.5z" />
<glyph unicode="k" horiz-adv-x="1116" d="M152 0v1548h251v-1548h-251zM420 598v8l348 535h295l-367 -531v-8l381 -602h-305z" />
<glyph unicode="l" horiz-adv-x="622" d="M156 260v1292h252v-1226q0 -66 25.5 -94.5t78.5 -28.5q38 0 61 10v-203q-63 -26 -145 -26q-130 0 -201 72.5t-71 203.5z" />
<glyph unicode="m" horiz-adv-x="1839" d="M152 0v1141h202l45 -113h9q44 60 122.5 98.5t176.5 38.5q215 0 290 -164h9q44 71 130.5 117.5t204.5 46.5q170 0 260.5 -95t90.5 -284v-786h-252v741q0 106 -47.5 157.5t-128.5 51.5q-73 0 -132 -43t-83 -108v-799h-254v721q0 229 -185 229q-72 0 -129 -46.5t-78 -112.5 v-791h-251z" />
<glyph unicode="n" horiz-adv-x="1222" d="M152 0v1141h194l51 -113h9q46 57 130 98t183 41q172 0 264.5 -95t93.5 -284v-788h-254v733q0 105 -48 161t-140 56q-80 0 -141.5 -44t-90.5 -115v-791h-251z" />
<glyph unicode="o" horiz-adv-x="1185" d="M90 565q0 136 28.5 242.5t87.5 187t158 123.5t234 43q138 0 236 -41t154.5 -120.5t82 -183.5t25.5 -241q0 -135 -28.5 -242t-88 -187t-158.5 -123t-233 -43q-137 0 -235.5 41.5t-155 121t-82 183t-25.5 239.5zM350 578q0 -200 58.5 -298t189.5 -98t185.5 91.5t54.5 289.5 q0 200 -59.5 297.5t-192.5 97.5q-125 0 -180.5 -92t-55.5 -288z" />
<glyph unicode="p" horiz-adv-x="1193" d="M152 -397v1538h186l53 -103h8q42 51 112.5 87t168.5 36q196 0 310 -139.5t114 -403.5q0 -151 -40.5 -271t-112 -196t-166 -115.5t-205.5 -39.5q-96 0 -179 18v-411h-249zM399 236q61 -31 154 -31q146 0 219.5 92t73.5 297q0 185 -68.5 272.5t-175.5 87.5 q-68 0 -120.5 -32t-82.5 -82v-604z" />
<glyph unicode="q" horiz-adv-x="1181" d="M90 539q0 133 34.5 243t102 193t176 129.5t248.5 46.5q245 0 381 -68v-1480h-244v448h-8q-35 -27 -103 -49t-151 -22q-74 0 -137.5 18.5t-119.5 60.5t-95 105.5t-61.5 159t-22.5 215.5zM342 555q0 -107 19.5 -181.5t56.5 -113t79.5 -54.5t98.5 -16q59 0 110.5 21t79.5 55 v656q-65 24 -159 24q-138 0 -211.5 -100.5t-73.5 -290.5z" />
<glyph unicode="r" horiz-adv-x="813" d="M152 0v1141h194l53 -152h9q37 78 113 126t179 48q61 0 103 -10v-252q-61 12 -129 12q-80 0 -154.5 -29t-118.5 -83v-801h-249z" />
<glyph unicode="s" horiz-adv-x="999" d="M35 141l151 178q50 -55 130 -95t173 -40q85 0 127.5 35.5t42.5 91.5q0 40 -30.5 71t-79 51.5t-107 41.5t-117 48.5t-107 63.5t-79 96t-30.5 138q0 140 112 240t299 100q128 0 226 -39.5t157 -105.5l-162 -164q-40 43 -99.5 72.5t-127.5 29.5q-74 0 -115 -32.5t-41 -85.5 q0 -36 24 -64.5t62.5 -47t88.5 -38.5t101.5 -37.5t101.5 -46.5t88.5 -63.5t62.5 -89t24 -123.5q0 -61 -25 -119.5t-75 -110.5t-136.5 -84t-197.5 -32q-155 0 -267.5 48.5t-174.5 112.5z" />
<glyph unicode="t" horiz-adv-x="806" d="M25 946v158l155 51l84 279h164v-293h297v-195h-297v-604q0 -72 36 -107.5t101 -35.5q99 0 162 47l68 -193q-96 -63 -295 -63q-320 0 -320 352v604h-155z" />
<glyph unicode="u" horiz-adv-x="1228" d="M145 371v770h254v-740q0 -223 195 -223q100 0 160.5 57t70.5 132v774h252v-1141h-209l-39 111h-8q-104 -134 -309 -134q-364 0 -367 394z" />
<glyph unicode="v" horiz-adv-x="1073" d="M14 1141h275l180 -596q55 -191 78 -305h8q19 104 74 305l174 596h256l-371 -1141h-285z" />
<glyph unicode="w" horiz-adv-x="1640" d="M20 1141h254l136 -566q47 -193 69 -358h8q18 158 66 342l154 582h260l139 -578q58 -241 68 -346h8q22 154 75 367l136 557h229l-299 -1141h-305l-182 842h-9l-206 -842h-302z" />
<glyph unicode="x" horiz-adv-x="1048" d="M18 0l365 590l-344 551h285l208 -369h9l174 369h295l-336 -553l354 -588h-283l-223 397h-8l-201 -397h-295z" />
<glyph unicode="y" horiz-adv-x="1079" d="M23 1141h280l150 -453q82 -251 110 -403h8q27 163 97 403l133 453h260l-389 -1207q-27 -82 -63.5 -145t-89 -115t-127.5 -80t-169 -28q-76 0 -151 31l41 210q53 -24 118 -24q90 0 142.5 50.5t72.5 154.5z" />
<glyph unicode="z" horiz-adv-x="991" d="M76 205l520 721v8h-485v207h741l39 -205l-514 -721v-8h536v-207h-802z" />
<glyph unicode="{" horiz-adv-x="727" d="M133 504v207q182 10 182 159q0 98 -28.5 260t-28.5 252q0 318 315 318q85 0 144 -23l-25 -170q-51 15 -90 15q-121 0 -121 -146q0 -88 25.5 -242t25.5 -237q0 -109 -48.5 -184.5t-147.5 -102.5v-8q99 -27 147.5 -101.5t48.5 -183.5q0 -83 -25.5 -246t-25.5 -251 q0 -146 121 -146q39 0 90 15l25 -168q-52 -23 -129 -23q-163 0 -246.5 81t-83.5 235q0 90 28.5 261t28.5 267q0 68 -42.5 112t-139.5 50z" />
<glyph unicode="|" horiz-adv-x="569" d="M197 -549v2296h176v-2296h-176z" />
<glyph unicode="}" horiz-adv-x="727" d="M10 -479l27 168q47 -15 88 -15q64 0 93.5 40t29.5 106q0 88 -26.5 251t-26.5 246q0 109 48.5 183.5t147.5 101.5v8q-99 27 -147.5 102.5t-48.5 184.5q0 83 26.5 237t26.5 242q0 66 -29.5 106t-93.5 40q-41 0 -88 -15l-27 170q62 23 144 23q315 0 315 -318 q0 -90 -27.5 -252t-27.5 -260q0 -148 180 -159v-207q-180 -11 -180 -162q0 -96 27.5 -267t27.5 -261q0 -153 -83 -234.5t-245 -81.5q-76 0 -131 23z" />
<glyph unicode="~" horiz-adv-x="1136" d="M49 500q0 133 69.5 217t200.5 84q60 0 132 -23t126.5 -50t117 -50t106.5 -23q86 0 86 111q0 26 -6 53q10 -2 45 -7.5t76 -12t83 -13.5q0 -50 -2 -77q-11 -121 -77 -192t-187 -71q-62 0 -134 23t-126 50t-116.5 50t-106.5 23q-84 0 -84 -111q0 -17 4 -53q-70 8 -203 33 q-4 24 -4 39z" />
<glyph unicode="&#xa1;" horiz-adv-x="626" d="M150 1004q0 65 47.5 111t117.5 46q67 0 113.5 -46t46.5 -111q0 -72 -46 -120t-114 -48q-71 0 -118 48t-47 120zM156 -332q1 33 26.5 451.5t26.5 468.5h209q2 -47 27.5 -461.5t27.5 -458.5h-317z" />
<glyph unicode="&#xa2;" horiz-adv-x="1009" d="M90 557q0 296 140 450t370 154q92 0 160 -18l96 264h137l-114 -315q52 -34 88 -86l-181 -166l-233 -645q17 -5 47 -5q126 0 203 111l155 -162q-17 -25 -43 -48t-70.5 -50.5t-115 -44t-156.5 -16.5q-49 0 -96 6l-92 -258h-137l106 292q-264 115 -264 537zM342 580 q0 -227 90 -324h6l250 686q-41 14 -94 14q-252 0 -252 -376z" />
<glyph unicode="&#xa3;" horiz-adv-x="1157" d="M106 193q70 31 108 87.5t44 165.5l10 175h-151v198h166l16 205q17 205 142 314.5t311 109.5q140 0 223 -42.5t139 -115.5l-162 -168q-39 52 -90 81.5t-131 29.5q-165 0 -182 -205l-17 -209h392v-198h-404l-10 -154q-12 -174 -109 -244v-8h682v-215h-933z" />
<glyph unicode="&#xa4;" d="M47 309l121 117q-66 104 -66 240q0 133 66 239l-121 121l148 141l120 -118q109 67 248 67q129 0 242 -63l119 114l147 -141l-119 -119q66 -112 66 -235q0 -133 -70 -244l123 -119l-147 -143l-123 119q-109 -64 -244 -64t-244 64l-118 -119zM309 670q0 -106 71 -180 t179 -74q109 0 180.5 73.5t71.5 178.5q0 106 -71.5 180t-180.5 74q-108 0 -179 -73.5t-71 -178.5z" />
<glyph unicode="&#xa5;" horiz-adv-x="1187" d="M12 1427h287l184 -421l111 -318h8l115 318l186 421h273l-357 -753h287v-203h-385v-471h-256v471h-389v203h291z" />
<glyph unicode="&#xa6;" horiz-adv-x="569" d="M197 354h176v-719h-176v719zM197 829v719h176v-719h-176z" />
<glyph unicode="&#xa7;" horiz-adv-x="1157" d="M152 928q0 113 43.5 218.5t122 187t197 130.5t257.5 49q87 0 162 -16l-41 -168q-79 27 -154 27q-115 0 -181 -52.5t-66 -138.5q0 -55 31.5 -110.5t82 -104.5t111.5 -101t121.5 -110.5t111 -122t82 -145.5t31.5 -172q0 -111 -42.5 -212.5t-120 -179.5t-196 -124.5 t-260.5 -46.5q-92 0 -184 20l35 170q82 -30 168 -30q72 0 125 18t80 48t39 61t12 65q0 56 -31.5 109t-81.5 98.5t-110 92.5t-120.5 101.5t-110.5 115.5t-81.5 144.5t-31.5 178.5zM301 938q0 -70 29.5 -134.5t76.5 -116t104.5 -100.5t116 -98t107.5 -98t82.5 -110.5 t38.5 -126.5q3 -24 -4 -58h10q51 86 51 205q0 72 -29 137t-76 116.5t-104.5 100.5t-115.5 97.5t-106.5 98t-81.5 112.5t-38 131q-3 24 3 51h-11q-53 -78 -53 -207z" />
<glyph unicode="&#xa8;" horiz-adv-x="1036" d="M145 1462q0 59 40 99.5t100 40.5t99.5 -40.5t39.5 -99.5q0 -58 -40 -97.5t-99 -39.5q-60 0 -100 40t-40 97zM610 1462q0 59 41 99.5t101 40.5t99.5 -40.5t39.5 -99.5q0 -58 -39.5 -97.5t-99.5 -39.5t-101 40t-41 97z" />
<glyph unicode="&#xa9;" horiz-adv-x="1710" d="M92 709q0 211 100.5 382.5t275.5 268t388 96.5q163 0 304 -55.5t241.5 -153t157.5 -236.5t57 -300q0 -211 -100 -382.5t-274.5 -268.5t-387.5 -97q-162 0 -303.5 56t-242 154.5t-158.5 237t-58 298.5zM279 711q0 -250 161.5 -410t415.5 -160q249 0 411.5 161t162.5 407 q0 252 -159.5 410.5t-416.5 158.5q-255 0 -415 -159t-160 -408zM518 709q0 196 95 310t264 114q102 0 162.5 -29.5t88.5 -67.5l-102 -127q-28 36 -61.5 54t-90.5 18q-169 0 -169 -268q0 -271 172 -271q56 0 90 19t59 53l98 -125q-90 -100 -252 -100q-175 0 -264.5 112 t-89.5 308z" />
<glyph unicode="&#xab;" horiz-adv-x="1155" d="M68 569l376 494l158 -127l-272 -367l272 -364l-158 -125zM551 569l377 494l159 -127l-272 -367l272 -364l-159 -125z" />
<glyph unicode="&#xac;" d="M43 727v186h1032v-553h-194v367h-838z" />
<glyph unicode="&#xad;" horiz-adv-x="749" d="M49 535v208h649v-208h-649z" />
<glyph unicode="&#xae;" horiz-adv-x="1024" d="M72 1014q0 199 126 318.5t314 119.5q190 0 315 -118.5t125 -317.5q0 -198 -124.5 -317t-317.5 -119q-190 0 -314 117.5t-124 316.5zM178 1016q0 -157 95 -248.5t237 -91.5q144 0 239 90.5t95 247.5q0 159 -96 249.5t-236 90.5q-143 0 -238.5 -89.5t-95.5 -248.5zM365 793 v467h155q74 0 119 -35t45 -105q0 -115 -86 -133l117 -194h-119l-92 170h-39v-170h-100zM465 1047h43q41 0 57.5 15.5t16.5 51.5q0 62 -66 62h-51v-129z" />
<glyph unicode="&#xaf;" horiz-adv-x="1036" d="M199 1331v199h639v-199h-639z" />
<glyph unicode="&#xb0;" horiz-adv-x="802" d="M84 1137q0 137 92 224t230 87q139 0 226 -83t87 -220q0 -138 -91.5 -226t-230.5 -88q-138 0 -225.5 84t-87.5 222zM236 1143q0 -75 48 -126.5t122 -51.5q75 0 117 48t42 124q0 75 -46.5 125.5t-121.5 50.5q-74 0 -117.5 -47.5t-43.5 -122.5z" />
<glyph unicode="&#xb1;" d="M63 33v203h392v370h-392v203h392v393h209v-393h391v-203h-391v-370h391v-203h-992z" />
<glyph unicode="&#xb2;" horiz-adv-x="772" d="M59 850q3 3 36 32.5t61.5 55t71.5 66t75.5 73t63.5 66t45 55.5q61 81 61 135q0 52 -26 78.5t-74 26.5q-49 0 -76.5 -34t-32.5 -85l-190 35q16 101 92.5 164t216.5 63q137 0 209 -63t72 -170q0 -123 -109 -248q-22 -28 -68.5 -75.5t-76.5 -74.5l-115 -100l156 6h231v-143 h-592z" />
<glyph unicode="&#xb3;" horiz-adv-x="763" d="M57 866l168 82q21 -48 61 -78t93 -30q70 0 98.5 31t28.5 90q0 58 -41.5 87t-136.5 29h-64v133h70q82 0 113.5 31t31.5 92q0 46 -29.5 77.5t-87.5 31.5q-43 0 -70.5 -29t-33.5 -76l-182 21q8 97 86.5 160t206.5 63q141 0 217 -55.5t76 -169.5q0 -151 -125 -197 q69 -11 112 -57t43 -129q0 -131 -90 -202t-248 -71q-114 0 -189.5 47.5t-107.5 118.5z" />
<glyph unicode="&#xb4;" horiz-adv-x="1036" d="M221 1380l367 293l225 -131l-455 -274z" />
<glyph unicode="&#xb5;" horiz-adv-x="1271" d="M152 -397v1538h251v-733q0 -113 50.5 -170.5t146.5 -57.5q120 0 174.5 65t54.5 193v703h252v-809q0 -139 99 -139q22 0 41 8v-185q-54 -28 -119 -28q-83 0 -141 41.5t-76 128.5h-8q-77 -174 -304 -174q-98 0 -172 51v-432h-249z" />
<glyph unicode="&#xb6;" horiz-adv-x="1241" d="M68 1010q0 206 127 316t342 110h221v-99l-99 -149v-1106q0 -308 -231 -483l-133 131q50 42 77 71.5t52 73.5t35 101.5t10 138.5v518q-24 -4 -51 -4q-167 0 -258.5 95t-91.5 286zM852 0v1436h184v-1436h-184z" />
<glyph unicode="&#xb7;" horiz-adv-x="555" d="M102 713q0 75 50 125.5t122 50.5q74 0 124.5 -50.5t50.5 -125.5q0 -71 -51 -120.5t-124 -49.5q-72 0 -122 49.5t-50 120.5z" />
<glyph unicode="&#xb8;" horiz-adv-x="1036" d="M358 -391q72 31 104 67.5t32 87.5q0 58 -52 123v9h199q35 -54 35 -136q0 -95 -60.5 -168t-183.5 -108z" />
<glyph unicode="&#xb9;" horiz-adv-x="649" d="M25 1399l303 170h194v-856h-192v463l4 219h-4l-113 -82l-98 -64z" />
<glyph unicode="&#xbb;" horiz-adv-x="1155" d="M68 205l272 364l-272 367l159 127l375 -494l-375 -489zM551 205l272 364l-272 367l160 127l376 -494l-376 -489z" />
<glyph unicode="&#xbf;" horiz-adv-x="888" d="M63 -8q0 126 49.5 215.5t170.5 195.5l268 234q113 -41 113 -141q0 -52 -35.5 -100t-86 -86.5t-101.5 -78.5t-86.5 -92t-35.5 -110q0 -74 45 -117t123 -43q46 0 85.5 11.5t70 33t48.5 38.5t38 40l166 -189q-146 -151 -432 -151q-187 0 -293.5 89t-106.5 251zM301 1001 q0 67 46.5 112.5t119.5 45.5q69 0 114.5 -45t45.5 -113q0 -73 -47 -120t-115 -47q-74 0 -119 46t-45 121z" />
<glyph unicode="&#xc0;" horiz-adv-x="1308" d="M25 0l444 1436h369l446 -1436h-268l-109 365h-516l-108 -365h-258zM356 1841l226 131l366 -293l-137 -112zM455 580h389l-90 307q-8 30 -28.5 101t-30.5 107t-22 84.5t-18 80.5h-8q-23 -109 -98 -367z" />
<glyph unicode="&#xc1;" horiz-adv-x="1308" d="M25 0l444 1436h369l446 -1436h-268l-109 365h-516l-108 -365h-258zM356 1679l367 293l225 -131l-454 -274zM455 580h389l-90 307q-8 30 -28.5 101t-30.5 107t-22 84.5t-18 80.5h-8q-23 -109 -98 -367z" />
<glyph unicode="&#xc2;" horiz-adv-x="1308" d="M25 0l444 1436h369l446 -1436h-268l-109 365h-516l-108 -365h-258zM242 1716l407 254l414 -254l-94 -151l-320 182l-321 -180zM455 580h389l-90 307q-8 30 -28.5 101t-30.5 107t-22 84.5t-18 80.5h-8q-23 -109 -98 -367z" />
<glyph unicode="&#xc3;" horiz-adv-x="1308" d="M25 0l444 1436h369l446 -1436h-268l-109 365h-516l-108 -365h-258zM266 1761q27 43 84 82t137 39q63 0 165 -40t143 -40q52 0 82 18.5t63 61.5l98 -147q-24 -43 -81 -83t-136 -40q-55 0 -161 40t-146 40q-48 0 -82.5 -18.5t-66.5 -59.5zM455 580h389l-90 307 q-8 30 -28.5 101t-30.5 107t-22 84.5t-18 80.5h-8q-23 -109 -98 -367z" />
<glyph unicode="&#xc4;" horiz-adv-x="1308" d="M25 0l444 1436h369l446 -1436h-268l-109 365h-516l-108 -365h-258zM281 1761q0 59 39.5 99.5t99.5 40.5t99.5 -40.5t39.5 -99.5q0 -57 -39.5 -97t-99.5 -40t-99.5 40t-39.5 97zM455 580h389l-90 307q-8 30 -28.5 101t-30.5 107t-22 84.5t-18 80.5h-8q-23 -109 -98 -367z M745 1761q0 59 41 99.5t101 40.5t99.5 -40.5t39.5 -99.5q0 -57 -40 -97t-99 -40q-60 0 -101 40t-41 97z" />
<glyph unicode="&#xc5;" horiz-adv-x="1308" d="M25 0l444 1436h369l446 -1436h-268l-109 365h-516l-108 -365h-258zM401 1755q0 107 69.5 177.5t182.5 70.5q114 0 182 -65.5t68 -170.5q0 -106 -70 -176.5t-184 -70.5t-181 64.5t-67 170.5zM455 580h389l-90 307q-8 30 -28.5 101t-30.5 107t-22 84.5t-18 80.5h-8 q-23 -109 -98 -367zM539 1763q0 -53 29.5 -84.5t84.5 -31.5q56 0 84.5 29t28.5 83t-29.5 85.5t-85.5 31.5q-55 0 -83.5 -30t-28.5 -83z" />
<glyph unicode="&#xc6;" horiz-adv-x="1837" d="M-12 0l745 1436h971v-215h-559v-385h483v-215h-483v-406h586v-215h-830v397h-438l-207 -397h-268zM569 610h332v623h-8z" />
<glyph unicode="&#xc7;" horiz-adv-x="1193" d="M106 705q0 351 159 550t458 199q275 0 422 -147l-166 -189q-32 33 -61 55t-87 42t-129 20q-333 0 -333 -512q0 -252 89.5 -386t266.5 -134q166 0 266 108l142 -182q-56 -62 -165.5 -105.5t-267.5 -43.5q-125 0 -224.5 34t-168 96t-114 152.5t-66.5 200t-21 242.5z M473 -391q72 31 103.5 67.5t31.5 87.5q0 59 -51 123v9h199q35 -54 35 -136q0 -95 -60.5 -168t-183.5 -108z" />
<glyph unicode="&#xc8;" horiz-adv-x="1126" d="M176 0v1436h817v-215h-561v-385h486v-215h-486v-406h588v-215h-844zM266 1841l226 131l366 -293l-137 -112z" />
<glyph unicode="&#xc9;" horiz-adv-x="1126" d="M176 0v1436h817v-215h-561v-385h486v-215h-486v-406h588v-215h-844zM266 1679l367 293l225 -131l-455 -274z" />
<glyph unicode="&#xca;" horiz-adv-x="1126" d="M152 1716l407 254l414 -254l-94 -151l-320 182l-321 -180zM176 0v1436h817v-215h-561v-385h486v-215h-486v-406h588v-215h-844z" />
<glyph unicode="&#xcb;" horiz-adv-x="1126" d="M176 0v1436h817v-215h-561v-385h486v-215h-486v-406h588v-215h-844zM188 1761q0 59 40 99.5t100 40.5t99.5 -40.5t39.5 -99.5q0 -57 -39.5 -97t-99.5 -40t-100 40t-40 97zM653 1761q0 59 41 99.5t101 40.5t99.5 -40.5t39.5 -99.5q0 -57 -40 -97t-99 -40q-60 0 -101 40 t-41 97z" />
<glyph unicode="&#xcc;" horiz-adv-x="645" d="M27 1841l225 131l366 -293l-137 -112zM195 0v1436h256v-1436h-256z" />
<glyph unicode="&#xcd;" horiz-adv-x="645" d="M27 1679l366 293l225 -131l-454 -274zM195 0v1436h256v-1436h-256z" />
<glyph unicode="&#xce;" horiz-adv-x="645" d="M-88 1716l407 254l414 -254l-94 -151l-320 182l-321 -180zM195 0v1436h256v-1436h-256z" />
<glyph unicode="&#xcf;" horiz-adv-x="645" d="M-49 1761q0 59 39.5 99.5t99.5 40.5t99.5 -40.5t39.5 -99.5q0 -57 -39.5 -97t-99.5 -40t-99.5 40t-39.5 97zM195 0v1436h256v-1436h-256zM416 1761q0 59 40.5 99.5t100.5 40.5t99.5 -40.5t39.5 -99.5q0 -57 -40 -97t-99 -40q-60 0 -100.5 40t-40.5 97z" />
<glyph unicode="&#xd0;" horiz-adv-x="1376" d="M35 666v174h158v596h419q338 0 498 -170.5t160 -522.5q0 -126 -20.5 -233.5t-68.5 -203t-122.5 -162.5t-188 -105.5t-258.5 -38.5h-419v666h-158zM446 215h152q219 0 314.5 125t95.5 379q0 139 -28.5 237t-84 155.5t-130 83.5t-173.5 26h-146v-381h279v-174h-279v-451z " />
<glyph unicode="&#xd1;" horiz-adv-x="1472" d="M180 0v1436h320l364 -697q156 -305 189 -395h10q-10 141 -10 487v605h241v-1436h-313l-381 723q-131 261 -180 395h-10q14 -140 14 -454v-664h-244zM348 1761q27 43 84 82t137 39q63 0 165 -40t143 -40q52 0 82 18.5t63 61.5l98 -147q-24 -43 -81 -83t-136 -40 q-55 0 -161.5 40t-145.5 40q-90 0 -150 -78z" />
<glyph unicode="&#xd2;" horiz-adv-x="1411" d="M125 709q0 193 42.5 338t121.5 233.5t185 132t239 43.5q135 0 238 -40t179.5 -125.5t116 -227.5t39.5 -338q0 -192 -43 -336.5t-123 -233t-186.5 -132t-239.5 -43.5q-135 0 -238 39.5t-178 125t-114 227t-39 337.5zM387 727q0 -284 83 -407t241 -123q74 0 129 26 t96.5 84.5t62.5 159.5t21 244q0 282 -83 405t-241 123q-72 0 -126.5 -25.5t-96.5 -83t-64 -159t-22 -244.5zM408 1841l225 131l366 -293l-137 -112z" />
<glyph unicode="&#xd3;" horiz-adv-x="1411" d="M125 709q0 193 42.5 338t121.5 233.5t185 132t239 43.5q135 0 238 -40t179.5 -125.5t116 -227.5t39.5 -338q0 -192 -43 -336.5t-123 -233t-186.5 -132t-239.5 -43.5q-135 0 -238 39.5t-178 125t-114 227t-39 337.5zM387 727q0 -284 83 -407t241 -123q74 0 129 26 t96.5 84.5t62.5 159.5t21 244q0 282 -83 405t-241 123q-72 0 -126.5 -25.5t-96.5 -83t-64 -159t-22 -244.5zM408 1679l366 293l225 -131l-454 -274z" />
<glyph unicode="&#xd4;" horiz-adv-x="1411" d="M125 709q0 193 42.5 338t121.5 233.5t185 132t239 43.5q135 0 238 -40t179.5 -125.5t116 -227.5t39.5 -338q0 -192 -43 -336.5t-123 -233t-186.5 -132t-239.5 -43.5q-135 0 -238 39.5t-178 125t-114 227t-39 337.5zM293 1716l407 254l414 -254l-94 -151l-320 182 l-321 -180zM387 727q0 -284 83 -407t241 -123q74 0 129 26t96.5 84.5t62.5 159.5t21 244q0 282 -83 405t-241 123q-72 0 -126.5 -25.5t-96.5 -83t-64 -159t-22 -244.5z" />
<glyph unicode="&#xd5;" horiz-adv-x="1411" d="M125 709q0 193 42.5 338t121.5 233.5t185 132t239 43.5q135 0 238 -40t179.5 -125.5t116 -227.5t39.5 -338q0 -192 -43 -336.5t-123 -233t-186.5 -132t-239.5 -43.5q-135 0 -238 39.5t-178 125t-114 227t-39 337.5zM317 1761q27 43 84.5 82t137.5 39q63 0 164.5 -40 t142.5 -40q52 0 82 18.5t63 61.5l99 -147q-24 -43 -81.5 -83t-136.5 -40q-54 0 -161 40t-146 40q-48 0 -82.5 -18.5t-66.5 -59.5zM387 727q0 -284 83 -407t241 -123q74 0 129 26t96.5 84.5t62.5 159.5t21 244q0 282 -83 405t-241 123q-72 0 -126.5 -25.5t-96.5 -83t-64 -159 t-22 -244.5z" />
<glyph unicode="&#xd6;" horiz-adv-x="1411" d="M125 709q0 193 42.5 338t121.5 233.5t185 132t239 43.5q135 0 238 -40t179.5 -125.5t116 -227.5t39.5 -338q0 -192 -43 -336.5t-123 -233t-186.5 -132t-239.5 -43.5q-135 0 -238 39.5t-178 125t-114 227t-39 337.5zM332 1761q0 59 39.5 99.5t99.5 40.5t99.5 -40.5 t39.5 -99.5q0 -57 -40 -97t-99 -40t-99 40t-40 97zM387 727q0 -284 83 -407t241 -123q74 0 129 26t96.5 84.5t62.5 159.5t21 244q0 282 -83 405t-241 123q-72 0 -126.5 -25.5t-96.5 -83t-64 -159t-22 -244.5zM797 1761q0 59 40.5 99.5t100.5 40.5t99.5 -40.5t39.5 -99.5 q0 -57 -39.5 -97t-99.5 -40t-100.5 40t-40.5 97z" />
<glyph unicode="&#xd7;" d="M119 410l305 299l-305 299l143 139l297 -305l299 307l141 -143l-305 -299l305 -297l-141 -142l-299 303l-297 -303z" />
<glyph unicode="&#xd8;" horiz-adv-x="1411" d="M106 -14l130 196q-130 181 -130 527q0 193 45 338t127 233.5t191 132t244 43.5q183 0 313 -78l53 78h226v-6l-134 -199q134 -190 134 -526q0 -192 -45.5 -337t-128.5 -233t-192.5 -131.5t-244.5 -43.5q-188 0 -313 75l-49 -75h-226v6zM369 727q0 -173 39 -285l485 734 q-74 63 -197 63q-76 0 -133.5 -25.5t-102 -83t-68 -159t-23.5 -244.5zM516 260q77 -63 195 -63q77 0 135 26t103 84.5t68 159.5t23 244q0 167 -39 282z" />
<glyph unicode="&#xd9;" horiz-adv-x="1417" d="M170 489v947h256v-899q0 -338 293 -338q134 0 203 73t69 234v930h256v-895q0 -147 -42.5 -257t-119.5 -175.5t-177 -97t-222 -31.5q-257 0 -386.5 137t-129.5 372zM412 1841l225 131l367 -293l-138 -112z" />
<glyph unicode="&#xda;" horiz-adv-x="1417" d="M170 489v947h256v-899q0 -338 293 -338q134 0 203 73t69 234v930h256v-895q0 -147 -42.5 -257t-119.5 -175.5t-177 -97t-222 -31.5q-257 0 -386.5 137t-129.5 372zM412 1679l366 293l226 -131l-455 -274z" />
<glyph unicode="&#xdb;" horiz-adv-x="1417" d="M170 489v947h256v-899q0 -338 293 -338q134 0 203 73t69 234v930h256v-895q0 -147 -42.5 -257t-119.5 -175.5t-177 -97t-222 -31.5q-257 0 -386.5 137t-129.5 372zM297 1716l408 254l413 -254l-94 -151l-319 182l-322 -180z" />
<glyph unicode="&#xdc;" horiz-adv-x="1417" d="M170 489v947h256v-899q0 -338 293 -338q134 0 203 73t69 234v930h256v-895q0 -147 -42.5 -257t-119.5 -175.5t-177 -97t-222 -31.5q-257 0 -386.5 137t-129.5 372zM334 1761q0 59 39.5 99.5t99.5 40.5t99.5 -40.5t39.5 -99.5q0 -57 -40 -97t-99 -40t-99 40t-40 97z M799 1761q0 59 40.5 99.5t100.5 40.5t99.5 -40.5t39.5 -99.5q0 -57 -39.5 -97t-99.5 -40t-100.5 40t-40.5 97z" />
<glyph unicode="&#xdd;" horiz-adv-x="1216" d="M0 1436l481 -953v-483h256v483l480 953h-273l-326 -695h-8l-323 695h-287zM311 1679l367 293l225 -131l-454 -274z" />
<glyph unicode="&#xde;" horiz-adv-x="1144" d="M176 0v1436h254v-258q9 4 82.5 7t101.5 3q105 0 187.5 -23.5t146.5 -72.5t98.5 -132.5t34.5 -197.5q0 -110 -29.5 -198.5t-90.5 -155t-162 -102.5t-236 -36q-109 0 -133 6v-276h-254zM432 494q21 -9 109 -9q81 0 137 19t85 54t41.5 76t12.5 93q0 121 -61.5 180.5 t-190.5 59.5q-16 0 -72 -3t-61 -6v-464z" />
<glyph unicode="&#xdf;" horiz-adv-x="1275" d="M152 0v1092q0 234 122 356.5t338 122.5q201 0 311.5 -96t110.5 -248q0 -67 -21 -127t-51 -101.5t-59.5 -76.5t-50.5 -66t-21 -55q0 -23 22 -45t57 -43t77.5 -44.5t85 -55.5t77.5 -70t57 -93.5t22 -121.5q0 -70 -25.5 -132t-75 -111.5t-132.5 -78.5t-189 -29 q-182 0 -309 80l102 197q103 -72 223 -72q78 0 122 37t44 98q0 40 -23 74t-59.5 59t-80.5 49t-88 50t-80.5 55.5t-59.5 71t-23 90.5q0 44 22.5 88.5t54.5 82t64 76t54.5 86t22.5 97.5q0 82 -49.5 125t-135.5 43q-211 0 -211 -266v-1098h-245z" />
<glyph unicode="&#xe0;" horiz-adv-x="1130" d="M90 291q0 127 76.5 212t214 123t326.5 31v103q0 106 -49.5 149t-143.5 43q-152 0 -219 -131l-180 135q148 203 399 203q212 0 321 -86.5t109 -277.5v-480q0 -122 90 -122h31v-177q-45 -28 -117 -28q-149 0 -207 129h-8q-109 -137 -309 -137q-155 0 -244.5 91.5 t-89.5 219.5zM268 1542l226 131l366 -293l-137 -112zM338 313q0 -61 40 -99t111 -38q69 0 127 31t91 78v196q-175 9 -272 -33t-97 -135z" />
<glyph unicode="&#xe1;" horiz-adv-x="1130" d="M90 291q0 127 76.5 212t214 123t326.5 31v103q0 106 -49.5 149t-143.5 43q-152 0 -219 -131l-180 135q148 203 399 203q212 0 321 -86.5t109 -277.5v-480q0 -122 90 -122h31v-177q-45 -28 -117 -28q-149 0 -207 129h-8q-109 -137 -309 -137q-155 0 -244.5 91.5 t-89.5 219.5zM268 1380l367 293l225 -131l-454 -274zM338 313q0 -61 40 -99t111 -38q69 0 127 31t91 78v196q-175 9 -272 -33t-97 -135z" />
<glyph unicode="&#xe2;" horiz-adv-x="1130" d="M90 291q0 127 76.5 212t214 123t326.5 31v103q0 106 -49.5 149t-143.5 43q-152 0 -219 -131l-180 135q148 203 399 203q212 0 321 -86.5t109 -277.5v-480q0 -122 90 -122h31v-177q-45 -28 -117 -28q-149 0 -207 129h-8q-109 -137 -309 -137q-155 0 -244.5 91.5 t-89.5 219.5zM154 1417l407 254l414 -254l-94 -151l-320 182l-321 -180zM338 313q0 -61 40 -99t111 -38q69 0 127 31t91 78v196q-175 9 -272 -33t-97 -135z" />
<glyph unicode="&#xe3;" horiz-adv-x="1130" d="M90 291q0 127 76.5 212t214 123t326.5 31v103q0 106 -49.5 149t-143.5 43q-152 0 -219 -131l-180 135q148 203 399 203q212 0 321 -86.5t109 -277.5v-480q0 -122 90 -122h31v-177q-45 -28 -117 -28q-149 0 -207 129h-8q-109 -137 -309 -137q-155 0 -244.5 91.5 t-89.5 219.5zM178 1462q27 43 84 82t137 39q63 0 165 -40t143 -40q52 0 82 18.5t63 61.5l98 -147q-24 -43 -81 -83t-136 -40q-55 0 -161 40t-146 40q-90 0 -150 -78zM338 313q0 -61 40 -99t111 -38q69 0 127 31t91 78v196q-175 9 -272 -33t-97 -135z" />
<glyph unicode="&#xe4;" horiz-adv-x="1130" d="M90 291q0 127 76.5 212t214 123t326.5 31v103q0 106 -49.5 149t-143.5 43q-152 0 -219 -131l-180 135q148 203 399 203q212 0 321 -86.5t109 -277.5v-480q0 -122 90 -122h31v-177q-45 -28 -117 -28q-149 0 -207 129h-8q-109 -137 -309 -137q-155 0 -244.5 91.5 t-89.5 219.5zM193 1462q0 59 39.5 99.5t99.5 40.5t99.5 -40.5t39.5 -99.5q0 -58 -39.5 -97.5t-99.5 -39.5t-99.5 39.5t-39.5 97.5zM338 313q0 -61 40 -99t111 -38q69 0 127 31t91 78v196q-175 9 -272 -33t-97 -135zM657 1462q0 59 41 99.5t101 40.5t99.5 -40.5t39.5 -99.5 q0 -58 -40 -97.5t-99 -39.5q-60 0 -101 40t-41 97z" />
<glyph unicode="&#xe5;" horiz-adv-x="1130" d="M90 291q0 127 76.5 212t214 123t326.5 31v103q0 106 -49.5 149t-143.5 43q-152 0 -219 -131l-180 135q148 203 399 203q212 0 321 -86.5t109 -277.5v-480q0 -122 90 -122h31v-177q-45 -28 -117 -28q-149 0 -207 129h-8q-109 -137 -309 -137q-155 0 -244.5 91.5 t-89.5 219.5zM313 1456q0 107 69.5 177.5t182.5 70.5q114 0 182 -65.5t68 -170.5q0 -106 -70 -176.5t-184 -70.5t-181 64.5t-67 170.5zM338 313q0 -61 40 -99t111 -38q69 0 127 31t91 78v196q-175 9 -272 -33t-97 -135zM451 1464q0 -53 29.5 -84.5t84.5 -31.5q56 0 84.5 29 t28.5 83t-29.5 85.5t-85.5 31.5q-55 0 -83.5 -30t-28.5 -83z" />
<glyph unicode="&#xe6;" horiz-adv-x="1761" d="M51 291q0 66 18 119.5t64.5 103.5t120 84t191 54t270.5 20v80q0 96 -51.5 148t-149.5 52q-162 0 -254 -129l-156 172q132 164 416 164q270 0 357 -153h8q114 155 329 155q217 0 335 -124t118 -341q0 -106 -20 -198h-695q12 -165 88.5 -239.5t223.5 -74.5q161 0 272 111 l127 -172q-143 -143 -424 -143q-161 0 -254.5 47t-144.5 133h-9q-31 -58 -71.5 -96t-123 -64.5t-202.5 -26.5q-98 0 -174 26t-120.5 71t-66.5 101t-22 120zM305 317q0 -60 46.5 -105.5t127.5 -45.5q236 0 236 235v99q-217 0 -313.5 -41t-96.5 -142zM954 680h463q2 8 2 43 q0 123 -59.5 182.5t-163.5 59.5q-99 0 -165 -69.5t-77 -215.5z" />
<glyph unicode="&#xe7;" horiz-adv-x="1007" d="M90 557q0 297 139.5 450.5t372.5 153.5q130 0 224 -40.5t145 -106.5l-170 -166q-79 102 -203 102q-121 0 -185.5 -86.5t-64.5 -283.5q0 -390 248 -390q134 0 205 103l160 -154q-122 -159 -388 -159q-483 0 -483 577zM418 -391q72 31 103.5 67.5t31.5 87.5q0 59 -51 123v9 h198q35 -54 35 -136q0 -95 -60 -168t-183 -108z" />
<glyph unicode="&#xe8;" horiz-adv-x="1146" d="M90 573q0 282 141.5 435t374.5 153q210 0 326.5 -123t116.5 -333q0 -94 -13 -201h-698q6 -164 80.5 -242t228.5 -78q82 0 148.5 29t107.5 68l111 -183q-150 -118 -396 -118q-528 0 -528 593zM276 1542l226 131l366 -293l-137 -112zM342 680h467v45q0 240 -213 240 q-109 0 -178.5 -74.5t-75.5 -210.5z" />
<glyph unicode="&#xe9;" horiz-adv-x="1146" d="M90 573q0 282 141.5 435t374.5 153q210 0 326.5 -123t116.5 -333q0 -94 -13 -201h-698q6 -164 80.5 -242t228.5 -78q82 0 148.5 29t107.5 68l111 -183q-150 -118 -396 -118q-528 0 -528 593zM276 1380l367 293l225 -131l-454 -274zM342 680h467v45q0 240 -213 240 q-109 0 -178.5 -74.5t-75.5 -210.5z" />
<glyph unicode="&#xea;" horiz-adv-x="1146" d="M90 573q0 282 141.5 435t374.5 153q210 0 326.5 -123t116.5 -333q0 -94 -13 -201h-698q6 -164 80.5 -242t228.5 -78q82 0 148.5 29t107.5 68l111 -183q-150 -118 -396 -118q-528 0 -528 593zM162 1417l407 254l414 -254l-94 -151l-320 182l-321 -180zM342 680h467v45 q0 240 -213 240q-109 0 -178.5 -74.5t-75.5 -210.5z" />
<glyph unicode="&#xeb;" horiz-adv-x="1146" d="M90 573q0 282 141.5 435t374.5 153q210 0 326.5 -123t116.5 -333q0 -94 -13 -201h-698q6 -164 80.5 -242t228.5 -78q82 0 148.5 29t107.5 68l111 -183q-150 -118 -396 -118q-528 0 -528 593zM199 1462q0 59 39.5 99.5t99.5 40.5t99.5 -40.5t39.5 -99.5q0 -58 -39.5 -97.5 t-99.5 -39.5t-99.5 39.5t-39.5 97.5zM342 680h467v45q0 240 -213 240q-109 0 -178.5 -74.5t-75.5 -210.5zM664 1462q0 59 40.5 99.5t100.5 40.5t99.5 -40.5t39.5 -99.5q0 -58 -40 -97.5t-99 -39.5q-60 0 -100.5 40t-40.5 97z" />
<glyph unicode="&#xec;" horiz-adv-x="600" d="M4 1542l225 131l367 -293l-137 -112zM176 0v1141h252v-1141h-252z" />
<glyph unicode="&#xed;" horiz-adv-x="600" d="M4 1380l367 293l225 -131l-455 -274zM176 0v1141h252v-1141h-252z" />
<glyph unicode="&#xee;" horiz-adv-x="600" d="M-111 1417l408 254l414 -254l-95 -151l-319 182l-322 -180zM176 0v1141h252v-1141h-252z" />
<glyph unicode="&#xef;" horiz-adv-x="600" d="M-72 1462q0 59 40 99.5t100 40.5t99.5 -40.5t39.5 -99.5q0 -58 -39.5 -97.5t-99.5 -39.5t-100 40t-40 97zM176 0v1141h252v-1141h-252zM393 1462q0 59 41 99.5t101 40.5t99.5 -40.5t39.5 -99.5q0 -58 -40 -97.5t-99 -39.5q-60 0 -101 40t-41 97z" />
<glyph unicode="&#xf0;" horiz-adv-x="1134" d="M106 442q0 97 24.5 177t66 135t97.5 93t117.5 55.5t127.5 17.5q111 0 194 -33l2 2q-38 117 -127 227l-340 -151v153l228 107q-111 92 -314 192v19h359q90 -51 166 -121l290 131v-154l-190 -90q101 -129 160 -289t59 -333q0 -285 -124.5 -438.5t-350.5 -153.5 q-203 0 -324 119.5t-121 334.5zM348 461q0 -130 61.5 -198t159.5 -68q116 0 173 79t57 256q0 76 -13 146q-35 19 -92.5 33t-113.5 14q-113 0 -172.5 -62t-59.5 -200z" />
<glyph unicode="&#xf1;" horiz-adv-x="1222" d="M152 0v1141h194l51 -113h9q46 57 130 98t183 41q172 0 264.5 -95t93.5 -284v-788h-254v733q0 105 -48 161t-140 56q-80 0 -141.5 -44t-90.5 -115v-791h-251zM225 1462q27 43 84 82t137 39q63 0 165 -40t143 -40q52 0 82 18.5t63 61.5l98 -147q-24 -43 -81 -83t-136 -40 q-55 0 -161.5 40t-145.5 40q-48 0 -82.5 -18.5t-66.5 -59.5z" />
<glyph unicode="&#xf2;" horiz-adv-x="1185" d="M90 565q0 136 28.5 242.5t87.5 187t158 123.5t234 43q138 0 236 -41t154.5 -120.5t82 -183.5t25.5 -241q0 -135 -28.5 -242t-88 -187t-158.5 -123t-233 -43q-137 0 -235.5 41.5t-155 121t-82 183t-25.5 239.5zM295 1542l225 131l367 -293l-137 -112zM350 578 q0 -200 58.5 -298t189.5 -98t185.5 91.5t54.5 289.5q0 200 -59.5 297.5t-192.5 97.5q-125 0 -180.5 -92t-55.5 -288z" />
<glyph unicode="&#xf3;" horiz-adv-x="1185" d="M90 565q0 136 28.5 242.5t87.5 187t158 123.5t234 43q138 0 236 -41t154.5 -120.5t82 -183.5t25.5 -241q0 -135 -28.5 -242t-88 -187t-158.5 -123t-233 -43q-137 0 -235.5 41.5t-155 121t-82 183t-25.5 239.5zM295 1380l367 293l225 -131l-455 -274zM350 578 q0 -200 58.5 -298t189.5 -98t185.5 91.5t54.5 289.5q0 200 -59.5 297.5t-192.5 97.5q-125 0 -180.5 -92t-55.5 -288z" />
<glyph unicode="&#xf4;" horiz-adv-x="1185" d="M90 565q0 136 28.5 242.5t87.5 187t158 123.5t234 43q138 0 236 -41t154.5 -120.5t82 -183.5t25.5 -241q0 -135 -28.5 -242t-88 -187t-158.5 -123t-233 -43q-137 0 -235.5 41.5t-155 121t-82 183t-25.5 239.5zM180 1417l408 254l413 -254l-94 -151l-319 182l-322 -180z M350 578q0 -200 58.5 -298t189.5 -98t185.5 91.5t54.5 289.5q0 200 -59.5 297.5t-192.5 97.5q-125 0 -180.5 -92t-55.5 -288z" />
<glyph unicode="&#xf5;" horiz-adv-x="1185" d="M90 565q0 136 28.5 242.5t87.5 187t158 123.5t234 43q138 0 236 -41t154.5 -120.5t82 -183.5t25.5 -241q0 -135 -28.5 -242t-88 -187t-158.5 -123t-233 -43q-137 0 -235.5 41.5t-155 121t-82 183t-25.5 239.5zM205 1462q27 43 84 82t137 39q63 0 164.5 -40t142.5 -40 q52 0 83 19t63 61l98 -147q-24 -43 -81 -83t-136 -40q-54 0 -161 40t-146 40q-90 0 -150 -78zM350 578q0 -200 58.5 -298t189.5 -98t185.5 91.5t54.5 289.5q0 200 -59.5 297.5t-192.5 97.5q-125 0 -180.5 -92t-55.5 -288z" />
<glyph unicode="&#xf6;" horiz-adv-x="1185" d="M90 565q0 136 28.5 242.5t87.5 187t158 123.5t234 43q138 0 236 -41t154.5 -120.5t82 -183.5t25.5 -241q0 -135 -28.5 -242t-88 -187t-158.5 -123t-233 -43q-137 0 -235.5 41.5t-155 121t-82 183t-25.5 239.5zM219 1462q0 59 39.5 99.5t99.5 40.5t100 -40.5t40 -99.5 q0 -57 -40 -97t-100 -40t-99.5 39.5t-39.5 97.5zM350 578q0 -200 58.5 -298t189.5 -98t185.5 91.5t54.5 289.5q0 200 -59.5 297.5t-192.5 97.5q-125 0 -180.5 -92t-55.5 -288zM684 1462q0 59 40.5 99.5t100.5 40.5t100 -40.5t40 -99.5q0 -57 -40 -97t-100 -40t-100.5 40 t-40.5 97z" />
<glyph unicode="&#xf7;" d="M63 606v203h992v-203h-992zM408 328q0 62 43 104.5t106 42.5q64 0 107 -42.5t43 -104.5t-43 -105t-107 -43q-63 0 -106 43t-43 105zM408 1085q0 63 43 106.5t106 43.5q64 0 107 -43.5t43 -106.5q0 -61 -43 -104t-107 -43q-63 0 -106 43t-43 104z" />
<glyph unicode="&#xf8;" horiz-adv-x="1185" d="M90 565q0 136 28.5 242.5t87.5 187t158 123.5t234 43q147 0 252 -51l37 51h209v-6l-107 -158q107 -141 107 -422q0 -135 -28.5 -242t-88 -187t-158.5 -123t-233 -43q-150 0 -252 51l-35 -51h-209v6l105 155q-107 146 -107 424zM344 578q0 -106 23 -187l356 529 q-52 38 -137 38q-125 0 -183.5 -92.5t-58.5 -287.5zM463 219q52 -37 135 -37q132 0 189 92.5t57 288.5q0 105 -23 185z" />
<glyph unicode="&#xf9;" horiz-adv-x="1228" d="M145 371v770h254v-740q0 -223 195 -223q100 0 160.5 57t70.5 132v774h252v-1141h-209l-39 111h-8q-104 -134 -309 -134q-364 0 -367 394zM317 1542l226 131l366 -293l-137 -112z" />
<glyph unicode="&#xfa;" horiz-adv-x="1228" d="M145 371v770h254v-740q0 -223 195 -223q100 0 160.5 57t70.5 132v774h252v-1141h-209l-39 111h-8q-104 -134 -309 -134q-364 0 -367 394zM317 1380l367 293l225 -131l-454 -274z" />
<glyph unicode="&#xfb;" horiz-adv-x="1228" d="M145 371v770h254v-740q0 -223 195 -223q100 0 160.5 57t70.5 132v774h252v-1141h-209l-39 111h-8q-104 -134 -309 -134q-364 0 -367 394zM203 1417l407 254l414 -254l-94 -151l-320 182l-321 -180z" />
<glyph unicode="&#xfc;" horiz-adv-x="1228" d="M145 371v770h254v-740q0 -223 195 -223q100 0 160.5 57t70.5 132v774h252v-1141h-209l-39 111h-8q-104 -134 -309 -134q-364 0 -367 394zM240 1462q0 59 39.5 99.5t99.5 40.5t99.5 -40.5t39.5 -99.5q0 -58 -40 -97.5t-99 -39.5t-99 39.5t-40 97.5zM705 1462 q0 59 40.5 99.5t100.5 40.5t99.5 -40.5t39.5 -99.5q0 -58 -39.5 -97.5t-99.5 -39.5t-100.5 40t-40.5 97z" />
<glyph unicode="&#xfd;" horiz-adv-x="1079" d="M23 1141h280l150 -453q82 -251 110 -403h8q27 163 97 403l133 453h260l-389 -1207q-27 -82 -63.5 -145t-89 -115t-127.5 -80t-169 -28q-76 0 -151 31l41 210q53 -24 118 -24q90 0 142.5 50.5t72.5 154.5zM244 1380l366 293l226 -131l-455 -274z" />
<glyph unicode="&#xfe;" horiz-adv-x="1191" d="M152 -395v1943h245v-501h9q33 43 104 76.5t166 33.5q194 0 310 -138.5t116 -404.5q0 -149 -40.5 -268.5t-112 -196t-167.5 -117t-209 -40.5q-104 0 -172 18v-405h-249zM399 229q59 -30 154 -30q137 0 215 93t78 296q0 185 -70.5 273.5t-179.5 88.5q-78 0 -131.5 -45 t-65.5 -127v-549z" />
<glyph unicode="&#xff;" horiz-adv-x="1079" d="M23 1141h280l150 -453q82 -251 110 -403h8q27 163 97 403l133 453h260l-389 -1207q-27 -82 -63.5 -145t-89 -115t-127.5 -80t-169 -28q-76 0 -151 31l41 210q53 -24 118 -24q90 0 142.5 50.5t72.5 154.5zM166 1462q0 59 39.5 99.5t99.5 40.5t99.5 -40.5t39.5 -99.5 q0 -58 -40 -97.5t-99 -39.5t-99 39.5t-40 97.5zM631 1462q0 59 40.5 99.5t100.5 40.5t99.5 -40.5t39.5 -99.5q0 -58 -39.5 -97.5t-99.5 -39.5t-100.5 40t-40.5 97z" />
<glyph unicode="&#x152;" horiz-adv-x="2007" d="M106 709q0 193 45 338t127.5 233.5t191.5 132t245 43.5q267 0 366 -147h2v127h791v-215h-569v-385h495v-215h-495v-406h596v-215h-818v145h-2q-44 -74 -142 -119.5t-245 -45.5q-588 0 -588 729zM369 727q0 -280 92 -405t252 -125q78 0 136 26t102.5 84.5t67.5 159.5 t23 244q0 528 -342 528q-76 0 -134.5 -25.5t-103.5 -83t-69 -159t-24 -244.5z" />
<glyph unicode="&#x153;" horiz-adv-x="1894" d="M90 565q0 136 27.5 242.5t86.5 187t158 123.5t234 43q257 0 362 -176h11q122 176 379 176q216 0 334 -124.5t118 -340.5q0 -106 -20 -198h-693q0 -4 1 -10l2 -5q18 -157 93.5 -228t213.5 -71q161 0 272 111l127 -172q-143 -143 -424 -143q-288 0 -405 186h-9 q-57 -91 -145.5 -138.5t-224.5 -47.5q-137 0 -235.5 41.5t-155 121t-82 183t-25.5 239.5zM350 578q0 -199 60 -297.5t190 -98.5q133 0 186.5 91t53.5 294q0 196 -62 293.5t-194 97.5q-127 0 -180.5 -91t-53.5 -289zM1090 680h460q2 8 2 43q0 123 -58.5 182.5t-162.5 59.5 q-205 0 -239 -271q0 -2 -1 -7t-1 -7z" />
<glyph unicode="&#x178;" horiz-adv-x="1216" d="M0 1436l481 -953v-483h256v483l480 953h-273l-326 -695h-8l-323 695h-287zM236 1761q0 59 39.5 99.5t99.5 40.5t99.5 -40.5t39.5 -99.5q0 -57 -40 -97t-99 -40t-99 40t-40 97zM700 1761q0 59 41 99.5t101 40.5t99.5 -40.5t39.5 -99.5q0 -57 -39.5 -97t-99.5 -40t-101 40 t-41 97z" />
<glyph unicode="&#x2c6;" horiz-adv-x="1036" d="M106 1417l408 254l414 -254l-94 -151l-320 182l-321 -180z" />
<glyph unicode="&#x2dc;" horiz-adv-x="1036" d="M131 1462q27 43 84 82t137 39q63 0 164.5 -40t142.5 -40q52 0 83 19t63 61l98 -147q-24 -43 -81 -83t-136 -40q-54 0 -161 40t-146 40q-90 0 -150 -78z" />
<glyph unicode="&#x2000;" horiz-adv-x="1001" />
<glyph unicode="&#x2001;" horiz-adv-x="2003" />
<glyph unicode="&#x2002;" horiz-adv-x="1001" />
<glyph unicode="&#x2003;" horiz-adv-x="2003" />
<glyph unicode="&#x2004;" horiz-adv-x="667" />
<glyph unicode="&#x2005;" horiz-adv-x="500" />
<glyph unicode="&#x2006;" horiz-adv-x="333" />
<glyph unicode="&#x2007;" horiz-adv-x="333" />
<glyph unicode="&#x2008;" horiz-adv-x="250" />
<glyph unicode="&#x2009;" horiz-adv-x="400" />
<glyph unicode="&#x200a;" horiz-adv-x="111" />
<glyph unicode="&#x2010;" horiz-adv-x="749" d="M49 535v208h649v-208h-649z" />
<glyph unicode="&#x2011;" horiz-adv-x="749" d="M49 535v208h649v-208h-649z" />
<glyph unicode="&#x2012;" horiz-adv-x="749" d="M49 535v208h649v-208h-649z" />
<glyph unicode="&#x2013;" horiz-adv-x="935" d="M6 535v208h926v-208h-926z" />
<glyph unicode="&#x2014;" horiz-adv-x="1503" d="M6 535v208h1491v-208h-1491z" />
<glyph unicode="&#x2018;" horiz-adv-x="542" d="M76 1083q0 86 31 163t82 132.5t110 94t121 59.5l55 -107q-98 -35 -150.5 -94t-52.5 -121q0 -14 3.5 -28t7 -24.5t13 -22t15.5 -19t20.5 -18t21 -15.5t25 -15.5t24 -13.5t26.5 -13.5l25 -12.5v-12q0 -73 -46.5 -122.5t-123.5 -49.5q-94 0 -150.5 66.5t-56.5 172.5z" />
<glyph unicode="&#x2019;" horiz-adv-x="542" d="M68 950q98 35 150 94t52 121q0 33 -13 59.5t-40.5 48t-50 35t-60.5 32.5q-11 5 -16 8v12q0 73 47 122.5t123 49.5q94 0 150.5 -67t56.5 -173q0 -86 -31 -163t-82 -132t-110 -93.5t-121 -59.5z" />
<glyph unicode="&#x201a;" horiz-adv-x="563" d="M61 -221q90 39 140.5 92t50.5 115q0 56 -33.5 91t-99.5 60v25q0 64 45.5 109.5t116.5 45.5q86 0 138 -60t52 -159q0 -76 -28.5 -148.5t-76 -128.5t-106.5 -97t-121 -62z" />
<glyph unicode="&#x201c;" horiz-adv-x="1032" d="M76 1083q0 86 31 163t82 132.5t110 94t121 59.5l55 -107q-98 -35 -150.5 -94t-52.5 -121q0 -14 3.5 -28t7 -24.5t13 -22t15.5 -19t20.5 -18t21 -15.5t25 -15.5t24 -13.5t26.5 -13.5l25 -12.5v-12q0 -73 -46.5 -122.5t-123.5 -49.5q-94 0 -150.5 66.5t-56.5 172.5z M565 1083q0 86 31 163t81.5 132.5t109.5 94t122 59.5l54 -107q-97 -35 -150 -94.5t-53 -120.5q0 -32 13 -58.5t40 -48t49 -34.5t60 -32l18 -9v-12q0 -73 -46 -122.5t-122 -49.5q-94 0 -150.5 66.5t-56.5 172.5z" />
<glyph unicode="&#x201d;" horiz-adv-x="1032" d="M68 950q98 35 150 94t52 121q0 33 -13 59.5t-40.5 48t-50 35t-60.5 32.5q-11 5 -16 8v12q0 73 47 122.5t123 49.5q94 0 150.5 -67t56.5 -173q0 -86 -31 -163t-82 -132t-110 -93.5t-121 -59.5zM555 950q99 35 152 94t53 121q0 33 -13 59.5t-42 49t-50 34.5t-63 33 q-9 5 -14 7v12q0 73 47 122.5t123 49.5q94 0 150 -67t56 -173q0 -86 -31 -163t-81.5 -132t-109.5 -93.5t-122 -59.5z" />
<glyph unicode="&#x201e;" horiz-adv-x="1050" d="M78 -246q98 35 150.5 94t52.5 121q0 33 -12 58.5t-43 49t-47.5 33.5t-61.5 33q-11 6 -17 9v12q0 73 47 122.5t123 49.5q94 0 150.5 -67t56.5 -173q0 -86 -31 -163t-82 -132t-110 -93.5t-121 -59.5zM565 -246q99 35 152 94t53 121q0 33 -13 59.5t-42 49t-50 34.5t-63 33 q-9 5 -14 7v12q0 73 47 122.5t123 49.5q94 0 150.5 -67t56.5 -173q0 -86 -31 -163t-81.5 -132t-109.5 -93.5t-122 -59.5z" />
<glyph unicode="&#x2022;" horiz-adv-x="950" d="M203 721q0 113 77 190.5t193 77.5q124 0 199.5 -76.5t75.5 -191.5t-77.5 -192.5t-195.5 -77.5q-122 0 -197 77t-75 193z" />
<glyph unicode="&#x2026;" horiz-adv-x="1744" d="M100 158q0 75 50 125.5t122 50.5q74 0 124 -50.5t50 -125.5q0 -71 -50.5 -120.5t-123.5 -49.5q-72 0 -122 49.5t-50 120.5zM700 158q0 75 49.5 125.5t120.5 50.5q75 0 126 -50.5t51 -125.5q0 -71 -51 -120.5t-126 -49.5q-70 0 -120 50t-50 120zM1298 158q0 75 49.5 125.5 t120.5 50.5q75 0 126 -50.5t51 -125.5q0 -71 -51 -120.5t-126 -49.5q-70 0 -120 50t-50 120z" />
<glyph unicode="&#x202f;" horiz-adv-x="400" />
<glyph unicode="&#x2039;" horiz-adv-x="686" d="M82 569l377 494l157 -127l-272 -367l272 -364l-157 -125z" />
<glyph unicode="&#x203a;" horiz-adv-x="686" d="M82 205l272 364l-272 367l160 127l374 -494l-374 -489z" />
<glyph unicode="&#x205f;" horiz-adv-x="500" />
<glyph unicode="&#x20ac;" horiz-adv-x="1247" d="M76 465v182h145v125h-145v182h166q51 235 192 363.5t373 128.5q264 0 407 -150l-165 -192q-35 37 -61 59t-81 43t-121 21q-119 0 -198.5 -68.5t-108.5 -204.5h459l-53 -182h-422v-55q0 -50 2 -70h389l-43 -182h-322q56 -266 318 -266q63 0 117 21.5t78 42t57 54.5 l137 -186q-130 -149 -414 -149q-243 0 -373.5 124.5t-170.5 358.5h-162z" />
<glyph unicode="&#x2122;" horiz-adv-x="1306" d="M16 1321v115h473v-115h-159v-455h-144v455h-170zM578 866v570h192l127 -373l123 373h192v-570h-133v228l8 192h-8l-129 -366h-110l-129 370h-9l9 -180v-244h-133z" />
<glyph unicode="&#xe000;" horiz-adv-x="1136" d="M0 0v1137h1137v-1137h-1137z" />
</font>
</defs>
</svg>
