<svg id="svg2" xmlns="http://www.w3.org/2000/svg" xmlns:xlink="http://www.w3.org/1999/xlink" viewBox="0 0 296 75.97"><defs><style>.cls-1{fill:none;}.cls-2{fill:#369;}.cls-3{clip-path:url(#clip-path);}.cls-4{fill:#1c3664;}</style><clipPath id="clip-path" transform="translate(-2 -2)"><rect class="cls-1" x="2" y="2" width="296" height="75.88"/></clipPath></defs><title>logo-paypal</title><g id="layer1"><g id="g2993"><g id="g2995"><path id="path2997" class="cls-2" d="M228.49,47.94a21.3,21.3,0,0,1-3.2,1.65,11.46,11.46,0,0,1-4.25.93,9.43,9.43,0,0,1-4.63-.9,3.14,3.14,0,0,1-1.59-3,6.19,6.19,0,0,1,1.18-4,8.46,8.46,0,0,1,3.48-2.35,30.09,30.09,0,0,1,5.37-1.2c1.86-.23,5.53-0.66,6-0.66s0.78-.26.57,1c-0.09.54-1.15,4.9-1.64,6.88A3.88,3.88,0,0,1,228.49,47.94Zm14.42-30.61c-3.09-1.73-7.93-2.6-14.56-2.6a64.3,64.3,0,0,0-9.87.78c-2.42.37-2.67,0.43-4.18,0.76A4.77,4.77,0,0,0,210.72,20l-1,4.09c-0.56,2.62.93,2.51,1.59,2.31A42.22,42.22,0,0,1,216.16,25a35.74,35.74,0,0,1,7.65-1,20.19,20.19,0,0,1,7.39,1,3.75,3.75,0,0,1,2.47,3.7,2.78,2.78,0,0,1-.13,1.15,1.27,1.27,0,0,1-1.18.74c-4.66.28-8,.7-12,1.29A37.61,37.61,0,0,0,210,34.74a16.12,16.12,0,0,0-7,5.54,15.06,15.06,0,0,0-2.34,8.51A10,10,0,0,0,204,56.51a12.49,12.49,0,0,0,8.6,2.95,22.87,22.87,0,0,0,5.11-.48,25.72,25.72,0,0,0,3.93-1.34A20.39,20.39,0,0,0,225,55.78c1.19-.79,2-1.36,3.07-2l0,0.07-0.3,1.31s0,0,0,0v0a2.41,2.41,0,0,0,2.17,3l0,0h7.58a0.15,0.15,0,0,0,.12,0,4.24,4.24,0,0,0,3.49-3.06l6-25.69a14.93,14.93,0,0,0,.31-2.1,16.45,16.45,0,0,0,.14-2,8.59,8.59,0,0,0-4.63-8.05" transform="translate(-2 -2)"/></g><g id="g2999"><g class="cls-3"><g id="g3001"><g id="g3007"><path id="path3009" class="cls-4" d="M140.52,15.3a7,7,0,0,0-5.12,3.12s-11.68,20-12.83,22c-0.62,1.08-1.26.39-1.36,0s-3.62-21.88-3.62-21.88a4.47,4.47,0,0,0-4.45-3.19h-7.28a2.42,2.42,0,0,0-2.46,3.11s5.57,31.55,6.65,39c0.54,4.1-.06,4.83-0.06,4.83l-7.22,12.58c-1.06,1.71-.48,3.1,1.27,3.1h8.44a6.84,6.84,0,0,0,5.1-3.1L150.06,20s3.11-4.69.24-4.65c-2,0-9.78,0-9.78,0" transform="translate(-2 -2)"/></g><g id="g3011"><path id="path3013" class="cls-4" d="M55.63,10.17a12.17,12.17,0,0,0-4.47-4.79,20.57,20.57,0,0,0-7.07-2.61A58.2,58.2,0,0,0,34.47,2h-17a4.25,4.25,0,0,0-3.91,3.11L2.08,55A2.43,2.43,0,0,0,4.55,58.1H12.7A4.17,4.17,0,0,0,16.6,55l2.81-12.1a4.16,4.16,0,0,1,3.88-3.09h2.33c10,0,17.7-2,23.25-6.13a19.07,19.07,0,0,0,8.31-16.15,15.18,15.18,0,0,0-1.55-7.35M38,26.46c-2.46,1.8-5.86,2.7-10.28,2.7h-2A2.44,2.44,0,0,1,23.27,26l2.45-10.57a4.15,4.15,0,0,1,3.89-3.1l2.67,0c3.11,0,5.48.53,7.08,1.59a5.33,5.33,0,0,1,2.35,4.85A8.79,8.79,0,0,1,38,26.46" transform="translate(-2 -2)"/></g></g></g></g><g id="g3015"><path id="path3017" class="cls-2" d="M203.59,10.35a12.45,12.45,0,0,0-4.49-4.81A20.22,20.22,0,0,0,192,2.94a56.91,56.91,0,0,0-9.59-.75H165.38a4.24,4.24,0,0,0-3.88,3.11L150,55.19a2.41,2.41,0,0,0,2.45,3.1l8.18,0a4.23,4.23,0,0,0,3.91-3.08l2.77-12.11A4.18,4.18,0,0,1,171.26,40h2.33q15,0,23.26-6.13a19.21,19.21,0,0,0,8.31-16.17,15.77,15.77,0,0,0-1.55-7.34M186,26.67q-3.66,2.66-10.28,2.67h-2a2.41,2.41,0,0,1-2.47-3.1l2.44-10.59a4.17,4.17,0,0,1,3.87-3.09h2.68c3.13,0,5.47.54,7.08,1.58A5.46,5.46,0,0,1,189.67,19,9,9,0,0,1,186,26.67" transform="translate(-2 -2)"/></g><g id="g3019"><path id="path3021" class="cls-4" d="M80.49,47.9a21.4,21.4,0,0,1-3.2,1.65,11.55,11.55,0,0,1-4.25.92,9.48,9.48,0,0,1-4.63-.9,3.15,3.15,0,0,1-1.59-3,6.2,6.2,0,0,1,1.19-4,8.42,8.42,0,0,1,3.47-2.35A30.13,30.13,0,0,1,76.85,39c1.86-.23,5.54-0.66,6-0.66s0.78-.26.57,1c-0.09.54-1.15,4.9-1.64,6.88A3.94,3.94,0,0,1,80.49,47.9ZM94.91,17.29c-3.09-1.73-7.93-2.6-14.56-2.6a64.15,64.15,0,0,0-9.87.77c-2.43.37-2.67,0.43-4.18,0.76A4.77,4.77,0,0,0,62.73,20l-1,4.09c-0.56,2.62.93,2.51,1.59,2.3A42.59,42.59,0,0,1,68.17,25a36,36,0,0,1,7.65-1,20.18,20.18,0,0,1,7.39,1,3.75,3.75,0,0,1,2.46,3.7,2.74,2.74,0,0,1-.13,1.15,1.27,1.27,0,0,1-1.18.74c-4.65.28-8,.7-12,1.29A37.67,37.67,0,0,0,62,34.7a16.1,16.1,0,0,0-7,5.54,15,15,0,0,0-2.34,8.51A10,10,0,0,0,56,56.47a12.49,12.49,0,0,0,8.59,2.95,23.1,23.1,0,0,0,5.12-.48,25.82,25.82,0,0,0,3.92-1.34A20.41,20.41,0,0,0,77,55.74c1.19-.79,2-1.36,3.08-2l0,0.06-0.3,1.31a0.15,0.15,0,0,0,0,0v0a2.41,2.41,0,0,0,2.17,3l0,0h7.58a0.14,0.14,0,0,0,.11,0,4.26,4.26,0,0,0,3.49-3.06l6-25.69a14.74,14.74,0,0,0,.3-2.1,16.2,16.2,0,0,0,.14-2,8.59,8.59,0,0,0-4.64-8.05" transform="translate(-2 -2)"/></g><g id="g3023"><path id="path3025" class="cls-2" d="M271,2.6H263.7a4.2,4.2,0,0,0-3.84,2.91c0,0.07-.05.13-0.07,0.2l-0.48,2.17-10,45.4c-0.23,1-.39,1.7-0.43,1.87l0,0a2.4,2.4,0,0,0,2.17,3l0,0h7.57a4.22,4.22,0,0,0,3.83-2.87c0-.08.06-0.15,0.08-0.23L273.48,5.7h0A2.43,2.43,0,0,0,271,2.6" transform="translate(-2 -2)"/></g><g id="g3027"><path id="path3029" class="cls-2" d="M284.81,12.67a7.11,7.11,0,0,1-.82.16,5.89,5.89,0,0,1-.79.06,2.46,2.46,0,0,1-1.85-.65,2.93,2.93,0,0,1-.63-2.1V5.93h-0.9V4.8h0.9V2.52h1.33V4.8h2.75V5.93h-2.75V9.54c0,0.42,0,.74,0,1a1.61,1.61,0,0,0,.2.66,0.94,0.94,0,0,0,.43.42,2,2,0,0,0,.84.13,2.62,2.62,0,0,0,.68-0.1,4.81,4.81,0,0,0,.51-0.16h0.07v1.2" transform="translate(-2 -2)"/></g><g id="g3031"><path id="path3033" class="cls-2" d="M298,12.74h-1.33V8.22c0-.34,0-0.67,0-1a2.15,2.15,0,0,0-.2-0.76A1.07,1.07,0,0,0,296,6a2,2,0,0,0-.88-0.16,2.48,2.48,0,0,0-1.12.28,6.79,6.79,0,0,0-1.12.71c0,0.11,0,.24,0,0.38s0,0.29,0,.43v5.08h-1.33V8.22c0-.35,0-0.68,0-1a2.1,2.1,0,0,0-.19-0.76A1.07,1.07,0,0,0,290.83,6,2,2,0,0,0,290,5.85a2.48,2.48,0,0,0-1.1.27,6.55,6.55,0,0,0-1.1.69v5.92h-1.34V4.8h1.34V5.68A6,6,0,0,1,289,4.87a3.12,3.12,0,0,1,1.32-.29,2.63,2.63,0,0,1,1.37.34,2.12,2.12,0,0,1,.84.95,6.52,6.52,0,0,1,1.48-1,3.43,3.43,0,0,1,1.43-.3,2.3,2.3,0,0,1,1.93.79A3.51,3.51,0,0,1,298,7.59v5.15" transform="translate(-2 -2)"/></g></g></g></svg>