<svg id="Layer_1" data-name="Layer 1" xmlns="http://www.w3.org/2000/svg" xmlns:xlink="http://www.w3.org/1999/xlink" viewBox="0 0 180.07 30"><defs><style>.cls-1{fill:#fcb131;}.cls-1,.cls-2,.cls-3{fill-rule:evenodd;}.cls-2{fill:#ed1c2e;}.cls-3,.cls-7{fill:#fff;}.cls-4{fill:#0023a0;}.cls-5{fill:#ffa000;}.cls-6{fill:url(#radial-gradient);}</style><radialGradient id="radial-gradient" cx="155.27" cy="26.76" r="28.05" gradientTransform="matrix(1, 0, 0, -1, 0, 32)" gradientUnits="userSpaceOnUse"><stop offset="0" stop-color="#9dd3f2"/><stop offset="0.07" stop-color="#98d1f1"/><stop offset="0.16" stop-color="#89ccf0"/><stop offset="0.25" stop-color="#70c5ee"/><stop offset="0.35" stop-color="#50bae9"/><stop offset="0.45" stop-color="#1face3"/><stop offset="0.5" stop-color="#17a4de"/><stop offset="1" stop-color="#2f78bb"/></radialGradient></defs><title>logo-cards</title><path class="cls-1" d="M104.93,26.11a14.72,14.72,0,0,0,10,3.89,15,15,0,0,0,0-30,14.72,14.72,0,0,0-10,3.89,15,15,0,0,0,0,22.22h0Z" transform="translate(0)"/><path class="cls-2" d="M109.74,13.42c-0.05-.54-0.15-1.06-0.26-1.6h-9.12c0.1-.54.26-1.06,0.41-1.57H109c-0.18-.54-0.39-1.08-0.62-1.6h-7c0.26-.54.54-1.08,0.85-1.6h5.28a13.45,13.45,0,0,0-1.13-1.57h-3a14.77,14.77,0,0,1,1.52-1.6A15,15,0,1,0,94.91,30a14.78,14.78,0,0,0,10-3.89h0a14.11,14.11,0,0,0,1.49-1.57h-3a17.87,17.87,0,0,1-1.13-1.6h5.28a12.17,12.17,0,0,0,.88-1.6h-7a16.34,16.34,0,0,1-.64-1.57H109a16.51,16.51,0,0,0,.44-1.6,15.81,15.81,0,0,0,.26-1.6,15.51,15.51,0,0,0,.08-1.57c0-.54,0-1.08-0.08-1.6h0Z" transform="translate(0)"/><path class="cls-3" d="M114.79,11.56l-0.28,1.65a3.09,3.09,0,0,0-1.44-.41c-1.21,0-2.06,1.19-2.06,2.86,0,1.16.57,1.86,1.52,1.86a3.15,3.15,0,0,0,1.36-.39l-0.28,1.73a5.35,5.35,0,0,1-1.42.23c-1.75,0-2.83-1.26-2.83-3.3,0-2.7,1.49-4.61,3.63-4.61a3.15,3.15,0,0,1,.75.08l0.64,0.15,0.41,0.15h0Z" transform="translate(0)"/><path class="cls-3" d="M109.59,12.7h-0.15a1.56,1.56,0,0,0-1.34,1l0.15-1h-1.47l-1,6.18h1.62c0.59-3.79.75-4.43,1.52-4.43H109a6.41,6.41,0,0,1,.62-1.78l-0.05,0h0Z" transform="translate(0)"/><path class="cls-3" d="M100.27,18.85a3.34,3.34,0,0,1-1.16.21,1.19,1.19,0,0,1-1.29-1.36,4.33,4.33,0,0,1,.05-0.54l0.1-.62L98.05,16l0.7-4.22h1.6l-0.18.93H101l-0.21,1.52H100l-0.44,2.58a0.93,0.93,0,0,0,0,.26c0,0.31.15,0.44,0.54,0.44a1.07,1.07,0,0,0,.44-0.05l-0.21,1.36h0Z" transform="translate(0)"/><path class="cls-3" d="M94.06,14.7a1.8,1.8,0,0,0,1.21,1.73c0.67,0.31.77,0.41,0.77,0.67s-0.28.57-.93,0.57a4.78,4.78,0,0,1-1.44-.23l-0.23,1.42,0.08,0,0.28,0.05a1.71,1.71,0,0,0,.44.05,5.89,5.89,0,0,0,.87.05c1.7,0,2.5-.64,2.5-2.06a1.71,1.71,0,0,0-1.13-1.73c-0.7-.31-0.77-0.39-0.77-0.67s0.28-.49.8-0.49a10.12,10.12,0,0,1,1.16.08l0.23-1.42a9.34,9.34,0,0,0-1.42-.13c-1.8,0-2.45,1-2.42,2.09h0Z" transform="translate(0)"/><path class="cls-3" d="M127.13,18.93h-1.52l0.08-.59a1.93,1.93,0,0,1-1.49.67c-1.19,0-2-1-2-2.55,0-2.06,1.21-3.81,2.63-3.81a1.85,1.85,0,0,1,1.54.85l0.36-2.16h1.6l-1.24,7.6h0Zm-2.37-1.44c0.75,0,1.26-.88,1.26-2.09,0-.8-0.28-1.21-0.85-1.21-0.72,0-1.26.85-1.26,2.06q0,1.24.85,1.24h0Z" transform="translate(0)"/><path class="cls-3" d="M105.21,18.8a5.31,5.31,0,0,1-1.68.26,2.45,2.45,0,0,1-2.73-2.78c0-2.11,1.19-3.68,2.81-3.68a2.07,2.07,0,0,1,2.19,2.24,6.28,6.28,0,0,1-.21,1.54H102.4a0.49,0.49,0,0,0,0,.18c0,0.72.49,1.08,1.42,1.08a3.54,3.54,0,0,0,1.67-.39l-0.26,1.54h0Zm-0.9-3.68V14.81a0.71,0.71,0,0,0-.77-0.8,1.14,1.14,0,0,0-1,1.11h1.8Z" transform="translate(0)"/><polygon class="cls-3" points="87.91 18.93 86.31 18.93 87.24 13.08 85.15 18.93 84.04 18.93 83.92 13.13 82.94 18.93 81.44 18.93 82.7 11.33 85.02 11.33 85.1 16.04 86.64 11.33 89.17 11.33 87.91 18.93 87.91 18.93"/><path class="cls-3" d="M91.9,16.17c-0.15,0-.23,0-0.36,0-0.9,0-1.36.34-1.36,1a0.54,0.54,0,0,0,.57.62,1.35,1.35,0,0,0,1.16-1.54h0Zm1.18,2.76H91.74l0-.64a2,2,0,0,1-1.7.75,1.49,1.49,0,0,1-1.47-1.67c0-1.52,1-2.4,2.83-2.4,0.18,0,.41,0,0.67.05a1.29,1.29,0,0,0,.05-0.39c0-.41-0.28-0.57-1-0.57a5.34,5.34,0,0,0-1.34.15l-0.23.08-0.15,0,0.23-1.39a6.49,6.49,0,0,1,1.93-.31c1.39,0,2.14.62,2.14,1.8a7.86,7.86,0,0,1-.13,1.24l-0.36,2.19-0.05.39,0,0.31,0,0.23,0,0.15h0Z" transform="translate(0)"/><path class="cls-3" d="M117.39,16.17c-0.18,0-.26,0-0.36,0-0.93,0-1.39.34-1.39,1a0.56,0.56,0,0,0,.59.62,1.36,1.36,0,0,0,1.16-1.54h0Zm1.18,2.76h-1.34l0-.64a2,2,0,0,1-1.7.75,1.49,1.49,0,0,1-1.47-1.67c0-1.52,1-2.4,2.83-2.4,0.18,0,.41,0,0.64.05a1.64,1.64,0,0,0,.08-0.39c0-.41-0.28-0.57-1-0.57a5.55,5.55,0,0,0-1.36.15l-0.21.08-0.15,0,0.23-1.39a6.48,6.48,0,0,1,1.93-.31c1.39,0,2.11.62,2.11,1.8a5.51,5.51,0,0,1-.13,1.24l-0.33,2.19-0.05.39-0.05.31,0,0.23v0.15h0Z" transform="translate(0)"/><path class="cls-3" d="M122.9,12.7h-0.16a1.56,1.56,0,0,0-1.34,1l0.15-1H120.1l-1,6.18h1.6c0.59-3.79.75-4.43,1.52-4.43h0.1a6.5,6.5,0,0,1,.62-1.78l-0.05,0h0Z" transform="translate(0)"/><polyline class="cls-4" points="21.77 24.71 24.9 5.34 29.9 5.34 26.77 24.71 21.77 24.71"/><path class="cls-4" d="M44.92,5.81A12.37,12.37,0,0,0,40.44,5C35.49,5,32,7.63,32,11.39c0,2.79,2.48,4.34,4.38,5.26s2.6,1.55,2.6,2.4c0,1.3-1.55,1.89-3,1.89a10,10,0,0,1-4.71-1l-0.64-.31L29.91,24a15.09,15.09,0,0,0,5.57,1c5.26,0,8.67-2.6,8.71-6.62,0-2.21-1.32-3.88-4.2-5.26-1.75-.9-2.82-1.49-2.81-2.4S38.09,9,40,9a8.8,8.8,0,0,1,3.74.74L44.24,10l0.68-4.2" transform="translate(0)"/><path class="cls-4" d="M57.75,5.36H53.89A2.47,2.47,0,0,0,51.26,7L43.84,24.72h5.25s0.86-2.39,1.05-2.91h6.41c0.15,0.68.61,2.9,0.61,2.9H61.8l-4-19.36M51.58,17.84c0.41-1.12,2-5.42,2-5.42s0.41-1.12.67-1.85l0.34,1.67s1,4.63,1.16,5.59H51.58Z" transform="translate(0)"/><path class="cls-4" d="M17.58,5.35l-4.9,13.21-0.52-2.69A14.89,14.89,0,0,0,5.22,7.75L9.7,24.69H15L22.88,5.35h-5.3" transform="translate(0)"/><path class="cls-5" d="M8.13,5.34H0.07L0,5.74c6.28,1.61,10.43,5.48,12.15,10.14L10.4,7A2.1,2.1,0,0,0,8.13,5.34Z" transform="translate(0)"/><path class="cls-6" d="M179.89,0H150V30h29.89V20.1a1.13,1.13,0,0,0,.18-0.66,1,1,0,0,0-.18-0.66" transform="translate(0)"/><path class="cls-7" d="M152.69,13l-0.58-1.4L151.55,13m13.82-.56a0.78,0.78,0,0,1-.42.07h-1V11.72h1a0.86,0.86,0,0,1,.4.06,0.32,0.32,0,0,1,.18.31A0.36,0.36,0,0,1,165.36,12.42ZM172.64,13l-0.58-1.4L171.48,13h1.16ZM159.07,14.5h-0.86V11.75L157,14.5h-0.74L155,11.74V14.5h-1.71L153,13.71h-1.75l-0.33.78H150l1.5-3.51h1.25l1.43,3.33V11h1.37l1.1,2.38,1-2.38h1.4V14.5h0Zm3.43,0H159.7V11h2.81v0.73h-2v0.63h1.92v0.72h-1.92v0.7h2V14.5Zm4-2.57a1,1,0,0,1-.59.94,1,1,0,0,1,.42.3,1,1,0,0,1,.14.64V14.5h-0.85V14.05a1.05,1.05,0,0,0-.13-0.68,0.82,0.82,0,0,0-.61-0.15h-0.9V14.5h-0.84V11H165a2,2,0,0,1,1,.17A0.82,0.82,0,0,1,166.46,11.93Zm1.34,2.57h-0.86V11h0.86V14.5Zm9.95,0h-1.19L175,11.86V14.5h-1.71l-0.33-.78h-1.75l-0.32.78h-1a1.77,1.77,0,0,1-1.22-.39,1.77,1.77,0,0,1-.45-1.34,1.87,1.87,0,0,1,.45-1.37,1.71,1.71,0,0,1,1.28-.41h0.81v0.75H170a0.81,0.81,0,0,0-.65.21,1.16,1.16,0,0,0-.24.8,1.22,1.22,0,0,0,.23.83,0.81,0.81,0,0,0,.59.18h0.38L171.45,11h1.26l1.42,3.32V11h1.28l1.48,2.45V11h0.86V14.5h0ZM150,15.19h1.44l0.32-.78h0.72l0.32,0.78h2.82v-0.6l0.25,0.6h1.47l0.25-.61v0.61h7V13.91h0.14c0.1,0,.12,0,0.12.17v1.11h3.63v-0.3a2.88,2.88,0,0,0,1.35.3h1.53l0.33-.78h0.72l0.32,0.78h2.94V14.45l0.45,0.74h2.36v-4.9h-2.33v0.58l-0.33-.58h-2.4v0.58l-0.3-.58h-3.24a2.91,2.91,0,0,0-1.4.29V10.29h-2.23v0.29a1.38,1.38,0,0,0-.95-0.29h-8.16l-0.55,1.27-0.56-1.27h-2.57v0.58l-0.28-.58H151l-1,2.33v2.57h0Z" transform="translate(0)"/><path class="cls-7" d="M179.89,17.78h-1.53a0.58,0.58,0,0,0-.34.06,0.27,0.27,0,0,0-.12.25,0.27,0.27,0,0,0,.18.26,1,1,0,0,0,.32,0h0.46a1.33,1.33,0,0,1,1,.28,0.45,0.45,0,0,1,.08.09m0,1.32a1.31,1.31,0,0,1-1.14.45h-1.62V19.8h1.62a0.48,0.48,0,0,0,.34-0.09,0.31,0.31,0,0,0,.1-0.23,0.29,0.29,0,0,0-.1-0.23,0.43,0.43,0,0,0-.3-0.08c-0.79,0-1.77,0-1.77-1.09a1,1,0,0,1,1.21-1h1.67v-0.7h-1.55a1.75,1.75,0,0,0-1.05.29V16.33H175a1.59,1.59,0,0,0-1,.29V16.33h-4.11v0.29a2.19,2.19,0,0,0-1.13-.29H166v0.29a1.92,1.92,0,0,0-1.18-.29h-3l-0.69.75-0.65-.75h-4.53v4.91h4.44l0.71-.76,0.67,0.76h2.74V20.09h0.27a2.85,2.85,0,0,0,1.17-.17v1.32h2.26V20h0.11c0.14,0,.15,0,0.15.14v1.13h6.86a2,2,0,0,0,1.14-.31v0.31h2.18a2.92,2.92,0,0,0,1.23-.23V20.1h0Zm-3.35-1.4a1,1,0,0,1,.25.74,1.09,1.09,0,0,1-1.32,1.11h-1.64V19.8h1.63a0.49,0.49,0,0,0,.34-0.09,0.31,0.31,0,0,0,.1-0.23,0.3,0.3,0,0,0-.1-0.23,0.44,0.44,0,0,0-.3-0.08c-0.79,0-1.77,0-1.77-1.09a1,1,0,0,1,1.2-1h1.68v0.75h-1.54a0.57,0.57,0,0,0-.34.06,0.29,0.29,0,0,0,.06.51,1,1,0,0,0,.33,0h0.45A1.36,1.36,0,0,1,176.54,18.69ZM169,18.48a0.8,0.8,0,0,1-.41.07h-1V17.76h1a0.83,0.83,0,0,1,.4.06,0.33,0.33,0,0,1,.17.32A0.38,0.38,0,0,1,169,18.48Zm0.51,0.44a0.91,0.91,0,0,1,.41.3,1,1,0,0,1,.14.64v0.7h-0.84V20.11a1,1,0,0,0-.14-0.69,0.81,0.81,0,0,0-.62-0.16h-0.9v1.28h-0.84V17h1.94a2.08,2.08,0,0,1,1,.17,0.82,0.82,0,0,1,.43.78A1,1,0,0,1,169.47,18.92ZM170.53,17h2.8v0.73h-2V18.4h1.92v0.72h-1.92v0.7h2v0.73h-2.8V17Zm-5.67,1.62h-1.09v-0.9h1.1a0.43,0.43,0,0,1,.51.43A0.45,0.45,0,0,1,164.86,18.66Zm-1.92,1.57-1.29-1.43,1.29-1.39v2.82Zm-3.33-.41h-2.07v-0.7h1.84V18.4h-1.84V17.76h2.11l0.92,1Zm6.68-1.62a1.19,1.19,0,0,1-1.46,1.18h-1v1.18h-1.63l-1-1.16L160,20.55H156.7V17h3.38l1,1.15L162.18,17h2.68A1.17,1.17,0,0,1,166.29,18.19Z" transform="translate(0)"/></svg>