<?xml version="1.0" encoding="utf-8"?>
<!-- Generator: Adobe Illustrator 17.1.0, SVG Export Plug-In . SVG Version: 6.00 Build 0)  -->
<!DOCTYPE svg PUBLIC "-//W3C//DTD SVG 1.1//EN" "http://www.w3.org/Graphics/SVG/1.1/DTD/svg11.dtd">
<svg version="1.1" id="Layer_1" xmlns="http://www.w3.org/2000/svg" xmlns:xlink="http://www.w3.org/1999/xlink" x="0px" y="0px"
	 viewBox="247.5 0 364.5 792" enable-background="new 247.5 0 364.5 792" xml:space="preserve">
<g id="Rounded_Box_copy_2_xA0_Image_3_">
</g>
<g id="Rounded_Box_copy_2_xA0_Image_1_">
</g>
<g id="Rounded_Box_copy_3_xA0_Image_3_">
</g>
<g id="Rounded_Box_copy_3_xA0_Image_1_">
</g>
<g id="Rounded_Box_copy_4_xA0_Image_3_">
</g>
<g id="Rounded_Box_copy_4_xA0_Image_1_">
</g>
<g id="Rounded_Box_copy_5_xA0_Image_3_">
</g>
<g id="Rounded_Box_copy_5_xA0_Image_1_">
</g>
<g id="Rounded_Box_xA0_Image_15_">
</g>
<g id="Rounded_Box_copy_xA0_Image_15_">
</g>
<g id="Rounded_Box_copy_6_xA0_Image_15_">
</g>
<g id="Rounded_Box_copy_6_xA0_Image_13_">
</g>
<g id="Rounded_Box_copy_8_xA0_Image_7_">
</g>
<g id="Rounded_Box_copy_7_xA0_Image_7_">
</g>
<g id="Bracket_copy_4_15_" enable-background="new    ">
	<g id="Bracket_copy_4">
		<g>
			<polygon fill="#4E5A20" points="484.7,492.9 484.7,491.9 481.7,491.9 481.7,500.4 458.2,500.4 458.2,489.4 457.2,489.4 
				457.2,501.4 481.7,501.4 481.7,517.3 484.7,517.3 484.7,516.3 482.7,516.3 482.7,492.9 			"/>
		</g>
	</g>
</g>
<g id="Bracket_copy_6_15_" enable-background="new    ">
	<g id="Bracket_copy_6">
		<g>
			<polygon fill="#FFFFFF" points="539.6,742.6 539.6,741.6 536.6,741.6 536.6,750.1 516.6,750.1 516.6,722.6 515.6,722.6 
				515.6,751.1 536.6,751.1 536.6,767 539.6,767 539.6,766 537.6,766 537.6,742.6 			"/>
		</g>
	</g>
</g>
<g id="Bracket_copy_2_15_" enable-background="new    ">
	<g id="Bracket_copy_2">
		<g>
			<polygon fill="#FFFFFF" points="539.6,642.7 539.6,641.7 536.6,641.7 536.6,646.7 515.6,646.7 515.6,675.1 516.6,675.1 
				516.6,647.7 536.6,647.7 536.6,667.2 539.6,667.2 539.6,666.2 537.6,666.2 537.6,642.7 			"/>
		</g>
	</g>
</g>
<g id="Bracket_copy_3_15_" enable-background="new    ">
	<g id="Bracket_copy_3">
		<g>
			<polygon fill="#FFFFFF" points="612,767.5 612,766.5 609,766.5 609,775 594,775 594,772.5 593,772.5 593,776 609,776 609,792 
				612,792 612,791 610,791 610,767.5 			"/>
		</g>
	</g>
</g>
<g id="Bracket_copy_5_15_" enable-background="new    ">
	<g id="Bracket_copy_5">
		<g>
			<polygon fill="#FFFFFF" points="612,717.6 612,716.6 609,716.6 609,721.6 593,721.6 593,725.1 594,725.1 594,722.6 609,722.6 
				609,742.1 612,742.1 612,741.1 610,741.1 610,717.6 			"/>
		</g>
	</g>
</g>
<g id="Bracket_copy_15_" enable-background="new    ">
	<g id="Bracket_copy">
		<g>
			<polygon fill="#FFFFFF" points="612,667.7 612,666.7 609,666.7 609,675.1 594,675.1 594,672.7 593,672.7 593,676.1 609,676.1 
				609,692.1 612,692.1 612,691.1 610,691.1 610,667.7 			"/>
		</g>
	</g>
</g>
<g id="Bracket_15_" enable-background="new    ">
	<g id="Bracket">
		<g>
			<polygon fill="#FFFFFF" points="612,617.7 612,616.7 609,616.7 609,621.7 593,621.7 593,625.2 594,625.2 594,622.7 609,622.7 
				609,642.2 612,642.2 612,641.2 610,641.2 610,617.7 			"/>
		</g>
	</g>
</g>
<g id="Bracket_copy_10_1_" enable-background="new    ">
	<g id="Bracket_copy_10">
		<g>
			<polygon fill="#FFFFFF" points="612,617.7 612,616.7 609,616.7 609,618.2 609,618.2 609,642.2 612,642.2 612,641.2 610,641.2 
				610,617.7 			"/>
		</g>
	</g>
</g>
<g id="Bracket_copy_11_1_" enable-background="new    ">
	<g id="Bracket_copy_11">
		<g>
			<polygon fill="#FFFFFF" points="612,667.7 612,666.7 609,666.7 609,668.2 609,668.2 609,692.1 612,692.1 612,691.1 610,691.1 
				610,667.7 			"/>
		</g>
	</g>
</g>
<g id="Bracket_copy_12_1_" enable-background="new    ">
	<g id="Bracket_copy_12">
		<g>
			<polygon fill="#FFFFFF" points="612,717.6 612,716.6 609,716.6 609,718.1 609,718.1 609,742.1 612,742.1 612,741.1 610,741.1 
				610,717.6 			"/>
		</g>
	</g>
</g>
<g id="Bracket_copy_13_1_" enable-background="new    ">
	<g id="Bracket_copy_13">
		<g>
			<polygon fill="#FFFFFF" points="612,767.5 612,766.5 609,766.5 609,768 609,768 609,792 612,792 612,791 610,791 610,767.5 			
				"/>
		</g>
	</g>
</g>
<g id="Rounded_Box_xA0_Image_13_">
</g>
<g id="Rounded_Box_copy_xA0_Image_13_">
</g>
<g id="Rounded_Box_copy_11_xA0_Image_3_">
</g>
<g id="Rounded_Box_copy_11_xA0_Image_1_">
</g>
<g id="Rounded_Box_copy_12_xA0_Image_3_">
</g>
<g id="Rounded_Box_copy_12_xA0_Image_1_">
</g>
<g id="Bracket_copy_4_14_" enable-background="new    ">
	<g id="Bracket_copy_4_1_">
		<g>
			<polygon fill="#4E5A20" points="484.7,692.6 484.7,691.6 481.7,691.6 481.7,699.6 453.2,699.6 453.2,489.4 452.2,489.4 
				452.2,700.6 481.7,700.6 481.7,717.1 484.7,717.1 484.7,716.1 482.7,716.1 482.7,692.6 			"/>
		</g>
	</g>
</g>
<g id="Bracket_copy_6_14_" enable-background="new    ">
	<g id="Bracket_copy_6_1_">
		<g>
			<polygon fill="#FFFFFF" points="539.6,542.8 539.6,541.8 536.6,541.8 536.6,550.3 516.6,550.3 516.6,522.8 515.6,522.8 
				515.6,551.3 536.6,551.3 536.6,567.3 539.6,567.3 539.6,566.3 537.6,566.3 537.6,542.8 			"/>
		</g>
	</g>
</g>
<g id="Bracket_copy_2_14_" enable-background="new    ">
	<g id="Bracket_copy_2_1_">
		<g>
			<polygon fill="#FFFFFF" points="539.6,442.9 539.6,441.9 536.6,441.9 536.6,446.9 515.6,446.9 515.6,475.4 516.6,475.4 
				516.6,447.9 536.6,447.9 536.6,467.4 539.6,467.4 539.6,466.4 537.6,466.4 537.6,442.9 			"/>
		</g>
	</g>
</g>
<g id="Bracket_copy_3_14_" enable-background="new    ">
	<g id="Bracket_copy_3_1_">
		<g>
			<polygon fill="#FFFFFF" points="612,567.8 612,566.8 609,566.8 609,575.3 594,575.3 594,572.8 593,572.8 593,576.3 609,576.3 
				609,592.3 612,592.3 612,591.3 610,591.3 610,567.8 			"/>
		</g>
	</g>
</g>
<g id="Bracket_copy_5_14_" enable-background="new    ">
	<g id="Bracket_copy_5_1_">
		<g>
			<polygon fill="#FFFFFF" points="612,517.8 612,516.8 609,516.8 609,521.8 593,521.8 593,525.3 594,525.3 594,522.8 609,522.8 
				609,542.3 612,542.3 612,541.3 610,541.3 610,517.8 			"/>
		</g>
	</g>
</g>
<g id="Bracket_copy_14_" enable-background="new    ">
	<g id="Bracket_copy_1_">
		<g>
			<polygon fill="#FFFFFF" points="612,467.9 612,466.9 609,466.9 609,475.4 594,475.4 594,472.9 593,472.9 593,476.4 609,476.4 
				609,492.4 612,492.4 612,491.4 610,491.4 610,467.9 			"/>
		</g>
	</g>
</g>
<g id="Bracket_14_" enable-background="new    ">
	<g id="Bracket_1_">
		<g>
			<polygon fill="#FFFFFF" points="612,418 612,417 609,417 609,422 593,422 593,425.5 594,425.5 594,423 609,423 609,442.4 
				612,442.4 612,441.4 610,441.4 610,418 			"/>
		</g>
	</g>
</g>
<g id="Bracket_copy_16_7_" enable-background="new    ">
	<g id="Bracket_copy_16">
		<g>
			<polygon fill="#FFFFFF" points="612,418 612,417 609,417 609,418.5 609,418.5 609,442.4 612,442.4 612,441.4 610,441.4 610,418 
							"/>
		</g>
	</g>
</g>
<g id="Bracket_copy_16_6_" enable-background="new    ">
	<g id="Bracket_copy_16_1_">
		<g>
			<polygon fill="#FFFFFF" points="612,467.9 612,466.9 609,466.9 609,468.4 609,468.4 609,492.4 612,492.4 612,491.4 610,491.4 
				610,467.9 			"/>
		</g>
	</g>
</g>
<g id="Bracket_copy_16_5_" enable-background="new    ">
	<g id="Bracket_copy_16_2_">
		<g>
			<polygon fill="#FFFFFF" points="612,517.8 612,516.8 609,516.8 609,518.3 609,518.3 609,542.3 612,542.3 612,541.3 610,541.3 
				610,517.8 			"/>
		</g>
	</g>
</g>
<g id="Bracket_copy_16_4_" enable-background="new    ">
	<g id="Bracket_copy_16_3_">
		<g>
			<polygon fill="#FFFFFF" points="612,567.8 612,566.8 609,566.8 609,568.3 609,568.3 609,592.3 612,592.3 612,591.3 610,591.3 
				610,567.8 			"/>
		</g>
	</g>
</g>
<g id="Rounded_Box_xA0_Image_11_">
</g>
<g id="Rounded_Box_copy_xA0_Image_11_">
</g>
<g id="Rounded_Box_copy_6_xA0_Image_11_">
</g>
<g id="Rounded_Box_copy_6_xA0_Image_9_">
</g>
<g id="Rounded_Box_copy_8_xA0_Image_5_">
</g>
<g id="Rounded_Box_copy_7_xA0_Image_5_">
</g>
<g id="Bracket_copy_4_13_" enable-background="new    ">
	<g id="Bracket_copy_4_2_">
		<g>
			<polygon fill="#4E5A20" points="484.7,275.7 484.7,274.7 481.7,274.7 481.7,279.6 457.2,279.6 457.2,291.6 458.2,291.6 
				458.2,280.6 481.7,280.6 481.7,300.1 484.7,300.1 484.7,299.1 482.7,299.1 482.7,275.7 			"/>
		</g>
	</g>
</g>
<g id="Bracket_copy_6_13_" enable-background="new    ">
	<g id="Bracket_copy_6_2_">
		<g>
			<polygon fill="#FFFFFF" points="539.6,325.6 539.6,324.6 536.6,324.6 536.6,333.1 516.6,333.1 516.6,305.6 515.6,305.6 
				515.6,334.1 536.6,334.1 536.6,350.1 539.6,350.1 539.6,349.1 537.6,349.1 537.6,325.6 			"/>
		</g>
	</g>
</g>
<g id="Bracket_copy_2_13_" enable-background="new    ">
	<g id="Bracket_copy_2_2_">
		<g>
			<polygon fill="#FFFFFF" points="539.6,225.7 539.6,224.7 536.6,224.7 536.6,229.7 515.6,229.7 515.6,258.2 516.6,258.2 
				516.6,230.7 536.6,230.7 536.6,250.2 539.6,250.2 539.6,249.2 537.6,249.2 537.6,225.7 			"/>
		</g>
	</g>
</g>
<g id="Bracket_copy_3_13_" enable-background="new    ">
	<g id="Bracket_copy_3_2_">
		<g>
			<polygon fill="#FFFFFF" points="612,350.6 612,349.6 609,349.6 609,358 594,358 594,355.6 593,355.6 593,359 609,359 609,375 
				612,375 612,374 610,374 610,350.6 			"/>
		</g>
	</g>
</g>
<g id="Bracket_copy_5_13_" enable-background="new    ">
	<g id="Bracket_copy_5_2_">
		<g>
			<polygon fill="#FFFFFF" points="612,300.6 612,299.6 609,299.6 609,304.6 593,304.6 593,308.1 594,308.1 594,305.6 609,305.6 
				609,325.1 612,325.1 612,324.1 610,324.1 610,300.6 			"/>
		</g>
	</g>
</g>
<g id="Bracket_copy_13_" enable-background="new    ">
	<g id="Bracket_copy_2_">
		<g>
			<polygon fill="#FFFFFF" points="612,250.7 612,249.7 609,249.7 609,258.2 594,258.2 594,255.7 593,255.7 593,259.2 609,259.2 
				609,275.2 612,275.2 612,274.2 610,274.2 610,250.7 			"/>
		</g>
	</g>
</g>
<g id="Bracket_13_" enable-background="new    ">
	<g id="Bracket_2_">
		<g>
			<polygon fill="#FFFFFF" points="612,200.7 612,199.7 609,199.7 609,204.7 593,204.7 593,208.2 594,208.2 594,205.7 609,205.7 
				609,225.2 612,225.2 612,224.2 610,224.2 610,200.7 			"/>
		</g>
	</g>
</g>
<g id="Bracket_copy_7_1_" enable-background="new    ">
	<g id="Bracket_copy_7">
		<g>
			<polygon fill="#FFFFFF" points="612,200.7 612,199.7 609,199.7 609,201.2 609,201.2 609,225.2 612,225.2 612,224.2 610,224.2 
				610,200.7 			"/>
		</g>
	</g>
</g>
<g id="Bracket_copy_8_1_" enable-background="new    ">
	<g id="Bracket_copy_8">
		<g>
			<polygon fill="#FFFFFF" points="612,250.7 612,249.7 609,249.7 609,251.2 609,251.2 609,275.2 612,275.2 612,274.2 610,274.2 
				610,250.7 			"/>
		</g>
	</g>
</g>
<g id="Bracket_copy_9_3_" enable-background="new    ">
	<g id="Bracket_copy_9">
		<g>
			<polygon fill="#FFFFFF" points="612,300.6 612,299.6 609,299.6 609,301.1 609,301.1 609,325.1 612,325.1 612,324.1 610,324.1 
				610,300.6 			"/>
		</g>
	</g>
</g>
<g id="Bracket_copy_9_2_" enable-background="new    ">
	<g id="Bracket_copy_9_1_">
		<g>
			<polygon fill="#FFFFFF" points="612,350.6 612,349.6 609,349.6 609,351.1 609,351.1 609,375 612,375 612,374 610,374 610,350.6 
							"/>
		</g>
	</g>
</g>
<g id="Rounded_Box_xA0_Image_9_">
</g>
<g id="Rounded_Box_copy_xA0_Image_9_">
</g>
<g id="Rounded_Box_copy_15_xA0_Image_3_">
</g>
<g id="Rounded_Box_copy_15_xA0_Image_1_">
</g>
<g id="Rounded_Box_copy_16_xA0_Image_3_">
</g>
<g id="Rounded_Box_copy_16_xA0_Image_1_">
</g>
<g id="Bracket_copy_4_12_" enable-background="new    ">
	<g id="Bracket_copy_4_3_">
		<g>
			<polygon fill="#4E5A20" points="484.7,75.9 484.7,74.9 481.7,74.9 481.7,79.9 452.2,79.9 452.2,291.6 453.2,291.6 453.2,80.9 
				481.7,80.9 481.7,100.4 484.7,100.4 484.7,99.4 482.7,99.4 482.7,75.9 			"/>
		</g>
	</g>
</g>
<g id="Bracket_copy_6_12_" enable-background="new    ">
	<g id="Bracket_copy_6_3_">
		<g>
			<polygon fill="#FFFFFF" points="539.6,125.8 539.6,124.8 536.6,124.8 536.6,133.3 516.6,133.3 516.6,105.9 515.6,105.9 
				515.6,134.3 536.6,134.3 536.6,150.3 539.6,150.3 539.6,149.3 537.6,149.3 537.6,125.8 			"/>
		</g>
	</g>
</g>
<g id="Bracket_copy_2_12_" enable-background="new    ">
	<g id="Bracket_copy_2_3_">
		<g>
			<polygon fill="#FFFFFF" points="539.6,26 539.6,25 536.6,25 536.6,30 515.6,30 515.6,58.4 516.6,58.4 516.6,31 536.6,31 
				536.6,50.4 539.6,50.4 539.6,49.4 537.6,49.4 537.6,26 			"/>
		</g>
	</g>
</g>
<g id="Bracket_copy_3_12_" enable-background="new    ">
	<g id="Bracket_copy_3_3_">
		<g>
			<polygon fill="#FFFFFF" points="612,150.8 612,149.8 609,149.8 609,158.3 594,158.3 594,155.8 593,155.8 593,159.3 609,159.3 
				609,175.3 612,175.3 612,174.3 610,174.3 610,150.8 			"/>
		</g>
	</g>
</g>
<g id="Bracket_copy_5_12_" enable-background="new    ">
	<g id="Bracket_copy_5_3_">
		<g>
			<polygon fill="#FFFFFF" points="612,100.9 612,99.9 609,99.9 609,104.9 593,104.9 593,108.4 594,108.4 594,105.9 609,105.9 
				609,125.3 612,125.3 612,124.3 610,124.3 610,100.9 			"/>
		</g>
	</g>
</g>
<g id="Bracket_copy_12_" enable-background="new    ">
	<g id="Bracket_copy_3_">
		<g>
			<polygon fill="#FFFFFF" points="612,50.9 612,49.9 609,49.9 609,58.4 594,58.4 594,55.9 593,55.9 593,59.4 609,59.4 609,75.4 
				612,75.4 612,74.4 610,74.4 610,50.9 			"/>
		</g>
	</g>
</g>
<g id="Bracket_12_" enable-background="new    ">
	<g id="Bracket_3_">
		<g>
			<polygon fill="#FFFFFF" points="612,1 612,0 609,0 609,5 593,5 593,8.5 594,8.5 594,6 609,6 609,25.5 612,25.5 612,24.5 
				610,24.5 610,1 			"/>
		</g>
	</g>
</g>
<g id="Bracket_copy_21_1_" enable-background="new    ">
	<g id="Bracket_copy_21">
		<g>
			<polygon fill="#FFFFFF" points="612,1 612,0 609,0 609,1.5 609,1.5 609,25.5 612,25.5 612,24.5 610,24.5 610,1 			"/>
		</g>
	</g>
</g>
<g id="Bracket_copy_20_1_" enable-background="new    ">
	<g id="Bracket_copy_20">
		<g>
			<polygon fill="#FFFFFF" points="612,50.9 612,49.9 609,49.9 609,51.4 609,51.4 609,75.4 612,75.4 612,74.4 610,74.4 610,50.9 			
				"/>
		</g>
	</g>
</g>
<g id="Bracket_copy_19_1_" enable-background="new    ">
	<g id="Bracket_copy_19">
		<g>
			<polygon fill="#FFFFFF" points="612,100.9 612,99.9 609,99.9 609,101.4 609,101.4 609,125.3 612,125.3 612,124.3 610,124.3 
				610,100.9 			"/>
		</g>
	</g>
</g>
<g id="Bracket_copy_18_1_" enable-background="new    ">
	<g id="Bracket_copy_18">
		<g>
			<polygon fill="#FFFFFF" points="612,150.8 612,149.8 609,149.8 609,151.3 609,151.3 609,175.3 612,175.3 612,174.3 610,174.3 
				610,150.8 			"/>
		</g>
	</g>
</g>
<g id="Rounded_Box_xA0_Image_7_">
</g>
<g id="Rounded_Box_copy_xA0_Image_7_">
</g>
<g id="Rounded_Box_copy_6_xA0_Image_7_">
</g>
<g id="Rounded_Box_copy_6_xA0_Image_5_">
</g>
<g id="Rounded_Box_copy_8_xA0_Image_3_">
</g>
<g id="Rounded_Box_copy_7_xA0_Image_3_">
</g>
<g id="Bracket_copy_4_11_" enable-background="new    ">
	<g id="Bracket_copy_4_4_">
		<g>
			<polygon fill="#4E5A20" points="401.3,489.4 401.3,500.4 377.8,500.4 377.8,491.9 374.8,491.9 374.8,492.9 376.8,492.9 
				376.8,516.3 374.8,516.3 374.8,517.3 377.8,517.3 377.8,501.4 402.3,501.4 402.3,489.4 			"/>
		</g>
	</g>
</g>
<g id="Bracket_copy_6_11_" enable-background="new    ">
	<g id="Bracket_copy_6_4_">
		<g>
			<polygon fill="#FFFFFF" points="342.8,722.6 342.8,750.1 322.9,750.1 322.9,741.6 319.9,741.6 319.9,742.6 321.9,742.6 
				321.9,766 319.9,766 319.9,767 322.9,767 322.9,751.1 343.8,751.1 343.8,722.6 			"/>
		</g>
	</g>
</g>
<g id="Bracket_copy_2_11_" enable-background="new    ">
	<g id="Bracket_copy_2_4_">
		<g>
			<polygon fill="#FFFFFF" points="322.9,646.7 322.9,641.7 319.9,641.7 319.9,642.7 321.9,642.7 321.9,666.2 319.9,666.2 
				319.9,667.2 322.9,667.2 322.9,647.7 342.8,647.7 342.8,675.1 343.8,675.1 343.8,646.7 			"/>
		</g>
	</g>
</g>
<g id="Bracket_copy_3_11_" enable-background="new    ">
	<g id="Bracket_copy_3_4_">
		<g>
			<polygon fill="#FFFFFF" points="265.4,772.5 265.4,775 250.5,775 250.5,766.5 247.5,766.5 247.5,767.5 249.5,767.5 249.5,791 
				247.5,791 247.5,792 250.5,792 250.5,776 266.4,776 266.4,772.5 			"/>
		</g>
	</g>
</g>
<g id="Bracket_copy_5_11_" enable-background="new    ">
	<g id="Bracket_copy_5_4_">
		<g>
			<polygon fill="#FFFFFF" points="250.5,721.6 250.5,716.6 247.5,716.6 247.5,717.6 249.5,717.6 249.5,741.1 247.5,741.1 
				247.5,742.1 250.5,742.1 250.5,722.6 265.4,722.6 265.4,725.1 266.4,725.1 266.4,721.6 			"/>
		</g>
	</g>
</g>
<g id="Bracket_copy_11_" enable-background="new    ">
	<g id="Bracket_copy_4_">
		<g>
			<polygon fill="#FFFFFF" points="265.4,672.7 265.4,675.1 250.5,675.1 250.5,666.7 247.5,666.7 247.5,667.7 249.5,667.7 
				249.5,691.1 247.5,691.1 247.5,692.1 250.5,692.1 250.5,676.1 266.4,676.1 266.4,672.7 			"/>
		</g>
	</g>
</g>
<g id="Bracket_11_" enable-background="new    ">
	<g id="Bracket_4_">
		<g>
			<polygon fill="#FFFFFF" points="250.5,621.7 250.5,616.7 247.5,616.7 247.5,617.7 249.5,617.7 249.5,641.2 247.5,641.2 
				247.5,642.2 250.5,642.2 250.5,622.7 265.4,622.7 265.4,625.2 266.4,625.2 266.4,621.7 			"/>
		</g>
	</g>
</g>
<g id="Bracket_copy_14_7_" enable-background="new    ">
	<g id="Bracket_copy_14">
		<g>
			<polygon fill="#FFFFFF" points="247.5,616.7 247.5,617.7 249.5,617.7 249.5,641.2 247.5,641.2 247.5,642.2 250.5,642.2 
				250.5,616.7 			"/>
		</g>
	</g>
</g>
<g id="Bracket_copy_14_6_" enable-background="new    ">
	<g id="Bracket_copy_14_1_">
		<g>
			<polygon fill="#FFFFFF" points="247.5,666.7 247.5,667.7 249.5,667.7 249.5,691.1 247.5,691.1 247.5,692.1 250.5,692.1 
				250.5,666.7 			"/>
		</g>
	</g>
</g>
<g id="Bracket_copy_14_5_" enable-background="new    ">
	<g id="Bracket_copy_14_2_">
		<g>
			<polygon fill="#FFFFFF" points="247.5,716.6 247.5,717.6 249.5,717.6 249.5,741.1 247.5,741.1 247.5,742.1 250.5,742.1 
				250.5,716.6 			"/>
		</g>
	</g>
</g>
<g id="Bracket_copy_14_4_" enable-background="new    ">
	<g id="Bracket_copy_14_3_">
		<g>
			<polygon fill="#FFFFFF" points="247.5,766.5 247.5,767.5 249.5,767.5 249.5,791 247.5,791 247.5,792 250.5,792 250.5,766.5 			
				"/>
		</g>
	</g>
</g>
<g id="Rounded_Box_xA0_Image_5_">
</g>
<g id="Rounded_Box_copy_xA0_Image_5_">
</g>
<g id="Rounded_Box_copy_10_xA0_Image_3_">
</g>
<g id="Rounded_Box_copy_10_xA0_Image_1_">
</g>
<g id="Rounded_Box_copy_9_xA0_Image_3_">
</g>
<g id="Rounded_Box_copy_9_xA0_Image_1_">
</g>
<g id="Bracket_copy_4_10_" enable-background="new    ">
	<g id="Bracket_copy_4_5_">
		<g>
			<polygon fill="#4E5A20" points="406.3,489.4 406.3,699.6 377.8,699.6 377.8,691.6 374.8,691.6 374.8,692.6 376.8,692.6 
				376.8,716.1 374.8,716.1 374.8,717.1 377.8,717.1 377.8,700.6 407.3,700.6 407.3,489.4 			"/>
		</g>
	</g>
</g>
<g id="Bracket_copy_6_10_" enable-background="new    ">
	<g id="Bracket_copy_6_5_">
		<g>
			<polygon fill="#FFFFFF" points="342.8,522.8 342.8,550.3 322.9,550.3 322.9,541.8 319.9,541.8 319.9,542.8 321.9,542.8 
				321.9,566.3 319.9,566.3 319.9,567.3 322.9,567.3 322.9,551.3 343.8,551.3 343.8,522.8 			"/>
		</g>
	</g>
</g>
<g id="Bracket_copy_2_10_" enable-background="new    ">
	<g id="Bracket_copy_2_5_">
		<g>
			<polygon fill="#FFFFFF" points="322.9,446.9 322.9,441.9 319.9,441.9 319.9,442.9 321.9,442.9 321.9,466.4 319.9,466.4 
				319.9,467.4 322.9,467.4 322.9,447.9 342.8,447.9 342.8,475.4 343.8,475.4 343.8,446.9 			"/>
		</g>
	</g>
</g>
<g id="Bracket_copy_3_10_" enable-background="new    ">
	<g id="Bracket_copy_3_5_">
		<g>
			<polygon fill="#FFFFFF" points="265.4,572.8 265.4,575.3 250.5,575.3 250.5,566.8 247.5,566.8 247.5,567.8 249.5,567.8 
				249.5,591.3 247.5,591.3 247.5,592.3 250.5,592.3 250.5,576.3 266.4,576.3 266.4,572.8 			"/>
		</g>
	</g>
</g>
<g id="Bracket_copy_5_10_" enable-background="new    ">
	<g id="Bracket_copy_5_5_">
		<g>
			<polygon fill="#FFFFFF" points="250.5,521.8 250.5,516.8 247.5,516.8 247.5,517.8 249.5,517.8 249.5,541.3 247.5,541.3 
				247.5,542.3 250.5,542.3 250.5,522.8 265.4,522.8 265.4,525.3 266.4,525.3 266.4,521.8 			"/>
		</g>
	</g>
</g>
<g id="Bracket_copy_10_" enable-background="new    ">
	<g id="Bracket_copy_5_">
		<g>
			<polygon fill="#FFFFFF" points="265.4,472.9 265.4,475.4 250.5,475.4 250.5,466.9 247.5,466.9 247.5,467.9 249.5,467.9 
				249.5,491.4 247.5,491.4 247.5,492.4 250.5,492.4 250.5,476.4 266.4,476.4 266.4,472.9 			"/>
		</g>
	</g>
</g>
<g id="Bracket_10_" enable-background="new    ">
	<g id="Bracket_5_">
		<g>
			<polygon fill="#FFFFFF" points="250.5,422 250.5,417 247.5,417 247.5,418 249.5,418 249.5,441.4 247.5,441.4 247.5,442.4 
				250.5,442.4 250.5,423 265.4,423 265.4,425.5 266.4,425.5 266.4,422 			"/>
		</g>
	</g>
</g>
<g id="Bracket_copy_15_7_" enable-background="new    ">
	<g id="Bracket_copy_15">
		<g>
			<polygon fill="#FFFFFF" points="247.5,417 247.5,418 249.5,418 249.5,441.4 247.5,441.4 247.5,442.4 250.5,442.4 250.5,417 			
				"/>
		</g>
	</g>
</g>
<g id="Bracket_copy_15_6_" enable-background="new    ">
	<g id="Bracket_copy_15_1_">
		<g>
			<polygon fill="#FFFFFF" points="247.5,466.9 247.5,467.9 249.5,467.9 249.5,491.4 247.5,491.4 247.5,492.4 250.5,492.4 
				250.5,466.9 			"/>
		</g>
	</g>
</g>
<g id="Bracket_copy_15_5_" enable-background="new    ">
	<g id="Bracket_copy_15_2_">
		<g>
			<polygon fill="#FFFFFF" points="247.5,516.8 247.5,517.8 249.5,517.8 249.5,541.3 247.5,541.3 247.5,542.3 250.5,542.3 
				250.5,516.8 			"/>
		</g>
	</g>
</g>
<g id="Bracket_copy_15_4_" enable-background="new    ">
	<g id="Bracket_copy_15_3_">
		<g>
			<polygon fill="#FFFFFF" points="247.5,566.8 247.5,567.8 249.5,567.8 249.5,591.3 247.5,591.3 247.5,592.3 250.5,592.3 
				250.5,566.8 			"/>
		</g>
	</g>
</g>
<g id="Rounded_Box_xA0_Image_3_">
</g>
<g id="Rounded_Box_copy_xA0_Image_3_">
</g>
<g id="Rounded_Box_copy_6_xA0_Image_3_">
</g>
<g id="Rounded_Box_copy_6_xA0_Image_1_">
</g>
<g id="Rounded_Box_copy_8_xA0_Image_1_">
</g>
<g id="Rounded_Box_copy_7_xA0_Image_1_">
</g>
<g id="Bracket_copy_4_9_" enable-background="new    ">
	<g id="Bracket_copy_4_6_">
		<g>
			<polygon fill="#4E5A20" points="377.8,279.6 377.8,274.7 374.8,274.7 374.8,275.7 376.8,275.7 376.8,299.1 374.8,299.1 
				374.8,300.1 377.8,300.1 377.8,280.6 401.3,280.6 401.3,291.6 402.3,291.6 402.3,279.6 			"/>
		</g>
	</g>
</g>
<g id="Bracket_copy_6_9_" enable-background="new    ">
	<g id="Bracket_copy_6_6_">
		<g>
			<polygon fill="#FFFFFF" points="342.8,305.6 342.8,333.1 322.9,333.1 322.9,324.6 319.9,324.6 319.9,325.6 321.9,325.6 
				321.9,349.1 319.9,349.1 319.9,350.1 322.9,350.1 322.9,334.1 343.8,334.1 343.8,305.6 			"/>
		</g>
	</g>
</g>
<g id="Bracket_copy_3_9_" enable-background="new    ">
	<g id="Bracket_copy_3_6_">
		<g>
			<polygon fill="#FFFFFF" points="265.4,355.6 265.4,358 250.5,358 250.5,349.6 247.5,349.6 247.5,350.6 249.5,350.6 249.5,374 
				247.5,374 247.5,375 250.5,375 250.5,359 266.4,359 266.4,355.6 			"/>
		</g>
	</g>
</g>
<g id="Bracket_copy_5_9_" enable-background="new    ">
	<g id="Bracket_copy_5_6_">
		<g>
			<polygon fill="#FFFFFF" points="250.5,304.6 250.5,299.6 247.5,299.6 247.5,300.6 249.5,300.6 249.5,324.1 247.5,324.1 
				247.5,325.1 250.5,325.1 250.5,305.6 265.4,305.6 265.4,308.1 266.4,308.1 266.4,304.6 			"/>
		</g>
	</g>
</g>
<g id="Bracket_copy_9_" enable-background="new    ">
	<g id="Bracket_copy_6_">
		<g>
			<polygon fill="#FFFFFF" points="265.4,255.7 265.4,258.2 250.5,258.2 250.5,249.7 247.5,249.7 247.5,250.7 249.5,250.7 
				249.5,274.2 247.5,274.2 247.5,275.2 250.5,275.2 250.5,259.2 266.4,259.2 266.4,255.7 			"/>
		</g>
	</g>
</g>
<g id="Bracket_9_" enable-background="new    ">
	<g id="Bracket_6_">
		<g>
			<polygon fill="#FFFFFF" points="250.5,204.7 250.5,199.7 247.5,199.7 247.5,200.7 249.5,200.7 249.5,224.2 247.5,224.2 
				247.5,225.2 250.5,225.2 250.5,205.7 265.4,205.7 265.4,208.2 266.4,208.2 266.4,204.7 			"/>
		</g>
	</g>
</g>
<g id="Rounded_Box_xA0_Image_1_">
</g>
<g id="Rounded_Box_copy_xA0_Image_1_">
</g>
<g id="Rounded_Box_copy_13_xA0_Image_3_">
</g>
<g id="Rounded_Box_copy_13_xA0_Image_1_">
</g>
<g id="Rounded_Box_copy_14_xA0_Image_3_">
</g>
<g id="Rounded_Box_copy_14_xA0_Image_1_">
	<g>
		<path fill="#4E5A20" d="M317.9,34c0.6,0,1,0.4,1,1v19c0,0.6-0.4,1-1,1h-63.4c-0.6,0-1-0.4-1-1V35c0-0.6,0.4-1,1-1H317.9 M317.9,33
			h-63.4c-1.1,0-2,0.9-2,2v19c0,1.1,0.9,2,2,2h63.4c1.1,0,2-0.9,2-2V35C319.9,33.9,319,33,317.9,33L317.9,33z"/>
	</g>
	<g>
		<path fill="#4E5A20" d="M317.9,9.5c0.6,0,1,0.4,1,1v19c0,0.6-0.4,1-1,1h-63.4c-0.6,0-1-0.4-1-1v-19c0-0.6,0.4-1,1-1L317.9,9.5
			 M317.9,8.5h-63.4c-1.1,0-2,0.9-2,2v19c0,1.1,0.9,2,2,2h63.4c1.1,0,2-0.9,2-2v-19C319.9,9.4,319,8.5,317.9,8.5L317.9,8.5z"/>
	</g>
	<g>
		<path fill="#4E5A20" d="M605,9.5c0.6,0,1,0.4,1,1v19c0,0.6-0.4,1-1,1h-63.4c-0.6,0-1-0.4-1-1v-19c0-0.6,0.4-1,1-1L605,9.5
			 M605,8.5h-63.4c-1.1,0-2,0.9-2,2v19c0,1.1,0.9,2,2,2H605c1.1,0,2-0.9,2-2v-19C607,9.4,606.1,8.5,605,8.5L605,8.5z"/>
	</g>
	<g>
		<path fill="#4E5A20" d="M605,34c0.6,0,1,0.4,1,1v19c0,0.6-0.4,1-1,1h-63.4c-0.6,0-1-0.4-1-1V35c0-0.6,0.4-1,1-1H605 M605,33h-63.4
			c-1.1,0-2,0.9-2,2v19c0,1.1,0.9,2,2,2H605c1.1,0,2-0.9,2-2V35C607,33.9,606.1,33,605,33L605,33z"/>
	</g>
	<g>
		<path fill="#4E5A20" d="M550.1,59.4c0.6,0,1,0.4,1,1v19c0,0.6-0.4,1-1,1h-63.4c-0.6,0-1-0.4-1-1v-19c0-0.6,0.4-1,1-1H550.1
			 M550.1,58.4h-63.4c-1.1,0-2,0.9-2,2v19c0,1.1,0.9,2,2,2h63.4c1.1,0,2-0.9,2-2v-19C552.1,59.3,551.2,58.4,550.1,58.4L550.1,58.4z"
			/>
	</g>
	<g>
		<path fill="#4E5A20" d="M550.1,83.9c0.6,0,1,0.4,1,1v19c0,0.6-0.4,1-1,1h-63.4c-0.6,0-1-0.4-1-1v-19c0-0.6,0.4-1,1-1H550.1
			 M550.1,82.9h-63.4c-1.1,0-2,0.9-2,2v19c0,1.1,0.9,2,2,2h63.4c1.1,0,2-0.9,2-2v-19C552.1,83.8,551.2,82.9,550.1,82.9L550.1,82.9z"
			/>
	</g>
	<g>
		<path fill="#4E5A20" d="M605,109.4c0.6,0,1,0.4,1,1v19c0,0.6-0.4,1-1,1h-63.4c-0.6,0-1-0.4-1-1v-19c0-0.6,0.4-1,1-1L605,109.4
			 M605,108.4h-63.4c-1.1,0-2,0.9-2,2v19c0,1.1,0.9,2,2,2H605c1.1,0,2-0.9,2-2v-19C607,109.3,606.1,108.4,605,108.4L605,108.4z"/>
	</g>
	<g>
		<path fill="#4E5A20" d="M605,209.2c0.6,0,1,0.4,1,1v19c0,0.6-0.4,1-1,1h-63.4c-0.6,0-1-0.4-1-1v-19c0-0.6,0.4-1,1-1H605
			 M605,208.2h-63.4c-1.1,0-2,0.9-2,2v19c0,1.1,0.9,2,2,2H605c1.1,0,2-0.9,2-2v-19C607,209.1,606.1,208.2,605,208.2L605,208.2z"/>
	</g>
	<g>
		<path fill="#4E5A20" d="M605,133.8c0.6,0,1,0.4,1,1v19c0,0.6-0.4,1-1,1h-63.4c-0.6,0-1-0.4-1-1v-19c0-0.6,0.4-1,1-1L605,133.8
			 M605,132.8h-63.4c-1.1,0-2,0.9-2,2v19c0,1.1,0.9,2,2,2H605c1.1,0,2-0.9,2-2v-19C607,133.7,606.1,132.8,605,132.8L605,132.8z"/>
	</g>
	<g>
		<path fill="#4E5A20" d="M605,233.7c0.6,0,1,0.4,1,1v19c0,0.6-0.4,1-1,1h-63.4c-0.6,0-1-0.4-1-1v-19c0-0.6,0.4-1,1-1H605
			 M605,232.7h-63.4c-1.1,0-2,0.9-2,2v19c0,1.1,0.9,2,2,2H605c1.1,0,2-0.9,2-2v-19C607,233.6,606.1,232.7,605,232.7L605,232.7z"/>
	</g>
	<g>
		<path fill="#4E5A20" d="M550.1,259.2c0.6,0,1,0.4,1,1v19c0,0.6-0.4,1-1,1h-63.4c-0.6,0-1-0.4-1-1v-19c0-0.6,0.4-1,1-1H550.1
			 M550.1,258.2h-63.4c-1.1,0-2,0.9-2,2v19c0,1.1,0.9,2,2,2h63.4c1.1,0,2-0.9,2-2v-19C552.1,259.1,551.2,258.2,550.1,258.2
			L550.1,258.2z"/>
	</g>
	<g>
		<path fill="#4E5A20" d="M550.1,283.6c0.6,0,1,0.4,1,1v19c0,0.6-0.4,1-1,1h-63.4c-0.6,0-1-0.4-1-1v-19c0-0.6,0.4-1,1-1H550.1
			 M550.1,282.6h-63.4c-1.1,0-2,0.9-2,2v19c0,1.1,0.9,2,2,2h63.4c1.1,0,2-0.9,2-2v-19C552.1,283.5,551.2,282.6,550.1,282.6
			L550.1,282.6z"/>
	</g>
	<g>
		<path fill="#4E5A20" d="M605,309.1c0.6,0,1,0.4,1,1v19c0,0.6-0.4,1-1,1h-63.4c-0.6,0-1-0.4-1-1v-19c0-0.6,0.4-1,1-1H605
			 M605,308.1h-63.4c-1.1,0-2,0.9-2,2v19c0,1.1,0.9,2,2,2H605c1.1,0,2-0.9,2-2v-19C607,309,606.1,308.1,605,308.1L605,308.1z"/>
	</g>
	<g>
		<path fill="#4E5A20" d="M605,333.6c0.6,0,1,0.4,1,1v19c0,0.6-0.4,1-1,1h-63.4c-0.6,0-1-0.4-1-1v-19c0-0.6,0.4-1,1-1H605
			 M605,332.6h-63.4c-1.1,0-2,0.9-2,2v19c0,1.1,0.9,2,2,2H605c1.1,0,2-0.9,2-2v-19C607,333.5,606.1,332.6,605,332.6L605,332.6z"/>
	</g>
	<g>
		<path fill="#4E5A20" d="M605,426.5c0.6,0,1,0.4,1,1v19c0,0.6-0.4,1-1,1h-63.4c-0.6,0-1-0.4-1-1v-19c0-0.6,0.4-1,1-1L605,426.5
			 M605,425.5h-63.4c-1.1,0-2,0.9-2,2v19c0,1.1,0.9,2,2,2H605c1.1,0,2-0.9,2-2v-19C607,426.4,606.1,425.5,605,425.5L605,425.5z"/>
	</g>
	<g>
		<path fill="#4E5A20" d="M605,450.9c0.6,0,1,0.4,1,1v19c0,0.6-0.4,1-1,1h-63.4c-0.6,0-1-0.4-1-1v-19c0-0.6,0.4-1,1-1H605
			 M605,449.9h-63.4c-1.1,0-2,0.9-2,2v19c0,1.1,0.9,2,2,2H605c1.1,0,2-0.9,2-2v-19C607,450.8,606.1,449.9,605,449.9L605,449.9z"/>
	</g>
	<g>
		<path fill="#4E5A20" d="M550.1,476.4c0.6,0,1,0.4,1,1v19c0,0.6-0.4,1-1,1h-63.4c-0.6,0-1-0.4-1-1v-19c0-0.6,0.4-1,1-1H550.1
			 M550.1,475.4h-63.4c-1.1,0-2,0.9-2,2v19c0,1.1,0.9,2,2,2h63.4c1.1,0,2-0.9,2-2v-19C552.1,476.3,551.2,475.4,550.1,475.4
			L550.1,475.4z"/>
	</g>
	<g>
		<path fill="#4E5A20" d="M550,500.9c0.6,0,1,0.4,1,1v19c0,0.6-0.4,1-1,1h-63.4c-0.6,0-1-0.4-1-1v-19c0-0.6,0.4-1,1-1H550
			 M550,499.9h-63.4c-1.1,0-2,0.9-2,2v19c0,1.1,0.9,2,2,2H550c1.1,0,2-0.9,2-2v-19C552,500.8,551.2,499.9,550,499.9L550,499.9z"/>
	</g>
	<g>
		<path fill="#4E5A20" d="M605,526.3c0.6,0,1,0.4,1,1v19c0,0.6-0.4,1-1,1h-63.4c-0.6,0-1-0.4-1-1v-19c0-0.6,0.4-1,1-1H605
			 M605,525.3h-63.4c-1.1,0-2,0.9-2,2v19c0,1.1,0.9,2,2,2H605c1.1,0,2-0.9,2-2v-19C607,526.2,606.1,525.3,605,525.3L605,525.3z"/>
	</g>
	<g>
		<path fill="#4E5A20" d="M605,550.8c0.6,0,1,0.4,1,1v19c0,0.6-0.4,1-1,1h-63.4c-0.6,0-1-0.4-1-1v-19c0-0.6,0.4-1,1-1H605
			 M605,549.8h-63.4c-1.1,0-2,0.9-2,2v19c0,1.1,0.9,2,2,2H605c1.1,0,2-0.9,2-2v-19C607,550.7,606.1,549.8,605,549.8L605,549.8z"/>
	</g>
	<g>
		<path fill="#4E5A20" d="M605,626.2c0.6,0,1,0.4,1,1v19c0,0.6-0.4,1-1,1h-63.4c-0.6,0-1-0.4-1-1v-19c0-0.6,0.4-1,1-1H605
			 M605,625.2h-63.4c-1.1,0-2,0.9-2,2v19c0,1.1,0.9,2,2,2H605c1.1,0,2-0.9,2-2v-19C607,626.1,606.1,625.2,605,625.2L605,625.2z"/>
	</g>
	<g>
		<path fill="#4E5A20" d="M605,650.7c0.6,0,1,0.4,1,1v19c0,0.6-0.4,1-1,1h-63.4c-0.6,0-1-0.4-1-1v-19c0-0.6,0.4-1,1-1H605
			 M605,649.7h-63.4c-1.1,0-2,0.9-2,2v19c0,1.1,0.9,2,2,2H605c1.1,0,2-0.9,2-2v-19C607,650.6,606.1,649.7,605,649.7L605,649.7z"/>
	</g>
	<g>
		<path fill="#4E5A20" d="M550.1,676.1c0.6,0,1,0.4,1,1v19c0,0.6-0.4,1-1,1h-63.4c-0.6,0-1-0.4-1-1v-19c0-0.6,0.4-1,1-1H550.1
			 M550.1,675.1h-63.4c-1.1,0-2,0.9-2,2v19c0,1.1,0.9,2,2,2h63.4c1.1,0,2-0.9,2-2v-19C552.1,676,551.2,675.1,550.1,675.1
			L550.1,675.1z"/>
	</g>
	<g>
		<path fill="#4E5A20" d="M550.1,700.6c0.6,0,1,0.4,1,1v19c0,0.6-0.4,1-1,1h-63.4c-0.6,0-1-0.4-1-1v-19c0-0.6,0.4-1,1-1H550.1
			 M550.1,699.6h-63.4c-1.1,0-2,0.9-2,2v19c0,1.1,0.9,2,2,2h63.4c1.1,0,2-0.9,2-2v-19C552.1,700.5,551.2,699.6,550.1,699.6
			L550.1,699.6z"/>
	</g>
	<g>
		<path fill="#4E5A20" d="M605,726.1c0.6,0,1,0.4,1,1v19c0,0.6-0.4,1-1,1h-63.4c-0.6,0-1-0.4-1-1v-19c0-0.6,0.4-1,1-1H605
			 M605,725.1h-63.4c-1.1,0-2,0.9-2,2v19c0,1.1,0.9,2,2,2H605c1.1,0,2-0.9,2-2v-19C607,726,606.1,725.1,605,725.1L605,725.1z"/>
	</g>
	<g>
		<path fill="#4E5A20" d="M605,750.6c0.6,0,1,0.4,1,1v19c0,0.6-0.4,1-1,1h-63.4c-0.6,0-1-0.4-1-1v-19c0-0.6,0.4-1,1-1H605
			 M605,749.6h-63.4c-1.1,0-2,0.9-2,2v19c0,1.1,0.9,2,2,2H605c1.1,0,2-0.9,2-2v-19C607,750.4,606.1,749.6,605,749.6L605,749.6z"/>
	</g>
	<g>
		<path fill="#4E5A20" d="M372.8,59.4c0.6,0,1,0.4,1,1v19c0,0.6-0.4,1-1,1h-63.4c-0.6,0-1-0.4-1-1v-19c0-0.6,0.4-1,1-1H372.8
			 M372.8,58.4h-63.4c-1.1,0-2,0.9-2,2v19c0,1.1,0.9,2,2,2h63.4c1.1,0,2-0.9,2-2v-19C374.8,59.3,373.9,58.4,372.8,58.4L372.8,58.4z"
			/>
	</g>
	<g>
		<path fill="#4E5A20" d="M372.8,83.9c0.6,0,1,0.4,1,1v19c0,0.6-0.4,1-1,1h-63.4c-0.6,0-1-0.4-1-1v-19c0-0.6,0.4-1,1-1H372.8
			 M372.8,82.9h-63.4c-1.1,0-2,0.9-2,2v19c0,1.1,0.9,2,2,2h63.4c1.1,0,2-0.9,2-2v-19C374.8,83.8,373.9,82.9,372.8,82.9L372.8,82.9z"
			/>
	</g>
	<g>
		<path fill="#4E5A20" d="M317.9,109.4c0.6,0,1,0.4,1,1v19c0,0.6-0.4,1-1,1h-63.4c-0.6,0-1-0.4-1-1v-19c0-0.6,0.4-1,1-1L317.9,109.4
			 M317.9,108.4h-63.4c-1.1,0-2,0.9-2,2v19c0,1.1,0.9,2,2,2h63.4c1.1,0,2-0.9,2-2v-19C319.9,109.3,319,108.4,317.9,108.4
			L317.9,108.4z"/>
	</g>
	<g>
		<path fill="#4E5A20" d="M317.9,133.8c0.6,0,1,0.4,1,1v19c0,0.6-0.4,1-1,1h-63.4c-0.6,0-1-0.4-1-1v-19c0-0.6,0.4-1,1-1L317.9,133.8
			 M317.9,132.8h-63.4c-1.1,0-2,0.9-2,2v19c0,1.1,0.9,2,2,2h63.4c1.1,0,2-0.9,2-2v-19C319.9,133.7,319,132.8,317.9,132.8
			L317.9,132.8z"/>
	</g>
	<g>
		<path fill="#4E5A20" d="M317.9,209.2c0.6,0,1,0.4,1,1v19c0,0.6-0.4,1-1,1h-63.4c-0.6,0-1-0.4-1-1v-19c0-0.6,0.4-1,1-1H317.9
			 M317.9,208.2h-63.4c-1.1,0-2,0.9-2,2v19c0,1.1,0.9,2,2,2h63.4c1.1,0,2-0.9,2-2v-19C319.9,209.1,319,208.2,317.9,208.2
			L317.9,208.2z"/>
	</g>
	<g>
		<path fill="#4E5A20" d="M317.9,234c0.6,0,1,0.4,1,1v19c0,0.6-0.4,1-1,1h-63.4c-0.6,0-1-0.4-1-1v-19c0-0.6,0.4-1,1-1H317.9
			 M317.9,233h-63.4c-1.1,0-2,0.9-2,2v19c0,1.1,0.9,2,2,2h63.4c1.1,0,2-0.9,2-2v-19C319.9,233.9,319,233,317.9,233L317.9,233z"/>
	</g>
	<g>
		<path fill="#4E5A20" d="M372.8,258.9c0.6,0,1,0.4,1,1v19c0,0.6-0.4,1-1,1h-63.4c-0.6,0-1-0.4-1-1v-19c0-0.6,0.4-1,1-1H372.8
			 M372.8,257.9h-63.4c-1.1,0-2,0.9-2,2v19c0,1.1,0.9,2,2,2h63.4c1.1,0,2-0.9,2-2v-19C374.8,258.8,373.9,257.9,372.8,257.9
			L372.8,257.9z"/>
	</g>
	<g>
		<path fill="#4E5A20" d="M372.8,283.6c0.6,0,1,0.4,1,1v19c0,0.6-0.4,1-1,1h-63.4c-0.6,0-1-0.4-1-1v-19c0-0.6,0.4-1,1-1H372.8
			 M372.8,282.6h-63.4c-1.1,0-2,0.9-2,2v19c0,1.1,0.9,2,2,2h63.4c1.1,0,2-0.9,2-2v-19C374.8,283.5,373.9,282.6,372.8,282.6
			L372.8,282.6z"/>
	</g>
	<g>
		<path fill="#4E5A20" d="M461.2,292.6c0.6,0,1,0.4,1,1v19c0,0.6-0.4,1-1,1h-63.4c-0.6,0-1-0.4-1-1v-19c0-0.6,0.4-1,1-1H461.2
			 M461.2,291.6h-63.4c-1.1,0-2,0.9-2,2v19c0,1.1,0.9,2,2,2h63.4c1.1,0,2-0.9,2-2v-19C463.2,292.5,462.3,291.6,461.2,291.6
			L461.2,291.6z"/>
	</g>
	<g>
		<path fill="#4E5A20" d="M461.2,317.6c0.6,0,1,0.4,1,1v19c0,0.6-0.4,1-1,1h-63.4c-0.6,0-1-0.4-1-1v-19c0-0.6,0.4-1,1-1H461.2
			 M461.2,316.6h-63.4c-1.1,0-2,0.9-2,2v19c0,1.1,0.9,2,2,2h63.4c1.1,0,2-0.9,2-2v-19C463.2,317.5,462.3,316.6,461.2,316.6
			L461.2,316.6z"/>
	</g>
	<g>
		<path fill="#4E5A20" d="M461.2,342.5c0.6,0,1,0.4,1,1v19c0,0.6-0.4,1-1,1h-63.4c-0.6,0-1-0.4-1-1v-19c0-0.6,0.4-1,1-1H461.2
			 M461.2,341.5h-63.4c-1.1,0-2,0.9-2,2v19c0,1.1,0.9,2,2,2h63.4c1.1,0,2-0.9,2-2v-19C463.2,342.4,462.3,341.5,461.2,341.5
			L461.2,341.5z"/>
	</g>
	<g>
		<path fill="#4E5A20" d="M461.2,367.5c0.6,0,1,0.4,1,1v19c0,0.6-0.4,1-1,1h-63.4c-0.6,0-1-0.4-1-1v-19c0-0.6,0.4-1,1-1H461.2
			 M461.2,366.5h-63.4c-1.1,0-2,0.9-2,2v19c0,1.1,0.9,2,2,2h63.4c1.1,0,2-0.9,2-2v-19C463.2,367.4,462.3,366.5,461.2,366.5
			L461.2,366.5z"/>
	</g>
	<g>
		<path fill="#4E5A20" d="M461.2,392.5c0.6,0,1,0.4,1,1v19c0,0.6-0.4,1-1,1h-63.4c-0.6,0-1-0.4-1-1v-19c0-0.6,0.4-1,1-1H461.2
			 M461.2,391.5h-63.4c-1.1,0-2,0.9-2,2v19c0,1.1,0.9,2,2,2h63.4c1.1,0,2-0.9,2-2v-19C463.2,392.4,462.3,391.5,461.2,391.5
			L461.2,391.5z"/>
	</g>
	<g>
		<path fill="#4E5A20" d="M461.2,417.5c0.6,0,1,0.4,1,1v19c0,0.6-0.4,1-1,1h-63.4c-0.6,0-1-0.4-1-1v-19c0-0.6,0.4-1,1-1H461.2
			 M461.2,416.5h-63.4c-1.1,0-2,0.9-2,2v19c0,1.1,0.9,2,2,2h63.4c1.1,0,2-0.9,2-2v-19C463.2,417.4,462.3,416.5,461.2,416.5
			L461.2,416.5z"/>
	</g>
	<g>
		<path fill="#4E5A20" d="M461.2,442.4c0.6,0,1,0.4,1,1v19c0,0.6-0.4,1-1,1h-63.4c-0.6,0-1-0.4-1-1v-19c0-0.6,0.4-1,1-1H461.2
			 M461.2,441.4h-63.4c-1.1,0-2,0.9-2,2v19c0,1.1,0.9,2,2,2h63.4c1.1,0,2-0.9,2-2v-19C463.2,442.3,462.3,441.4,461.2,441.4
			L461.2,441.4z"/>
	</g>
	<g>
		<path fill="#4E5A20" d="M461.2,467.4c0.6,0,1,0.4,1,1v19c0,0.6-0.4,1-1,1h-63.4c-0.6,0-1-0.4-1-1v-19c0-0.6,0.4-1,1-1H461.2
			 M461.2,466.4h-63.4c-1.1,0-2,0.9-2,2v19c0,1.1,0.9,2,2,2h63.4c1.1,0,2-0.9,2-2v-19C463.2,467.3,462.3,466.4,461.2,466.4
			L461.2,466.4z"/>
	</g>
	<g>
		<path fill="#4E5A20" d="M317.9,309.4c0.6,0,1,0.4,1,1v19c0,0.6-0.4,1-1,1h-63.4c-0.6,0-1-0.4-1-1v-19c0-0.6,0.4-1,1-1H317.9
			 M317.9,308.4h-63.4c-1.1,0-2,0.9-2,2v19c0,1.1,0.9,2,2,2h63.4c1.1,0,2-0.9,2-2v-19C319.9,309.3,319,308.4,317.9,308.4
			L317.9,308.4z"/>
	</g>
	<g>
		<path fill="#4E5A20" d="M317.9,333.6c0.6,0,1,0.4,1,1v19c0,0.6-0.4,1-1,1h-63.4c-0.6,0-1-0.4-1-1v-19c0-0.6,0.4-1,1-1H317.9
			 M317.9,332.6h-63.4c-1.1,0-2,0.9-2,2v19c0,1.1,0.9,2,2,2h63.4c1.1,0,2-0.9,2-2v-19C319.9,333.5,319,332.6,317.9,332.6
			L317.9,332.6z"/>
	</g>
	<g>
		<path fill="#4E5A20" d="M317.9,426.5c0.6,0,1,0.4,1,1v19c0,0.6-0.4,1-1,1h-63.4c-0.6,0-1-0.4-1-1v-19c0-0.6,0.4-1,1-1L317.9,426.5
			 M317.9,425.5h-63.4c-1.1,0-2,0.9-2,2v19c0,1.1,0.9,2,2,2h63.4c1.1,0,2-0.9,2-2v-19C319.9,426.4,319,425.5,317.9,425.5
			L317.9,425.5z"/>
	</g>
	<g>
		<path fill="#4E5A20" d="M317.9,450.9c0.6,0,1,0.4,1,1v19c0,0.6-0.4,1-1,1h-63.4c-0.6,0-1-0.4-1-1v-19c0-0.6,0.4-1,1-1H317.9
			 M317.9,449.9h-63.4c-1.1,0-2,0.9-2,2v19c0,1.1,0.9,2,2,2h63.4c1.1,0,2-0.9,2-2v-19C319.9,450.8,319,449.9,317.9,449.9
			L317.9,449.9z"/>
	</g>
	<g>
		<path fill="#4E5A20" d="M372.8,476.4c0.6,0,1,0.4,1,1v19c0,0.6-0.4,1-1,1h-63.4c-0.6,0-1-0.4-1-1v-19c0-0.6,0.4-1,1-1H372.8
			 M372.8,475.4h-63.4c-1.1,0-2,0.9-2,2v19c0,1.1,0.9,2,2,2h63.4c1.1,0,2-0.9,2-2v-19C374.8,476.3,373.9,475.4,372.8,475.4
			L372.8,475.4z"/>
	</g>
	<g>
		<path fill="#4E5A20" d="M372.8,500.9c0.6,0,1,0.4,1,1v19c0,0.6-0.4,1-1,1h-63.4c-0.6,0-1-0.4-1-1v-19c0-0.6,0.4-1,1-1H372.8
			 M372.8,499.9h-63.4c-1.1,0-2,0.9-2,2v19c0,1.1,0.9,2,2,2h63.4c1.1,0,2-0.9,2-2v-19C374.8,500.8,373.9,499.9,372.8,499.9
			L372.8,499.9z"/>
	</g>
	<g>
		<path fill="#4E5A20" d="M317.9,526.3c0.6,0,1,0.4,1,1v19c0,0.6-0.4,1-1,1h-63.4c-0.6,0-1-0.4-1-1v-19c0-0.6,0.4-1,1-1H317.9
			 M317.9,525.3h-63.4c-1.1,0-2,0.9-2,2v19c0,1.1,0.9,2,2,2h63.4c1.1,0,2-0.9,2-2v-19C319.9,526.2,319,525.3,317.9,525.3
			L317.9,525.3z"/>
	</g>
	<g>
		<path fill="#4E5A20" d="M318.1,550.8c0.6,0,1,0.4,1,1v19c0,0.6-0.4,1-1,1h-63.4c-0.6,0-1-0.4-1-1v-19c0-0.6,0.4-1,1-1H318.1
			 M318.1,549.8h-63.4c-1.1,0-2,0.9-2,2v19c0,1.1,0.9,2,2,2h63.4c1.1,0,2-0.9,2-2v-19C320.1,550.7,319.2,549.8,318.1,549.8
			L318.1,549.8z"/>
	</g>
	<g>
		<path fill="#4E5A20" d="M317.9,626.2c0.6,0,1,0.4,1,1v19c0,0.6-0.4,1-1,1h-63.4c-0.6,0-1-0.4-1-1v-19c0-0.6,0.4-1,1-1H317.9
			 M317.9,625.2h-63.4c-1.1,0-2,0.9-2,2v19c0,1.1,0.9,2,2,2h63.4c1.1,0,2-0.9,2-2v-19C319.9,626.1,319,625.2,317.9,625.2
			L317.9,625.2z"/>
	</g>
	<g>
		<path fill="#4E5A20" d="M317.9,650.7c0.6,0,1,0.4,1,1v19c0,0.6-0.4,1-1,1h-63.4c-0.6,0-1-0.4-1-1v-19c0-0.6,0.4-1,1-1H317.9
			 M317.9,649.7h-63.4c-1.1,0-2,0.9-2,2v19c0,1.1,0.9,2,2,2h63.4c1.1,0,2-0.9,2-2v-19C319.9,650.6,319,649.7,317.9,649.7
			L317.9,649.7z"/>
	</g>
	<g>
		<path fill="#4E5A20" d="M372.8,676.1c0.6,0,1,0.4,1,1v19c0,0.6-0.4,1-1,1h-63.4c-0.6,0-1-0.4-1-1v-19c0-0.6,0.4-1,1-1H372.8
			 M372.8,675.1h-63.4c-1.1,0-2,0.9-2,2v19c0,1.1,0.9,2,2,2h63.4c1.1,0,2-0.9,2-2v-19C374.8,676,373.9,675.1,372.8,675.1
			L372.8,675.1z"/>
	</g>
	<g>
		<path fill="#4E5A20" d="M372.8,700.6c0.6,0,1,0.4,1,1v19c0,0.6-0.4,1-1,1h-63.4c-0.6,0-1-0.4-1-1v-19c0-0.6,0.4-1,1-1H372.8
			 M372.8,699.6h-63.4c-1.1,0-2,0.9-2,2v19c0,1.1,0.9,2,2,2h63.4c1.1,0,2-0.9,2-2v-19C374.8,700.5,373.9,699.6,372.8,699.6
			L372.8,699.6z"/>
	</g>
	<g>
		<path fill="#4E5A20" d="M317.9,726.1c0.6,0,1,0.4,1,1v19c0,0.6-0.4,1-1,1h-63.4c-0.6,0-1-0.4-1-1v-19c0-0.6,0.4-1,1-1H317.9
			 M317.9,725.1h-63.4c-1.1,0-2,0.9-2,2v19c0,1.1,0.9,2,2,2h63.4c1.1,0,2-0.9,2-2v-19C319.9,726,319,725.1,317.9,725.1L317.9,725.1z
			"/>
	</g>
	<g>
		<path fill="#4E5A20" d="M317.9,750.6c0.6,0,1,0.4,1,1v19c0,0.6-0.4,1-1,1h-63.4c-0.6,0-1-0.4-1-1v-19c0-0.6,0.4-1,1-1H317.9
			 M317.9,749.6h-63.4c-1.1,0-2,0.9-2,2v19c0,1.1,0.9,2,2,2h63.4c1.1,0,2-0.9,2-2v-19C319.9,750.4,319,749.6,317.9,749.6
			L317.9,749.6z"/>
	</g>
</g>
<g id="Bracket_copy_4_8_" enable-background="new    ">
	<g id="Bracket_copy_4_7_">
		<g>
			<polygon fill="#4E5A20" points="377.8,79.9 377.8,74.9 374.8,74.9 374.8,75.9 376.8,75.9 376.8,99.4 374.8,99.4 374.8,100.4 
				377.8,100.4 377.8,80.9 406.3,80.9 406.3,291.6 407.3,291.6 407.3,79.9 			"/>
		</g>
	</g>
</g>
<g id="Bracket_copy_6_8_" enable-background="new    ">
	<g id="Bracket_copy_6_7_">
		<g>
			<polygon fill="#FFFFFF" points="342.8,105.9 342.8,133.3 322.9,133.3 322.9,124.8 319.9,124.8 319.9,125.8 321.9,125.8 
				321.9,149.3 319.9,149.3 319.9,150.3 322.9,150.3 322.9,134.3 343.8,134.3 343.8,105.9 			"/>
		</g>
	</g>
</g>
<g id="Bracket_copy_2_8_" enable-background="new    ">
	<g id="Bracket_copy_2_7_">
		<g>
			<polygon fill="#FFFFFF" points="322.9,30 322.9,25 319.9,25 319.9,26 321.9,26 321.9,49.4 319.9,49.4 319.9,50.4 322.9,50.4 
				322.9,31 342.8,31 342.8,58.4 343.8,58.4 343.8,30 			"/>
		</g>
	</g>
</g>
<g id="Bracket_copy_3_8_" enable-background="new    ">
	<g id="Bracket_copy_3_7_">
		<g>
			<polygon fill="#FFFFFF" points="265.4,155.8 265.4,158.3 250.5,158.3 250.5,149.8 247.5,149.8 247.5,150.8 249.5,150.8 
				249.5,174.3 247.5,174.3 247.5,175.3 250.5,175.3 250.5,159.3 266.4,159.3 266.4,155.8 			"/>
		</g>
	</g>
</g>
<g id="Bracket_copy_5_8_" enable-background="new    ">
	<g id="Bracket_copy_5_7_">
		<g>
			<polygon fill="#FFFFFF" points="250.5,104.9 250.5,99.9 247.5,99.9 247.5,100.9 249.5,100.9 249.5,124.3 247.5,124.3 
				247.5,125.3 250.5,125.3 250.5,105.9 265.4,105.9 265.4,108.4 266.4,108.4 266.4,104.9 			"/>
		</g>
	</g>
</g>
<g id="Bracket_copy_8_" enable-background="new    ">
	<g id="Bracket_copy_7_">
		<g>
			<polygon fill="#FFFFFF" points="265.4,55.9 265.4,58.4 250.5,58.4 250.5,49.9 247.5,49.9 247.5,50.9 249.5,50.9 249.5,74.4 
				247.5,74.4 247.5,75.4 250.5,75.4 250.5,59.4 266.4,59.4 266.4,55.9 			"/>
		</g>
	</g>
</g>
<g id="Bracket_8_" enable-background="new    ">
	<g id="Bracket_7_">
		<g>
			<polygon fill="#FFFFFF" points="250.5,5 250.5,0 247.5,0 247.5,1 249.5,1 249.5,24.5 247.5,24.5 247.5,25.5 250.5,25.5 250.5,6 
				265.4,6 265.4,8.5 266.4,8.5 266.4,5 			"/>
		</g>
	</g>
</g>
<path fill="#FFFFFF" d="M247.5,200.7h2v23.5h-2v1h3v-25.5h-3V200.7z M247.5,250.7h2v23.5h-2v1h3v-25.5h-3V250.7z M247.5,300.6h2
	v23.5h-2v1h3v-25.5h-3V300.6z M247.5,350.6h2V374h-2v1h3v-25.5h-3V350.6z M247.5,0v1h2v23.5h-2v1h3V0H247.5z M247.5,50.9h2v23.5h-2
	v1h3V49.9h-3V50.9z M247.5,100.9h2v23.5h-2v1h3V99.9h-3V100.9z M247.5,150.8h2v23.5h-2v1h3v-25.5h-3V150.8z"/>
<polygon fill="#FFFFFF" points="322.9,229.7 322.9,230.7 342.8,230.7 342.8,258.2 343.8,258.2 343.8,229.7 "/>
<polygon fill="#4E4031" points="322.9,224.7 319.9,224.7 319.9,225.7 321.9,225.7 321.9,249.2 319.9,249.2 319.9,250.2 322.9,250.2 
	322.9,230.7 322.9,229.7 "/>
<polygon fill="#FFFFFF" points="319.9,26 321.9,26 321.9,49.4 319.9,49.4 319.9,50.4 322.9,50.4 322.9,25 319.9,25 "/>
<polygon fill="#FFFFFF" points="374.8,75.9 376.8,75.9 376.8,99.4 374.8,99.4 374.8,100.4 377.8,100.4 377.8,74.9 374.8,74.9 "/>
<polygon fill="#FFFFFF" points="319.9,225.7 321.9,225.7 321.9,249.2 319.9,249.2 319.9,250.2 322.9,250.2 322.9,224.7 319.9,224.7 
	"/>
<polygon fill="#FFFFFF" points="319.9,325.6 321.9,325.6 321.9,349.1 319.9,349.1 319.9,350.1 322.9,350.1 322.9,324.6 319.9,324.6 
	"/>
<polygon fill="#FFFFFF" points="319.9,442.9 321.9,442.9 321.9,466.4 319.9,466.4 319.9,467.4 322.9,467.4 322.9,441.9 319.9,441.9 
	"/>
<polygon fill="#FFFFFF" points="319.9,542.8 321.9,542.8 321.9,566.3 319.9,566.3 319.9,567.3 322.9,567.3 322.9,541.8 319.9,541.8 
	"/>
<polygon fill="#FFFFFF" points="319.9,642.7 321.9,642.7 321.9,666.2 319.9,666.2 319.9,667.2 322.9,667.2 322.9,641.7 319.9,641.7 
	"/>
<polygon fill="#FFFFFF" points="319.9,742.6 321.9,742.6 321.9,766 319.9,766 319.9,767 322.9,767 322.9,741.6 319.9,741.6 "/>
<g id="Bracket_copy_13_2_" enable-background="new    ">
	<g id="Bracket_copy_13_3_">
		<g>
			<polygon fill="#FFFFFF" points="539.6,742.6 539.6,741.6 536.6,741.6 536.6,743.1 536.6,743.1 536.6,767 539.6,767 539.6,766 
				537.6,766 537.6,742.6 			"/>
		</g>
	</g>
</g>
<g id="Bracket_copy_13_4_" enable-background="new    ">
	<g id="Bracket_copy_13_5_">
		<g>
			<polygon fill="#FFFFFF" points="539.6,642.7 539.6,641.7 536.6,641.7 536.6,643.2 536.6,643.2 536.6,667.2 539.6,667.2 
				539.6,666.2 537.6,666.2 537.6,642.7 			"/>
		</g>
	</g>
</g>
<g id="Bracket_copy_13_6_" enable-background="new    ">
	<g id="Bracket_copy_13_7_">
		<g>
			<polygon fill="#FFFFFF" points="539.6,542.8 539.6,541.8 536.6,541.8 536.6,543.3 536.6,543.3 536.6,567.3 539.6,567.3 
				539.6,566.3 537.6,566.3 537.6,542.8 			"/>
		</g>
	</g>
</g>
<g id="Bracket_copy_13_8_" enable-background="new    ">
	<g id="Bracket_copy_13_9_">
		<g>
			<polygon fill="#FFFFFF" points="539.6,442.9 539.6,441.9 536.6,441.9 536.6,443.4 536.6,443.4 536.6,467.4 539.6,467.4 
				539.6,466.4 537.6,466.4 537.6,442.9 			"/>
		</g>
	</g>
</g>
<g id="Bracket_copy_13_10_" enable-background="new    ">
	<g id="Bracket_copy_13_11_">
		<g>
			<polygon fill="#FFFFFF" points="539.6,325.6 539.6,324.6 536.6,324.6 536.6,326.1 536.6,326.1 536.6,350.1 539.6,350.1 
				539.6,349.1 537.6,349.1 537.6,325.6 			"/>
		</g>
	</g>
</g>
<g id="Bracket_copy_13_12_" enable-background="new    ">
	<g id="Bracket_copy_13_13_">
		<g>
			<polygon fill="#FFFFFF" points="539.6,225.7 539.6,224.7 536.6,224.7 536.6,226.2 536.6,226.2 536.6,250.2 539.6,250.2 
				539.6,249.2 537.6,249.2 537.6,225.7 			"/>
		</g>
	</g>
</g>
<g id="Bracket_copy_13_14_" enable-background="new    ">
	<g id="Bracket_copy_13_15_">
		<g>
			<polygon fill="#FFFFFF" points="539.6,125.8 539.6,124.8 536.6,124.8 536.6,126.3 536.6,126.3 536.6,150.3 539.6,150.3 
				539.6,149.3 537.6,149.3 537.6,125.8 			"/>
		</g>
	</g>
</g>
<g id="Bracket_copy_13_16_" enable-background="new    ">
	<g id="Bracket_copy_13_17_">
		<g>
			<polygon fill="#FFFFFF" points="539.6,26 539.6,25 536.6,25 536.6,26.5 536.6,26.5 536.6,50.4 539.6,50.4 539.6,49.4 537.6,49.4 
				537.6,26 			"/>
		</g>
	</g>
</g>
<polygon fill="#FFFFFF" points="374.8,275.7 376.8,275.7 376.8,299.1 374.8,299.1 374.8,300.1 377.8,300.1 377.8,274.7 374.8,274.7 
	"/>
<polygon fill="#FFFFFF" points="374.8,492.9 376.8,492.9 376.8,516.3 374.8,516.3 374.8,517.3 377.8,517.3 377.8,491.9 374.8,491.9 
	"/>
<polygon fill="#FFFFFF" points="374.8,692.6 376.8,692.6 376.8,716.1 374.8,716.1 374.8,717.1 377.8,717.1 377.8,691.6 374.8,691.6 
	"/>
<g id="Bracket_copy_13_18_" enable-background="new    ">
	<g id="Bracket_copy_13_19_">
		<g>
			<polygon fill="#FFFFFF" points="484.7,692.6 484.7,691.6 481.7,691.6 481.7,693.1 481.7,693.1 481.7,717.1 484.7,717.1 
				484.7,716.1 482.7,716.1 482.7,692.6 			"/>
		</g>
	</g>
</g>
<g id="Bracket_copy_13_20_" enable-background="new    ">
	<g id="Bracket_copy_13_21_">
		<g>
			<polygon fill="#FFFFFF" points="484.7,492.9 484.7,491.9 481.7,491.9 481.7,493.4 481.7,493.4 481.7,517.3 484.7,517.3 
				484.7,516.3 482.7,516.3 482.7,492.9 			"/>
		</g>
	</g>
</g>
<g id="Bracket_copy_13_22_" enable-background="new    ">
	<g id="Bracket_copy_13_23_">
		<g>
			<polygon fill="#FFFFFF" points="484.7,275.7 484.7,274.7 481.7,274.7 481.7,276.2 481.7,276.2 481.7,300.1 484.7,300.1 
				484.7,299.1 482.7,299.1 482.7,275.7 			"/>
		</g>
	</g>
</g>
<g id="Bracket_copy_13_24_" enable-background="new    ">
	<g id="Bracket_copy_13_25_">
		<g>
			<polygon fill="#FFFFFF" points="484.7,75.9 484.7,74.9 481.7,74.9 481.7,76.4 481.7,76.4 481.7,100.4 484.7,100.4 484.7,99.4 
				482.7,99.4 482.7,75.9 			"/>
		</g>
	</g>
</g>
</svg>
