<?xml version="1.0" encoding="iso-8859-1"?>
<!-- Generator: Adobe Illustrator 17.1.0, SVG Export Plug-In . SVG Version: 6.00 Build 0)  -->
<!DOCTYPE svg PUBLIC "-//W3C//DTD SVG 1.1//EN" "http://www.w3.org/Graphics/SVG/1.1/DTD/svg11.dtd">
<svg version="1.1" xmlns="http://www.w3.org/2000/svg" xmlns:xlink="http://www.w3.org/1999/xlink" x="0px" y="0px"
	 viewBox="0 0 730 1586" style="enable-background:new 0 0 730 1586;" xml:space="preserve">
<g id="Rounded_Box_copy_2_xA0_Image_3_">
</g>
<g id="Rounded_Box_copy_2_xA0_Image_1_">
</g>
<g id="Rounded_Box_copy_3_xA0_Image_3_">
</g>
<g id="Rounded_Box_copy_3_xA0_Image_1_">
</g>
<g id="Rounded_Box_copy_4_xA0_Image_3_">
</g>
<g id="Rounded_Box_copy_4_xA0_Image_1_">
</g>
<g id="Rounded_Box_copy_5_xA0_Image_3_">
</g>
<g id="Rounded_Box_copy_5_xA0_Image_1_">
</g>
<g id="Rounded_Box_xA0_Image_15_">
</g>
<g id="Rounded_Box_copy_xA0_Image_15_">
</g>
<g id="Rounded_Box_copy_6_xA0_Image_15_">
</g>
<g id="Rounded_Box_copy_6_xA0_Image_13_">
</g>
<g id="Rounded_Box_copy_8_xA0_Image_7_">
</g>
<g id="Rounded_Box_copy_7_xA0_Image_7_">
</g>
<g id="Bracket_copy_4_15_" style="enable-background:new    ;">
	<g id="Bracket_copy_4">
		<g>
			<polygon style="fill-rule:evenodd;clip-rule:evenodd;fill:#4E5A20;" points="475,987 475,985 469,985 469,1002 422,1002 422,980 
				420,980 420,1004 469,1004 469,1036 475,1036 475,1034 471,1034 471,987 			"/>
		</g>
	</g>
</g>
<g id="Bracket_copy_6_15_" style="enable-background:new    ;">
	<g id="Bracket_copy_6">
		<g>
			<polygon style="fill-rule:evenodd;clip-rule:evenodd;fill:#4E5A20;" points="585,1487 585,1485 579,1485 579,1502 539,1502 
				539,1447 537,1447 537,1504 579,1504 579,1536 585,1536 585,1534 581,1534 581,1487 			"/>
		</g>
	</g>
</g>
<g id="Bracket_copy_2_15_" style="enable-background:new    ;">
	<g id="Bracket_copy_2">
		<g>
			<polygon style="fill-rule:evenodd;clip-rule:evenodd;fill:#4E5A20;" points="585,1287 585,1285 579,1285 579,1295 537,1295 
				537,1352 539,1352 539,1297 579,1297 579,1336 585,1336 585,1334 581,1334 581,1287 			"/>
		</g>
	</g>
</g>
<g id="Bracket_copy_3_15_" style="enable-background:new    ;">
	<g id="Bracket_copy_3">
		<g>
			<polygon style="fill-rule:evenodd;clip-rule:evenodd;fill:#4E5A20;" points="730,1537 730,1535 724,1535 724,1552 694,1552 
				694,1547 692,1547 692,1554 724,1554 724,1586 730,1586 730,1584 726,1584 726,1537 			"/>
		</g>
	</g>
</g>
<g id="Bracket_copy_5_15_" style="enable-background:new    ;">
	<g id="Bracket_copy_5">
		<g>
			<polygon style="fill-rule:evenodd;clip-rule:evenodd;fill:#4E5A20;" points="730,1437 730,1435 724,1435 724,1445 692,1445 
				692,1452 694,1452 694,1447 724,1447 724,1486 730,1486 730,1484 726,1484 726,1437 			"/>
		</g>
	</g>
</g>
<g id="Bracket_copy_15_" style="enable-background:new    ;">
	<g id="Bracket_copy">
		<g>
			<polygon style="fill-rule:evenodd;clip-rule:evenodd;fill:#4E5A20;" points="730,1337 730,1335 724,1335 724,1352 694,1352 
				694,1347 692,1347 692,1354 724,1354 724,1386 730,1386 730,1384 726,1384 726,1337 			"/>
		</g>
	</g>
</g>
<g id="Bracket_15_" style="enable-background:new    ;">
	<g id="Bracket">
		<g>
			<polygon style="fill-rule:evenodd;clip-rule:evenodd;fill:#4E5A20;" points="730,1237 730,1235 724,1235 724,1245 692,1245 
				692,1252 694,1252 694,1247 724,1247 724,1286 730,1286 730,1284 726,1284 726,1237 			"/>
		</g>
	</g>
</g>
<g id="Bracket_copy_10_1_" style="enable-background:new    ;">
	<g id="Bracket_copy_10">
		<g>
			<polygon style="fill-rule:evenodd;clip-rule:evenodd;fill:#FFFFFF;" points="730,1237 730,1235 724,1235 724,1238 724,1238 
				724,1286 730,1286 730,1284 726,1284 726,1237 			"/>
		</g>
	</g>
</g>
<g id="Bracket_copy_11_1_" style="enable-background:new    ;">
	<g id="Bracket_copy_11">
		<g>
			<polygon style="fill-rule:evenodd;clip-rule:evenodd;fill:#FFFFFF;" points="730,1337 730,1335 724,1335 724,1338 724,1338 
				724,1386 730,1386 730,1384 726,1384 726,1337 			"/>
		</g>
	</g>
</g>
<g id="Bracket_copy_12_1_" style="enable-background:new    ;">
	<g id="Bracket_copy_12">
		<g>
			<polygon style="fill-rule:evenodd;clip-rule:evenodd;fill:#FFFFFF;" points="730,1437 730,1435 724,1435 724,1438 724,1438 
				724,1486 730,1486 730,1484 726,1484 726,1437 			"/>
		</g>
	</g>
</g>
<g id="Bracket_copy_13_1_" style="enable-background:new    ;">
	<g id="Bracket_copy_13">
		<g>
			<polygon style="fill-rule:evenodd;clip-rule:evenodd;fill:#FFFFFF;" points="730,1537 730,1535 724,1535 724,1538 724,1538 
				724,1586 730,1586 730,1584 726,1584 726,1537 			"/>
		</g>
	</g>
</g>
<g id="Rounded_Box_xA0_Image_13_">
</g>
<g id="Rounded_Box_copy_xA0_Image_13_">
</g>
<g id="Rounded_Box_copy_11_xA0_Image_3_">
</g>
<g id="Rounded_Box_copy_11_xA0_Image_1_">
</g>
<g id="Rounded_Box_copy_12_xA0_Image_3_">
</g>
<g id="Rounded_Box_copy_12_xA0_Image_1_">
</g>
<g id="Bracket_copy_4_14_" style="enable-background:new    ;">
	<g id="Bracket_copy_4_1_">
		<g>
			<polygon style="fill-rule:evenodd;clip-rule:evenodd;fill:#4E5A20;" points="475,1387 475,1385 469,1385 469,1401 412,1401 
				412,980 410,980 410,1403 469,1403 469,1436 475,1436 475,1434 471,1434 471,1387 			"/>
		</g>
	</g>
</g>
<g id="Bracket_copy_6_14_" style="enable-background:new    ;">
	<g id="Bracket_copy_6_1_">
		<g>
			<polygon style="fill-rule:evenodd;clip-rule:evenodd;fill:#4E5A20;" points="585,1087 585,1085 579,1085 579,1102 539,1102 
				539,1047 537,1047 537,1104 579,1104 579,1136 585,1136 585,1134 581,1134 581,1087 			"/>
		</g>
	</g>
</g>
<g id="Bracket_copy_2_14_" style="enable-background:new    ;">
	<g id="Bracket_copy_2_1_">
		<g>
			<polygon style="fill-rule:evenodd;clip-rule:evenodd;fill:#4E5A20;" points="585,887 585,885 579,885 579,895 537,895 537,952 
				539,952 539,897 579,897 579,936 585,936 585,934 581,934 581,887 			"/>
		</g>
	</g>
</g>
<g id="Bracket_copy_3_14_" style="enable-background:new    ;">
	<g id="Bracket_copy_3_1_">
		<g>
			<polygon style="fill-rule:evenodd;clip-rule:evenodd;fill:#4E5A20;" points="730,1137 730,1135 724,1135 724,1152 694,1152 
				694,1147 692,1147 692,1154 724,1154 724,1186 730,1186 730,1184 726,1184 726,1137 			"/>
		</g>
	</g>
</g>
<g id="Bracket_copy_5_14_" style="enable-background:new    ;">
	<g id="Bracket_copy_5_1_">
		<g>
			<polygon style="fill-rule:evenodd;clip-rule:evenodd;fill:#4E5A20;" points="730,1037 730,1035 724,1035 724,1045 692,1045 
				692,1052 694,1052 694,1047 724,1047 724,1086 730,1086 730,1084 726,1084 726,1037 			"/>
		</g>
	</g>
</g>
<g id="Bracket_copy_14_" style="enable-background:new    ;">
	<g id="Bracket_copy_1_">
		<g>
			<polygon style="fill-rule:evenodd;clip-rule:evenodd;fill:#4E5A20;" points="730,937 730,935 724,935 724,952 694,952 694,947 
				692,947 692,954 724,954 724,986 730,986 730,984 726,984 726,937 			"/>
		</g>
	</g>
</g>
<g id="Bracket_14_" style="enable-background:new    ;">
	<g id="Bracket_1_">
		<g>
			<polygon style="fill-rule:evenodd;clip-rule:evenodd;fill:#4E5A20;" points="730,837 730,835 724,835 724,845 692,845 692,852 
				694,852 694,847 724,847 724,886 730,886 730,884 726,884 726,837 			"/>
		</g>
	</g>
</g>
<g id="Bracket_copy_16_7_" style="enable-background:new    ;">
	<g id="Bracket_copy_16">
		<g>
			<polygon style="fill-rule:evenodd;clip-rule:evenodd;fill:#FFFFFF;" points="730,837 730,835 724,835 724,838 724,838 724,886 
				730,886 730,884 726,884 726,837 			"/>
		</g>
	</g>
</g>
<g id="Bracket_copy_16_6_" style="enable-background:new    ;">
	<g id="Bracket_copy_16_1_">
		<g>
			<polygon style="fill-rule:evenodd;clip-rule:evenodd;fill:#FFFFFF;" points="730,937 730,935 724,935 724,938 724,938 724,986 
				730,986 730,984 726,984 726,937 			"/>
		</g>
	</g>
</g>
<g id="Bracket_copy_16_5_" style="enable-background:new    ;">
	<g id="Bracket_copy_16_2_">
		<g>
			<polygon style="fill-rule:evenodd;clip-rule:evenodd;fill:#FFFFFF;" points="730,1037 730,1035 724,1035 724,1038 724,1038 
				724,1086 730,1086 730,1084 726,1084 726,1037 			"/>
		</g>
	</g>
</g>
<g id="Bracket_copy_16_4_" style="enable-background:new    ;">
	<g id="Bracket_copy_16_3_">
		<g>
			<polygon style="fill-rule:evenodd;clip-rule:evenodd;fill:#FFFFFF;" points="730,1137 730,1135 724,1135 724,1138 724,1138 
				724,1186 730,1186 730,1184 726,1184 726,1137 			"/>
		</g>
	</g>
</g>
<g id="Rounded_Box_xA0_Image_11_">
</g>
<g id="Rounded_Box_copy_xA0_Image_11_">
</g>
<g id="Rounded_Box_copy_6_xA0_Image_11_">
</g>
<g id="Rounded_Box_copy_6_xA0_Image_9_">
</g>
<g id="Rounded_Box_copy_8_xA0_Image_5_">
</g>
<g id="Rounded_Box_copy_7_xA0_Image_5_">
</g>
<g id="Bracket_copy_4_13_" style="enable-background:new    ;">
	<g id="Bracket_copy_4_2_">
		<g>
			<polygon style="fill-rule:evenodd;clip-rule:evenodd;fill:#4E5A20;" points="475,552 475,550 469,550 469,560 420,560 420,584 
				422,584 422,562 469,562 469,601 475,601 475,599 471,599 471,552 			"/>
		</g>
	</g>
</g>
<g id="Bracket_copy_6_13_" style="enable-background:new    ;">
	<g id="Bracket_copy_6_2_">
		<g>
			<polygon style="fill-rule:evenodd;clip-rule:evenodd;fill:#4E5A20;" points="585,652 585,650 579,650 579,667 539,667 539,612 
				537,612 537,669 579,669 579,701 585,701 585,699 581,699 581,652 			"/>
		</g>
	</g>
</g>
<g id="Bracket_copy_2_13_" style="enable-background:new    ;">
	<g id="Bracket_copy_2_2_">
		<g>
			<polygon style="fill-rule:evenodd;clip-rule:evenodd;fill:#4E5A20;" points="585,452 585,450 579,450 579,460 537,460 537,517 
				539,517 539,462 579,462 579,501 585,501 585,499 581,499 581,452 			"/>
		</g>
	</g>
</g>
<g id="Bracket_copy_3_13_" style="enable-background:new    ;">
	<g id="Bracket_copy_3_2_">
		<g>
			<polygon style="fill-rule:evenodd;clip-rule:evenodd;fill:#4E5A20;" points="730,702 730,700 724,700 724,717 694,717 694,712 
				692,712 692,719 724,719 724,751 730,751 730,749 726,749 726,702 			"/>
		</g>
	</g>
</g>
<g id="Bracket_copy_5_13_" style="enable-background:new    ;">
	<g id="Bracket_copy_5_2_">
		<g>
			<polygon style="fill-rule:evenodd;clip-rule:evenodd;fill:#4E5A20;" points="730,602 730,600 724,600 724,610 692,610 692,617 
				694,617 694,612 724,612 724,651 730,651 730,649 726,649 726,602 			"/>
		</g>
	</g>
</g>
<g id="Bracket_copy_13_" style="enable-background:new    ;">
	<g id="Bracket_copy_2_">
		<g>
			<polygon style="fill-rule:evenodd;clip-rule:evenodd;fill:#4E5A20;" points="730,502 730,500 724,500 724,517 694,517 694,512 
				692,512 692,519 724,519 724,551 730,551 730,549 726,549 726,502 			"/>
		</g>
	</g>
</g>
<g id="Bracket_13_" style="enable-background:new    ;">
	<g id="Bracket_2_">
		<g>
			<polygon style="fill-rule:evenodd;clip-rule:evenodd;fill:#4E5A20;" points="730,402 730,400 724,400 724,410 692,410 692,417 
				694,417 694,412 724,412 724,451 730,451 730,449 726,449 726,402 			"/>
		</g>
	</g>
</g>
<g id="Bracket_copy_7_1_" style="enable-background:new    ;">
	<g id="Bracket_copy_7">
		<g>
			<polygon style="fill-rule:evenodd;clip-rule:evenodd;fill:#FFFFFF;" points="730,402 730,400 724,400 724,403 724,403 724,451 
				730,451 730,449 726,449 726,402 			"/>
		</g>
	</g>
</g>
<g id="Bracket_copy_8_1_" style="enable-background:new    ;">
	<g id="Bracket_copy_8">
		<g>
			<polygon style="fill-rule:evenodd;clip-rule:evenodd;fill:#FFFFFF;" points="730,502 730,500 724,500 724,503 724,503 724,551 
				730,551 730,549 726,549 726,502 			"/>
		</g>
	</g>
</g>
<g id="Bracket_copy_9_3_" style="enable-background:new    ;">
	<g id="Bracket_copy_9">
		<g>
			<polygon style="fill-rule:evenodd;clip-rule:evenodd;fill:#FFFFFF;" points="730,602 730,600 724,600 724,603 724,603 724,651 
				730,651 730,649 726,649 726,602 			"/>
		</g>
	</g>
</g>
<g id="Bracket_copy_9_2_" style="enable-background:new    ;">
	<g id="Bracket_copy_9_1_">
		<g>
			<polygon style="fill-rule:evenodd;clip-rule:evenodd;fill:#FFFFFF;" points="730,702 730,700 724,700 724,703 724,703 724,751 
				730,751 730,749 726,749 726,702 			"/>
		</g>
	</g>
</g>
<g id="Rounded_Box_xA0_Image_9_">
</g>
<g id="Rounded_Box_copy_xA0_Image_9_">
</g>
<g id="Rounded_Box_copy_15_xA0_Image_3_">
</g>
<g id="Rounded_Box_copy_15_xA0_Image_1_">
</g>
<g id="Rounded_Box_copy_16_xA0_Image_3_">
</g>
<g id="Rounded_Box_copy_16_xA0_Image_1_">
</g>
<g id="Bracket_copy_4_12_" style="enable-background:new    ;">
	<g id="Bracket_copy_4_3_">
		<g>
			<polygon style="fill-rule:evenodd;clip-rule:evenodd;fill:#4E5A20;" points="475,152 475,150 469,150 469,160 410,160 410,584 
				412,584 412,162 469,162 469,201 475,201 475,199 471,199 471,152 			"/>
		</g>
	</g>
</g>
<g id="Bracket_copy_6_12_" style="enable-background:new    ;">
	<g id="Bracket_copy_6_3_">
		<g>
			<polygon style="fill-rule:evenodd;clip-rule:evenodd;fill:#4E5A20;" points="585,252 585,250 579,250 579,267 539,267 539,212 
				537,212 537,269 579,269 579,301 585,301 585,299 581,299 581,252 			"/>
		</g>
	</g>
</g>
<g id="Bracket_copy_2_12_" style="enable-background:new    ;">
	<g id="Bracket_copy_2_3_">
		<g>
			<polygon style="fill-rule:evenodd;clip-rule:evenodd;fill:#4E5A20;" points="585,52 585,50 579,50 579,60 537,60 537,117 
				539,117 539,62 579,62 579,101 585,101 585,99 581,99 581,52 			"/>
		</g>
	</g>
</g>
<g id="Bracket_copy_3_12_" style="enable-background:new    ;">
	<g id="Bracket_copy_3_3_">
		<g>
			<polygon style="fill-rule:evenodd;clip-rule:evenodd;fill:#4E5A20;" points="730,302 730,300 724,300 724,317 694,317 694,312 
				692,312 692,319 724,319 724,351 730,351 730,349 726,349 726,302 			"/>
		</g>
	</g>
</g>
<g id="Bracket_copy_5_12_" style="enable-background:new    ;">
	<g id="Bracket_copy_5_3_">
		<g>
			<polygon style="fill-rule:evenodd;clip-rule:evenodd;fill:#4E5A20;" points="730,202 730,200 724,200 724,210 692,210 692,217 
				694,217 694,212 724,212 724,251 730,251 730,249 726,249 726,202 			"/>
		</g>
	</g>
</g>
<g id="Bracket_copy_12_" style="enable-background:new    ;">
	<g id="Bracket_copy_3_">
		<g>
			<polygon style="fill-rule:evenodd;clip-rule:evenodd;fill:#4E5A20;" points="730,102 730,100 724,100 724,117 694,117 694,112 
				692,112 692,119 724,119 724,151 730,151 730,149 726,149 726,102 			"/>
		</g>
	</g>
</g>
<g id="Bracket_12_" style="enable-background:new    ;">
	<g id="Bracket_3_">
		<g>
			<polygon style="fill-rule:evenodd;clip-rule:evenodd;fill:#4E5A20;" points="730,2 730,0 724,0 724,10 692,10 692,17 694,17 
				694,12 724,12 724,51 730,51 730,49 726,49 726,2 			"/>
		</g>
	</g>
</g>
<g id="Bracket_copy_21_1_" style="enable-background:new    ;">
	<g id="Bracket_copy_21">
		<g>
			<polygon style="fill-rule:evenodd;clip-rule:evenodd;fill:#FFFFFF;" points="730,2 730,0 724,0 724,3 724,3 724,51 730,51 
				730,49 726,49 726,2 			"/>
		</g>
	</g>
</g>
<g id="Bracket_copy_20_1_" style="enable-background:new    ;">
	<g id="Bracket_copy_20">
		<g>
			<polygon style="fill-rule:evenodd;clip-rule:evenodd;fill:#FFFFFF;" points="730,102 730,100 724,100 724,103 724,103 724,151 
				730,151 730,149 726,149 726,102 			"/>
		</g>
	</g>
</g>
<g id="Bracket_copy_19_1_" style="enable-background:new    ;">
	<g id="Bracket_copy_19">
		<g>
			<polygon style="fill-rule:evenodd;clip-rule:evenodd;fill:#FFFFFF;" points="730,202 730,200 724,200 724,203 724,203 724,251 
				730,251 730,249 726,249 726,202 			"/>
		</g>
	</g>
</g>
<g id="Bracket_copy_18_1_" style="enable-background:new    ;">
	<g id="Bracket_copy_18">
		<g>
			<polygon style="fill-rule:evenodd;clip-rule:evenodd;fill:#FFFFFF;" points="730,302 730,300 724,300 724,303 724,303 724,351 
				730,351 730,349 726,349 726,302 			"/>
		</g>
	</g>
</g>
<g id="Rounded_Box_xA0_Image_7_">
</g>
<g id="Rounded_Box_copy_xA0_Image_7_">
</g>
<g id="Rounded_Box_copy_6_xA0_Image_7_">
</g>
<g id="Rounded_Box_copy_6_xA0_Image_5_">
</g>
<g id="Rounded_Box_copy_8_xA0_Image_3_">
</g>
<g id="Rounded_Box_copy_7_xA0_Image_3_">
</g>
<g id="Bracket_copy_4_11_" style="enable-background:new    ;">
	<g id="Bracket_copy_4_4_">
		<g>
			<polygon style="fill-rule:evenodd;clip-rule:evenodd;fill:#4E5A20;" points="308,980 308,1002 261,1002 261,985 255,985 255,987 
				259,987 259,1034 255,1034 255,1036 261,1036 261,1004 310,1004 310,980 			"/>
		</g>
	</g>
</g>
<g id="Bracket_copy_6_11_" style="enable-background:new    ;">
	<g id="Bracket_copy_6_4_">
		<g>
			<polygon style="fill-rule:evenodd;clip-rule:evenodd;fill:#4E5A20;" points="191,1447 191,1502 151,1502 151,1485 145,1485 
				145,1487 149,1487 149,1534 145,1534 145,1536 151,1536 151,1504 193,1504 193,1447 			"/>
		</g>
	</g>
</g>
<g id="Bracket_copy_2_11_" style="enable-background:new    ;">
	<g id="Bracket_copy_2_4_">
		<g>
			<polygon style="fill-rule:evenodd;clip-rule:evenodd;fill:#4E5A20;" points="151,1295 151,1285 145,1285 145,1287 149,1287 
				149,1334 145,1334 145,1336 151,1336 151,1297 191,1297 191,1352 193,1352 193,1295 			"/>
		</g>
	</g>
</g>
<g id="Bracket_copy_3_11_" style="enable-background:new    ;">
	<g id="Bracket_copy_3_4_">
		<g>
			<polygon style="fill-rule:evenodd;clip-rule:evenodd;fill:#4E5A20;" points="36,1547 36,1552 6,1552 6,1535 0,1535 0,1537 
				4,1537 4,1584 0,1584 0,1586 6,1586 6,1554 38,1554 38,1547 			"/>
		</g>
	</g>
</g>
<g id="Bracket_copy_5_11_" style="enable-background:new    ;">
	<g id="Bracket_copy_5_4_">
		<g>
			<polygon style="fill-rule:evenodd;clip-rule:evenodd;fill:#4E5A20;" points="6,1445 6,1435 0,1435 0,1437 4,1437 4,1484 0,1484 
				0,1486 6,1486 6,1447 36,1447 36,1452 38,1452 38,1445 			"/>
		</g>
	</g>
</g>
<g id="Bracket_copy_11_" style="enable-background:new    ;">
	<g id="Bracket_copy_4_">
		<g>
			<polygon style="fill-rule:evenodd;clip-rule:evenodd;fill:#4E5A20;" points="36,1347 36,1352 6,1352 6,1335 0,1335 0,1337 
				4,1337 4,1384 0,1384 0,1386 6,1386 6,1354 38,1354 38,1347 			"/>
		</g>
	</g>
</g>
<g id="Bracket_11_" style="enable-background:new    ;">
	<g id="Bracket_4_">
		<g>
			<polygon style="fill-rule:evenodd;clip-rule:evenodd;fill:#4E5A20;" points="6,1245 6,1235 0,1235 0,1237 4,1237 4,1284 0,1284 
				0,1286 6,1286 6,1247 36,1247 36,1252 38,1252 38,1245 			"/>
		</g>
	</g>
</g>
<g id="Bracket_copy_14_7_" style="enable-background:new    ;">
	<g id="Bracket_copy_14">
		<g>
			<polygon style="fill-rule:evenodd;clip-rule:evenodd;fill:#FFFFFF;" points="0,1235 0,1237 4,1237 4,1284 0,1284 0,1286 6,1286 
				6,1235 			"/>
		</g>
	</g>
</g>
<g id="Bracket_copy_14_6_" style="enable-background:new    ;">
	<g id="Bracket_copy_14_1_">
		<g>
			<polygon style="fill-rule:evenodd;clip-rule:evenodd;fill:#FFFFFF;" points="0,1335 0,1337 4,1337 4,1384 0,1384 0,1386 6,1386 
				6,1335 			"/>
		</g>
	</g>
</g>
<g id="Bracket_copy_14_5_" style="enable-background:new    ;">
	<g id="Bracket_copy_14_2_">
		<g>
			<polygon style="fill-rule:evenodd;clip-rule:evenodd;fill:#FFFFFF;" points="0,1435 0,1437 4,1437 4,1484 0,1484 0,1486 6,1486 
				6,1435 			"/>
		</g>
	</g>
</g>
<g id="Bracket_copy_14_4_" style="enable-background:new    ;">
	<g id="Bracket_copy_14_3_">
		<g>
			<polygon style="fill-rule:evenodd;clip-rule:evenodd;fill:#FFFFFF;" points="0,1535 0,1537 4,1537 4,1584 0,1584 0,1586 6,1586 
				6,1535 			"/>
		</g>
	</g>
</g>
<g id="Rounded_Box_xA0_Image_5_">
</g>
<g id="Rounded_Box_copy_xA0_Image_5_">
</g>
<g id="Rounded_Box_copy_10_xA0_Image_3_">
</g>
<g id="Rounded_Box_copy_10_xA0_Image_1_">
</g>
<g id="Rounded_Box_copy_9_xA0_Image_3_">
</g>
<g id="Rounded_Box_copy_9_xA0_Image_1_">
</g>
<g id="Bracket_copy_4_10_" style="enable-background:new    ;">
	<g id="Bracket_copy_4_5_">
		<g>
			<polygon style="fill-rule:evenodd;clip-rule:evenodd;fill:#4E5A20;" points="318,980 318,1401 261,1401 261,1385 255,1385 
				255,1387 259,1387 259,1434 255,1434 255,1436 261,1436 261,1403 320,1403 320,980 			"/>
		</g>
	</g>
</g>
<g id="Bracket_copy_6_10_" style="enable-background:new    ;">
	<g id="Bracket_copy_6_5_">
		<g>
			<polygon style="fill-rule:evenodd;clip-rule:evenodd;fill:#4E5A20;" points="191,1047 191,1102 151,1102 151,1085 145,1085 
				145,1087 149,1087 149,1134 145,1134 145,1136 151,1136 151,1104 193,1104 193,1047 			"/>
		</g>
	</g>
</g>
<g id="Bracket_copy_2_10_" style="enable-background:new    ;">
	<g id="Bracket_copy_2_5_">
		<g>
			<polygon style="fill-rule:evenodd;clip-rule:evenodd;fill:#4E5A20;" points="151,895 151,885 145,885 145,887 149,887 149,934 
				145,934 145,936 151,936 151,897 191,897 191,952 193,952 193,895 			"/>
		</g>
	</g>
</g>
<g id="Bracket_copy_3_10_" style="enable-background:new    ;">
	<g id="Bracket_copy_3_5_">
		<g>
			<polygon style="fill-rule:evenodd;clip-rule:evenodd;fill:#4E5A20;" points="36,1147 36,1152 6,1152 6,1135 0,1135 0,1137 
				4,1137 4,1184 0,1184 0,1186 6,1186 6,1154 38,1154 38,1147 			"/>
		</g>
	</g>
</g>
<g id="Bracket_copy_5_10_" style="enable-background:new    ;">
	<g id="Bracket_copy_5_5_">
		<g>
			<polygon style="fill-rule:evenodd;clip-rule:evenodd;fill:#4E5A20;" points="6,1045 6,1035 0,1035 0,1037 4,1037 4,1084 0,1084 
				0,1086 6,1086 6,1047 36,1047 36,1052 38,1052 38,1045 			"/>
		</g>
	</g>
</g>
<g id="Bracket_copy_10_" style="enable-background:new    ;">
	<g id="Bracket_copy_5_">
		<g>
			<polygon style="fill-rule:evenodd;clip-rule:evenodd;fill:#4E5A20;" points="36,947 36,952 6,952 6,935 0,935 0,937 4,937 4,984 
				0,984 0,986 6,986 6,954 38,954 38,947 			"/>
		</g>
	</g>
</g>
<g id="Bracket_10_" style="enable-background:new    ;">
	<g id="Bracket_5_">
		<g>
			<polygon style="fill-rule:evenodd;clip-rule:evenodd;fill:#4E5A20;" points="6,845 6,835 0,835 0,837 4,837 4,884 0,884 0,886 
				6,886 6,847 36,847 36,852 38,852 38,845 			"/>
		</g>
	</g>
</g>
<g id="Bracket_copy_15_7_" style="enable-background:new    ;">
	<g id="Bracket_copy_15">
		<g>
			<polygon style="fill-rule:evenodd;clip-rule:evenodd;fill:#FFFFFF;" points="0,835 0,837 4,837 4,884 0,884 0,886 6,886 6,835 
							"/>
		</g>
	</g>
</g>
<g id="Bracket_copy_15_6_" style="enable-background:new    ;">
	<g id="Bracket_copy_15_1_">
		<g>
			<polygon style="fill-rule:evenodd;clip-rule:evenodd;fill:#FFFFFF;" points="0,935 0,937 4,937 4,984 0,984 0,986 6,986 6,935 
							"/>
		</g>
	</g>
</g>
<g id="Bracket_copy_15_5_" style="enable-background:new    ;">
	<g id="Bracket_copy_15_2_">
		<g>
			<polygon style="fill-rule:evenodd;clip-rule:evenodd;fill:#FFFFFF;" points="0,1035 0,1037 4,1037 4,1084 0,1084 0,1086 6,1086 
				6,1035 			"/>
		</g>
	</g>
</g>
<g id="Bracket_copy_15_4_" style="enable-background:new    ;">
	<g id="Bracket_copy_15_3_">
		<g>
			<polygon style="fill-rule:evenodd;clip-rule:evenodd;fill:#FFFFFF;" points="0,1135 0,1137 4,1137 4,1184 0,1184 0,1186 6,1186 
				6,1135 			"/>
		</g>
	</g>
</g>
<g id="Rounded_Box_xA0_Image_3_">
</g>
<g id="Rounded_Box_copy_xA0_Image_3_">
</g>
<g id="Rounded_Box_copy_6_xA0_Image_3_">
</g>
<g id="Rounded_Box_copy_6_xA0_Image_1_">
</g>
<g id="Rounded_Box_copy_8_xA0_Image_1_">
</g>
<g id="Rounded_Box_copy_7_xA0_Image_1_">
</g>
<g id="Bracket_copy_4_9_" style="enable-background:new    ;">
	<g id="Bracket_copy_4_6_">
		<g>
			<polygon style="fill-rule:evenodd;clip-rule:evenodd;fill:#4E5A20;" points="261,560 261,550 255,550 255,552 259,552 259,599 
				255,599 255,601 261,601 261,562 308,562 308,584 310,584 310,560 			"/>
		</g>
	</g>
</g>
<g id="Bracket_copy_6_9_" style="enable-background:new    ;">
	<g id="Bracket_copy_6_6_">
		<g>
			<polygon style="fill-rule:evenodd;clip-rule:evenodd;fill:#4E5A20;" points="191,612 191,667 151,667 151,650 145,650 145,652 
				149,652 149,699 145,699 145,701 151,701 151,669 193,669 193,612 			"/>
		</g>
	</g>
</g>
<g id="Bracket_copy_2_9_" style="enable-background:new    ;">
	<g id="Bracket_copy_2_6_">
		<g>
			<polygon style="fill-rule:evenodd;clip-rule:evenodd;fill:#4E5A20;" points="151,460 151,450 145,450 145,452 149,452 149,499 
				145,499 145,501 151,501 151,462 191,462 191,517 193,517 193,460 			"/>
		</g>
	</g>
</g>
<g id="Bracket_copy_3_9_" style="enable-background:new    ;">
	<g id="Bracket_copy_3_6_">
		<g>
			<polygon style="fill-rule:evenodd;clip-rule:evenodd;fill:#4E5A20;" points="36,712 36,717 6,717 6,700 0,700 0,702 4,702 4,749 
				0,749 0,751 6,751 6,719 38,719 38,712 			"/>
		</g>
	</g>
</g>
<g id="Bracket_copy_5_9_" style="enable-background:new    ;">
	<g id="Bracket_copy_5_6_">
		<g>
			<polygon style="fill-rule:evenodd;clip-rule:evenodd;fill:#4E5A20;" points="6,610 6,600 0,600 0,602 4,602 4,649 0,649 0,651 
				6,651 6,612 36,612 36,617 38,617 38,610 			"/>
		</g>
	</g>
</g>
<g id="Bracket_copy_9_" style="enable-background:new    ;">
	<g id="Bracket_copy_6_">
		<g>
			<polygon style="fill-rule:evenodd;clip-rule:evenodd;fill:#4E5A20;" points="36,512 36,517 6,517 6,500 0,500 0,502 4,502 4,549 
				0,549 0,551 6,551 6,519 38,519 38,512 			"/>
		</g>
	</g>
</g>
<g id="Bracket_9_" style="enable-background:new    ;">
	<g id="Bracket_6_">
		<g>
			<polygon style="fill-rule:evenodd;clip-rule:evenodd;fill:#4E5A20;" points="6,410 6,400 0,400 0,402 4,402 4,449 0,449 0,451 
				6,451 6,412 36,412 36,417 38,417 38,410 			"/>
		</g>
	</g>
</g>
<g id="Rounded_Box_xA0_Image_1_">
</g>
<g id="Rounded_Box_copy_xA0_Image_1_">
</g>
<g id="Rounded_Box_copy_13_xA0_Image_3_">
</g>
<g id="Rounded_Box_copy_13_xA0_Image_1_">
</g>
<g id="Rounded_Box_copy_14_xA0_Image_3_">
</g>
<g id="Rounded_Box_copy_14_xA0_Image_1_">
	<g>
		<path style="fill:#4E5A20;" d="M141,68c1.103,0,2,0.897,2,2v38c0,1.103-0.897,2-2,2H14c-1.103,0-2-0.897-2-2V70
			c0-1.103,0.897-2,2-2H141 M141,66H14c-2.209,0-4,1.791-4,4v38c0,2.209,1.791,4,4,4h127c2.209,0,4-1.791,4-4V70
			C145,67.791,143.209,66,141,66L141,66z"/>
	</g>
	<g>
		<path style="fill:#4E5A20;" d="M141,19c1.103,0,2,0.897,2,2v38c0,1.103-0.897,2-2,2H14c-1.103,0-2-0.897-2-2V21
			c0-1.103,0.897-2,2-2H141 M141,17H14c-2.209,0-4,1.791-4,4v38c0,2.209,1.791,4,4,4h127c2.209,0,4-1.791,4-4V21
			C145,18.791,143.209,17,141,17L141,17z"/>
	</g>
	<g>
		<path style="fill:#4E5A20;" d="M716,19c1.103,0,2,0.897,2,2v38c0,1.103-0.897,2-2,2H589c-1.103,0-2-0.897-2-2V21
			c0-1.103,0.897-2,2-2H716 M716,17H589c-2.209,0-4,1.791-4,4v38c0,2.209,1.791,4,4,4h127c2.209,0,4-1.791,4-4V21
			C720,18.791,718.209,17,716,17L716,17z"/>
	</g>
	<g>
		<path style="fill:#4E5A20;" d="M716,68c1.103,0,2,0.897,2,2v38c0,1.103-0.897,2-2,2H589c-1.103,0-2-0.897-2-2V70
			c0-1.103,0.897-2,2-2H716 M716,66H589c-2.209,0-4,1.791-4,4v38c0,2.209,1.791,4,4,4h127c2.209,0,4-1.791,4-4V70
			C720,67.791,718.209,66,716,66L716,66z"/>
	</g>
	<g>
		<path style="fill:#4E5A20;" d="M606,119c1.103,0,2,0.897,2,2v38c0,1.103-0.897,2-2,2H479c-1.103,0-2-0.897-2-2v-38
			c0-1.103,0.897-2,2-2H606 M606,117H479c-2.209,0-4,1.791-4,4v38c0,2.209,1.791,4,4,4h127c2.209,0,4-1.791,4-4v-38
			C610,118.791,608.209,117,606,117L606,117z"/>
	</g>
	<g>
		<path style="fill:#4E5A20;" d="M606,168c1.103,0,2,0.897,2,2v38c0,1.103-0.897,2-2,2H479c-1.103,0-2-0.897-2-2v-38
			c0-1.103,0.897-2,2-2H606 M606,166H479c-2.209,0-4,1.791-4,4v38c0,2.209,1.791,4,4,4h127c2.209,0,4-1.791,4-4v-38
			C610,167.791,608.209,166,606,166L606,166z"/>
	</g>
	<g>
		<path style="fill:#4E5A20;" d="M716,219c1.103,0,2,0.897,2,2v38c0,1.103-0.897,2-2,2H589c-1.103,0-2-0.897-2-2v-38
			c0-1.103,0.897-2,2-2H716 M716,217H589c-2.209,0-4,1.791-4,4v38c0,2.209,1.791,4,4,4h127c2.209,0,4-1.791,4-4v-38
			C720,218.791,718.209,217,716,217L716,217z"/>
	</g>
	<g>
		<path style="fill:#4E5A20;" d="M716,419c1.103,0,2,0.897,2,2v38c0,1.103-0.897,2-2,2H589c-1.103,0-2-0.897-2-2v-38
			c0-1.103,0.897-2,2-2H716 M716,417H589c-2.209,0-4,1.791-4,4v38c0,2.209,1.791,4,4,4h127c2.209,0,4-1.791,4-4v-38
			C720,418.791,718.209,417,716,417L716,417z"/>
	</g>
	<g>
		<path style="fill:#4E5A20;" d="M716,268c1.103,0,2,0.897,2,2v38c0,1.103-0.897,2-2,2H589c-1.103,0-2-0.897-2-2v-38
			c0-1.103,0.897-2,2-2H716 M716,266H589c-2.209,0-4,1.791-4,4v38c0,2.209,1.791,4,4,4h127c2.209,0,4-1.791,4-4v-38
			C720,267.791,718.209,266,716,266L716,266z"/>
	</g>
	<g>
		<path style="fill:#4E5A20;" d="M716,468c1.103,0,2,0.897,2,2v38c0,1.103-0.897,2-2,2H589c-1.103,0-2-0.897-2-2v-38
			c0-1.103,0.897-2,2-2H716 M716,466H589c-2.209,0-4,1.791-4,4v38c0,2.209,1.791,4,4,4h127c2.209,0,4-1.791,4-4v-38
			C720,467.791,718.209,466,716,466L716,466z"/>
	</g>
	<g>
		<path style="fill:#4E5A20;" d="M606,519c1.103,0,2,0.897,2,2v38c0,1.103-0.897,2-2,2H479c-1.103,0-2-0.897-2-2v-38
			c0-1.103,0.897-2,2-2H606 M606,517H479c-2.209,0-4,1.791-4,4v38c0,2.209,1.791,4,4,4h127c2.209,0,4-1.791,4-4v-38
			C610,518.791,608.209,517,606,517L606,517z"/>
	</g>
	<g>
		<path style="fill:#4E5A20;" d="M606,568c1.103,0,2,0.897,2,2v38c0,1.103-0.897,2-2,2H479c-1.103,0-2-0.897-2-2v-38
			c0-1.103,0.897-2,2-2H606 M606,566H479c-2.209,0-4,1.791-4,4v38c0,2.209,1.791,4,4,4h127c2.209,0,4-1.791,4-4v-38
			C610,567.791,608.209,566,606,566L606,566z"/>
	</g>
	<g>
		<path style="fill:#4E5A20;" d="M716,619c1.103,0,2,0.897,2,2v38c0,1.103-0.897,2-2,2H589c-1.103,0-2-0.897-2-2v-38
			c0-1.103,0.897-2,2-2H716 M716,617H589c-2.209,0-4,1.791-4,4v38c0,2.209,1.791,4,4,4h127c2.209,0,4-1.791,4-4v-38
			C720,618.791,718.209,617,716,617L716,617z"/>
	</g>
	<g>
		<path style="fill:#4E5A20;" d="M716,668c1.103,0,2,0.897,2,2v38c0,1.103-0.897,2-2,2H589c-1.103,0-2-0.897-2-2v-38
			c0-1.103,0.897-2,2-2H716 M716,666H589c-2.209,0-4,1.791-4,4v38c0,2.209,1.791,4,4,4h127c2.209,0,4-1.791,4-4v-38
			C720,667.791,718.209,666,716,666L716,666z"/>
	</g>
	<g>
		<path style="fill:#4E5A20;" d="M716,854c1.103,0,2,0.897,2,2v38c0,1.103-0.897,2-2,2H589c-1.103,0-2-0.897-2-2v-38
			c0-1.103,0.897-2,2-2H716 M716,852H589c-2.209,0-4,1.791-4,4v38c0,2.209,1.791,4,4,4h127c2.209,0,4-1.791,4-4v-38
			C720,853.791,718.209,852,716,852L716,852z"/>
	</g>
	<g>
		<path style="fill:#4E5A20;" d="M716,903c1.103,0,2,0.897,2,2v38c0,1.103-0.897,2-2,2H589c-1.103,0-2-0.897-2-2v-38
			c0-1.103,0.897-2,2-2H716 M716,901H589c-2.209,0-4,1.791-4,4v38c0,2.209,1.791,4,4,4h127c2.209,0,4-1.791,4-4v-38
			C720,902.791,718.209,901,716,901L716,901z"/>
	</g>
	<g>
		<path style="fill:#4E5A20;" d="M606,954c1.103,0,2,0.897,2,2v38c0,1.103-0.897,2-2,2H479c-1.103,0-2-0.897-2-2v-38
			c0-1.103,0.897-2,2-2H606 M606,952H479c-2.209,0-4,1.791-4,4v38c0,2.209,1.791,4,4,4h127c2.209,0,4-1.791,4-4v-38
			C610,953.791,608.209,952,606,952L606,952z"/>
	</g>
	<g>
		<path style="fill:#4E5A20;" d="M605.938,1003c1.103,0,2,0.897,2,2v38c0,1.103-0.897,2-2,2h-127c-1.103,0-2-0.897-2-2v-38
			c0-1.103,0.897-2,2-2H605.938 M605.938,1001h-127c-2.209,0-4,1.791-4,4v38c0,2.209,1.791,4,4,4h127c2.209,0,4-1.791,4-4v-38
			C609.938,1002.791,608.147,1001,605.938,1001L605.938,1001z"/>
	</g>
	<g>
		<path style="fill:#4E5A20;" d="M716,1054c1.103,0,2,0.897,2,2v38c0,1.103-0.897,2-2,2H589c-1.103,0-2-0.897-2-2v-38
			c0-1.103,0.897-2,2-2H716 M716,1052H589c-2.209,0-4,1.791-4,4v38c0,2.209,1.791,4,4,4h127c2.209,0,4-1.791,4-4v-38
			C720,1053.791,718.209,1052,716,1052L716,1052z"/>
	</g>
	<g>
		<path style="fill:#4E5A20;" d="M716,1103c1.103,0,2,0.897,2,2v38c0,1.103-0.897,2-2,2H589c-1.103,0-2-0.897-2-2v-38
			c0-1.103,0.897-2,2-2H716 M716,1101H589c-2.209,0-4,1.791-4,4v38c0,2.209,1.791,4,4,4h127c2.209,0,4-1.791,4-4v-38
			C720,1102.791,718.209,1101,716,1101L716,1101z"/>
	</g>
	<g>
		<path style="fill:#4E5A20;" d="M716,1254c1.103,0,2,0.897,2,2v38c0,1.103-0.897,2-2,2H589c-1.103,0-2-0.897-2-2v-38
			c0-1.103,0.897-2,2-2H716 M716,1252H589c-2.209,0-4,1.791-4,4v38c0,2.209,1.791,4,4,4h127c2.209,0,4-1.791,4-4v-38
			C720,1253.791,718.209,1252,716,1252L716,1252z"/>
	</g>
	<g>
		<path style="fill:#4E5A20;" d="M716,1303c1.103,0,2,0.897,2,2v38c0,1.103-0.897,2-2,2H589c-1.103,0-2-0.897-2-2v-38
			c0-1.103,0.897-2,2-2H716 M716,1301H589c-2.209,0-4,1.791-4,4v38c0,2.209,1.791,4,4,4h127c2.209,0,4-1.791,4-4v-38
			C720,1302.791,718.209,1301,716,1301L716,1301z"/>
	</g>
	<g>
		<path style="fill:#4E5A20;" d="M606,1354c1.103,0,2,0.897,2,2v38c0,1.103-0.897,2-2,2H479c-1.103,0-2-0.897-2-2v-38
			c0-1.103,0.897-2,2-2H606 M606,1352H479c-2.209,0-4,1.791-4,4v38c0,2.209,1.791,4,4,4h127c2.209,0,4-1.791,4-4v-38
			C610,1353.791,608.209,1352,606,1352L606,1352z"/>
	</g>
	<g>
		<path style="fill:#4E5A20;" d="M606,1403c1.103,0,2,0.897,2,2v38c0,1.103-0.897,2-2,2H479c-1.103,0-2-0.897-2-2v-38
			c0-1.103,0.897-2,2-2H606 M606,1401H479c-2.209,0-4,1.791-4,4v38c0,2.209,1.791,4,4,4h127c2.209,0,4-1.791,4-4v-38
			C610,1402.791,608.209,1401,606,1401L606,1401z"/>
	</g>
	<g>
		<path style="fill:#4E5A20;" d="M716,1454c1.103,0,2,0.897,2,2v38c0,1.103-0.897,2-2,2H589c-1.103,0-2-0.897-2-2v-38
			c0-1.103,0.897-2,2-2H716 M716,1452H589c-2.209,0-4,1.791-4,4v38c0,2.209,1.791,4,4,4h127c2.209,0,4-1.791,4-4v-38
			C720,1453.791,718.209,1452,716,1452L716,1452z"/>
	</g>
	<g>
		<path style="fill:#4E5A20;" d="M716,1503c1.103,0,2,0.897,2,2v38c0,1.103-0.897,2-2,2H589c-1.103,0-2-0.897-2-2v-38
			c0-1.103,0.897-2,2-2H716 M716,1501H589c-2.209,0-4,1.791-4,4v38c0,2.209,1.791,4,4,4h127c2.209,0,4-1.791,4-4v-38
			C720,1502.791,718.209,1501,716,1501L716,1501z"/>
	</g>
	<g>
		<path style="fill:#4E5A20;" d="M251,119c1.103,0,2,0.897,2,2v38c0,1.103-0.897,2-2,2H124c-1.103,0-2-0.897-2-2v-38
			c0-1.103,0.897-2,2-2H251 M251,117H124c-2.209,0-4,1.791-4,4v38c0,2.209,1.791,4,4,4h127c2.209,0,4-1.791,4-4v-38
			C255,118.791,253.209,117,251,117L251,117z"/>
	</g>
	<g>
		<path style="fill:#4E5A20;" d="M251,168c1.103,0,2,0.897,2,2v38c0,1.103-0.897,2-2,2H124c-1.103,0-2-0.897-2-2v-38
			c0-1.103,0.897-2,2-2H251 M251,166H124c-2.209,0-4,1.791-4,4v38c0,2.209,1.791,4,4,4h127c2.209,0,4-1.791,4-4v-38
			C255,167.791,253.209,166,251,166L251,166z"/>
	</g>
	<g>
		<path style="fill:#4E5A20;" d="M141,219c1.103,0,2,0.897,2,2v38c0,1.103-0.897,2-2,2H14c-1.103,0-2-0.897-2-2v-38
			c0-1.103,0.897-2,2-2H141 M141,217H14c-2.209,0-4,1.791-4,4v38c0,2.209,1.791,4,4,4h127c2.209,0,4-1.791,4-4v-38
			C145,218.791,143.209,217,141,217L141,217z"/>
	</g>
	<g>
		<path style="fill:#4E5A20;" d="M141,268c1.103,0,2,0.897,2,2v38c0,1.103-0.897,2-2,2H14c-1.103,0-2-0.897-2-2v-38
			c0-1.103,0.897-2,2-2H141 M141,266H14c-2.209,0-4,1.791-4,4v38c0,2.209,1.791,4,4,4h127c2.209,0,4-1.791,4-4v-38
			C145,267.791,143.209,266,141,266L141,266z"/>
	</g>
	<g>
		<path style="fill:#4E5A20;" d="M141,419c1.103,0,2,0.897,2,2v38c0,1.103-0.897,2-2,2H14c-1.103,0-2-0.897-2-2v-38
			c0-1.103,0.897-2,2-2H141 M141,417H14c-2.209,0-4,1.791-4,4v38c0,2.209,1.791,4,4,4h127c2.209,0,4-1.791,4-4v-38
			C145,418.791,143.209,417,141,417L141,417z"/>
	</g>
	<g>
		<path style="fill:#4E5A20;" d="M141,468.5c1.103,0,2,0.897,2,2v38c0,1.103-0.897,2-2,2H14c-1.103,0-2-0.897-2-2v-38
			c0-1.103,0.897-2,2-2H141 M141,466.5H14c-2.209,0-4,1.791-4,4v38c0,2.209,1.791,4,4,4h127c2.209,0,4-1.791,4-4v-38
			C145,468.291,143.209,466.5,141,466.5L141,466.5z"/>
	</g>
	<g>
		<path style="fill:#4E5A20;" d="M251,518.5c1.103,0,2,0.897,2,2v38c0,1.103-0.897,2-2,2H124c-1.103,0-2-0.897-2-2v-38
			c0-1.103,0.897-2,2-2H251 M251,516.5H124c-2.209,0-4,1.791-4,4v38c0,2.209,1.791,4,4,4h127c2.209,0,4-1.791,4-4v-38
			C255,518.291,253.209,516.5,251,516.5L251,516.5z"/>
	</g>
	<g>
		<path style="fill:#4E5A20;" d="M251,568c1.103,0,2,0.897,2,2v38c0,1.103-0.897,2-2,2H124c-1.103,0-2-0.897-2-2v-38
			c0-1.103,0.897-2,2-2H251 M251,566H124c-2.209,0-4,1.791-4,4v38c0,2.209,1.791,4,4,4h127c2.209,0,4-1.791,4-4v-38
			C255,567.791,253.209,566,251,566L251,566z"/>
	</g>
	<g>
		<path style="fill:#4E5A20;" d="M428,586c1.103,0,2,0.897,2,2v38c0,1.103-0.897,2-2,2H301c-1.103,0-2-0.897-2-2v-38
			c0-1.103,0.897-2,2-2H428 M428,584H301c-2.209,0-4,1.791-4,4v38c0,2.209,1.791,4,4,4h127c2.209,0,4-1.791,4-4v-38
			C432,585.791,430.209,584,428,584L428,584z"/>
	</g>
	<g>
		<path style="fill:#4E5A20;" d="M428,636c1.103,0,2,0.897,2,2v38c0,1.103-0.897,2-2,2H301c-1.103,0-2-0.897-2-2v-38
			c0-1.103,0.897-2,2-2H428 M428,634H301c-2.209,0-4,1.791-4,4v38c0,2.209,1.791,4,4,4h127c2.209,0,4-1.791,4-4v-38
			C432,635.791,430.209,634,428,634L428,634z"/>
	</g>
	<g>
		<path style="fill:#4E5A20;" d="M428,685.938c1.103,0,2,0.897,2,2v38c0,1.103-0.897,2-2,2H301c-1.103,0-2-0.897-2-2v-38
			c0-1.103,0.897-2,2-2H428 M428,683.938H301c-2.209,0-4,1.791-4,4v38c0,2.209,1.791,4,4,4h127c2.209,0,4-1.791,4-4v-38
			C432,685.728,430.209,683.938,428,683.938L428,683.938z"/>
	</g>
	<g>
		<path style="fill:#4E5A20;" d="M428,735.938c1.103,0,2,0.897,2,2v38c0,1.103-0.897,2-2,2H301c-1.103,0-2-0.897-2-2v-38
			c0-1.103,0.897-2,2-2H428 M428,733.938H301c-2.209,0-4,1.791-4,4v38c0,2.209,1.791,4,4,4h127c2.209,0,4-1.791,4-4v-38
			C432,735.728,430.209,733.938,428,733.938L428,733.938z"/>
	</g>
	<g>
		<path style="fill:#4E5A20;" d="M428,786c1.103,0,2,0.897,2,2v38c0,1.103-0.897,2-2,2H301c-1.103,0-2-0.897-2-2v-38
			c0-1.103,0.897-2,2-2H428 M428,784H301c-2.209,0-4,1.791-4,4v38c0,2.209,1.791,4,4,4h127c2.209,0,4-1.791,4-4v-38
			C432,785.791,430.209,784,428,784L428,784z"/>
	</g>
	<g>
		<path style="fill:#4E5A20;" d="M428,836c1.103,0,2,0.897,2,2v38c0,1.103-0.897,2-2,2H301c-1.103,0-2-0.897-2-2v-38
			c0-1.103,0.897-2,2-2H428 M428,834H301c-2.209,0-4,1.791-4,4v38c0,2.209,1.791,4,4,4h127c2.209,0,4-1.791,4-4v-38
			C432,835.791,430.209,834,428,834L428,834z"/>
	</g>
	<g>
		<path style="fill:#4E5A20;" d="M428,886c1.103,0,2,0.897,2,2v38c0,1.103-0.897,2-2,2H301c-1.103,0-2-0.897-2-2v-38
			c0-1.103,0.897-2,2-2H428 M428,884H301c-2.209,0-4,1.791-4,4v38c0,2.209,1.791,4,4,4h127c2.209,0,4-1.791,4-4v-38
			C432,885.791,430.209,884,428,884L428,884z"/>
	</g>
	<g>
		<path style="fill:#4E5A20;" d="M428,936c1.103,0,2,0.897,2,2v38c0,1.103-0.897,2-2,2H301c-1.103,0-2-0.897-2-2v-38
			c0-1.103,0.897-2,2-2H428 M428,934H301c-2.209,0-4,1.791-4,4v38c0,2.209,1.791,4,4,4h127c2.209,0,4-1.791,4-4v-38
			C432,935.791,430.209,934,428,934L428,934z"/>
	</g>
	<g>
		<path style="fill:#4E5A20;" d="M141,619.5c1.103,0,2,0.897,2,2v38c0,1.103-0.897,2-2,2H14c-1.103,0-2-0.897-2-2v-38
			c0-1.103,0.897-2,2-2H141 M141,617.5H14c-2.209,0-4,1.791-4,4v38c0,2.209,1.791,4,4,4h127c2.209,0,4-1.791,4-4v-38
			C145,619.291,143.209,617.5,141,617.5L141,617.5z"/>
	</g>
	<g>
		<path style="fill:#4E5A20;" d="M141,668c1.103,0,2,0.897,2,2v38c0,1.103-0.897,2-2,2H14c-1.103,0-2-0.897-2-2v-38
			c0-1.103,0.897-2,2-2H141 M141,666H14c-2.209,0-4,1.791-4,4v38c0,2.209,1.791,4,4,4h127c2.209,0,4-1.791,4-4v-38
			C145,667.791,143.209,666,141,666L141,666z"/>
	</g>
	<g>
		<path style="fill:#4E5A20;" d="M141,854c1.103,0,2,0.897,2,2v38c0,1.103-0.897,2-2,2H14c-1.103,0-2-0.897-2-2v-38
			c0-1.103,0.897-2,2-2H141 M141,852H14c-2.209,0-4,1.791-4,4v38c0,2.209,1.791,4,4,4h127c2.209,0,4-1.791,4-4v-38
			C145,853.791,143.209,852,141,852L141,852z"/>
	</g>
	<g>
		<path style="fill:#4E5A20;" d="M141,903c1.103,0,2,0.897,2,2v38c0,1.103-0.897,2-2,2H14c-1.103,0-2-0.897-2-2v-38
			c0-1.103,0.897-2,2-2H141 M141,901H14c-2.209,0-4,1.791-4,4v38c0,2.209,1.791,4,4,4h127c2.209,0,4-1.791,4-4v-38
			C145,902.791,143.209,901,141,901L141,901z"/>
	</g>
	<g>
		<path style="fill:#4E5A20;" d="M251,954c1.103,0,2,0.897,2,2v38c0,1.103-0.897,2-2,2H124c-1.103,0-2-0.897-2-2v-38
			c0-1.103,0.897-2,2-2H251 M251,952H124c-2.209,0-4,1.791-4,4v38c0,2.209,1.791,4,4,4h127c2.209,0,4-1.791,4-4v-38
			C255,953.791,253.209,952,251,952L251,952z"/>
	</g>
	<g>
		<path style="fill:#4E5A20;" d="M251,1003c1.103,0,2,0.897,2,2v38c0,1.103-0.897,2-2,2H124c-1.103,0-2-0.897-2-2v-38
			c0-1.103,0.897-2,2-2H251 M251,1001H124c-2.209,0-4,1.791-4,4v38c0,2.209,1.791,4,4,4h127c2.209,0,4-1.791,4-4v-38
			C255,1002.791,253.209,1001,251,1001L251,1001z"/>
	</g>
	<g>
		<path style="fill:#4E5A20;" d="M141,1054c1.103,0,2,0.897,2,2v38c0,1.103-0.897,2-2,2H14c-1.103,0-2-0.897-2-2v-38
			c0-1.103,0.897-2,2-2H141 M141,1052H14c-2.209,0-4,1.791-4,4v38c0,2.209,1.791,4,4,4h127c2.209,0,4-1.791,4-4v-38
			C145,1053.791,143.209,1052,141,1052L141,1052z"/>
	</g>
	<g>
		<path style="fill:#4E5A20;" d="M141.5,1103c1.103,0,2,0.897,2,2v38c0,1.103-0.897,2-2,2h-127c-1.103,0-2-0.897-2-2v-38
			c0-1.103,0.897-2,2-2H141.5 M141.5,1101h-127c-2.209,0-4,1.791-4,4v38c0,2.209,1.791,4,4,4h127c2.209,0,4-1.791,4-4v-38
			C145.5,1102.791,143.709,1101,141.5,1101L141.5,1101z"/>
	</g>
	<g>
		<path style="fill:#4E5A20;" d="M141,1254c1.103,0,2,0.897,2,2v38c0,1.103-0.897,2-2,2H14c-1.103,0-2-0.897-2-2v-38
			c0-1.103,0.897-2,2-2H141 M141,1252H14c-2.209,0-4,1.791-4,4v38c0,2.209,1.791,4,4,4h127c2.209,0,4-1.791,4-4v-38
			C145,1253.791,143.209,1252,141,1252L141,1252z"/>
	</g>
	<g>
		<path style="fill:#4E5A20;" d="M141,1303c1.103,0,2,0.897,2,2v38c0,1.103-0.897,2-2,2H14c-1.103,0-2-0.897-2-2v-38
			c0-1.103,0.897-2,2-2H141 M141,1301H14c-2.209,0-4,1.791-4,4v38c0,2.209,1.791,4,4,4h127c2.209,0,4-1.791,4-4v-38
			C145,1302.791,143.209,1301,141,1301L141,1301z"/>
	</g>
	<g>
		<path style="fill:#4E5A20;" d="M251,1354c1.103,0,2,0.897,2,2v38c0,1.103-0.897,2-2,2H124c-1.103,0-2-0.897-2-2v-38
			c0-1.103,0.897-2,2-2H251 M251,1352H124c-2.209,0-4,1.791-4,4v38c0,2.209,1.791,4,4,4h127c2.209,0,4-1.791,4-4v-38
			C255,1353.791,253.209,1352,251,1352L251,1352z"/>
	</g>
	<g>
		<path style="fill:#4E5A20;" d="M251,1403c1.103,0,2,0.897,2,2v38c0,1.103-0.897,2-2,2H124c-1.103,0-2-0.897-2-2v-38
			c0-1.103,0.897-2,2-2H251 M251,1401H124c-2.209,0-4,1.791-4,4v38c0,2.209,1.791,4,4,4h127c2.209,0,4-1.791,4-4v-38
			C255,1402.791,253.209,1401,251,1401L251,1401z"/>
	</g>
	<g>
		<path style="fill:#4E5A20;" d="M141,1454c1.103,0,2,0.897,2,2v38c0,1.103-0.897,2-2,2H14c-1.103,0-2-0.897-2-2v-38
			c0-1.103,0.897-2,2-2H141 M141,1452H14c-2.209,0-4,1.791-4,4v38c0,2.209,1.791,4,4,4h127c2.209,0,4-1.791,4-4v-38
			C145,1453.791,143.209,1452,141,1452L141,1452z"/>
	</g>
	<g>
		<path style="fill:#4E5A20;" d="M141,1503c1.103,0,2,0.897,2,2v38c0,1.103-0.897,2-2,2H14c-1.103,0-2-0.897-2-2v-38
			c0-1.103,0.897-2,2-2H141 M141,1501H14c-2.209,0-4,1.791-4,4v38c0,2.209,1.791,4,4,4h127c2.209,0,4-1.791,4-4v-38
			C145,1502.791,143.209,1501,141,1501L141,1501z"/>
	</g>
</g>
<g id="Bracket_copy_4_8_" style="enable-background:new    ;">
	<g id="Bracket_copy_4_7_">
		<g>
			<polygon style="fill-rule:evenodd;clip-rule:evenodd;fill:#4E5A20;" points="261,160 261,150 255,150 255,152 259,152 259,199 
				255,199 255,201 261,201 261,162 318,162 318,584 320,584 320,160 			"/>
		</g>
	</g>
</g>
<g id="Bracket_copy_6_8_" style="enable-background:new    ;">
	<g id="Bracket_copy_6_7_">
		<g>
			<polygon style="fill-rule:evenodd;clip-rule:evenodd;fill:#4E5A20;" points="191,212 191,267 151,267 151,250 145,250 145,252 
				149,252 149,299 145,299 145,301 151,301 151,269 193,269 193,212 			"/>
		</g>
	</g>
</g>
<g id="Bracket_copy_2_8_" style="enable-background:new    ;">
	<g id="Bracket_copy_2_7_">
		<g>
			<polygon style="fill-rule:evenodd;clip-rule:evenodd;fill:#4E5A20;" points="151,60 151,50 145,50 145,52 149,52 149,99 145,99 
				145,101 151,101 151,62 191,62 191,117 193,117 193,60 			"/>
		</g>
	</g>
</g>
<g id="Bracket_copy_3_8_" style="enable-background:new    ;">
	<g id="Bracket_copy_3_7_">
		<g>
			<polygon style="fill-rule:evenodd;clip-rule:evenodd;fill:#4E5A20;" points="36,312 36,317 6,317 6,300 0,300 0,302 4,302 4,349 
				0,349 0,351 6,351 6,319 38,319 38,312 			"/>
		</g>
	</g>
</g>
<g id="Bracket_copy_5_8_" style="enable-background:new    ;">
	<g id="Bracket_copy_5_7_">
		<g>
			<polygon style="fill-rule:evenodd;clip-rule:evenodd;fill:#4E5A20;" points="6,210 6,200 0,200 0,202 4,202 4,249 0,249 0,251 
				6,251 6,212 36,212 36,217 38,217 38,210 			"/>
		</g>
	</g>
</g>
<g id="Bracket_copy_8_" style="enable-background:new    ;">
	<g id="Bracket_copy_7_">
		<g>
			<polygon style="fill-rule:evenodd;clip-rule:evenodd;fill:#4E5A20;" points="36,112 36,117 6,117 6,100 0,100 0,102 4,102 4,149 
				0,149 0,151 6,151 6,119 38,119 38,112 			"/>
		</g>
	</g>
</g>
<g id="Bracket_8_" style="enable-background:new    ;">
	<g id="Bracket_7_">
		<g>
			<polygon style="fill-rule:evenodd;clip-rule:evenodd;fill:#4E5A20;" points="6,10 6,0 0,0 0,2 4,2 4,49 0,49 0,51 6,51 6,12 
				36,12 36,17 38,17 38,10 			"/>
		</g>
	</g>
</g>
<g id="Bracket_copy_17_1_" style="enable-background:new    ;">
	<g id="Bracket_copy_17">
		<g>
			<path style="fill-rule:evenodd;clip-rule:evenodd;fill:#FFFFFF;" d="M0,402h4v47H0v2h6v-51H0V402z M0,502h4v47H0v2h6v-51H0V502z
				 M0,602h4v47H0v2h6v-51H0V602z M0,702h4v47H0v2h6v-51H0V702z M0,0v2h4v47H0v2h6V0H0z M0,102h4v47H0v2h6v-51H0V102z M0,202h4v47H0
				v2h6v-51H0V202z M0,302h4v47H0v2h6v-51H0V302z"/>
		</g>
	</g>
</g>
</svg>
