<?xml version="1.0" encoding="utf-8"?>
<!-- Generator: Adobe Illustrator 19.2.0, SVG Export Plug-In . SVG Version: 6.00 Build 0)  -->
<svg version="1.1" id="Layer_1" xmlns="http://www.w3.org/2000/svg" xmlns:xlink="http://www.w3.org/1999/xlink" x="0px" y="0px"
	 viewBox="0 0 105.762 35" width="106" height="35" style="enable-background:new 0 0 105.762 35;" xml:space="preserve">
<style type="text/css">
	.st0{fill:#18A3AC;}
	.st1{fill:#FFFFFF;}
	.st2{fill:#21ACE1;}
	.st3{fill:#D47FC0;}
	.st4{fill:#6B3A62;}
	.st5{fill:#005068;}
	.st6{fill:#005C5E;}
	.st7{fill:#ACACAC;}
	.st8{fill:#888888;}
	.st9{fill:#FCC29A;}
	.st10{fill:#D67221;}
</style>
<title>icon-help</title>
<circle class="st0" cx="30.465" cy="7.887" r="7.887"/>
<path class="st1" d="M31.993,7.444l-0.789,1.085c-0.108,0.162-0.176,0.348-0.197,0.542v0.296h-1.035V9.021
	c-0.014-0.361,0.109-0.713,0.345-0.986l0.789-1.085c0.19-0.219,0.295-0.499,0.296-0.789c0-0.545-0.441-0.986-0.986-0.986
	S29.43,5.617,29.43,6.162h-0.986c0.078-1.116,1.046-1.958,2.162-1.88c1.008,0.07,1.809,0.872,1.88,1.88
	C32.48,6.634,32.306,7.089,31.993,7.444z M29.923,11.535v-1.085h1.134v1.085H29.923z"/>
<circle class="st2" cx="53.042" cy="7.887" r="7.887"/>
<path class="st1" d="M54.57,7.444l-0.789,1.085c-0.108,0.162-0.176,0.348-0.197,0.542v0.296h-0.986V9.021
	c-0.014-0.361,0.109-0.713,0.345-0.986l0.789-1.085c0.19-0.219,0.295-0.499,0.296-0.789c0-0.545-0.441-0.986-0.986-0.986
	s-0.986,0.441-0.986,0.986h-1.035c0.078-1.116,1.046-1.958,2.162-1.88c1.008,0.07,1.809,0.872,1.88,1.88
	C55.058,6.634,54.883,7.089,54.57,7.444z M52.5,11.535v-1.085h1.134v1.085H52.5z"/>
<circle class="st3" cx="75.62" cy="7.887" r="7.887"/>
<path class="st1" d="M77.148,7.444l-0.789,1.085c-0.108,0.162-0.176,0.348-0.197,0.542v0.296h-1.035V9.021
	c-0.014-0.361,0.109-0.713,0.345-0.986l0.789-1.085c0.19-0.219,0.295-0.499,0.296-0.789c0-0.545-0.441-0.986-0.986-0.986
	c-0.545,0-0.986,0.441-0.986,0.986h-1.035c0.078-1.116,1.046-1.958,2.162-1.88c1.008,0.07,1.809,0.872,1.88,1.88
	C77.627,6.632,77.467,7.096,77.148,7.444z M75.127,11.535v-1.085h1.134v1.085H75.127z"/>
<circle class="st4" cx="75.62" cy="27.113" r="7.887"/>
<path class="st1" d="M77.148,26.62l-0.789,1.085c-0.108,0.162-0.176,0.348-0.197,0.542v0.296h-1.035v-0.345
	c-0.014-0.361,0.109-0.713,0.345-0.986l0.789-1.085c0.19-0.219,0.295-0.499,0.296-0.789c0-0.545-0.441-0.986-0.986-0.986
	c-0.545,0-0.986,0.441-0.986,0.986h-1.035c0.078-1.116,1.046-1.958,2.162-1.88c1.008,0.07,1.809,0.872,1.88,1.88
	C77.635,25.809,77.474,26.276,77.148,26.62z M75.127,30.761v-1.085h1.134v1.085H75.127z"/>
<circle class="st5" cx="53.042" cy="27.113" r="7.887"/>
<path class="st1" d="M54.57,26.62l-0.789,1.085c-0.108,0.162-0.176,0.348-0.197,0.542v0.296h-0.986v-0.345
	c-0.014-0.361,0.109-0.713,0.345-0.986l0.789-1.085c0.19-0.219,0.295-0.499,0.296-0.789c0-0.545-0.441-0.986-0.986-0.986
	s-0.986,0.441-0.986,0.986h-1.035c0.078-1.116,1.046-1.958,2.162-1.88c1.008,0.07,1.809,0.872,1.88,1.88
	C55.067,25.812,54.891,26.27,54.57,26.62z M52.5,30.761v-1.085h1.134v1.085H52.5z"/>
<circle class="st6" cx="30.465" cy="27.113" r="7.887"/>
<path class="st1" d="M31.993,26.62l-0.789,1.085c-0.108,0.162-0.176,0.348-0.197,0.542v0.296h-1.035v-0.345
	c-0.014-0.361,0.109-0.713,0.345-0.986l0.789-1.085c0.19-0.219,0.295-0.499,0.296-0.789c0-0.545-0.441-0.986-0.986-0.986
	s-0.986,0.441-0.986,0.986h-0.986c0.078-1.116,1.046-1.958,2.162-1.88c1.008,0.07,1.809,0.872,1.88,1.88
	C32.49,25.812,32.314,26.27,31.993,26.62z M29.923,30.761v-1.085h1.134v1.085H29.923z"/>
<circle class="st7" cx="7.887" cy="7.887" r="7.887"/>
<path class="st1" d="M9.415,7.444L8.627,8.528C8.518,8.69,8.451,8.876,8.43,9.07v0.296H7.394V9.021
	C7.38,8.661,7.503,8.308,7.739,8.035l0.789-1.085c0.19-0.219,0.295-0.499,0.296-0.789c0-0.545-0.441-0.986-0.986-0.986
	S6.852,5.617,6.852,6.162H5.817c-0.004-1.059,0.851-1.921,1.91-1.925c0.037,0,0.074,0.001,0.111,0.003
	c1.089-0.021,1.989,0.844,2.01,1.933C9.857,6.634,9.704,7.084,9.415,7.444z M7.345,11.535v-1.085h1.134v1.085
	C8.479,11.535,7.345,11.535,7.345,11.535z"/>
<circle class="st8" cx="7.887" cy="27.113" r="7.887"/>
<path class="st1" d="M9.415,26.62l-0.789,1.085c-0.108,0.162-0.176,0.348-0.197,0.542v0.296H7.394v-0.345
	c-0.014-0.361,0.109-0.713,0.345-0.986l0.789-1.085c0.19-0.219,0.295-0.499,0.296-0.789c0-0.545-0.441-0.986-0.986-0.986
	s-0.986,0.441-0.986,0.986H5.817c-0.004-1.059,0.851-1.921,1.91-1.925c0.037,0,0.074,0.001,0.111,0.003
	c1.058-0.057,1.961,0.754,2.018,1.811c0.002,0.037,0.003,0.074,0.003,0.111C9.879,25.806,9.721,26.264,9.415,26.62z M7.345,30.761
	v-1.085h1.134v1.085C8.479,30.761,7.345,30.761,7.345,30.761z"/>
<circle class="st9" cx="97.875" cy="7.887" r="7.887"/>
<g>
	<path class="st1" d="M99.403,7.444l-0.789,1.085c-0.099,0.148-0.197,0.394-0.197,0.542v0.296h-1.035V9.021
		c0-0.394,0.099-0.69,0.345-0.986l0.789-1.085c0.197-0.246,0.296-0.493,0.296-0.789c0-0.592-0.394-1.035-0.986-1.035
		c-0.641,0-0.986,0.493-0.986,1.035h-0.986c0-1.134,0.887-1.923,2.021-1.923c1.085,0,2.021,0.739,2.021,1.923
		C99.896,6.704,99.699,7.049,99.403,7.444z M97.333,11.535v-1.085h1.134v1.085H97.333z"/>
</g>
<circle class="st10" cx="97.875" cy="27.113" r="7.887"/>
<g>
	<path class="st1" d="M99.403,26.62l-0.789,1.085c-0.099,0.148-0.197,0.394-0.197,0.542v0.296h-1.035v-0.345
		c0-0.394,0.099-0.69,0.345-0.986l0.789-1.085c0.197-0.246,0.296-0.493,0.296-0.789c0-0.592-0.394-1.035-0.986-1.035
		c-0.641,0-0.986,0.493-0.986,1.035h-0.986c0-1.134,0.887-1.923,2.021-1.923c1.085,0,2.021,0.739,2.021,1.923
		C99.896,25.88,99.699,26.275,99.403,26.62z M97.333,30.761v-1.085h1.134v1.085H97.333z"/>
</g>
</svg>
