<?xml version="1.0" encoding="utf-8"?>
<!-- Generator: Adobe Illustrator 20.0.0, SVG Export Plug-In . SVG Version: 6.00 Build 0)  -->
<svg version="1.1" id="Layer_1" xmlns="http://www.w3.org/2000/svg" xmlns:xlink="http://www.w3.org/1999/xlink" x="0px" y="0px"
	 viewBox="0 0 417.3 264.3" style="enable-background:new 0 0 417.3 264.3;" xml:space="preserve">
<style type="text/css">
	.st0{clip-path:url(#SVGID_3_);}
	.st1{clip-path:url(#SVGID_4_);fill:#FCFCFC;}
	.st2{clip-path:url(#SVGID_7_);}
	.st3{clip-path:url(#SVGID_8_);fill:#FCFCFC;}
	.st4{clip-path:url(#SVGID_12_);}
	.st5{clip-path:url(#SVGID_13_);}
	.st6{clip-path:url(#SVGID_14_);fill:#FCFCFC;}
	.st7{clip-path:url(#SVGID_18_);}
	.st8{clip-path:url(#SVGID_19_);}
	.st9{clip-path:url(#SVGID_20_);fill:#FCFCFC;}
	.st10{clip-path:url(#SVGID_24_);}
	.st11{clip-path:url(#SVGID_25_);}
	.st12{clip-path:url(#SVGID_26_);fill:#FCFCFC;}
	.st13{clip-path:url(#SVGID_30_);}
	.st14{clip-path:url(#SVGID_31_);}
	.st15{clip-path:url(#SVGID_32_);fill:#FCFCFC;}
	.st16{clip-path:url(#SVGID_35_);}
	.st17{clip-path:url(#SVGID_36_);fill:#FCFCFC;}
	.st18{clip-path:url(#SVGID_40_);}
	.st19{clip-path:url(#SVGID_41_);}
	.st20{clip-path:url(#SVGID_42_);fill:#FCFCFC;}
	.st21{clip-path:url(#SVGID_45_);}
	.st22{clip-path:url(#SVGID_46_);fill:#FCFCFC;}
	.st23{clip-path:url(#SVGID_50_);}
	.st24{clip-path:url(#SVGID_51_);}
	.st25{clip-path:url(#SVGID_52_);fill:#FCFCFC;}
	.st26{clip-path:url(#SVGID_55_);}
	.st27{clip-path:url(#SVGID_56_);fill:#FCFCFC;}
	.st28{clip-path:url(#SVGID_60_);}
	.st29{clip-path:url(#SVGID_61_);}
	.st30{clip-path:url(#SVGID_62_);fill:#FCFCFC;}
	.st31{clip-path:url(#SVGID_66_);}
	.st32{clip-path:url(#SVGID_67_);}
	.st33{clip-path:url(#SVGID_68_);fill:#FCFCFC;}
	.st34{clip-path:url(#SVGID_71_);}
	.st35{clip-path:url(#SVGID_72_);fill:#FCFCFC;}
	.st36{clip-path:url(#SVGID_75_);}
	.st37{clip-path:url(#SVGID_76_);fill:#FCFCFC;}
	.st38{clip-path:url(#SVGID_80_);}
	.st39{clip-path:url(#SVGID_81_);}
	.st40{clip-path:url(#SVGID_82_);fill:#FCFCFC;}
	.st41{clip-path:url(#SVGID_86_);}
	.st42{clip-path:url(#SVGID_87_);}
	.st43{clip-path:url(#SVGID_88_);fill:#FCFCFC;}
	.st44{clip-path:url(#SVGID_92_);}
	.st45{clip-path:url(#SVGID_93_);}
	.st46{clip-path:url(#SVGID_94_);fill:#FCFCFC;}
	.st47{clip-path:url(#SVGID_98_);}
	.st48{clip-path:url(#SVGID_99_);}
	.st49{clip-path:url(#SVGID_100_);fill:#FCFCFC;}
	.st50{clip-path:url(#SVGID_104_);}
	.st51{clip-path:url(#SVGID_105_);}
	.st52{clip-path:url(#SVGID_106_);fill:#FCFCFC;}
	.st53{clip-path:url(#SVGID_110_);}
	.st54{clip-path:url(#SVGID_111_);}
	.st55{clip-path:url(#SVGID_112_);fill:#FCFCFC;}
	.st56{clip-path:url(#SVGID_116_);}
	.st57{clip-path:url(#SVGID_117_);}
	.st58{clip-path:url(#SVGID_118_);fill:#FCFCFC;}
	.st59{clip-path:url(#SVGID_121_);}
	.st60{clip-path:url(#SVGID_122_);fill:#FCFCFC;}
</style>
<g>
	<defs>
		<rect id="SVGID_1_" x="0.3" y="1.3" width="417" height="258"/>
	</defs>
	<defs>
		<path id="SVGID_2_" d="M172.5,105.7v39.6h21.7V96.8c0-12.6-7-21.3-22.5-21.3c-11.4,0-19.4,5.2-23.5,10V51.3h-21.7v94.1h21.7v-44
			c2.5-3.1,6.8-6.6,13.1-6.6C168.1,94.7,172.5,97.4,172.5,105.7"/>
	</defs>
	<clipPath id="SVGID_3_">
		<use xlink:href="#SVGID_1_"  style="overflow:visible;"/>
	</clipPath>
	<clipPath id="SVGID_4_" class="st0">
		<use xlink:href="#SVGID_2_"  style="overflow:visible;"/>
	</clipPath>
	<rect x="121.5" y="46.3" class="st1" width="77.7" height="104.1"/>
</g>
<g>
	<defs>
		<rect id="SVGID_5_" x="0.3" y="1.3" width="417" height="258"/>
	</defs>
	<defs>
		<path id="SVGID_6_" d="M64.6,175.4c-3.1,0-6,1.5-7.9,4.1v-12.4h-3.6v32.3h3.6v-3.5c1.7,2.4,4.6,4.1,7.9,4.1
			c6.1,0,10.4-4.7,10.4-12.3C75,180.2,70.7,175.4,64.6,175.4 M63.7,196.7c-2.9,0-5.7-1.6-7-3.7v-10.6c1.3-2,4.1-3.8,7-3.8
			c4.7,0,7.5,3.9,7.5,9.1C71.2,192.9,68.4,196.7,63.7,196.7"/>
	</defs>
	<clipPath id="SVGID_7_">
		<use xlink:href="#SVGID_5_"  style="overflow:visible;"/>
	</clipPath>
	<clipPath id="SVGID_8_" class="st2">
		<use xlink:href="#SVGID_6_"  style="overflow:visible;"/>
	</clipPath>
	<rect x="48.1" y="162.1" class="st3" width="31.9" height="42.9"/>
</g>
<g>
	<defs>
		<rect id="SVGID_9_" x="0.3" y="1.3" width="417" height="258"/>
	</defs>
	<defs>
		<path id="SVGID_10_" d="M88.1,195.2L80.4,176h-4l9.8,23.6l-1.5,3.5c-0.8,1.9-1.9,2.5-3.5,2.5c-0.6,0-1.4-0.1-2-0.4l-0.5,3.3
			c0.6,0.2,1.8,0.3,2.6,0.3c3.1,0,5.5-1.3,6.9-4.7L99.8,176h-3.9L88.1,195.2L88.1,195.2z M88.1,195.2"/>
	</defs>
	<defs>
		<rect id="SVGID_11_" x="0.3" y="-532.7" width="612" height="792"/>
	</defs>
	<clipPath id="SVGID_12_">
		<use xlink:href="#SVGID_9_"  style="overflow:visible;"/>
	</clipPath>
	<clipPath id="SVGID_13_" class="st4">
		<use xlink:href="#SVGID_10_"  style="overflow:visible;"/>
	</clipPath>
	<clipPath id="SVGID_14_" class="st5">
		<use xlink:href="#SVGID_11_"  style="overflow:visible;"/>
	</clipPath>
	<rect x="71.4" y="171" class="st6" width="33.4" height="42.9"/>
</g>
<g>
	<defs>
		<rect id="SVGID_15_" x="0.3" y="1.3" width="417" height="258"/>
	</defs>
	<defs>
		<path id="SVGID_16_" d="M132.7,192l-10-24.9h-5.7v32.3h4v-27.2l11,27.2h1.6l10.9-27.2v27.2h4v-32.3h-5.8L132.7,192L132.7,192z
			 M132.7,192"/>
	</defs>
	<defs>
		<rect id="SVGID_17_" x="0.3" y="-532.7" width="612" height="792"/>
	</defs>
	<clipPath id="SVGID_18_">
		<use xlink:href="#SVGID_15_"  style="overflow:visible;"/>
	</clipPath>
	<clipPath id="SVGID_19_" class="st7">
		<use xlink:href="#SVGID_16_"  style="overflow:visible;"/>
	</clipPath>
	<clipPath id="SVGID_20_" class="st8">
		<use xlink:href="#SVGID_17_"  style="overflow:visible;"/>
	</clipPath>
	<rect x="111.9" y="162.1" class="st9" width="41.5" height="42.3"/>
</g>
<g>
	<defs>
		<rect id="SVGID_21_" x="0.3" y="1.3" width="417" height="258"/>
	</defs>
	<defs>
		<path id="SVGID_22_" d="M164.7,175.4c-6.7,0-11.5,5.5-11.5,12.3c0,7.3,5,12.3,11.9,12.3c3.8,0,6.9-1.3,9.3-3.6l-1.7-2.4
			c-1.9,1.9-4.5,3-7.2,3c-5,0-8.1-3.7-8.4-8.1H176V188C176,181,171.8,175.4,164.7,175.4L164.7,175.4L164.7,175.4z M157.1,186.2
			c0.2-3.5,2.7-7.8,7.6-7.8c5.3,0,7.6,4.3,7.7,7.8H157.1L157.1,186.2z M157.1,186.2"/>
	</defs>
	<defs>
		<rect id="SVGID_23_" x="0.3" y="-532.7" width="612" height="792"/>
	</defs>
	<clipPath id="SVGID_24_">
		<use xlink:href="#SVGID_21_"  style="overflow:visible;"/>
	</clipPath>
	<clipPath id="SVGID_25_" class="st10">
		<use xlink:href="#SVGID_22_"  style="overflow:visible;"/>
	</clipPath>
	<clipPath id="SVGID_26_" class="st11">
		<use xlink:href="#SVGID_23_"  style="overflow:visible;"/>
	</clipPath>
	<rect x="148.3" y="170.4" class="st12" width="32.7" height="34.6"/>
</g>
<g>
	<defs>
		<rect id="SVGID_27_" x="0.3" y="1.3" width="417" height="258"/>
	</defs>
	<defs>
		<path id="SVGID_28_" d="M197.9,179.5c-1.9-2.6-4.7-4.1-7.9-4.1c-6.1,0-10.4,4.8-10.4,12.3c0,7.6,4.3,12.2,10.4,12.2
			c3.3,0,6.1-1.7,7.9-4.1v3.5h3.6v-32.3h-3.6V179.5L197.9,179.5z M197.9,193c-1.3,2-4.1,3.7-7,3.7c-4.7,0-7.5-3.8-7.5-9
			c0-5.2,2.8-9.1,7.5-9.1c2.8,0,5.7,1.7,7,3.8V193L197.9,193z M197.9,193"/>
	</defs>
	<defs>
		<rect id="SVGID_29_" x="0.3" y="-532.7" width="612" height="792"/>
	</defs>
	<clipPath id="SVGID_30_">
		<use xlink:href="#SVGID_27_"  style="overflow:visible;"/>
	</clipPath>
	<clipPath id="SVGID_31_" class="st13">
		<use xlink:href="#SVGID_28_"  style="overflow:visible;"/>
	</clipPath>
	<clipPath id="SVGID_32_" class="st14">
		<use xlink:href="#SVGID_29_"  style="overflow:visible;"/>
	</clipPath>
	<rect x="174.6" y="162.1" class="st15" width="31.9" height="42.9"/>
</g>
<g>
	<defs>
		<rect id="SVGID_33_" x="0.3" y="1.3" width="417" height="258"/>
	</defs>
	<defs>
		<path id="SVGID_34_" d="M209.2,167.8c-1.4,0-2.5,1.1-2.5,2.5c0,1.4,1.1,2.4,2.5,2.4c1.3,0,2.4-1.1,2.4-2.4
			C211.7,168.9,210.6,167.8,209.2,167.8"/>
	</defs>
	<clipPath id="SVGID_35_">
		<use xlink:href="#SVGID_33_"  style="overflow:visible;"/>
	</clipPath>
	<clipPath id="SVGID_36_" class="st16">
		<use xlink:href="#SVGID_34_"  style="overflow:visible;"/>
	</clipPath>
	<rect x="201.8" y="162.8" class="st17" width="14.9" height="14.9"/>
</g>
<g>
	<defs>
		<rect id="SVGID_37_" x="0.3" y="1.3" width="417" height="258"/>
	</defs>
	<defs>
		<path id="SVGID_38_" d="M207.4,199.4h3.6V176h-3.6V199.4L207.4,199.4z M207.4,199.4"/>
	</defs>
	<defs>
		<rect id="SVGID_39_" x="0.3" y="-532.7" width="612" height="792"/>
	</defs>
	<clipPath id="SVGID_40_">
		<use xlink:href="#SVGID_37_"  style="overflow:visible;"/>
	</clipPath>
	<clipPath id="SVGID_41_" class="st18">
		<use xlink:href="#SVGID_38_"  style="overflow:visible;"/>
	</clipPath>
	<clipPath id="SVGID_42_" class="st19">
		<use xlink:href="#SVGID_39_"  style="overflow:visible;"/>
	</clipPath>
	<rect x="202.4" y="171" class="st20" width="13.6" height="33.4"/>
</g>
<g>
	<defs>
		<rect id="SVGID_43_" x="0.3" y="1.3" width="417" height="258"/>
	</defs>
	<defs>
		<path id="SVGID_44_" d="M228.4,175.4c-3.1,0-6,1.5-7.9,4.1v-12.4h-3.6v32.3h3.6v-3.5c1.7,2.4,4.6,4.1,7.9,4.1
			c6.1,0,10.4-4.7,10.4-12.3C238.8,180.2,234.5,175.4,228.4,175.4 M227.5,196.7c-2.9,0-5.7-1.6-7-3.7v-10.6c1.3-2,4.1-3.8,7-3.8
			c4.7,0,7.5,3.9,7.5,9.1C235,192.9,232.2,196.7,227.5,196.7"/>
	</defs>
	<clipPath id="SVGID_45_">
		<use xlink:href="#SVGID_43_"  style="overflow:visible;"/>
	</clipPath>
	<clipPath id="SVGID_46_" class="st21">
		<use xlink:href="#SVGID_44_"  style="overflow:visible;"/>
	</clipPath>
	<rect x="211.9" y="162.1" class="st22" width="31.9" height="42.9"/>
</g>
<g>
	<defs>
		<rect id="SVGID_47_" x="0.3" y="1.3" width="417" height="258"/>
	</defs>
	<defs>
		<path id="SVGID_48_" d="M252.5,175.4c-3.8,0-6.8,1.3-9.3,3.9l1.7,2.5c2.1-2.3,4.3-3.2,7.1-3.2c3.4,0,5.9,1.8,5.9,4.9v4.2
			c-1.9-2.1-4.5-3.1-7.7-3.1c-4,0-8.1,2.4-8.1,7.7c0,5.1,4.2,7.8,8.1,7.8c3.1,0,5.8-1.1,7.7-3.2v2.7h3.6v-16.1
			C261.5,177.7,257.5,175.4,252.5,175.4L252.5,175.4L252.5,175.4z M257.9,194.5c-1.4,1.9-3.9,2.9-6.4,2.9c-3.4,0-5.8-2.1-5.8-5.1
			c0-3,2.4-5.1,5.8-5.1c2.5,0,5,1,6.4,2.9V194.5L257.9,194.5z M257.9,194.5"/>
	</defs>
	<defs>
		<rect id="SVGID_49_" x="0.3" y="-532.7" width="612" height="792"/>
	</defs>
	<clipPath id="SVGID_50_">
		<use xlink:href="#SVGID_47_"  style="overflow:visible;"/>
	</clipPath>
	<clipPath id="SVGID_51_" class="st23">
		<use xlink:href="#SVGID_48_"  style="overflow:visible;"/>
	</clipPath>
	<clipPath id="SVGID_52_" class="st24">
		<use xlink:href="#SVGID_49_"  style="overflow:visible;"/>
	</clipPath>
	<rect x="237.1" y="170.4" class="st25" width="29.5" height="34.6"/>
</g>
<g>
	<defs>
		<rect id="SVGID_53_" x="0.3" y="1.3" width="417" height="258"/>
	</defs>
	<defs>
		<path id="SVGID_54_" d="M278.9,175.4c-3.5,0-6.7,2-8.4,4V176h-3.6v23.4h3.6v-17.1c1.4-1.9,4.1-3.6,6.9-3.6c3.1,0,5.3,1.3,5.3,5.4
			v15.3h3.6V183C286.3,177.9,283.7,175.4,278.9,175.4"/>
	</defs>
	<clipPath id="SVGID_55_">
		<use xlink:href="#SVGID_53_"  style="overflow:visible;"/>
	</clipPath>
	<clipPath id="SVGID_56_" class="st26">
		<use xlink:href="#SVGID_54_"  style="overflow:visible;"/>
	</clipPath>
	<rect x="261.9" y="170.4" class="st27" width="29.4" height="34"/>
</g>
<g>
	<defs>
		<rect id="SVGID_57_" x="0.3" y="1.3" width="417" height="258"/>
	</defs>
	<defs>
		<path id="SVGID_58_" d="M312.2,176h-4.6l-12.3,12.4v-21.3h-3.6v32.3h3.6v-6.7l3.9-3.8l8.4,10.5h4.6l-10.4-12.8L312.2,176
			L312.2,176z M312.2,176"/>
	</defs>
	<defs>
		<rect id="SVGID_59_" x="0.3" y="-532.7" width="612" height="792"/>
	</defs>
	<clipPath id="SVGID_60_">
		<use xlink:href="#SVGID_57_"  style="overflow:visible;"/>
	</clipPath>
	<clipPath id="SVGID_61_" class="st28">
		<use xlink:href="#SVGID_58_"  style="overflow:visible;"/>
	</clipPath>
	<clipPath id="SVGID_62_" class="st29">
		<use xlink:href="#SVGID_59_"  style="overflow:visible;"/>
	</clipPath>
	<rect x="286.7" y="162.1" class="st30" width="30.5" height="42.3"/>
</g>
<g>
	<defs>
		<rect id="SVGID_63_" x="0.3" y="1.3" width="417" height="258"/>
	</defs>
	<defs>
		<path id="SVGID_64_" d="M84,75.5c-10.4,0-22.1,3.1-30.8,10.6l8,15.1c5.5-4.7,12.2-7.3,19-7.3c8.7,0,13.8,4.1,13.8,10v6.8
			c-4.1-5.1-12.1-8-21.1-8c-10.4,0-23.4,5.5-23.4,22c0,15.2,13,22.4,23.4,22.4c8.7,0,16.9-3.4,21.1-8.5v6.8h21.7v-42.6
			C115.6,81.6,100.3,75.5,84,75.5L84,75.5L84,75.5z M94,127.9c-2.3,3.2-7.3,4.9-12.1,4.9c-5.6,0-10.8-2.5-10.8-7.9
			c0-5.4,5.2-7.9,10.8-7.9c4.8,0,9.8,1.6,12.1,4.8V127.9L94,127.9z M94,127.9"/>
	</defs>
	<defs>
		<rect id="SVGID_65_" x="0.3" y="-532.7" width="612" height="792"/>
	</defs>
	<clipPath id="SVGID_66_">
		<use xlink:href="#SVGID_63_"  style="overflow:visible;"/>
	</clipPath>
	<clipPath id="SVGID_67_" class="st31">
		<use xlink:href="#SVGID_64_"  style="overflow:visible;"/>
	</clipPath>
	<clipPath id="SVGID_68_" class="st32">
		<use xlink:href="#SVGID_65_"  style="overflow:visible;"/>
	</clipPath>
	<rect x="44.5" y="70.5" class="st33" width="76.2" height="81.5"/>
</g>
<g>
	<defs>
		<rect id="SVGID_69_" x="0.3" y="1.3" width="417" height="258"/>
	</defs>
	<defs>
		<path id="SVGID_70_" d="M291.9,75.5c-10.7,0-19.6,6.2-23.5,12.1c-2.8-8-9.4-12.1-19.3-12.1c-10.7,0-19.4,6.1-22.4,10v-8.3H205
			v68.1h21.7v-44c2.3-2.8,6.3-6.6,12.2-6.6c6.5,0,8.9,3.9,8.9,9.2v41.5h21.7v-44c2.1-2.8,6.3-6.6,12.2-6.6c6.5,0,9,3.9,9,9.2v41.5
			h21.5V96C312.3,82,304.4,75.5,291.9,75.5"/>
	</defs>
	<clipPath id="SVGID_71_">
		<use xlink:href="#SVGID_69_"  style="overflow:visible;"/>
	</clipPath>
	<clipPath id="SVGID_72_" class="st34">
		<use xlink:href="#SVGID_70_"  style="overflow:visible;"/>
	</clipPath>
	<rect x="200" y="70.5" class="st35" width="117.3" height="79.8"/>
</g>
<g>
	<defs>
		<rect id="SVGID_73_" x="0.3" y="1.3" width="417" height="258"/>
	</defs>
	<defs>
		<path id="SVGID_74_" d="M408.7,241.7c-3.6,5-10.6,6.1-15.5,2.5c-5-3.6-6.1-10.6-2.5-15.6c3.6-5,10.6-6.1,15.5-2.5
			C411.1,229.7,412.3,236.7,408.7,241.7 M410,220.8c-7.2-5.2-17.1-4.2-23,2.1c-1.2,1.2-2.8,1.6-3.5-0.3c-2.9-8.2-7.1-17.3-17.6-29.3
			l35.8-49.6c4.5-6.2,5.6-18.3-0.6-22.8L356,183.3v20.1c12.2,6.2,21.2,16.3,26.7,36.2c1.1,4.2,3.4,7.4,6.7,9.7
			c7.9,5.7,18.9,3.9,24.6-4C419.6,237.6,417.9,226.5,410,220.8"/>
	</defs>
	<clipPath id="SVGID_75_">
		<use xlink:href="#SVGID_73_"  style="overflow:visible;"/>
	</clipPath>
	<clipPath id="SVGID_76_" class="st36">
		<use xlink:href="#SVGID_74_"  style="overflow:visible;"/>
	</clipPath>
	<rect x="351" y="115.9" class="st37" width="71.3" height="141.9"/>
</g>
<g>
	<defs>
		<rect id="SVGID_77_" x="0.3" y="1.3" width="417" height="258"/>
	</defs>
	<defs>
		<path id="SVGID_78_" d="M350.7,232.4v16.1h-16v10.7h26.8v-26.8H350.7L350.7,232.4z M350.7,232.4"/>
	</defs>
	<defs>
		<rect id="SVGID_79_" x="0.3" y="-532.7" width="612" height="792"/>
	</defs>
	<clipPath id="SVGID_80_">
		<use xlink:href="#SVGID_77_"  style="overflow:visible;"/>
	</clipPath>
	<clipPath id="SVGID_81_" class="st38">
		<use xlink:href="#SVGID_78_"  style="overflow:visible;"/>
	</clipPath>
	<clipPath id="SVGID_82_" class="st39">
		<use xlink:href="#SVGID_79_"  style="overflow:visible;"/>
	</clipPath>
	<rect x="329.7" y="227.4" class="st40" width="36.8" height="36.8"/>
</g>
<g>
	<defs>
		<rect id="SVGID_83_" x="0.3" y="1.3" width="417" height="258"/>
	</defs>
	<defs>
		<path id="SVGID_84_" d="M276.1,259.3H320v-10.7h-43.9V259.3L276.1,259.3z M217.5,259.3h43.9v-10.7h-43.9V259.3L217.5,259.3z
			 M158.9,259.3h43.9v-10.7h-43.9V259.3L158.9,259.3z M100.3,259.3h43.9v-10.7h-43.9V259.3L100.3,259.3z M41.7,259.3h43.9v-10.7
			H41.7V259.3L41.7,259.3z M41.7,259.3"/>
	</defs>
	<defs>
		<rect id="SVGID_85_" x="0.3" y="-532.7" width="612" height="792"/>
	</defs>
	<clipPath id="SVGID_86_">
		<use xlink:href="#SVGID_83_"  style="overflow:visible;"/>
	</clipPath>
	<clipPath id="SVGID_87_" class="st41">
		<use xlink:href="#SVGID_84_"  style="overflow:visible;"/>
	</clipPath>
	<clipPath id="SVGID_88_" class="st42">
		<use xlink:href="#SVGID_85_"  style="overflow:visible;"/>
	</clipPath>
	<rect x="36.7" y="243.5" class="st43" width="288.3" height="20.7"/>
</g>
<g>
	<defs>
		<rect id="SVGID_89_" x="0.3" y="1.3" width="417" height="258"/>
	</defs>
	<defs>
		<path id="SVGID_90_" d="M0.3,232.4v26.8h26.8v-10.7H11v-16.1H0.3L0.3,232.4z M0.3,232.4"/>
	</defs>
	<defs>
		<rect id="SVGID_91_" x="0.3" y="-532.7" width="612" height="792"/>
	</defs>
	<clipPath id="SVGID_92_">
		<use xlink:href="#SVGID_89_"  style="overflow:visible;"/>
	</clipPath>
	<clipPath id="SVGID_93_" class="st44">
		<use xlink:href="#SVGID_90_"  style="overflow:visible;"/>
	</clipPath>
	<clipPath id="SVGID_94_" class="st45">
		<use xlink:href="#SVGID_91_"  style="overflow:visible;"/>
	</clipPath>
	<rect x="-4.7" y="227.4" class="st46" width="36.8" height="36.8"/>
</g>
<g>
	<defs>
		<rect id="SVGID_95_" x="0.3" y="1.3" width="417" height="258"/>
	</defs>
	<defs>
		<path id="SVGID_96_" d="M0.3,91H11V43.9H0.3V91L0.3,91z M0.3,153.9H11v-47.1H0.3V153.9L0.3,153.9z M0.3,216.7H11v-47.1H0.3V216.7
			L0.3,216.7z M0.3,216.7"/>
	</defs>
	<defs>
		<rect id="SVGID_97_" x="0.3" y="-532.7" width="612" height="792"/>
	</defs>
	<clipPath id="SVGID_98_">
		<use xlink:href="#SVGID_95_"  style="overflow:visible;"/>
	</clipPath>
	<clipPath id="SVGID_99_" class="st47">
		<use xlink:href="#SVGID_96_"  style="overflow:visible;"/>
	</clipPath>
	<clipPath id="SVGID_100_" class="st48">
		<use xlink:href="#SVGID_97_"  style="overflow:visible;"/>
	</clipPath>
	<rect x="-4.7" y="38.9" class="st49" width="20.7" height="182.9"/>
</g>
<g>
	<defs>
		<rect id="SVGID_101_" x="0.3" y="1.3" width="417" height="258"/>
	</defs>
	<defs>
		<path id="SVGID_102_" d="M0.3,1.3v26.8H11V12.1h16.1V1.3H0.3L0.3,1.3z M0.3,1.3"/>
	</defs>
	<defs>
		<rect id="SVGID_103_" x="0.3" y="-532.7" width="612" height="792"/>
	</defs>
	<clipPath id="SVGID_104_">
		<use xlink:href="#SVGID_101_"  style="overflow:visible;"/>
	</clipPath>
	<clipPath id="SVGID_105_" class="st50">
		<use xlink:href="#SVGID_102_"  style="overflow:visible;"/>
	</clipPath>
	<clipPath id="SVGID_106_" class="st51">
		<use xlink:href="#SVGID_103_"  style="overflow:visible;"/>
	</clipPath>
	<rect x="-4.7" y="-3.7" class="st52" width="36.8" height="36.8"/>
</g>
<g>
	<defs>
		<rect id="SVGID_107_" x="0.3" y="1.3" width="417" height="258"/>
	</defs>
	<defs>
		<path id="SVGID_108_" d="M276.1,12.1H320V1.3h-43.9V12.1L276.1,12.1z M217.5,12.1h43.9V1.3h-43.9V12.1L217.5,12.1z M158.9,12.1
			h43.9V1.3h-43.9V12.1L158.9,12.1z M100.3,12.1h43.9V1.3h-43.9V12.1L100.3,12.1z M41.7,12.1h43.9V1.3H41.7V12.1L41.7,12.1z
			 M41.7,12.1"/>
	</defs>
	<defs>
		<rect id="SVGID_109_" x="0.3" y="-532.7" width="612" height="792"/>
	</defs>
	<clipPath id="SVGID_110_">
		<use xlink:href="#SVGID_107_"  style="overflow:visible;"/>
	</clipPath>
	<clipPath id="SVGID_111_" class="st53">
		<use xlink:href="#SVGID_108_"  style="overflow:visible;"/>
	</clipPath>
	<clipPath id="SVGID_112_" class="st54">
		<use xlink:href="#SVGID_109_"  style="overflow:visible;"/>
	</clipPath>
	<rect x="36.7" y="-3.7" class="st55" width="288.3" height="20.7"/>
</g>
<g>
	<defs>
		<rect id="SVGID_113_" x="0.3" y="1.3" width="417" height="258"/>
	</defs>
	<defs>
		<path id="SVGID_114_" d="M334.7,1.3v10.7h16v16.1h10.7V1.3H334.7L334.7,1.3z M334.7,1.3"/>
	</defs>
	<defs>
		<rect id="SVGID_115_" x="0.3" y="-532.7" width="612" height="792"/>
	</defs>
	<clipPath id="SVGID_116_">
		<use xlink:href="#SVGID_113_"  style="overflow:visible;"/>
	</clipPath>
	<clipPath id="SVGID_117_" class="st56">
		<use xlink:href="#SVGID_114_"  style="overflow:visible;"/>
	</clipPath>
	<clipPath id="SVGID_118_" class="st57">
		<use xlink:href="#SVGID_115_"  style="overflow:visible;"/>
	</clipPath>
	<rect x="329.7" y="-3.7" class="st58" width="36.8" height="36.8"/>
</g>
<g>
	<defs>
		<rect id="SVGID_119_" x="0.3" y="1.3" width="417" height="258"/>
	</defs>
	<defs>
		<path id="SVGID_120_" d="M361.4,216.7h-10.7v-47.1h10.7V216.7L361.4,216.7z M361.4,153.9h-10.7v-47.1h10.7V153.9L361.4,153.9z
			 M361.4,91h-10.7V43.9h10.7V91L361.4,91z M361.4,91"/>
	</defs>
	<clipPath id="SVGID_121_">
		<use xlink:href="#SVGID_119_"  style="overflow:visible;"/>
	</clipPath>
	<clipPath id="SVGID_122_" class="st59">
		<use xlink:href="#SVGID_120_"  style="overflow:visible;"/>
	</clipPath>
	<rect x="345.7" y="38.9" class="st60" width="20.7" height="182.9"/>
</g>
</svg>
