<?xml version="1.0" standalone="no"?><!DOCTYPE svg PUBLIC "-//W3C//DTD SVG 1.1//EN" "http://www.w3.org/Graphics/SVG/1.1/DTD/svg11.dtd" ><svg version="1.1" xmlns="http://www.w3.org/2000/svg"><defs><font horiz-adv-x="0" id="font"><font-face ascent="790" bbox="-209 -267 1302 966.6154" cap-height="588" descent="-210" font-family="AirNewzald" font-stretch="normal" font-style="normal" font-weight="500" units-per-em="1000" x-height="436" /><missing-glyph horiz-adv-x="262" /><glyph d="M173 207H340L320 331Q315 362 313.5 386.5Q312 411 311 428Q310 448 311 463H307Q301 446 291 426Q283 409 271 384.5Q259 360 242 330ZM349 152H142L89 57L153 35L142 0H-33L-35 30L15 59L314 588H433L529 59L571 30L559 0H300L302 38L365 52Z" glyph-name="A" horiz-adv-x="591" unicode="A" /><glyph d="M223 240H387L435 539H431Q424 525 416 511Q409 498 399 483Q389 468 377 451ZM183 186 91 59 164 35 153 0H-33L-35 30L15 59L354 533L295 556L302 588H847L822 431L800 426L728 533H599L566 323H648L706 403L728 399L695 190L673 186L640 268H557L526 72L548 55H665L786 188L811 182L763 0H299L297 32L358 55L378 186Z" glyph-name="AE" horiz-adv-x="838" unicode="&#198;" /><glyph d="M576 618 555 650 648 761Q670 788 693.5 789Q717 790 737 760Q759 730 751 710.5Q743 691 709 677ZM223 240H387L435 539H431Q424 525 416 511Q409 498 399 483Q389 468 377 451ZM183 186 91 59 164 35 153 0H-33L-35 30L15 59L354 533L295 556L302 588H847L822 431L800 426L728 533H599L566 323H648L706 403L728 399L695 190L673 186L640 268H557L526 72L548 55H665L786 188L811 182L763 0H299L297 32L358 55L378 186Z" glyph-name="AEacute" horiz-adv-x="838" unicode="&#508;" /><glyph d="M468 654 477 732H765L755 654ZM223 240H387L435 539H431Q424 525 416 511Q409 498 399 483Q389 468 377 451ZM183 186 91 59 164 35 153 0H-33L-35 30L15 59L354 533L295 556L302 588H847L822 431L800 426L728 533H599L566 323H648L706 403L728 399L695 190L673 186L640 268H557L526 72L548 55H665L786 188L811 182L763 0H299L297 32L358 55L378 186Z" glyph-name="AEmacron" horiz-adv-x="838" unicode="&#482;" /><glyph d="M345 618 324 650 417 761Q439 788 462.5 789Q486 790 506 760Q528 730 520 710.5Q512 691 478 677ZM173 207H340L320 331Q315 362 313.5 386.5Q312 411 311 428Q310 448 311 463H307Q301 446 291 426Q283 409 271 384.5Q259 360 242 330ZM349 152H142L89 57L153 35L142 0H-33L-35 30L15 59L314 588H433L529 59L571 30L559 0H300L302 38L365 52Z" glyph-name="Aacute" horiz-adv-x="591" unicode="&#193;" /><glyph d="M173 207H340L320 331Q315 362 313.5 386.5Q312 411 311 428Q310 448 311 463H307Q301 446 291 426Q283 409 271 384.5Q259 360 242 330ZM395 714Q437 714 461.5 732Q486 750 499 780H549Q536 708 493 667.5Q450 627 382 627Q323 627 292 657.5Q261 688 261 744Q261 760 264 780H313Q315 750 334 732Q353 714 395 714ZM349 152H142L89 57L153 35L142 0H-33L-35 30L15 59L314 588H433L529 59L571 30L559 0H300L302 38L365 52Z" glyph-name="Abreve" horiz-adv-x="591" unicode="&#258;" /><glyph d="M173 207H340L320 331Q315 362 313.5 386.5Q312 411 311 428Q310 448 311 463H307Q301 446 291 426Q283 409 271 384.5Q259 360 242 330ZM349 620 220 774H361L413 705L498 774H565L386 620ZM349 152H142L89 57L153 35L142 0H-33L-35 30L15 59L314 588H433L529 59L571 30L559 0H300L302 38L365 52Z" glyph-name="Acaron" horiz-adv-x="591" unicode="&#461;" /><glyph d="M173 207H340L320 331Q315 362 313.5 386.5Q312 411 311 428Q310 448 311 463H307Q301 446 291 426Q283 409 271 384.5Q259 360 242 330ZM423 772 552 618H411L359 687L274 618H207L386 772ZM349 152H142L89 57L153 35L142 0H-33L-35 30L15 59L314 588H433L529 59L571 30L559 0H300L302 38L365 52Z" glyph-name="Acircumflex" horiz-adv-x="591" unicode="&#194;" /><glyph d="M207 692Q207 727 229 745Q251 763 282 763Q316 763 337.5 745Q359 727 359 692Q359 657 337.5 639.5Q316 622 282 622Q251 622 229 639.5Q207 657 207 692ZM403 691Q403 726 425 744Q447 762 478 762Q512 762 534 744Q556 726 556 691Q556 657 534 639Q512 621 478 621Q447 621 425 639Q403 657 403 691ZM173 207H340L320 331Q315 362 313.5 386.5Q312 411 311 428Q310 448 311 463H307Q301 446 291 426Q283 409 271 384.5Q259 360 242 330ZM349 152H142L89 57L153 35L142 0H-33L-35 30L15 59L314 588H433L529 59L571 30L559 0H300L302 38L365 52Z" glyph-name="Adieresis" horiz-adv-x="591" unicode="&#196;" /><glyph d="M173 207H340L320 331Q315 362 313.5 386.5Q312 411 311 428Q310 448 311 463H307Q301 446 291 426Q283 409 271 384.5Q259 360 242 330ZM301 712Q301 751 325.5 770.5Q350 790 384 790Q421 790 445.5 770.5Q470 751 470 712Q470 674 445.5 654Q421 634 384 634Q350 634 325.5 654Q301 674 301 712ZM349 152H142L89 57L153 35L142 0H-33L-35 30L15 59L314 588H433L529 59L571 30L559 0H300L302 38L365 52Z" glyph-name="Adotabove" horiz-adv-x="591" unicode="&#550;" /><glyph d="M191 677Q157 691 149 710.5Q141 730 163 760Q183 790 207 789Q231 788 252 761L345 650L324 618ZM360 677Q326 691 318 710.5Q310 730 331 760Q351 790 375 789Q399 788 421 761L514 650L493 618ZM173 207H340L320 331Q315 362 313.5 386.5Q312 411 311 428Q310 448 311 463H307Q301 446 291 426Q283 409 271 384.5Q259 360 242 330ZM349 152H142L89 57L153 35L142 0H-33L-35 30L15 59L314 588H433L529 59L571 30L559 0H300L302 38L365 52Z" glyph-name="Adoublegrave" horiz-adv-x="591" unicode="&#512;" /><glyph d="M265 677Q231 691 223 710.5Q215 730 237 760Q257 790 281 789Q305 788 326 761L419 650L398 618ZM173 207H340L320 331Q315 362 313.5 386.5Q312 411 311 428Q310 448 311 463H307Q301 446 291 426Q283 409 271 384.5Q259 360 242 330ZM349 152H142L89 57L153 35L142 0H-33L-35 30L15 59L314 588H433L529 59L571 30L559 0H300L302 38L365 52Z" glyph-name="Agrave" horiz-adv-x="591" unicode="&#192;" /><glyph d="M173 207H340L320 331Q315 362 313.5 386.5Q312 411 311 428Q310 448 311 463H307Q301 446 291 426Q283 409 271 384.5Q259 360 242 330ZM386 679Q344 679 319 661Q294 643 282 613H232Q244 685 287.5 725.5Q331 766 399 766Q458 766 489 735.5Q520 705 520 649Q520 632 517 613H467Q465 643 446.5 661Q428 679 386 679ZM349 152H142L89 57L153 35L142 0H-33L-35 30L15 59L314 588H433L529 59L571 30L559 0H300L302 38L365 52Z" glyph-name="Ainvertedbreve" horiz-adv-x="591" unicode="&#514;" /><glyph d="M173 207H340L320 331Q315 362 313.5 386.5Q312 411 311 428Q310 448 311 463H307Q301 446 291 426Q283 409 271 384.5Q259 360 242 330ZM240 654 249 732H537L527 654ZM349 152H142L89 57L153 35L142 0H-33L-35 30L15 59L314 588H433L529 59L571 30L559 0H300L302 38L365 52Z" glyph-name="Amacron" horiz-adv-x="591" unicode="&#256;" /><glyph d="M89 57 153 35 142 0H-33L-35 30L15 59L314 588H433L529 59L571 30L559 0H300L302 38L365 52L320 331Q315 362 313.5 386.5Q312 411 311 428Q310 448 311 463H307Q301 446 291 426Q283 409 271 384.5Q259 360 242 330Z" glyph-name="Anocross" horiz-adv-x="591" /><glyph d="M173 207H340L320 331Q315 362 313.5 386.5Q312 411 311 428Q310 448 311 463H307Q301 446 291 426Q283 409 271 384.5Q259 360 242 330ZM145 -118Q145 -85 159 -60.5Q173 -36 195 -18Q217 0 245 12.5Q273 25 302 33L365 52L349 152H142L89 57L153 35L142 0H-33L-35 30L15 59L314 588H433L529 59L571 30L559 0H335Q296 -16 276.5 -37Q257 -58 257 -88Q257 -112 272.5 -126Q288 -140 317 -140Q337 -140 360.5 -132Q384 -124 404 -108L422 -127Q400 -170 358 -193Q316 -216 266 -216Q241 -216 219 -210Q197 -204 180.5 -192Q164 -180 154.5 -161.5Q145 -143 145 -118Z" glyph-name="Aogonek" horiz-adv-x="591" unicode="&#260;" /><glyph d="M393 784Q365 784 349.5 764.5Q334 745 334 719Q334 696 346.5 682.5Q359 669 382 669Q411 669 426 689Q441 709 441 734Q441 757 428.5 770.5Q416 784 393 784ZM173 207H340L320 331Q315 362 313.5 386.5Q312 411 311 428Q310 448 311 463H307Q301 446 291 426Q283 409 271 384.5Q259 360 242 330ZM277 717Q277 741 285.5 762Q294 783 309.5 799.5Q325 816 347.5 825.5Q370 835 398 835Q444 835 471.5 806.5Q499 778 499 736Q499 711 490.5 689Q482 667 466 651Q450 635 428.5 625.5Q407 616 381 616Q328 616 302.5 644.5Q277 673 277 717ZM349 152H142L89 57L153 35L142 0H-33L-35 30L15 59L314 588H433L529 59L571 30L559 0H300L302 38L365 52Z" glyph-name="Aring" horiz-adv-x="591" unicode="&#197;" /><glyph d="M173 207H340L320 331Q315 362 313.5 386.5Q312 411 311 428Q310 448 311 463H307Q301 446 291 426Q283 409 271 384.5Q259 360 242 330ZM347 670Q311 692 278 682Q245 672 236 631L207 636Q199 679 214 711.5Q229 744 257 762Q285 780 320 781Q355 782 388 761L426 738Q464 715 494.5 719.5Q525 724 538 771L569 767Q579 721 565 687.5Q551 654 523.5 637.5Q496 621 458 623Q420 625 382 649ZM349 152H142L89 57L153 35L142 0H-33L-35 30L15 59L314 588H433L529 59L571 30L559 0H300L302 38L365 52Z" glyph-name="Atilde" horiz-adv-x="591" unicode="&#195;" /><glyph d="M274 324H310Q332 324 350.5 331Q369 338 382.5 353Q396 368 404 392Q412 416 412 450Q412 485 397 509.5Q382 534 340 534H307ZM266 275 233 66 255 50H272Q297 50 318 57Q339 64 354 80Q369 96 377.5 122.5Q386 149 386 188Q386 229 368.5 252Q351 275 304 275ZM565 446Q565 410 550.5 384Q536 358 513.5 340.5Q491 323 464 314.5Q437 306 412 304V300Q485 292 519 258.5Q553 225 553 171Q553 119 531.5 85.5Q510 52 475.5 33Q441 14 398 7Q355 0 313 0H7L5 32L65 55L141 533L88 556L100 588H392Q473 588 519 554.5Q565 521 565 446Z" glyph-name="B" horiz-adv-x="586" unicode="B" /><glyph d="M515 92Q478 38 423.5 14Q369 -10 300 -10Q240 -10 192 6Q144 22 110.5 53Q77 84 59 129Q41 174 41 232Q41 325 69.5 394Q98 463 145 508Q192 553 252 575.5Q312 598 375 598Q412 598 441 591Q470 584 491 573L558 598L532 427L510 422L481 464Q456 500 432.5 523Q409 546 374 546Q333 546 302 515.5Q271 485 250.5 438.5Q230 392 220 336.5Q210 281 210 230Q210 187 220 156.5Q230 126 247.5 106.5Q265 87 288.5 78Q312 69 340 69Q372 69 415.5 82.5Q459 96 493 125Z" glyph-name="C" horiz-adv-x="548" unicode="C" /><glyph d="M328 618 307 650 400 761Q422 788 445.5 789Q469 790 489 760Q511 730 503 710.5Q495 691 461 677ZM515 92Q478 38 423.5 14Q369 -10 300 -10Q240 -10 192 6Q144 22 110.5 53Q77 84 59 129Q41 174 41 232Q41 325 69.5 394Q98 463 145 508Q192 553 252 575.5Q312 598 375 598Q412 598 441 591Q470 584 491 573L558 598L532 427L510 422L481 464Q456 500 432.5 523Q409 546 374 546Q333 546 302 515.5Q271 485 250.5 438.5Q230 392 220 336.5Q210 281 210 230Q210 187 220 156.5Q230 126 247.5 106.5Q265 87 288.5 78Q312 69 340 69Q372 69 415.5 82.5Q459 96 493 125Z" glyph-name="Cacute" horiz-adv-x="548" unicode="&#262;" /><glyph d="M336 620 207 774H348L400 705L485 774H552L373 620ZM515 92Q478 38 423.5 14Q369 -10 300 -10Q240 -10 192 6Q144 22 110.5 53Q77 84 59 129Q41 174 41 232Q41 325 69.5 394Q98 463 145 508Q192 553 252 575.5Q312 598 375 598Q412 598 441 591Q470 584 491 573L558 598L532 427L510 422L481 464Q456 500 432.5 523Q409 546 374 546Q333 546 302 515.5Q271 485 250.5 438.5Q230 392 220 336.5Q210 281 210 230Q210 187 220 156.5Q230 126 247.5 106.5Q265 87 288.5 78Q312 69 340 69Q372 69 415.5 82.5Q459 96 493 125Z" glyph-name="Ccaron" horiz-adv-x="548" unicode="&#268;" /><glyph d="M154 -150Q162 -158 176 -164.5Q190 -171 208 -171Q225 -171 236.5 -162.5Q248 -154 248 -137Q248 -116 237 -103Q226 -90 202 -82L233 -4Q142 12 91.5 72Q41 132 41 232Q41 325 69.5 394Q98 463 145 508Q192 553 252 575.5Q312 598 375 598Q412 598 441 591Q470 584 491 573L558 598L532 427L510 422L481 464Q456 500 432.5 523Q409 546 374 546Q333 546 302 515.5Q271 485 250.5 438.5Q230 392 220 336.5Q210 281 210 230Q210 187 220 156.5Q230 126 247.5 106.5Q265 87 288.5 78Q312 69 340 69Q372 69 415.5 82.5Q459 96 493 125L515 92Q478 38 423.5 14Q369 -10 300 -10Q293 -10 287 -10Q281 -10 274 -9L261 -40Q277 -42 293.5 -48Q310 -54 323 -64.5Q336 -75 344 -91.5Q352 -108 352 -131Q352 -179 317.5 -199.5Q283 -220 232 -220Q196 -220 173 -208.5Q150 -197 136 -175Z" glyph-name="Ccedilla" horiz-adv-x="548" unicode="&#199;" /><glyph d="M413 782 542 628H401L349 697L264 628H197L376 782ZM515 92Q478 38 423.5 14Q369 -10 300 -10Q240 -10 192 6Q144 22 110.5 53Q77 84 59 129Q41 174 41 232Q41 325 69.5 394Q98 463 145 508Q192 553 252 575.5Q312 598 375 598Q412 598 441 591Q470 584 491 573L558 598L532 427L510 422L481 464Q456 500 432.5 523Q409 546 374 546Q333 546 302 515.5Q271 485 250.5 438.5Q230 392 220 336.5Q210 281 210 230Q210 187 220 156.5Q230 126 247.5 106.5Q265 87 288.5 78Q312 69 340 69Q372 69 415.5 82.5Q459 96 493 125Z" glyph-name="Ccircumflex" horiz-adv-x="548" unicode="&#264;" /><glyph d="M287 712Q287 751 311.5 770.5Q336 790 370 790Q407 790 431.5 770.5Q456 751 456 712Q456 674 431.5 654Q407 634 370 634Q336 634 311.5 654Q287 674 287 712ZM515 92Q478 38 423.5 14Q369 -10 300 -10Q240 -10 192 6Q144 22 110.5 53Q77 84 59 129Q41 174 41 232Q41 325 69.5 394Q98 463 145 508Q192 553 252 575.5Q312 598 375 598Q412 598 441 591Q470 584 491 573L558 598L532 427L510 422L481 464Q456 500 432.5 523Q409 546 374 546Q333 546 302 515.5Q271 485 250.5 438.5Q230 392 220 336.5Q210 281 210 230Q210 187 220 156.5Q230 126 247.5 106.5Q265 87 288.5 78Q312 69 340 69Q372 69 415.5 82.5Q459 96 493 125Z" glyph-name="Cdotaccent" horiz-adv-x="548" unicode="&#266;" /><glyph d="M258 47Q310 47 349 74Q388 101 414 147Q440 193 452.5 254Q465 315 465 383Q465 460 433.5 498.5Q402 537 324 537H308L233 63ZM337 588Q404 588 459.5 575Q515 562 555 533.5Q595 505 616.5 459.5Q638 414 638 349Q638 253 607 186.5Q576 120 525 78.5Q474 37 409 18.5Q344 0 276 0H7L5 32L66 55L142 533L88 556L100 588Z" glyph-name="D" horiz-adv-x="658" unicode="D" /><glyph d="M351 620 222 774H363L415 705L500 774H567L388 620ZM258 47Q310 47 349 74Q388 101 414 147Q440 193 452.5 254Q465 315 465 383Q465 460 433.5 498.5Q402 537 324 537H308L233 63ZM337 588Q404 588 459.5 575Q515 562 555 533.5Q595 505 616.5 459.5Q638 414 638 349Q638 253 607 186.5Q576 120 525 78.5Q474 37 409 18.5Q344 0 276 0H7L5 32L66 55L142 533L88 556L100 588Z" glyph-name="Dcaron" horiz-adv-x="658" unicode="&#270;" /><glyph d="M258 47Q310 47 349 74Q388 101 414 147Q440 193 452.5 254Q465 315 465 383Q465 460 433.5 498.5Q402 537 324 537H308L233 63ZM169 -150Q177 -158 191 -164.5Q205 -171 223 -171Q240 -171 251.5 -162.5Q263 -154 263 -137Q263 -116 252 -103Q241 -90 217 -82L250 0H7L5 32L66 55L142 533L88 556L100 588H337Q404 588 459.5 575Q515 562 555 533.5Q595 505 616.5 459.5Q638 414 638 349Q638 256 609 190.5Q580 125 532 83.5Q484 42 422 22Q360 2 294 0L276 -40Q292 -42 308.5 -48Q325 -54 338 -64.5Q351 -75 359 -91.5Q367 -108 367 -131Q367 -179 332.5 -199.5Q298 -220 247 -220Q211 -220 188 -208.5Q165 -197 151 -175Z" glyph-name="Dcedilla" horiz-adv-x="658" unicode="&#7696;" /><glyph d="M258 47Q308 47 346.5 69.5Q385 92 411 132.5Q437 173 450.5 229Q464 285 464 352Q464 442 430.5 489.5Q397 537 324 537H308L274 323H370L361 268H265L233 63ZM44 323H108L142 533L88 556L100 588H338Q405 588 460.5 575Q516 562 555.5 533.5Q595 505 616.5 459.5Q638 414 638 349Q638 253 607 186.5Q576 120 523.5 78.5Q471 37 403 18.5Q335 0 261 0H7L5 32L66 55L100 268H35Z" glyph-name="Dcroat" horiz-adv-x="658" unicode="&#272;" /><glyph d="M171 -124Q171 -85 195.5 -65.5Q220 -46 254 -46Q291 -46 315.5 -65.5Q340 -85 340 -124Q340 -162 315.5 -182Q291 -202 254 -202Q220 -202 195.5 -182Q171 -162 171 -124ZM258 47Q310 47 349 74Q388 101 414 147Q440 193 452.5 254Q465 315 465 383Q465 460 433.5 498.5Q402 537 324 537H308L233 63ZM337 588Q404 588 459.5 575Q515 562 555 533.5Q595 505 616.5 459.5Q638 414 638 349Q638 253 607 186.5Q576 120 525 78.5Q474 37 409 18.5Q344 0 276 0H7L5 32L66 55L142 533L88 556L100 588Z" glyph-name="Ddotbelow" horiz-adv-x="658" unicode="&#7692;" /><glyph d="M29 0 15 20 311 588H444L545 20L527 0ZM372 58 321 379Q317 400 316 418Q315 436 314 449Q313 464 314 477H310Q305 465 299 449Q294 435 285 416Q276 397 265 374L111 58Z" glyph-name="Delta" horiz-adv-x="597" unicode="&#8710;" /><glyph d="M265 268 234 72 256 55H373L494 188L519 182L471 0H7L5 32L66 55L142 533L88 556L100 588H555L530 431L508 426L436 533H307L274 323H356L414 403L436 399L403 190L381 186L348 268Z" glyph-name="E" horiz-adv-x="546" unicode="E" /><glyph d="M305 618 284 650 377 761Q399 788 422.5 789Q446 790 466 760Q488 730 480 710.5Q472 691 438 677ZM265 268 234 72 256 55H373L494 188L519 182L471 0H7L5 32L66 55L142 533L88 556L100 588H555L530 431L508 426L436 533H307L274 323H356L414 403L436 399L403 190L381 186L348 268Z" glyph-name="Eacute" horiz-adv-x="546" unicode="&#201;" /><glyph d="M354 714Q396 714 420.5 732Q445 750 458 780H508Q495 708 452 667.5Q409 627 341 627Q282 627 251 657.5Q220 688 220 744Q220 760 223 780H272Q274 750 293 732Q312 714 354 714ZM265 268 234 72 256 55H373L494 188L519 182L471 0H7L5 32L66 55L142 533L88 556L100 588H555L530 431L508 426L436 533H307L274 323H356L414 403L436 399L403 190L381 186L348 268Z" glyph-name="Ebreve" horiz-adv-x="546" unicode="&#276;" /><glyph d="M313 620 184 774H325L377 705L462 774H529L350 620ZM265 268 234 72 256 55H373L494 188L519 182L471 0H7L5 32L66 55L142 533L88 556L100 588H555L530 431L508 426L436 533H307L274 323H356L414 403L436 399L403 190L381 186L348 268Z" glyph-name="Ecaron" horiz-adv-x="546" unicode="&#282;" /><glyph d="M390 782 519 628H378L326 697L241 628H174L353 782ZM265 268 234 72 256 55H373L494 188L519 182L471 0H7L5 32L66 55L142 533L88 556L100 588H555L530 431L508 426L436 533H307L274 323H356L414 403L436 399L403 190L381 186L348 268Z" glyph-name="Ecircumflex" horiz-adv-x="546" unicode="&#202;" /><glyph d="M367 691Q367 726 389 744Q411 762 442 762Q476 762 498 744Q520 726 520 691Q520 657 498 639Q476 621 442 621Q411 621 389 639Q367 657 367 691ZM171 692Q171 727 193 745Q215 763 246 763Q280 763 301.5 745Q323 727 323 692Q323 657 301.5 639.5Q280 622 246 622Q215 622 193 639.5Q171 657 171 692ZM265 268 234 72 256 55H373L494 188L519 182L471 0H7L5 32L66 55L142 533L88 556L100 588H555L530 431L508 426L436 533H307L274 323H356L414 403L436 399L403 190L381 186L348 268Z" glyph-name="Edieresis" horiz-adv-x="546" unicode="&#203;" /><glyph d="M264 712Q264 751 288.5 770.5Q313 790 347 790Q384 790 408.5 770.5Q433 751 433 712Q433 674 408.5 654Q384 634 347 634Q313 634 288.5 654Q264 674 264 712ZM265 268 234 72 256 55H373L494 188L519 182L471 0H7L5 32L66 55L142 533L88 556L100 588H555L530 431L508 426L436 533H307L274 323H356L414 403L436 399L403 190L381 186L348 268Z" glyph-name="Edotaccent" horiz-adv-x="546" unicode="&#278;" /><glyph d="M324 677Q290 691 282 710.5Q274 730 295 760Q315 790 339 789Q363 788 385 761L478 650L457 618ZM155 677Q121 691 113 710.5Q105 730 127 760Q147 790 171 789Q195 788 216 761L309 650L288 618ZM265 268 234 72 256 55H373L494 188L519 182L471 0H7L5 32L66 55L142 533L88 556L100 588H555L530 431L508 426L436 533H307L274 323H356L414 403L436 399L403 190L381 186L348 268Z" glyph-name="Edoublegrave" horiz-adv-x="546" unicode="&#516;" /><glyph d="M252 677Q218 691 210 710.5Q202 730 224 760Q244 790 268 789Q292 788 313 761L406 650L385 618ZM265 268 234 72 256 55H373L494 188L519 182L471 0H7L5 32L66 55L142 533L88 556L100 588H555L530 431L508 426L436 533H307L274 323H356L414 403L436 399L403 190L381 186L348 268Z" glyph-name="Egrave" horiz-adv-x="546" unicode="&#200;" /><glyph d="M357 688Q315 688 290 670Q265 652 253 622H203Q215 694 258.5 734.5Q302 775 370 775Q429 775 460 744.5Q491 714 491 658Q491 641 488 622H438Q436 652 417.5 670Q399 688 357 688ZM265 268 234 72 256 55H373L494 188L519 182L471 0H7L5 32L66 55L142 533L88 556L100 588H555L530 431L508 426L436 533H307L274 323H356L414 403L436 399L403 190L381 186L348 268Z" glyph-name="Einvertedbreve" horiz-adv-x="546" unicode="&#518;" /><glyph d="M197 654 206 732H494L484 654ZM265 268 234 72 256 55H373L494 188L519 182L471 0H7L5 32L66 55L142 533L88 556L100 588H555L530 431L508 426L436 533H307L274 323H356L414 403L436 399L403 190L381 186L348 268Z" glyph-name="Emacron" horiz-adv-x="546" unicode="&#274;" /><glyph d="M528 27Q518 -33 504 -74.5Q490 -116 468.5 -142Q447 -168 416.5 -179.5Q386 -191 344 -191Q296 -191 264.5 -170.5Q233 -150 233 -109Q233 -71 254 -52.5Q275 -34 304 -34Q340 -34 356 -54.5Q372 -75 372 -100Q372 -123 363.5 -135.5Q355 -148 347 -153Q388 -153 409 -131Q430 -109 441 -60L448 -26L238 352Q224 376 216.5 395.5Q209 415 205 429Q201 446 199 459H195Q193 438 191 414Q189 394 186.5 367Q184 340 179 312L137 55L213 32L200 0H7L5 32L66 55L142 533L88 556L100 588H299L449 308Q462 284 469.5 263.5Q477 243 482 227Q487 209 490 194H494Q495 216 497 241Q499 262 501.5 289Q504 316 509 344L540 533L475 556L487 588H684L687 556L608 533Z" glyph-name="Eng" horiz-adv-x="651" unicode="&#330;" /><glyph d="M200 -122Q200 -76 227.5 -46.5Q255 -17 293 0H7L5 32L66 55L142 533L88 556L100 588H555L530 431L508 426L436 533H307L274 323H356L414 403L436 399L403 190L381 186L348 268H265L234 72L256 55H373L494 188L519 182L471 0H399Q355 -16 333.5 -38Q312 -60 312 -92Q312 -116 327.5 -129.5Q343 -143 373 -143Q393 -143 416 -135.5Q439 -128 459 -112L477 -131Q455 -173 413 -196.5Q371 -220 321 -220Q296 -220 274 -214Q252 -208 235.5 -196Q219 -184 209.5 -165.5Q200 -147 200 -122Z" glyph-name="Eogonek" horiz-adv-x="546" unicode="&#280;" /><glyph d="M258 47Q310 47 349 74Q388 101 414 147Q440 193 452.5 254Q465 315 465 383Q465 460 433.5 498.5Q402 537 324 537H308L274 323H370L361 268H265L233 63ZM44 323H108L142 533L88 556L100 588H337Q404 588 459.5 575Q515 562 555 533.5Q595 505 616.5 459.5Q638 414 638 349Q638 253 607 186.5Q576 120 525 78.5Q474 37 409 18.5Q344 0 276 0H7L5 32L66 55L100 268H35Z" glyph-name="Eth" horiz-adv-x="664" unicode="&#208;" /><glyph d="M464 546Q407 546 367.5 500Q328 454 307 377H459L452 331H296Q290 294 287 257H445L437 211H286V206Q286 131 319.5 100Q353 69 409 69Q441 69 483.5 81.5Q526 94 560 123L581 91Q545 37 491 13.5Q437 -10 368 -10Q253 -10 189 47Q125 104 119 211H49L57 257H119Q120 277 122.5 295.5Q125 314 128 331H64L71 377H140Q159 433 191 474.5Q223 516 264 543.5Q305 571 352 584.5Q399 598 449 598Q485 598 515 591Q545 584 567 570.5Q589 557 601.5 535.5Q614 514 614 486Q614 453 596 434.5Q578 416 550 416Q523 416 504 432.5Q485 449 485 476Q485 517 520 533Q508 540 493 543Q478 546 464 546Z" glyph-name="Euro" horiz-adv-x="644" unicode="&#8364;" /><glyph d="M277 213V209Q349 192 387 150Q425 108 425 39Q425 -26 395 -69.5Q365 -113 320.5 -140Q276 -167 225 -178.5Q174 -190 132 -190Q34 -190 -12 -154.5Q-58 -119 -59 -65Q-59 -30 -37.5 -7.5Q-16 15 17 15Q52 15 68.5 -5Q85 -25 85 -54Q85 -80 72 -96.5Q59 -113 34 -117Q46 -131 69.5 -138.5Q93 -146 122 -146Q183 -146 221.5 -107Q260 -68 260 13Q260 82 218 124Q176 166 101 177V209L335 533H193L76 424L55 428L98 588H536L539 573Z" glyph-name="Ezh" horiz-adv-x="499" unicode="&#439;" /><glyph d="M287 620 158 774H299L351 705L436 774H503L324 620ZM277 213V209Q349 192 387 150Q425 108 425 39Q425 -26 395 -69.5Q365 -113 320.5 -140Q276 -167 225 -178.5Q174 -190 132 -190Q34 -190 -12 -154.5Q-58 -119 -59 -65Q-59 -30 -37.5 -7.5Q-16 15 17 15Q52 15 68.5 -5Q85 -25 85 -54Q85 -80 72 -96.5Q59 -113 34 -117Q46 -131 69.5 -138.5Q93 -146 122 -146Q183 -146 221.5 -107Q260 -68 260 13Q260 82 218 124Q176 166 101 177V209L335 533H193L76 424L55 428L98 588H536L539 573Z" glyph-name="Ezhcaron" horiz-adv-x="499" unicode="&#494;" /><glyph d="M320 0H7L5 32L66 55L142 533L88 556L100 588H555L530 431L508 426L436 533H307L274 323H355L414 403L436 399L403 190L381 186L347 268H265L233 64L333 35Z" glyph-name="F" horiz-adv-x="506" unicode="F" /><glyph d="M519 -9H481L445 49Q415 23 379.5 6.5Q344 -10 289 -10Q170 -10 105.5 53Q41 116 41 233Q41 326 71 394.5Q101 463 149.5 508Q198 553 259.5 575Q321 597 384 597Q421 597 452 590Q483 583 504 572L571 597L545 425L523 420L494 462Q470 499 444 522Q418 545 383 545Q354 545 330 528.5Q306 512 286.5 484Q267 456 253 419Q239 382 229.5 342Q220 302 215 260.5Q210 219 210 183Q210 143 217 116Q224 89 236.5 72.5Q249 56 266.5 49Q284 42 305 42Q322 42 344 50.5Q366 59 382 76L406 230L354 253L366 285H600L603 253L557 230Z" glyph-name="G" horiz-adv-x="613" unicode="G" /><glyph d="M369 618 348 650 441 761Q463 788 486.5 789Q510 790 530 760Q552 730 544 710.5Q536 691 502 677ZM519 -9H481L445 49Q415 23 379.5 6.5Q344 -10 289 -10Q170 -10 105.5 53Q41 116 41 233Q41 326 71 394.5Q101 463 149.5 508Q198 553 259.5 575Q321 597 384 597Q421 597 452 590Q483 583 504 572L571 597L545 425L523 420L494 462Q470 499 444 522Q418 545 383 545Q354 545 330 528.5Q306 512 286.5 484Q267 456 253 419Q239 382 229.5 342Q220 302 215 260.5Q210 219 210 183Q210 143 217 116Q224 89 236.5 72.5Q249 56 266.5 49Q284 42 305 42Q322 42 344 50.5Q366 59 382 76L406 230L354 253L366 285H600L603 253L557 230Z" glyph-name="Gacute" horiz-adv-x="613" unicode="&#500;" /><glyph d="M416 714Q458 714 482.5 732Q507 750 520 780H570Q557 708 514 667.5Q471 627 403 627Q344 627 313 657.5Q282 688 282 744Q282 760 285 780H334Q336 750 355 732Q374 714 416 714ZM519 -9H481L445 49Q415 23 379.5 6.5Q344 -10 289 -10Q170 -10 105.5 53Q41 116 41 233Q41 326 71 394.5Q101 463 149.5 508Q198 553 259.5 575Q321 597 384 597Q421 597 452 590Q483 583 504 572L571 597L545 425L523 420L494 462Q470 499 444 522Q418 545 383 545Q354 545 330 528.5Q306 512 286.5 484Q267 456 253 419Q239 382 229.5 342Q220 302 215 260.5Q210 219 210 183Q210 143 217 116Q224 89 236.5 72.5Q249 56 266.5 49Q284 42 305 42Q322 42 344 50.5Q366 59 382 76L406 230L354 253L366 285H600L603 253L557 230Z" glyph-name="Gbreve" horiz-adv-x="613" unicode="&#286;" /><glyph d="M376 620 247 774H388L440 705L525 774H592L413 620ZM519 -9H481L445 49Q415 23 379.5 6.5Q344 -10 289 -10Q170 -10 105.5 53Q41 116 41 233Q41 326 71 394.5Q101 463 149.5 508Q198 553 259.5 575Q321 597 384 597Q421 597 452 590Q483 583 504 572L571 597L545 425L523 420L494 462Q470 499 444 522Q418 545 383 545Q354 545 330 528.5Q306 512 286.5 484Q267 456 253 419Q239 382 229.5 342Q220 302 215 260.5Q210 219 210 183Q210 143 217 116Q224 89 236.5 72.5Q249 56 266.5 49Q284 42 305 42Q322 42 344 50.5Q366 59 382 76L406 230L354 253L366 285H600L603 253L557 230Z" glyph-name="Gcaron" horiz-adv-x="613" unicode="&#486;" /><glyph d="M454 782 583 628H442L390 697L305 628H238L417 782ZM519 -9H481L445 49Q415 23 379.5 6.5Q344 -10 289 -10Q170 -10 105.5 53Q41 116 41 233Q41 326 71 394.5Q101 463 149.5 508Q198 553 259.5 575Q321 597 384 597Q421 597 452 590Q483 583 504 572L571 597L545 425L523 420L494 462Q470 499 444 522Q418 545 383 545Q354 545 330 528.5Q306 512 286.5 484Q267 456 253 419Q239 382 229.5 342Q220 302 215 260.5Q210 219 210 183Q210 143 217 116Q224 89 236.5 72.5Q249 56 266.5 49Q284 42 305 42Q322 42 344 50.5Q366 59 382 76L406 230L354 253L366 285H600L603 253L557 230Z" glyph-name="Gcircumflex" horiz-adv-x="613" unicode="&#284;" /><glyph d="M304 -140Q300 -157 287 -163.5Q274 -170 264 -170Q232 -170 216.5 -150Q201 -130 201 -104Q201 -71 224 -51.5Q247 -32 282 -32Q327 -32 351.5 -58.5Q376 -85 376 -123Q376 -159 361 -184.5Q346 -210 320 -226Q294 -242 260 -250.5Q226 -259 189 -260L180 -240Q249 -223 280.5 -200.5Q312 -178 312 -140ZM519 -9H481L445 49Q415 23 379.5 6.5Q344 -10 289 -10Q170 -10 105.5 53Q41 116 41 233Q41 326 71 394.5Q101 463 149.5 508Q198 553 259.5 575Q321 597 384 597Q421 597 452 590Q483 583 504 572L571 597L545 425L523 420L494 462Q470 499 444 522Q418 545 383 545Q354 545 330 528.5Q306 512 286.5 484Q267 456 253 419Q239 382 229.5 342Q220 302 215 260.5Q210 219 210 183Q210 143 217 116Q224 89 236.5 72.5Q249 56 266.5 49Q284 42 305 42Q322 42 344 50.5Q366 59 382 76L406 230L354 253L366 285H600L603 253L557 230Z" glyph-name="Gcommaaccent" horiz-adv-x="613" unicode="&#290;" /><glyph d="M390 731Q394 748 407.5 754.5Q421 761 430 761Q462 761 478 741.5Q494 722 494 696Q494 662 471 642.5Q448 623 413 623Q368 623 343.5 649.5Q319 676 319 714Q319 750 334 775.5Q349 801 375 817Q401 833 434.5 841Q468 849 506 851L515 831Q446 814 414 792Q382 770 382 731ZM519 -9H481L445 49Q415 23 379.5 6.5Q344 -10 289 -10Q170 -10 105.5 53Q41 116 41 233Q41 326 71 394.5Q101 463 149.5 508Q198 553 259.5 575Q321 597 384 597Q421 597 452 590Q483 583 504 572L571 597L545 425L523 420L494 462Q470 499 444 522Q418 545 383 545Q354 545 330 528.5Q306 512 286.5 484Q267 456 253 419Q239 382 229.5 342Q220 302 215 260.5Q210 219 210 183Q210 143 217 116Q224 89 236.5 72.5Q249 56 266.5 49Q284 42 305 42Q322 42 344 50.5Q366 59 382 76L406 230L354 253L366 285H600L603 253L557 230Z" glyph-name="Gcommaturnedabove" horiz-adv-x="613" unicode="&#57607;" /><glyph d="M327 712Q327 751 351.5 770.5Q376 790 410 790Q447 790 471.5 770.5Q496 751 496 712Q496 674 471.5 654Q447 634 410 634Q376 634 351.5 654Q327 674 327 712ZM519 -9H481L445 49Q415 23 379.5 6.5Q344 -10 289 -10Q170 -10 105.5 53Q41 116 41 233Q41 326 71 394.5Q101 463 149.5 508Q198 553 259.5 575Q321 597 384 597Q421 597 452 590Q483 583 504 572L571 597L545 425L523 420L494 462Q470 499 444 522Q418 545 383 545Q354 545 330 528.5Q306 512 286.5 484Q267 456 253 419Q239 382 229.5 342Q220 302 215 260.5Q210 219 210 183Q210 143 217 116Q224 89 236.5 72.5Q249 56 266.5 49Q284 42 305 42Q322 42 344 50.5Q366 59 382 76L406 230L354 253L366 285H600L603 253L557 230Z" glyph-name="Gdotaccent" horiz-adv-x="613" unicode="&#288;" /><glyph d="M550 190H600L593 144H543L519 -9H481L445 49Q415 23 379.5 6.5Q344 -10 289 -10Q170 -10 105.5 53Q41 116 41 233Q41 326 71 394.5Q101 463 149.5 508Q198 553 259.5 575Q321 597 384 597Q421 597 452 590Q483 583 504 572L571 597L545 425L523 420L494 462Q470 499 444 522Q418 545 383 545Q354 545 330 528.5Q306 512 286.5 484Q267 456 253 419Q239 382 229.5 342Q220 302 215 260.5Q210 219 210 183Q210 143 217 116Q224 89 236.5 72.5Q249 56 266.5 49Q284 42 305 42Q322 42 344 50.5Q366 59 382 76L392 144H329L336 190H399L406 230L354 253L366 285H600L603 253L557 230Z" glyph-name="Gstroke" horiz-adv-x="613" unicode="&#484;" /><glyph d="M369 670Q333 692 300 682Q267 672 258 631L229 636Q221 679 236 711.5Q251 744 279 762Q307 780 342 781Q377 782 410 761L448 738Q486 715 516.5 719.5Q547 724 560 771L591 767Q601 721 587 687.5Q573 654 545.5 637.5Q518 621 480 623Q442 625 404 649ZM519 -9H481L445 49Q415 23 379.5 6.5Q344 -10 289 -10Q170 -10 105.5 53Q41 116 41 233Q41 326 71 394.5Q101 463 149.5 508Q198 553 259.5 575Q321 597 384 597Q421 597 452 590Q483 583 504 572L571 597L545 425L523 420L494 462Q470 499 444 522Q418 545 383 545Q354 545 330 528.5Q306 512 286.5 484Q267 456 253 419Q239 382 229.5 342Q220 302 215 260.5Q210 219 210 183Q210 143 217 116Q224 89 236.5 72.5Q249 56 266.5 49Q284 42 305 42Q322 42 344 50.5Q366 59 382 76L406 230L354 253L366 285H600L603 253L557 230Z" glyph-name="Gtilde" horiz-adv-x="613" unicode="&#57605;" /><glyph d="M737 588 740 556 673 533 597 55 657 32 644 0H373L371 32L432 55L466 268H265L231 55L291 32L278 0H7L5 32L66 55L142 533L88 556L100 588H371L374 556L307 533L274 323H475L508 533L454 556L466 588Z" glyph-name="H" horiz-adv-x="715" unicode="H" /><glyph d="M475 323 490 421H289L274 323ZM737 588 740 556 673 533 663 475H730L722 421H655L597 55L657 32L644 0H373L371 32L432 55L466 268H265L231 55L291 32L278 0H7L5 32L66 55L124 421H62L70 475H132L142 533L88 556L100 588H371L374 556L307 533L298 475H499L508 533L454 556L466 588Z" glyph-name="Hbar" horiz-adv-x="715" unicode="&#294;" /><glyph d="M402 620 273 774H414L466 705L551 774H618L439 620ZM737 588 740 556 673 533 597 55 657 32 644 0H373L371 32L432 55L466 268H265L231 55L291 32L278 0H7L5 32L66 55L142 533L88 556L100 588H371L374 556L307 533L274 323H475L508 533L454 556L466 588Z" glyph-name="Hcaron" horiz-adv-x="715" unicode="&#542;" /><glyph d="M480 782 609 628H468L416 697L331 628H264L443 782ZM737 588 740 556 673 533 597 55 657 32 644 0H373L371 32L432 55L466 268H265L231 55L291 32L278 0H7L5 32L66 55L142 533L88 556L100 588H371L374 556L307 533L274 323H475L508 533L454 556L466 588Z" glyph-name="Hcircumflex" horiz-adv-x="715" unicode="&#292;" /><glyph d="M222 -124Q222 -85 246.5 -65.5Q271 -46 305 -46Q342 -46 366.5 -65.5Q391 -85 391 -124Q391 -162 366.5 -182Q342 -202 305 -202Q271 -202 246.5 -182Q222 -162 222 -124ZM737 588 740 556 673 533 597 55 657 32 644 0H373L371 32L432 55L466 268H265L231 55L291 32L278 0H7L5 32L66 55L142 533L88 556L100 588H371L374 556L307 533L274 323H475L508 533L454 556L466 588Z" glyph-name="Hdotbelow" horiz-adv-x="715" unicode="&#7716;" /><glyph d="M161 -143 170 -65H458L448 -143ZM737 588 740 556 673 533 597 55 657 32 644 0H373L371 32L432 55L466 268H265L231 55L291 32L278 0H7L5 32L66 55L142 533L88 556L100 588H371L374 556L307 533L274 323H475L508 533L454 556L466 588Z" glyph-name="Hmacronbelow" horiz-adv-x="715" unicode="&#57609;" /><glyph d="M372 588 375 556 307 533 231 55 292 32 279 0H7L5 32L66 55L142 533L88 556L100 588Z" glyph-name="I" horiz-adv-x="350" unicode="I" /><glyph d="M491 533 437 556 449 588H719L722 556L656 533L576 27Q567 -33 544 -74.5Q521 -116 487 -142Q453 -168 408.5 -179.5Q364 -191 310 -191Q285 -191 263 -186Q241 -181 224.5 -171Q208 -161 198.5 -145.5Q189 -130 189 -109Q189 -71 210 -52.5Q231 -34 260 -34Q296 -34 311.5 -54.5Q327 -75 327 -100Q327 -123 318.5 -135.5Q310 -148 303 -153Q343 -153 365.5 -132Q388 -111 397 -55ZM372 588 375 556 307 533 231 55 292 32 279 0H7L5 32L66 55L142 533L88 556L100 588Z" glyph-name="IJ" horiz-adv-x="696" unicode="&#306;" /><glyph d="M212 618 191 650 284 761Q306 788 329.5 789Q353 790 373 760Q395 730 387 710.5Q379 691 345 677ZM372 588 375 556 307 533 231 55 292 32 279 0H7L5 32L66 55L142 533L88 556L100 588Z" glyph-name="Iacute" horiz-adv-x="350" unicode="&#205;" /><glyph d="M259 714Q301 714 325.5 732Q350 750 363 780H413Q400 708 357 667.5Q314 627 246 627Q187 627 156 657.5Q125 688 125 744Q125 760 128 780H177Q179 750 198 732Q217 714 259 714ZM372 588 375 556 307 533 231 55 292 32 279 0H7L5 32L66 55L142 533L88 556L100 588Z" glyph-name="Ibreve" horiz-adv-x="350" unicode="&#300;" /><glyph d="M219 620 90 774H231L283 705L368 774H435L256 620ZM372 588 375 556 307 533 231 55 292 32 279 0H7L5 32L66 55L142 533L88 556L100 588Z" glyph-name="Icaron" horiz-adv-x="350" unicode="&#463;" /><glyph d="M297 782 426 628H285L233 697L148 628H81L260 782ZM372 588 375 556 307 533 231 55 292 32 279 0H7L5 32L66 55L142 533L88 556L100 588Z" glyph-name="Icircumflex" horiz-adv-x="350" unicode="&#206;" /><glyph d="M274 691Q274 726 296 744Q318 762 349 762Q383 762 405 744Q427 726 427 691Q427 657 405 639Q383 621 349 621Q318 621 296 639Q274 657 274 691ZM78 692Q78 727 100 745Q122 763 153 763Q187 763 208.5 745Q230 727 230 692Q230 657 208.5 639.5Q187 622 153 622Q122 622 100 639.5Q78 657 78 692ZM372 588 375 556 307 533 231 55 292 32 279 0H7L5 32L66 55L142 533L88 556L100 588Z" glyph-name="Idieresis" horiz-adv-x="350" unicode="&#207;" /><glyph d="M171 712Q171 751 195.5 770.5Q220 790 254 790Q291 790 315.5 770.5Q340 751 340 712Q340 674 315.5 654Q291 634 254 634Q220 634 195.5 654Q171 674 171 712ZM372 588 375 556 307 533 231 55 292 32 279 0H7L5 32L66 55L142 533L88 556L100 588Z" glyph-name="Idotaccent" horiz-adv-x="350" unicode="&#304;" /><glyph d="M39 -124Q39 -85 63.5 -65.5Q88 -46 122 -46Q159 -46 183.5 -65.5Q208 -85 208 -124Q208 -162 183.5 -182Q159 -202 122 -202Q88 -202 63.5 -182Q39 -162 39 -124ZM372 588 375 556 307 533 231 55 292 32 279 0H7L5 32L66 55L142 533L88 556L100 588Z" glyph-name="Idotbelow" horiz-adv-x="350" unicode="&#7882;" /><glyph d="M231 677Q197 691 189 710.5Q181 730 202 760Q222 790 246 789Q270 788 292 761L385 650L364 618ZM62 677Q28 691 20 710.5Q12 730 34 760Q54 790 78 789Q102 788 123 761L216 650L195 618ZM372 588 375 556 307 533 231 55 292 32 279 0H7L5 32L66 55L142 533L88 556L100 588Z" glyph-name="Idoublegrave" horiz-adv-x="350" unicode="&#520;" /><glyph d="M159 677Q125 691 117 710.5Q109 730 131 760Q151 790 175 789Q199 788 220 761L313 650L292 618ZM372 588 375 556 307 533 231 55 292 32 279 0H7L5 32L66 55L142 533L88 556L100 588Z" glyph-name="Igrave" horiz-adv-x="350" unicode="&#204;" /><glyph d="M264 688Q222 688 197 670Q172 652 160 622H110Q122 694 165.5 734.5Q209 775 277 775Q336 775 367 744.5Q398 714 398 658Q398 641 395 622H345Q343 652 324.5 670Q306 688 264 688ZM372 588 375 556 307 533 231 55 292 32 279 0H7L5 32L66 55L142 533L88 556L100 588Z" glyph-name="Iinvertedbreve" horiz-adv-x="350" unicode="&#522;" /><glyph d="M104 654 113 732H401L391 654ZM372 588 375 556 307 533 231 55 292 32 279 0H7L5 32L66 55L142 533L88 556L100 588Z" glyph-name="Imacron" horiz-adv-x="350" unicode="&#298;" /><glyph d="M-3 -122Q-3 -76 24.5 -46.5Q52 -17 90 0H7L5 32L66 55L142 533L88 556L100 588H372L375 556L307 533L231 55L292 32L279 0H196Q152 -16 130.5 -38Q109 -60 109 -92Q109 -116 124.5 -129.5Q140 -143 170 -143Q190 -143 213 -135.5Q236 -128 256 -112L274 -131Q252 -173 210 -196.5Q168 -220 118 -220Q93 -220 71 -214Q49 -208 32.5 -196Q16 -184 6.5 -165.5Q-3 -147 -3 -122Z" glyph-name="Iogonek" horiz-adv-x="350" unicode="&#302;" /><glyph d="M214 670Q178 692 145 682Q112 672 103 631L74 636Q66 679 81 711.5Q96 744 124 762Q152 780 187 781Q222 782 255 761L293 738Q331 715 361.5 719.5Q392 724 405 771L436 767Q446 721 432 687.5Q418 654 390.5 637.5Q363 621 325 623Q287 625 249 649ZM372 588 375 556 307 533 231 55 292 32 279 0H7L5 32L66 55L142 533L88 556L100 588Z" glyph-name="Itilde" horiz-adv-x="350" unicode="&#296;" /><glyph d="M141 533 87 556 99 588H369L372 556L306 533L226 27Q217 -33 194 -74.5Q171 -116 137 -142Q103 -168 58.5 -179.5Q14 -191 -40 -191Q-65 -191 -87 -186Q-109 -181 -125.5 -171Q-142 -161 -151.5 -145.5Q-161 -130 -161 -109Q-161 -71 -140 -52.5Q-119 -34 -90 -34Q-54 -34 -38.5 -54.5Q-23 -75 -23 -100Q-23 -123 -31.5 -135.5Q-40 -148 -47 -153Q-7 -153 15.5 -132Q38 -111 47 -55Z" glyph-name="J" horiz-adv-x="346" unicode="J" /><glyph d="M211 620 82 774H223L275 705L360 774H427L248 620ZM141 533 87 556 99 588H369L372 556L306 533L226 27Q217 -33 194 -74.5Q171 -116 137 -142Q103 -168 58.5 -179.5Q14 -191 -40 -191Q-65 -191 -87 -186Q-109 -181 -125.5 -171Q-142 -161 -151.5 -145.5Q-161 -130 -161 -109Q-161 -71 -140 -52.5Q-119 -34 -90 -34Q-54 -34 -38.5 -54.5Q-23 -75 -23 -100Q-23 -123 -31.5 -135.5Q-40 -148 -47 -153Q-7 -153 15.5 -132Q38 -111 47 -55Z" glyph-name="Jcaron" horiz-adv-x="346" unicode="&#57611;" /><glyph d="M289 782 418 628H277L225 697L140 628H73L252 782ZM141 533 87 556 99 588H369L372 556L306 533L226 27Q217 -33 194 -74.5Q171 -116 137 -142Q103 -168 58.5 -179.5Q14 -191 -40 -191Q-65 -191 -87 -186Q-109 -181 -125.5 -171Q-142 -161 -151.5 -145.5Q-161 -130 -161 -109Q-161 -71 -140 -52.5Q-119 -34 -90 -34Q-54 -34 -38.5 -54.5Q-23 -75 -23 -100Q-23 -123 -31.5 -135.5Q-40 -148 -47 -153Q-7 -153 15.5 -132Q38 -111 47 -55Z" glyph-name="Jcircumflex" horiz-adv-x="346" unicode="&#308;" /><glyph d="M323 329 519 530 464 556 474 588H687V556L612 539L447 373L575 51L632 33L620 0H412L315 275H266L231 55L293 32L280 0H7L5 32L66 55L142 533L88 556L100 588H372L375 556L307 533L273 321Z" glyph-name="K" horiz-adv-x="662" unicode="K" /><glyph d="M376 620 247 774H388L440 705L525 774H592L413 620ZM323 329 519 530 464 556 474 588H687V556L612 539L447 373L575 51L632 33L620 0H412L315 275H266L231 55L293 32L280 0H7L5 32L66 55L142 533L88 556L100 588H372L375 556L307 533L273 321Z" glyph-name="Kcaron" horiz-adv-x="662" unicode="&#488;" /><glyph d="M158 -150Q166 -158 180.5 -164.5Q195 -171 212 -171Q229 -171 240.5 -162.5Q252 -154 252 -137Q252 -116 241 -103Q230 -90 207 -82L239 0H7L5 32L66 55L142 533L88 556L100 588H372L375 556L307 533L273 321L323 329L519 530L464 556L474 588H687V556L612 539L447 373L575 51L632 33L620 0H412L315 275H266L231 55L293 32L265 -40Q281 -42 297.5 -48Q314 -54 327.5 -64.5Q341 -75 349 -91.5Q357 -108 357 -131Q357 -179 322 -199.5Q287 -220 236 -220Q167 -220 141 -175Z" glyph-name="Kcedilla" horiz-adv-x="662" unicode="&#57613;" /><glyph d="M307 -140Q303 -157 290 -163.5Q277 -170 267 -170Q235 -170 219.5 -150Q204 -130 204 -104Q204 -71 227 -51.5Q250 -32 285 -32Q330 -32 354.5 -58.5Q379 -85 379 -123Q379 -159 364 -184.5Q349 -210 323 -226Q297 -242 263 -250.5Q229 -259 192 -260L183 -240Q252 -223 283.5 -200.5Q315 -178 315 -140ZM323 329 519 530 464 556 474 588H687V556L612 539L447 373L575 51L632 33L620 0H412L315 275H266L231 55L293 32L280 0H7L5 32L66 55L142 533L88 556L100 588H372L375 556L307 533L273 321Z" glyph-name="Kcommaaccent" horiz-adv-x="662" unicode="&#310;" /><glyph d="M575 51 632 33 620 0H412L315 275H266L231 55L293 32L280 0H7L5 32L66 55L142 533L88 556L100 588H372L375 556L307 533L273 321L323 329L411 467Q431 498 449.5 522.5Q468 547 488 564Q508 581 530.5 589.5Q553 598 582 598Q629 598 656 575.5Q683 553 683 509Q683 472 662 450Q641 428 606 428Q579 428 561 443.5Q543 459 543 487Q543 506 548 515.5Q553 525 564 533V537Q550 536 539 531.5Q528 527 518 517.5Q508 508 497 493Q486 478 473 456L439 403Z" glyph-name="Khook" horiz-adv-x="662" unicode="&#408;" /><glyph d="M307 533 234 72 258 55H363L499 207L524 201L470 0H7L5 32L66 55L142 533L88 556L100 588H383L386 556Z" glyph-name="L" horiz-adv-x="530" unicode="L" /><glyph d="M251 618 230 650 323 761Q345 788 368.5 789Q392 790 412 760Q434 730 426 710.5Q418 691 384 677ZM307 533 234 72 258 55H363L499 207L524 201L470 0H7L5 32L66 55L142 533L88 556L100 588H383L386 556Z" glyph-name="Lacute" horiz-adv-x="530" unicode="&#313;" /><glyph d="M450 614Q452 645 463 660.5Q474 676 500 674Q511 674 523 670Q535 666 544.5 658.5Q554 651 559.5 640Q565 629 563 616Q560 599 551 585L479 460L441 469ZM307 533 234 72 258 55H363L499 207L524 201L470 0H7L5 32L66 55L142 533L88 556L100 588H383L386 556Z" glyph-name="Lcaron" horiz-adv-x="530" unicode="&#317;" /><glyph d="M112 -150Q120 -158 134 -164.5Q148 -171 166 -171Q183 -171 194.5 -162.5Q206 -154 206 -137Q206 -116 195 -103Q184 -90 160 -82L193 0H7L5 32L66 55L142 533L88 556L100 588H383L386 556L307 533L234 72L258 55H363L499 207L524 201L470 0H236L219 -40Q235 -42 251.5 -48Q268 -54 281 -64.5Q294 -75 302 -91.5Q310 -108 310 -131Q310 -179 275.5 -199.5Q241 -220 190 -220Q154 -220 131 -208.5Q108 -197 94 -175Z" glyph-name="Lcedilla" horiz-adv-x="530" unicode="&#57615;" /><glyph d="M229 -140Q225 -157 212 -163.5Q199 -170 189 -170Q157 -170 141.5 -150Q126 -130 126 -104Q126 -71 149 -51.5Q172 -32 207 -32Q252 -32 276.5 -58.5Q301 -85 301 -123Q301 -159 286 -184.5Q271 -210 245 -226Q219 -242 185 -250.5Q151 -259 114 -260L105 -240Q174 -223 205.5 -200.5Q237 -178 237 -140ZM307 533 234 72 258 55H363L499 207L524 201L470 0H7L5 32L66 55L142 533L88 556L100 588H383L386 556Z" glyph-name="Lcommaaccent" horiz-adv-x="530" unicode="&#315;" /><glyph d="M355 349Q355 367 361.5 382.5Q368 398 379.5 409.5Q391 421 406.5 428Q422 435 440 435Q458 435 473.5 428Q489 421 500.5 409.5Q512 398 519 382.5Q526 367 526 349Q526 331 519 315.5Q512 300 500.5 288.5Q489 277 473.5 270.5Q458 264 440 264Q405 264 380 289Q355 314 355 349ZM307 533 234 72 258 55H363L499 207L524 201L470 0H7L5 32L66 55L142 533L88 556L100 588H383L386 556Z" glyph-name="Ldot" horiz-adv-x="530" unicode="&#319;" /><glyph d="M135 -124Q135 -85 159.5 -65.5Q184 -46 218 -46Q255 -46 279.5 -65.5Q304 -85 304 -124Q304 -162 279.5 -182Q255 -202 218 -202Q184 -202 159.5 -182Q135 -162 135 -124ZM307 533 234 72 258 55H363L499 207L524 201L470 0H7L5 32L66 55L142 533L88 556L100 588H383L386 556Z" glyph-name="Ldotbelow" horiz-adv-x="530" unicode="&#7734;" /><glyph d="M307 533 279 355 395 409 385 340 268 287 234 72 258 55H363L499 207L524 201L470 0H7L5 32L66 55L91 213L19 181L29 245L101 278L142 533L88 556L100 588H383L386 556Z" glyph-name="Lslash" horiz-adv-x="530" unicode="&#321;" /><glyph d="M377 0H291L224 331Q218 358 213.5 385Q209 412 206 434Q202 460 200 484H196Q195 457 192 430Q190 407 187 380Q184 353 181 331L137 55L207 32L194 0H7L5 32L66 55L142 533L88 556L100 588H332L388 286Q393 257 396 235Q399 213 401 199Q403 181 403 170H407Q411 182 416 199Q421 213 428.5 232.5Q436 252 448 275L603 588H847L850 556L783 533L707 55L767 32L754 0H482L480 32L542 55L588 350Q592 372 596 395.5Q600 419 605 439Q609 462 615 484H611L596 444Q588 426 578.5 403Q569 380 557 357Z" glyph-name="M" horiz-adv-x="825" unicode="M" /><glyph d="M234 -150Q242 -158 256 -164.5Q270 -171 288 -171Q305 -171 316.5 -162.5Q328 -154 328 -137Q328 -116 317 -103Q306 -90 282 -82L315 0H291L224 331Q218 358 213.5 385Q209 412 206 434Q202 460 200 484H196Q195 457 192 430Q190 407 187 380Q184 353 181 331L137 55L207 32L194 0H7L5 32L66 55L142 533L88 556L100 588H332L388 286Q393 257 396 235Q399 213 401 199Q403 181 403 170H407Q411 182 416 199Q421 213 428.5 232.5Q436 252 448 275L603 588H847L850 556L783 533L707 55L767 32L754 0H482L480 32L542 55L588 350Q592 372 596 395.5Q600 419 605 439Q609 462 615 484H611L596 444Q588 426 578.5 403Q569 380 557 357L377 0H358L341 -40Q357 -42 373.5 -48Q390 -54 403 -64.5Q416 -75 424 -91.5Q432 -108 432 -131Q432 -179 397.5 -199.5Q363 -220 312 -220Q276 -220 253 -208.5Q230 -197 216 -175Z" glyph-name="Mcedilla" horiz-adv-x="825" unicode="&#57619;" /><glyph d="M236 -124Q236 -85 260.5 -65.5Q285 -46 319 -46Q356 -46 380.5 -65.5Q405 -85 405 -124Q405 -162 380.5 -182Q356 -202 319 -202Q285 -202 260.5 -182Q236 -162 236 -124ZM377 0H291L224 331Q218 358 213.5 385Q209 412 206 434Q202 460 200 484H196Q195 457 192 430Q190 407 187 380Q184 353 181 331L137 55L207 32L194 0H7L5 32L66 55L142 533L88 556L100 588H332L388 286Q393 257 396 235Q399 213 401 199Q403 181 403 170H407Q411 182 416 199Q421 213 428.5 232.5Q436 252 448 275L603 588H847L850 556L783 533L707 55L767 32L754 0H482L480 32L542 55L588 350Q592 372 596 395.5Q600 419 605 439Q609 462 615 484H611L596 444Q588 426 578.5 403Q569 380 557 357Z" glyph-name="Mdotbelow" horiz-adv-x="825" unicode="&#7746;" /><glyph d="M301 654 310 732H598L588 654ZM377 0H291L224 331Q218 358 213.5 385Q209 412 206 434Q202 460 200 484H196Q195 457 192 430Q190 407 187 380Q184 353 181 331L137 55L207 32L194 0H7L5 32L66 55L142 533L88 556L100 588H332L388 286Q393 257 396 235Q399 213 401 199Q403 181 403 170H407Q411 182 416 199Q421 213 428.5 232.5Q436 252 448 275L603 588H847L850 556L783 533L707 55L767 32L754 0H482L480 32L542 55L588 350Q592 372 596 395.5Q600 419 605 439Q609 462 615 484H611L596 444Q588 426 578.5 403Q569 380 557 357Z" glyph-name="Mmacron" horiz-adv-x="825" unicode="&#57617;" /><glyph d="M137 55 208 32 195 0H7L5 32L66 55L142 533L88 556L100 588H299L449 308Q462 284 469.5 263.5Q477 243 482 228Q487 210 490 195H494Q495 217 497 242Q499 263 501.5 289.5Q504 316 509 345L540 533L477 556L489 588H673L676 556L608 533L524 0H434L238 352Q224 376 216.5 395.5Q209 415 205 429Q201 446 199 459H195Q193 438 191 414Q189 394 186.5 367Q184 340 179 312Z" glyph-name="N" horiz-adv-x="640" unicode="N" /><glyph d="M359 618 338 650 431 761Q453 788 476.5 789Q500 790 520 760Q542 730 534 710.5Q526 691 492 677ZM137 55 208 32 195 0H7L5 32L66 55L142 533L88 556L100 588H299L449 308Q462 284 469.5 263.5Q477 243 482 228Q487 210 490 195H494Q495 217 497 242Q499 263 501.5 289.5Q504 316 509 345L540 533L477 556L489 588H673L676 556L608 533L524 0H434L238 352Q224 376 216.5 395.5Q209 415 205 429Q201 446 199 459H195Q193 438 191 414Q189 394 186.5 367Q184 340 179 312Z" glyph-name="Nacute" horiz-adv-x="640" unicode="&#323;" /><glyph d="M366 620 237 774H378L430 705L515 774H582L403 620ZM137 55 208 32 195 0H7L5 32L66 55L142 533L88 556L100 588H299L449 308Q462 284 469.5 263.5Q477 243 482 228Q487 210 490 195H494Q495 217 497 242Q499 263 501.5 289.5Q504 316 509 345L540 533L477 556L489 588H673L676 556L608 533L524 0H434L238 352Q224 376 216.5 395.5Q209 415 205 429Q201 446 199 459H195Q193 438 191 414Q189 394 186.5 367Q184 340 179 312Z" glyph-name="Ncaron" horiz-adv-x="640" unicode="&#327;" /><glyph d="M195 -150Q203 -158 217 -164.5Q231 -171 249 -171Q266 -171 277.5 -162.5Q289 -154 289 -137Q289 -116 278 -103Q267 -90 243 -82L261 -38Q393 -38 393 -131Q393 -179 358.5 -199.5Q324 -220 273 -220Q237 -220 214 -208.5Q191 -197 177 -175ZM137 55 208 32 195 0H7L5 32L66 55L142 533L88 556L100 588H299L449 308Q462 284 469.5 263.5Q477 243 482 228Q487 210 490 195H494Q495 217 497 242Q499 263 501.5 289.5Q504 316 509 345L540 533L477 556L489 588H673L676 556L608 533L524 0H434L238 352Q224 376 216.5 395.5Q209 415 205 429Q201 446 199 459H195Q193 438 191 414Q189 394 186.5 367Q184 340 179 312Z" glyph-name="Ncedilla" horiz-adv-x="640" unicode="&#57625;" /><glyph d="M299 -140Q295 -157 282 -163.5Q269 -170 259 -170Q227 -170 211.5 -150Q196 -130 196 -104Q196 -71 219 -51.5Q242 -32 277 -32Q322 -32 346.5 -58.5Q371 -85 371 -123Q371 -159 356 -184.5Q341 -210 315 -226Q289 -242 255 -250.5Q221 -259 184 -260L175 -240Q244 -223 275.5 -200.5Q307 -178 307 -140ZM137 55 208 32 195 0H7L5 32L66 55L142 533L88 556L100 588H299L449 308Q462 284 469.5 263.5Q477 243 482 228Q487 210 490 195H494Q495 217 497 242Q499 263 501.5 289.5Q504 316 509 345L540 533L477 556L489 588H673L676 556L608 533L524 0H434L238 352Q224 376 216.5 395.5Q209 415 205 429Q201 446 199 459H195Q193 438 191 414Q189 394 186.5 367Q184 340 179 312Z" glyph-name="Ncommaaccent" horiz-adv-x="640" unicode="&#325;" /><glyph d="M429 11 238 352Q224 376 216.5 395.5Q209 415 205 429Q201 446 199 459H195Q193 438 191 414Q189 394 186.5 367Q184 340 179 312L137 55L213 32L200 0H7L5 32L66 55L142 533L88 556L100 588H299L449 308Q462 284 469.5 263.5Q477 243 482 227Q487 209 490 194H494Q495 216 497 241Q499 262 501.5 289Q504 316 509 344L540 533L475 556L487 588H684L687 556L608 533L546 143L561 108L517 -163H456Z" glyph-name="Ndescender" horiz-adv-x="640" /><glyph d="M421 691Q421 726 443 744Q465 762 496 762Q530 762 552 744Q574 726 574 691Q574 657 552 639Q530 621 496 621Q465 621 443 639Q421 657 421 691ZM225 692Q225 727 247 745Q269 763 300 763Q334 763 355.5 745Q377 727 377 692Q377 657 355.5 639.5Q334 622 300 622Q269 622 247 639.5Q225 657 225 692ZM137 55 208 32 195 0H7L5 32L66 55L142 533L88 556L100 588H299L449 308Q462 284 469.5 263.5Q477 243 482 228Q487 210 490 195H494Q495 217 497 242Q499 263 501.5 289.5Q504 316 509 345L540 533L477 556L489 588H673L676 556L608 533L524 0H434L238 352Q224 376 216.5 395.5Q209 415 205 429Q201 446 199 459H195Q193 438 191 414Q189 394 186.5 367Q184 340 179 312Z" glyph-name="Ndieresis" horiz-adv-x="640" unicode="&#57621;" /><glyph d="M318 712Q318 751 342.5 770.5Q367 790 401 790Q438 790 462.5 770.5Q487 751 487 712Q487 674 462.5 654Q438 634 401 634Q367 634 342.5 654Q318 674 318 712ZM137 55 208 32 195 0H7L5 32L66 55L142 533L88 556L100 588H299L449 308Q462 284 469.5 263.5Q477 243 482 228Q487 210 490 195H494Q495 217 497 242Q499 263 501.5 289.5Q504 316 509 345L540 533L477 556L489 588H673L676 556L608 533L524 0H434L238 352Q224 376 216.5 395.5Q209 415 205 429Q201 446 199 459H195Q193 438 191 414Q189 394 186.5 367Q184 340 179 312Z" glyph-name="Ndotaccent" horiz-adv-x="640" unicode="&#7748;" /><glyph d="M186 -124Q186 -85 210.5 -65.5Q235 -46 269 -46Q306 -46 330.5 -65.5Q355 -85 355 -124Q355 -162 330.5 -182Q306 -202 269 -202Q235 -202 210.5 -182Q186 -162 186 -124ZM137 55 208 32 195 0H7L5 32L66 55L142 533L88 556L100 588H299L449 308Q462 284 469.5 263.5Q477 243 482 228Q487 210 490 195H494Q495 217 497 242Q499 263 501.5 289.5Q504 316 509 345L540 533L477 556L489 588H673L676 556L608 533L524 0H434L238 352Q224 376 216.5 395.5Q209 415 205 429Q201 446 199 459H195Q193 438 191 414Q189 394 186.5 367Q184 340 179 312Z" glyph-name="Ndotbelow" horiz-adv-x="640" unicode="&#7750;" /><glyph d="M306 677Q272 691 264 710.5Q256 730 278 760Q298 790 322 789Q346 788 367 761L460 650L439 618ZM137 55 208 32 195 0H7L5 32L66 55L142 533L88 556L100 588H299L449 308Q462 284 469.5 263.5Q477 243 482 228Q487 210 490 195H494Q495 217 497 242Q499 263 501.5 289.5Q504 316 509 345L540 533L477 556L489 588H673L676 556L608 533L524 0H434L238 352Q224 376 216.5 395.5Q209 415 205 429Q201 446 199 459H195Q193 438 191 414Q189 394 186.5 367Q184 340 179 312Z" glyph-name="Ngrave" horiz-adv-x="640" unicode="&#504;" /><glyph d="M251 654 260 732H548L538 654ZM137 55 208 32 195 0H7L5 32L66 55L142 533L88 556L100 588H299L449 308Q462 284 469.5 263.5Q477 243 482 228Q487 210 490 195H494Q495 217 497 242Q499 263 501.5 289.5Q504 316 509 345L540 533L477 556L489 588H673L676 556L608 533L524 0H434L238 352Q224 376 216.5 395.5Q209 415 205 429Q201 446 199 459H195Q193 438 191 414Q189 394 186.5 367Q184 340 179 312Z" glyph-name="Nmacron" horiz-adv-x="640" unicode="&#57623;" /><glyph d="M359 670Q323 692 290 682Q257 672 248 631L219 636Q211 679 226 711.5Q241 744 269 762Q297 780 332 781Q367 782 400 761L438 738Q476 715 506.5 719.5Q537 724 550 771L581 767Q591 721 577 687.5Q563 654 535.5 637.5Q508 621 470 623Q432 625 394 649ZM137 55 208 32 195 0H7L5 32L66 55L142 533L88 556L100 588H299L449 308Q462 284 469.5 263.5Q477 243 482 228Q487 210 490 195H494Q495 217 497 242Q499 263 501.5 289.5Q504 316 509 345L540 533L477 556L489 588H673L676 556L608 533L524 0H434L238 352Q224 376 216.5 395.5Q209 415 205 429Q201 446 199 459H195Q193 438 191 414Q189 394 186.5 367Q184 340 179 312Z" glyph-name="Ntilde" horiz-adv-x="640" unicode="&#209;" /><glyph d="M297 -10Q239 -10 191.5 6Q144 22 110.5 53.5Q77 85 59 131Q41 177 41 238Q41 317 65 383Q89 449 133 497Q177 545 238 571.5Q299 598 374 598Q432 598 479.5 582Q527 566 561 534.5Q595 503 613 456.5Q631 410 631 349Q631 270 607 204Q583 138 539 90.5Q495 43 433.5 16.5Q372 -10 297 -10ZM374 546Q332 546 301.5 511.5Q271 477 251 423.5Q231 370 221.5 305.5Q212 241 212 180Q212 117 231 79.5Q250 42 297 42Q339 42 369.5 76Q400 110 420 163.5Q440 217 449.5 281.5Q459 346 459 407Q459 470 440.5 508Q422 546 374 546Z" glyph-name="O" horiz-adv-x="651" unicode="O" /><glyph d="M374 546Q332 546 301.5 511.5Q271 477 251 423.5Q231 370 221.5 305.5Q212 241 212 180Q212 117 231 79.5Q250 42 297 42Q339 42 369.5 76Q400 110 420 163.5Q440 217 449.5 281.5Q459 346 459 407Q459 470 440.5 508Q422 546 374 546ZM297 -10Q239 -10 191.5 6Q144 22 110.5 53.5Q77 85 59 131Q41 177 41 238Q41 317 65 383Q89 449 133 497Q177 545 238 571.5Q299 598 374 598Q397 598 417.5 595.5Q438 593 458 588H891L866 431L844 426L772 533H562Q595 501 613 455Q631 409 631 349Q631 342 630.5 335.5Q630 329 630 323H692L750 403L772 399L739 190L717 186L684 268H624Q612 200 580 146Q548 92 500 55H709L830 188L855 182L807 0H384Q364 -5 342 -7.5Q320 -10 297 -10Z" glyph-name="OE" horiz-adv-x="882" unicode="&#338;" /><glyph d="M357 618 336 650 429 761Q451 788 474.5 789Q498 790 518 760Q540 730 532 710.5Q524 691 490 677ZM297 -10Q239 -10 191.5 6Q144 22 110.5 53.5Q77 85 59 131Q41 177 41 238Q41 317 65 383Q89 449 133 497Q177 545 238 571.5Q299 598 374 598Q432 598 479.5 582Q527 566 561 534.5Q595 503 613 456.5Q631 410 631 349Q631 270 607 204Q583 138 539 90.5Q495 43 433.5 16.5Q372 -10 297 -10ZM374 546Q332 546 301.5 511.5Q271 477 251 423.5Q231 370 221.5 305.5Q212 241 212 180Q212 117 231 79.5Q250 42 297 42Q339 42 369.5 76Q400 110 420 163.5Q440 217 449.5 281.5Q459 346 459 407Q459 470 440.5 508Q422 546 374 546Z" glyph-name="Oacute" horiz-adv-x="651" unicode="&#211;" /><glyph d="M405 714Q447 714 471.5 732Q496 750 509 780H559Q546 708 503 667.5Q460 627 392 627Q333 627 302 657.5Q271 688 271 744Q271 760 274 780H323Q325 750 344 732Q363 714 405 714ZM297 -10Q239 -10 191.5 6Q144 22 110.5 53.5Q77 85 59 131Q41 177 41 238Q41 317 65 383Q89 449 133 497Q177 545 238 571.5Q299 598 374 598Q432 598 479.5 582Q527 566 561 534.5Q595 503 613 456.5Q631 410 631 349Q631 270 607 204Q583 138 539 90.5Q495 43 433.5 16.5Q372 -10 297 -10ZM374 546Q332 546 301.5 511.5Q271 477 251 423.5Q231 370 221.5 305.5Q212 241 212 180Q212 117 231 79.5Q250 42 297 42Q339 42 369.5 76Q400 110 420 163.5Q440 217 449.5 281.5Q459 346 459 407Q459 470 440.5 508Q422 546 374 546Z" glyph-name="Obreve" horiz-adv-x="651" unicode="&#334;" /><glyph d="M364 620 235 774H376L428 705L513 774H580L401 620ZM297 -10Q239 -10 191.5 6Q144 22 110.5 53.5Q77 85 59 131Q41 177 41 238Q41 317 65 383Q89 449 133 497Q177 545 238 571.5Q299 598 374 598Q432 598 479.5 582Q527 566 561 534.5Q595 503 613 456.5Q631 410 631 349Q631 270 607 204Q583 138 539 90.5Q495 43 433.5 16.5Q372 -10 297 -10ZM374 546Q332 546 301.5 511.5Q271 477 251 423.5Q231 370 221.5 305.5Q212 241 212 180Q212 117 231 79.5Q250 42 297 42Q339 42 369.5 76Q400 110 420 163.5Q440 217 449.5 281.5Q459 346 459 407Q459 470 440.5 508Q422 546 374 546Z" glyph-name="Ocaron" horiz-adv-x="651" unicode="&#465;" /><glyph d="M374 546Q332 546 301.5 511.5Q271 477 251 423.5Q231 370 221.5 305.5Q212 241 212 180Q212 117 231 79.5Q250 42 297 42Q339 42 369.5 76Q400 110 420 163.5Q440 217 449.5 281.5Q459 346 459 407Q459 470 440.5 508Q422 546 374 546ZM182 -150Q190 -158 204 -164.5Q218 -171 236 -171Q253 -171 264.5 -162.5Q276 -154 276 -137Q276 -116 265 -103Q254 -90 230 -82L260 -8Q159 2 100 64Q41 126 41 238Q41 317 65 383Q89 449 133 497Q177 545 238 571.5Q299 598 374 598Q432 598 479.5 582Q527 566 561 534.5Q595 503 613 456.5Q631 410 631 349Q631 271 607.5 205.5Q584 140 540.5 92.5Q497 45 436.5 18Q376 -9 302 -10L289 -40Q305 -42 321.5 -48Q338 -54 351 -64.5Q364 -75 372 -91.5Q380 -108 380 -131Q380 -179 345.5 -199.5Q311 -220 260 -220Q224 -220 201 -208.5Q178 -197 164 -175Z" glyph-name="Ocedilla" horiz-adv-x="651" unicode="&#57631;" /><glyph d="M442 782 571 628H430L378 697L293 628H226L405 782ZM297 -10Q239 -10 191.5 6Q144 22 110.5 53.5Q77 85 59 131Q41 177 41 238Q41 317 65 383Q89 449 133 497Q177 545 238 571.5Q299 598 374 598Q432 598 479.5 582Q527 566 561 534.5Q595 503 613 456.5Q631 410 631 349Q631 270 607 204Q583 138 539 90.5Q495 43 433.5 16.5Q372 -10 297 -10ZM374 546Q332 546 301.5 511.5Q271 477 251 423.5Q231 370 221.5 305.5Q212 241 212 180Q212 117 231 79.5Q250 42 297 42Q339 42 369.5 76Q400 110 420 163.5Q440 217 449.5 281.5Q459 346 459 407Q459 470 440.5 508Q422 546 374 546Z" glyph-name="Ocircumflex" horiz-adv-x="651" unicode="&#212;" /><glyph d="M399 731Q403 748 416.5 754.5Q430 761 439 761Q471 761 487 741.5Q503 722 503 696Q503 662 480 642.5Q457 623 422 623Q377 623 352.5 649.5Q328 676 328 714Q328 750 343 775.5Q358 801 384 817Q410 833 443.5 841Q477 849 515 851L524 831Q455 814 423 792Q391 770 391 731ZM297 -10Q239 -10 191.5 6Q144 22 110.5 53.5Q77 85 59 131Q41 177 41 238Q41 317 65 383Q89 449 133 497Q177 545 238 571.5Q299 598 374 598Q432 598 479.5 582Q527 566 561 534.5Q595 503 613 456.5Q631 410 631 349Q631 270 607 204Q583 138 539 90.5Q495 43 433.5 16.5Q372 -10 297 -10ZM374 546Q332 546 301.5 511.5Q271 477 251 423.5Q231 370 221.5 305.5Q212 241 212 180Q212 117 231 79.5Q250 42 297 42Q339 42 369.5 76Q400 110 420 163.5Q440 217 449.5 281.5Q459 346 459 407Q459 470 440.5 508Q422 546 374 546Z" glyph-name="Ocommaturnedabove" horiz-adv-x="651" unicode="&#57627;" /><glyph d="M428 691Q428 726 450 744Q472 762 503 762Q537 762 559 744Q581 726 581 691Q581 657 559 639Q537 621 503 621Q472 621 450 639Q428 657 428 691ZM232 692Q232 727 254 745Q276 763 307 763Q341 763 362.5 745Q384 727 384 692Q384 657 362.5 639.5Q341 622 307 622Q276 622 254 639.5Q232 657 232 692ZM297 -10Q239 -10 191.5 6Q144 22 110.5 53.5Q77 85 59 131Q41 177 41 238Q41 317 65 383Q89 449 133 497Q177 545 238 571.5Q299 598 374 598Q432 598 479.5 582Q527 566 561 534.5Q595 503 613 456.5Q631 410 631 349Q631 270 607 204Q583 138 539 90.5Q495 43 433.5 16.5Q372 -10 297 -10ZM374 546Q332 546 301.5 511.5Q271 477 251 423.5Q231 370 221.5 305.5Q212 241 212 180Q212 117 231 79.5Q250 42 297 42Q339 42 369.5 76Q400 110 420 163.5Q440 217 449.5 281.5Q459 346 459 407Q459 470 440.5 508Q422 546 374 546Z" glyph-name="Odieresis" horiz-adv-x="651" unicode="&#214;" /><glyph d="M328 712Q328 751 352.5 770.5Q377 790 411 790Q448 790 472.5 770.5Q497 751 497 712Q497 674 472.5 654Q448 634 411 634Q377 634 352.5 654Q328 674 328 712ZM297 -10Q239 -10 191.5 6Q144 22 110.5 53.5Q77 85 59 131Q41 177 41 238Q41 317 65 383Q89 449 133 497Q177 545 238 571.5Q299 598 374 598Q432 598 479.5 582Q527 566 561 534.5Q595 503 613 456.5Q631 410 631 349Q631 270 607 204Q583 138 539 90.5Q495 43 433.5 16.5Q372 -10 297 -10ZM374 546Q332 546 301.5 511.5Q271 477 251 423.5Q231 370 221.5 305.5Q212 241 212 180Q212 117 231 79.5Q250 42 297 42Q339 42 369.5 76Q400 110 420 163.5Q440 217 449.5 281.5Q459 346 459 407Q459 470 440.5 508Q422 546 374 546Z" glyph-name="Odotabove" horiz-adv-x="651" unicode="&#558;" /><glyph d="M184 -124Q184 -85 208.5 -65.5Q233 -46 267 -46Q304 -46 328.5 -65.5Q353 -85 353 -124Q353 -162 328.5 -182Q304 -202 267 -202Q233 -202 208.5 -182Q184 -162 184 -124ZM297 -10Q239 -10 191.5 6Q144 22 110.5 53.5Q77 85 59 131Q41 177 41 238Q41 317 65 383Q89 449 133 497Q177 545 238 571.5Q299 598 374 598Q432 598 479.5 582Q527 566 561 534.5Q595 503 613 456.5Q631 410 631 349Q631 270 607 204Q583 138 539 90.5Q495 43 433.5 16.5Q372 -10 297 -10ZM374 546Q332 546 301.5 511.5Q271 477 251 423.5Q231 370 221.5 305.5Q212 241 212 180Q212 117 231 79.5Q250 42 297 42Q339 42 369.5 76Q400 110 420 163.5Q440 217 449.5 281.5Q459 346 459 407Q459 470 440.5 508Q422 546 374 546Z" glyph-name="Odotbelow" horiz-adv-x="651" unicode="&#7884;" /><glyph d="M376 677Q342 691 334 710.5Q326 730 347 760Q367 790 391 789Q415 788 437 761L530 650L509 618ZM207 677Q173 691 165 710.5Q157 730 179 760Q199 790 223 789Q247 788 268 761L361 650L340 618ZM297 -10Q239 -10 191.5 6Q144 22 110.5 53.5Q77 85 59 131Q41 177 41 238Q41 317 65 383Q89 449 133 497Q177 545 238 571.5Q299 598 374 598Q432 598 479.5 582Q527 566 561 534.5Q595 503 613 456.5Q631 410 631 349Q631 270 607 204Q583 138 539 90.5Q495 43 433.5 16.5Q372 -10 297 -10ZM374 546Q332 546 301.5 511.5Q271 477 251 423.5Q231 370 221.5 305.5Q212 241 212 180Q212 117 231 79.5Q250 42 297 42Q339 42 369.5 76Q400 110 420 163.5Q440 217 449.5 281.5Q459 346 459 407Q459 470 440.5 508Q422 546 374 546Z" glyph-name="Odoublegrave" horiz-adv-x="651" unicode="&#524;" /><glyph d="M304 677Q270 691 262 710.5Q254 730 276 760Q296 790 320 789Q344 788 365 761L458 650L437 618ZM297 -10Q239 -10 191.5 6Q144 22 110.5 53.5Q77 85 59 131Q41 177 41 238Q41 317 65 383Q89 449 133 497Q177 545 238 571.5Q299 598 374 598Q432 598 479.5 582Q527 566 561 534.5Q595 503 613 456.5Q631 410 631 349Q631 270 607 204Q583 138 539 90.5Q495 43 433.5 16.5Q372 -10 297 -10ZM374 546Q332 546 301.5 511.5Q271 477 251 423.5Q231 370 221.5 305.5Q212 241 212 180Q212 117 231 79.5Q250 42 297 42Q339 42 369.5 76Q400 110 420 163.5Q440 217 449.5 281.5Q459 346 459 407Q459 470 440.5 508Q422 546 374 546Z" glyph-name="Ograve" horiz-adv-x="651" unicode="&#210;" /><glyph d="M301 618 280 650 373 761Q395 788 418.5 789Q442 790 462 760Q484 730 476 710.5Q468 691 434 677ZM470 618 449 650 542 761Q563 788 587 789Q611 790 631 760Q653 730 644.5 710.5Q636 691 603 677ZM297 -10Q239 -10 191.5 6Q144 22 110.5 53.5Q77 85 59 131Q41 177 41 238Q41 317 65 383Q89 449 133 497Q177 545 238 571.5Q299 598 374 598Q432 598 479.5 582Q527 566 561 534.5Q595 503 613 456.5Q631 410 631 349Q631 270 607 204Q583 138 539 90.5Q495 43 433.5 16.5Q372 -10 297 -10ZM374 546Q332 546 301.5 511.5Q271 477 251 423.5Q231 370 221.5 305.5Q212 241 212 180Q212 117 231 79.5Q250 42 297 42Q339 42 369.5 76Q400 110 420 163.5Q440 217 449.5 281.5Q459 346 459 407Q459 470 440.5 508Q422 546 374 546Z" glyph-name="Ohungarumlaut" horiz-adv-x="651" unicode="&#336;" /><glyph d="M408 688Q366 688 341 670Q316 652 304 622H254Q266 694 309.5 734.5Q353 775 421 775Q480 775 511 744.5Q542 714 542 658Q542 641 539 622H489Q487 652 468.5 670Q450 688 408 688ZM297 -10Q239 -10 191.5 6Q144 22 110.5 53.5Q77 85 59 131Q41 177 41 238Q41 317 65 383Q89 449 133 497Q177 545 238 571.5Q299 598 374 598Q432 598 479.5 582Q527 566 561 534.5Q595 503 613 456.5Q631 410 631 349Q631 270 607 204Q583 138 539 90.5Q495 43 433.5 16.5Q372 -10 297 -10ZM374 546Q332 546 301.5 511.5Q271 477 251 423.5Q231 370 221.5 305.5Q212 241 212 180Q212 117 231 79.5Q250 42 297 42Q339 42 369.5 76Q400 110 420 163.5Q440 217 449.5 281.5Q459 346 459 407Q459 470 440.5 508Q422 546 374 546Z" glyph-name="Oinvertedbreve" horiz-adv-x="651" unicode="&#526;" /><glyph d="M250 654 259 732H547L537 654ZM297 -10Q239 -10 191.5 6Q144 22 110.5 53.5Q77 85 59 131Q41 177 41 238Q41 317 65 383Q89 449 133 497Q177 545 238 571.5Q299 598 374 598Q432 598 479.5 582Q527 566 561 534.5Q595 503 613 456.5Q631 410 631 349Q631 270 607 204Q583 138 539 90.5Q495 43 433.5 16.5Q372 -10 297 -10ZM374 546Q332 546 301.5 511.5Q271 477 251 423.5Q231 370 221.5 305.5Q212 241 212 180Q212 117 231 79.5Q250 42 297 42Q339 42 369.5 76Q400 110 420 163.5Q440 217 449.5 281.5Q459 346 459 407Q459 470 440.5 508Q422 546 374 546Z" glyph-name="Omacron" horiz-adv-x="651" unicode="&#332;" /><glyph d="M374 546Q332 546 301.5 511.5Q271 477 251 423.5Q231 370 221.5 305.5Q212 241 212 180Q212 117 231 79.5Q250 42 297 42Q339 42 369.5 76Q400 110 420 163.5Q440 217 449.5 281.5Q459 346 459 407Q459 470 440.5 508Q422 546 374 546ZM135 -122Q135 -77 161 -48.5Q187 -20 223 -2Q138 15 89.5 75.5Q41 136 41 238Q41 317 65 383Q89 449 133 497Q177 545 238 571.5Q299 598 374 598Q432 598 479.5 582Q527 566 561 534.5Q595 503 613 456.5Q631 410 631 349Q631 272 608 207Q585 142 543 95Q501 48 442 20.5Q383 -7 311 -9Q247 -39 247 -92Q247 -116 262.5 -129.5Q278 -143 308 -143Q328 -143 351 -135.5Q374 -128 394 -112L412 -131Q390 -173 348 -196.5Q306 -220 256 -220Q231 -220 209 -214Q187 -208 170.5 -196Q154 -184 144.5 -165.5Q135 -147 135 -122Z" glyph-name="Oogonek" horiz-adv-x="651" unicode="&#490;" /><glyph d="M374 546Q333 546 302.5 512.5Q272 479 252 426.5Q232 374 222 310Q212 246 212 186L450 481Q442 512 423.5 529Q405 546 374 546ZM297 42Q339 42 369.5 76Q400 110 420 163.5Q440 217 449.5 281.5Q459 346 459 407V408L219 111Q227 78 246 60Q265 42 297 42ZM297 -10Q210 -10 149 25L106 -29H38L107 57Q75 88 58 133Q41 178 41 238Q41 317 65 383Q89 449 133 497Q177 545 238 571.5Q299 598 374 598Q416 598 452 589.5Q488 581 518 565L561 618H629L561 534Q594 502 612.5 456Q631 410 631 349Q631 270 607 204Q583 138 539 90.5Q495 43 433.5 16.5Q372 -10 297 -10Z" glyph-name="Oslash" horiz-adv-x="652" unicode="&#216;" /><glyph d="M355 618 334 650 427 761Q449 788 472.5 789Q496 790 516 760Q538 730 530 710.5Q522 691 488 677ZM374 546Q333 546 302.5 512.5Q272 479 252 426.5Q232 374 222 310Q212 246 212 186L450 481Q442 512 423.5 529Q405 546 374 546ZM297 42Q339 42 369.5 76Q400 110 420 163.5Q440 217 449.5 281.5Q459 346 459 407V408L219 111Q227 78 246 60Q265 42 297 42ZM297 -10Q210 -10 149 25L106 -29H38L107 57Q75 88 58 133Q41 178 41 238Q41 317 65 383Q89 449 133 497Q177 545 238 571.5Q299 598 374 598Q416 598 452 589.5Q488 581 518 565L561 618H629L561 534Q594 502 612.5 456Q631 410 631 349Q631 270 607 204Q583 138 539 90.5Q495 43 433.5 16.5Q372 -10 297 -10Z" glyph-name="Oslashacute" horiz-adv-x="652" unicode="&#510;" /><glyph d="M357 670Q321 692 288 682Q255 672 246 631L217 636Q209 679 224 711.5Q239 744 267 762Q295 780 330 781Q365 782 398 761L436 738Q474 715 504.5 719.5Q535 724 548 771L579 767Q589 721 575 687.5Q561 654 533.5 637.5Q506 621 468 623Q430 625 392 649ZM297 -10Q239 -10 191.5 6Q144 22 110.5 53.5Q77 85 59 131Q41 177 41 238Q41 317 65 383Q89 449 133 497Q177 545 238 571.5Q299 598 374 598Q432 598 479.5 582Q527 566 561 534.5Q595 503 613 456.5Q631 410 631 349Q631 270 607 204Q583 138 539 90.5Q495 43 433.5 16.5Q372 -10 297 -10ZM374 546Q332 546 301.5 511.5Q271 477 251 423.5Q231 370 221.5 305.5Q212 241 212 180Q212 117 231 79.5Q250 42 297 42Q339 42 369.5 76Q400 110 420 163.5Q440 217 449.5 281.5Q459 346 459 407Q459 470 440.5 508Q422 546 374 546Z" glyph-name="Otilde" horiz-adv-x="651" unicode="&#213;" /><glyph d="M297 802 306 880H594L584 802ZM367 659Q331 681 298 671Q265 661 256 620L227 625Q219 668 234 700.5Q249 733 277 751Q305 769 340 770Q375 771 408 750L446 727Q484 704 514.5 708.5Q545 713 558 760L589 756Q599 710 585 676.5Q571 643 543.5 626.5Q516 610 478 612Q440 614 402 638ZM297 -10Q239 -10 191.5 6Q144 22 110.5 53.5Q77 85 59 131Q41 177 41 238Q41 317 65 383Q89 449 133 497Q177 545 238 571.5Q299 598 374 598Q432 598 479.5 582Q527 566 561 534.5Q595 503 613 456.5Q631 410 631 349Q631 270 607 204Q583 138 539 90.5Q495 43 433.5 16.5Q372 -10 297 -10ZM374 546Q332 546 301.5 511.5Q271 477 251 423.5Q231 370 221.5 305.5Q212 241 212 180Q212 117 231 79.5Q250 42 297 42Q339 42 369.5 76Q400 110 420 163.5Q440 217 449.5 281.5Q459 346 459 407Q459 470 440.5 508Q422 546 374 546Z" glyph-name="Otildemacron" horiz-adv-x="651" unicode="&#556;" /><glyph d="M123 -143 132 -65H420L410 -143ZM297 -10Q239 -10 191.5 6Q144 22 110.5 53.5Q77 85 59 131Q41 177 41 238Q41 317 65 383Q89 449 133 497Q177 545 238 571.5Q299 598 374 598Q432 598 479.5 582Q527 566 561 534.5Q595 503 613 456.5Q631 410 631 349Q631 270 607 204Q583 138 539 90.5Q495 43 433.5 16.5Q372 -10 297 -10ZM374 546Q332 546 301.5 511.5Q271 477 251 423.5Q231 370 221.5 305.5Q212 241 212 180Q212 117 231 79.5Q250 42 297 42Q339 42 369.5 76Q400 110 420 163.5Q440 217 449.5 281.5Q459 346 459 407Q459 470 440.5 508Q422 546 374 546Z" glyph-name="Ounderlineaccent" horiz-adv-x="651" unicode="&#57633;" /><glyph d="M263 262H298Q324 262 344 268.5Q364 275 379 292Q401 317 410.5 358Q420 399 420 441Q420 490 399 513Q378 536 332 536H306ZM255 210 232 64 326 35 313 0H7L5 32L66 55L142 533L88 556L100 588H360Q412 588 453 579.5Q494 571 522.5 551Q551 531 566.5 499Q582 467 582 421Q582 356 558 315Q534 274 494.5 251Q455 228 404.5 219Q354 210 302 210Z" glyph-name="P" horiz-adv-x="554" unicode="P" /><glyph d="M208 654 217 732H505L495 654ZM263 262H298Q324 262 344 268.5Q364 275 379 292Q401 317 410.5 358Q420 399 420 441Q420 490 399 513Q378 536 332 536H306ZM255 210 232 64 326 35 313 0H7L5 32L66 55L142 533L88 556L100 588H360Q412 588 453 579.5Q494 571 522.5 551Q551 531 566.5 499Q582 467 582 421Q582 356 558 315Q534 274 494.5 251Q455 228 404.5 219Q354 210 302 210Z" glyph-name="Pmacron" horiz-adv-x="554" unicode="&#57635;" /><glyph d="M374 546Q332 546 301.5 511.5Q271 477 251 423.5Q231 370 221.5 305.5Q212 241 212 180Q212 117 231 79.5Q250 42 297 42Q339 42 369.5 76Q400 110 420 163.5Q440 217 449.5 281.5Q459 346 459 407Q459 470 440.5 508Q422 546 374 546ZM282 -80Q274 -68 267.5 -56.5Q261 -45 252.5 -35Q244 -25 233.5 -16Q223 -7 207 1Q129 22 85 81.5Q41 141 41 238Q41 317 65 383Q89 449 133 497Q177 545 238 571.5Q299 598 374 598Q432 598 479.5 582Q527 566 561 534.5Q595 503 613 456.5Q631 410 631 349Q631 280 613 221.5Q595 163 561 117Q527 71 479.5 40.5Q432 10 374 -2V-6Q402 -11 417 -22.5Q432 -34 445 -55L483 -118L550 -140L539 -170H341Z" glyph-name="Q" horiz-adv-x="651" unicode="Q" /><glyph d="M617 31 606 0H403L333 209Q324 234 310.5 245.5Q297 257 263 258L231 55L291 32L278 0H7L5 32L66 55L142 533L88 556L100 588H421Q459 588 492 581Q525 574 549 558Q573 542 586.5 515.5Q600 489 600 451Q600 407 583.5 375Q567 343 541.5 321.5Q516 300 484.5 288.5Q453 277 423 274L422 269Q448 264 473 246Q498 228 510 195L564 52ZM271 307H322Q345 307 365 315Q385 323 400 340.5Q415 358 424 386Q433 414 433 453Q433 472 429.5 487.5Q426 503 416.5 513.5Q407 524 390 530Q373 536 347 536H307Z" glyph-name="R" horiz-adv-x="628" unicode="R" /><glyph d="M333 618 312 650 405 761Q427 788 450.5 789Q474 790 494 760Q516 730 508 710.5Q500 691 466 677ZM617 31 606 0H403L333 209Q324 234 310.5 245.5Q297 257 263 258L231 55L291 32L278 0H7L5 32L66 55L142 533L88 556L100 588H421Q459 588 492 581Q525 574 549 558Q573 542 586.5 515.5Q600 489 600 451Q600 407 583.5 375Q567 343 541.5 321.5Q516 300 484.5 288.5Q453 277 423 274L422 269Q448 264 473 246Q498 228 510 195L564 52ZM271 307H322Q345 307 365 315Q385 323 400 340.5Q415 358 424 386Q433 414 433 453Q433 472 429.5 487.5Q426 503 416.5 513.5Q407 524 390 530Q373 536 347 536H307Z" glyph-name="Racute" horiz-adv-x="628" unicode="&#340;" /><glyph d="M341 620 212 774H353L405 705L490 774H557L378 620ZM617 31 606 0H403L333 209Q324 234 310.5 245.5Q297 257 263 258L231 55L291 32L278 0H7L5 32L66 55L142 533L88 556L100 588H421Q459 588 492 581Q525 574 549 558Q573 542 586.5 515.5Q600 489 600 451Q600 407 583.5 375Q567 343 541.5 321.5Q516 300 484.5 288.5Q453 277 423 274L422 269Q448 264 473 246Q498 228 510 195L564 52ZM271 307H322Q345 307 365 315Q385 323 400 340.5Q415 358 424 386Q433 414 433 453Q433 472 429.5 487.5Q426 503 416.5 513.5Q407 524 390 530Q373 536 347 536H307Z" glyph-name="Rcaron" horiz-adv-x="628" unicode="&#344;" /><glyph d="M271 307H322Q368 307 398 337.5Q428 368 433 433Q438 487 419 511.5Q400 536 347 536H307ZM156 -150Q164 -158 178 -164.5Q192 -171 210 -171Q227 -171 238.5 -162.5Q250 -154 250 -137Q250 -116 238.5 -103Q227 -90 204 -82L237 0H7L5 32L66 55L142 533L88 556L100 588H421Q459 588 492 581Q525 574 549 558Q573 542 586.5 515.5Q600 489 600 451Q600 407 583.5 375Q567 343 541.5 321.5Q516 300 484.5 288.5Q453 277 423 274L422 269Q448 264 473 246Q498 228 510 195L564 52L617 31L606 0H403L333 209Q324 234 310.5 245.5Q297 257 263 258L231 55L291 32L263 -40Q279 -42 295.5 -48Q312 -54 325 -64.5Q338 -75 346 -91.5Q354 -108 354 -131Q354 -155 344.5 -172Q335 -189 319 -199.5Q303 -210 281 -215Q259 -220 234 -220Q198 -220 175 -208.5Q152 -197 138 -175Z" glyph-name="Rcedilla" horiz-adv-x="628" unicode="&#57639;" /><glyph d="M303 -140Q299 -157 286 -163.5Q273 -170 263 -170Q231 -170 215.5 -150Q200 -130 200 -104Q200 -71 223 -51.5Q246 -32 281 -32Q326 -32 350.5 -58.5Q375 -85 375 -123Q375 -159 360 -184.5Q345 -210 319 -226Q293 -242 259 -250.5Q225 -259 188 -260L179 -240Q248 -223 279.5 -200.5Q311 -178 311 -140ZM617 31 606 0H403L333 209Q324 234 310.5 245.5Q297 257 263 258L231 55L291 32L278 0H7L5 32L66 55L142 533L88 556L100 588H421Q459 588 492 581Q525 574 549 558Q573 542 586.5 515.5Q600 489 600 451Q600 407 583.5 375Q567 343 541.5 321.5Q516 300 484.5 288.5Q453 277 423 274L422 269Q448 264 473 246Q498 228 510 195L564 52ZM271 307H322Q345 307 365 315Q385 323 400 340.5Q415 358 424 386Q433 414 433 453Q433 472 429.5 487.5Q426 503 416.5 513.5Q407 524 390 530Q373 536 347 536H307Z" glyph-name="Rcommaaccent" horiz-adv-x="628" unicode="&#342;" /><glyph d="M192 -124Q192 -85 216.5 -65.5Q241 -46 275 -46Q312 -46 336.5 -65.5Q361 -85 361 -124Q361 -162 336.5 -182Q312 -202 275 -202Q241 -202 216.5 -182Q192 -162 192 -124ZM617 31 606 0H403L333 209Q324 234 310.5 245.5Q297 257 263 258L231 55L291 32L278 0H7L5 32L66 55L142 533L88 556L100 588H421Q459 588 492 581Q525 574 549 558Q573 542 586.5 515.5Q600 489 600 451Q600 407 583.5 375Q567 343 541.5 321.5Q516 300 484.5 288.5Q453 277 423 274L422 269Q448 264 473 246Q498 228 510 195L564 52ZM271 307H322Q345 307 365 315Q385 323 400 340.5Q415 358 424 386Q433 414 433 453Q433 472 429.5 487.5Q426 503 416.5 513.5Q407 524 390 530Q373 536 347 536H307Z" glyph-name="Rdotbelow" horiz-adv-x="628" unicode="&#7770;" /><glyph d="M225 654 234 732H522L512 654ZM192 -124Q192 -85 216.5 -65.5Q241 -46 275 -46Q312 -46 336.5 -65.5Q361 -85 361 -124Q361 -162 336.5 -182Q312 -202 275 -202Q241 -202 216.5 -182Q192 -162 192 -124ZM617 31 606 0H403L333 209Q324 234 310.5 245.5Q297 257 263 258L231 55L291 32L278 0H7L5 32L66 55L142 533L88 556L100 588H421Q459 588 492 581Q525 574 549 558Q573 542 586.5 515.5Q600 489 600 451Q600 407 583.5 375Q567 343 541.5 321.5Q516 300 484.5 288.5Q453 277 423 274L422 269Q448 264 473 246Q498 228 510 195L564 52ZM271 307H322Q345 307 365 315Q385 323 400 340.5Q415 358 424 386Q433 414 433 453Q433 472 429.5 487.5Q426 503 416.5 513.5Q407 524 390 530Q373 536 347 536H307Z" glyph-name="Rdotbelowmacron" horiz-adv-x="628" unicode="&#7772;" /><glyph d="M352 677Q318 691 310 710.5Q302 730 323 760Q343 790 367 789Q391 788 413 761L506 650L485 618ZM183 677Q149 691 141 710.5Q133 730 155 760Q175 790 199 789Q223 788 244 761L337 650L316 618ZM617 31 606 0H403L333 209Q324 234 310.5 245.5Q297 257 263 258L231 55L291 32L278 0H7L5 32L66 55L142 533L88 556L100 588H421Q459 588 492 581Q525 574 549 558Q573 542 586.5 515.5Q600 489 600 451Q600 407 583.5 375Q567 343 541.5 321.5Q516 300 484.5 288.5Q453 277 423 274L422 269Q448 264 473 246Q498 228 510 195L564 52ZM271 307H322Q345 307 365 315Q385 323 400 340.5Q415 358 424 386Q433 414 433 453Q433 472 429.5 487.5Q426 503 416.5 513.5Q407 524 390 530Q373 536 347 536H307Z" glyph-name="Rdoublegrave" horiz-adv-x="628" unicode="&#57637;" /><glyph d="M384 688Q342 688 317 670Q292 652 280 622H230Q242 694 285.5 734.5Q329 775 397 775Q456 775 487 744.5Q518 714 518 658Q518 641 515 622H465Q463 652 444.5 670Q426 688 384 688ZM617 31 606 0H403L333 209Q324 234 310.5 245.5Q297 257 263 258L231 55L291 32L278 0H7L5 32L66 55L142 533L88 556L100 588H421Q459 588 492 581Q525 574 549 558Q573 542 586.5 515.5Q600 489 600 451Q600 407 583.5 375Q567 343 541.5 321.5Q516 300 484.5 288.5Q453 277 423 274L422 269Q448 264 473 246Q498 228 510 195L564 52ZM271 307H322Q345 307 365 315Q385 323 400 340.5Q415 358 424 386Q433 414 433 453Q433 472 429.5 487.5Q426 503 416.5 513.5Q407 524 390 530Q373 536 347 536H307Z" glyph-name="Rinvertedbreve" horiz-adv-x="628" unicode="&#530;" /><glyph d="M223 39Q243 39 261 44Q279 49 292.5 60.5Q306 72 314 89.5Q322 107 322 132Q322 168 302.5 188Q283 208 244 223L200 241Q140 265 108.5 304Q77 343 77 406Q77 456 94.5 492.5Q112 529 142 552.5Q172 576 212.5 587Q253 598 299 598Q349 598 379.5 590Q410 582 433 572L490 598L470 431L441 425L414 468Q387 508 361.5 529Q336 550 291 550Q253 550 229 530Q205 510 205 470Q205 439 223 419.5Q241 400 279 386L320 370Q383 345 421 304Q459 263 459 194Q459 139 441 100.5Q423 62 391 37.5Q359 13 314.5 1.5Q270 -10 216 -10Q163 -10 128 3Q93 16 76 27L12 -10L32 181L65 187L102 125Q127 83 152.5 61Q178 39 223 39Z" glyph-name="S" horiz-adv-x="495" unicode="S" /><glyph d="M274 618 253 650 346 761Q368 788 391.5 789Q415 790 435 760Q457 730 449 710.5Q441 691 407 677ZM223 39Q243 39 261 44Q279 49 292.5 60.5Q306 72 314 89.5Q322 107 322 132Q322 168 302.5 188Q283 208 244 223L200 241Q140 265 108.5 304Q77 343 77 406Q77 456 94.5 492.5Q112 529 142 552.5Q172 576 212.5 587Q253 598 299 598Q349 598 379.5 590Q410 582 433 572L490 598L470 431L441 425L414 468Q387 508 361.5 529Q336 550 291 550Q253 550 229 530Q205 510 205 470Q205 439 223 419.5Q241 400 279 386L320 370Q383 345 421 304Q459 263 459 194Q459 139 441 100.5Q423 62 391 37.5Q359 13 314.5 1.5Q270 -10 216 -10Q163 -10 128 3Q93 16 76 27L12 -10L32 181L65 187L102 125Q127 83 152.5 61Q178 39 223 39Z" glyph-name="Sacute" horiz-adv-x="495" unicode="&#346;" /><glyph d="M281 620 152 774H293L345 705L430 774H497L318 620ZM223 39Q243 39 261 44Q279 49 292.5 60.5Q306 72 314 89.5Q322 107 322 132Q322 168 302.5 188Q283 208 244 223L200 241Q140 265 108.5 304Q77 343 77 406Q77 456 94.5 492.5Q112 529 142 552.5Q172 576 212.5 587Q253 598 299 598Q349 598 379.5 590Q410 582 433 572L490 598L470 431L441 425L414 468Q387 508 361.5 529Q336 550 291 550Q253 550 229 530Q205 510 205 470Q205 439 223 419.5Q241 400 279 386L320 370Q383 345 421 304Q459 263 459 194Q459 139 441 100.5Q423 62 391 37.5Q359 13 314.5 1.5Q270 -10 216 -10Q163 -10 128 3Q93 16 76 27L12 -10L32 181L65 187L102 125Q127 83 152.5 61Q178 39 223 39Z" glyph-name="Scaron" horiz-adv-x="495" unicode="&#352;" /><glyph d="M99 -150Q107 -158 121 -164.5Q135 -171 153 -171Q170 -171 181.5 -162.5Q193 -154 193 -137Q193 -116 182 -103Q171 -90 147 -82L177 -7Q140 -2 115 8Q90 18 76 27L12 -10L32 181L65 187L102 125Q127 83 152.5 61Q178 39 223 39Q243 39 261 44Q279 49 292.5 60.5Q306 72 314 89.5Q322 107 322 132Q322 168 302.5 188Q283 208 244 223L200 241Q140 265 108.5 304Q77 343 77 406Q77 456 94.5 492.5Q112 529 142 552.5Q172 576 212.5 587Q253 598 299 598Q349 598 379.5 590Q410 582 433 572L490 598L470 431L441 425L414 468Q387 508 361.5 529Q336 550 291 550Q253 550 229 530Q205 510 205 470Q205 439 223 419.5Q241 400 279 386L320 370Q383 345 421 304Q459 263 459 194Q459 140 441.5 101.5Q424 63 392 38Q360 13 316 1.5Q272 -10 219 -10L206 -40Q222 -42 238.5 -48Q255 -54 268 -64.5Q281 -75 289 -91.5Q297 -108 297 -131Q297 -179 262.5 -199.5Q228 -220 177 -220Q141 -220 118 -208.5Q95 -197 81 -175Z" glyph-name="Scedilla" horiz-adv-x="495" unicode="&#350;" /><glyph d="M234 51Q262 51 284.5 71Q307 91 323 125Q339 159 348.5 202.5Q358 246 361 293Q319 289 283.5 278Q248 267 223 246.5Q198 226 184 197Q170 168 170 128Q170 97 186.5 74Q203 51 234 51ZM25 150Q25 201 52 239.5Q79 278 125 302Q171 326 232 334.5Q293 343 362 336Q362 368 354.5 397Q347 426 331 448.5Q315 471 291 484.5Q267 498 234 498Q183 498 146 476.5Q109 455 77 413L50 438Q71 485 98 515.5Q125 546 156.5 564Q188 582 223 589.5Q258 597 295 597Q344 597 387 582.5Q430 568 462 538.5Q494 509 512.5 464Q531 419 531 358Q531 274 506.5 206Q482 138 439 90Q396 42 338.5 16Q281 -10 214 -10Q175 -10 141 -1.5Q107 7 81 26Q55 45 40 75.5Q25 106 25 150Z" glyph-name="Schwa" horiz-adv-x="557" unicode="&#399;" /><glyph d="M359 782 488 628H347L295 697L210 628H143L322 782ZM223 39Q243 39 261 44Q279 49 292.5 60.5Q306 72 314 89.5Q322 107 322 132Q322 168 302.5 188Q283 208 244 223L200 241Q140 265 108.5 304Q77 343 77 406Q77 456 94.5 492.5Q112 529 142 552.5Q172 576 212.5 587Q253 598 299 598Q349 598 379.5 590Q410 582 433 572L490 598L470 431L441 425L414 468Q387 508 361.5 529Q336 550 291 550Q253 550 229 530Q205 510 205 470Q205 439 223 419.5Q241 400 279 386L320 370Q383 345 421 304Q459 263 459 194Q459 139 441 100.5Q423 62 391 37.5Q359 13 314.5 1.5Q270 -10 216 -10Q163 -10 128 3Q93 16 76 27L12 -10L32 181L65 187L102 125Q127 83 152.5 61Q178 39 223 39Z" glyph-name="Scircumflex" horiz-adv-x="495" unicode="&#348;" /><glyph d="M210 -140Q206 -157 193 -163.5Q180 -170 170 -170Q138 -170 122.5 -150Q107 -130 107 -104Q107 -71 130 -51.5Q153 -32 188 -32Q233 -32 257.5 -58.5Q282 -85 282 -123Q282 -159 267 -184.5Q252 -210 226 -226Q200 -242 166 -250.5Q132 -259 95 -260L86 -240Q155 -223 186.5 -200.5Q218 -178 218 -140ZM223 39Q243 39 261 44Q279 49 292.5 60.5Q306 72 314 89.5Q322 107 322 132Q322 168 302.5 188Q283 208 244 223L200 241Q140 265 108.5 304Q77 343 77 406Q77 456 94.5 492.5Q112 529 142 552.5Q172 576 212.5 587Q253 598 299 598Q349 598 379.5 590Q410 582 433 572L490 598L470 431L441 425L414 468Q387 508 361.5 529Q336 550 291 550Q253 550 229 530Q205 510 205 470Q205 439 223 419.5Q241 400 279 386L320 370Q383 345 421 304Q459 263 459 194Q459 139 441 100.5Q423 62 391 37.5Q359 13 314.5 1.5Q270 -10 216 -10Q163 -10 128 3Q93 16 76 27L12 -10L32 181L65 187L102 125Q127 83 152.5 61Q178 39 223 39Z" glyph-name="Scommaaccent" horiz-adv-x="495" unicode="&#536;" /><glyph d="M101 -124Q101 -85 125.5 -65.5Q150 -46 184 -46Q221 -46 245.5 -65.5Q270 -85 270 -124Q270 -162 245.5 -182Q221 -202 184 -202Q150 -202 125.5 -182Q101 -162 101 -124ZM223 39Q243 39 261 44Q279 49 292.5 60.5Q306 72 314 89.5Q322 107 322 132Q322 168 302.5 188Q283 208 244 223L200 241Q140 265 108.5 304Q77 343 77 406Q77 456 94.5 492.5Q112 529 142 552.5Q172 576 212.5 587Q253 598 299 598Q349 598 379.5 590Q410 582 433 572L490 598L470 431L441 425L414 468Q387 508 361.5 529Q336 550 291 550Q253 550 229 530Q205 510 205 470Q205 439 223 419.5Q241 400 279 386L320 370Q383 345 421 304Q459 263 459 194Q459 139 441 100.5Q423 62 391 37.5Q359 13 314.5 1.5Q270 -10 216 -10Q163 -10 128 3Q93 16 76 27L12 -10L32 181L65 187L102 125Q127 83 152.5 61Q178 39 223 39Z" glyph-name="Sdotbelow" horiz-adv-x="495" unicode="&#7778;" /><glyph d="M181 60 257 533H175L72 426L52 431L77 588H619L594 431L572 426L504 533H422L347 60L439 35L426 0H84L81 35Z" glyph-name="T" horiz-adv-x="566" unicode="T" /><glyph d="M132 323H223L257 533H175L72 426L52 431L77 588H619L594 431L572 426L504 533H422L388 323H478L468 268H380L347 60L439 35L426 0H84L81 35L181 60L214 268H122Z" glyph-name="Tbar" horiz-adv-x="570" unicode="&#358;" /><glyph d="M334 620 205 774H346L398 705L483 774H550L371 620ZM181 60 257 533H175L72 426L52 431L77 588H619L594 431L572 426L504 533H422L347 60L439 35L426 0H84L81 35Z" glyph-name="Tcaron" horiz-adv-x="566" unicode="&#356;" /><glyph d="M151 -150Q159 -158 173 -164.5Q187 -171 205 -171Q222 -171 233.5 -162.5Q245 -154 245 -137Q245 -116 234 -103Q223 -90 199 -82L232 0H84L81 35L181 60L257 533H175L72 426L52 431L77 588H619L594 431L572 426L504 533H422L347 60L439 35L426 0H275L258 -40Q274 -42 290.5 -48Q307 -54 320 -64.5Q333 -75 341 -91.5Q349 -108 349 -131Q349 -179 314.5 -199.5Q280 -220 229 -220Q193 -220 170 -208.5Q147 -197 133 -175Z" glyph-name="Tcedilla" horiz-adv-x="566" unicode="&#57641;" /><glyph d="M263 -140Q259 -157 246 -163.5Q233 -170 223 -170Q191 -170 175.5 -150Q160 -130 160 -104Q160 -71 183 -51.5Q206 -32 241 -32Q286 -32 310.5 -58.5Q335 -85 335 -123Q335 -159 320 -184.5Q305 -210 279 -226Q253 -242 219 -250.5Q185 -259 148 -260L139 -240Q208 -223 239.5 -200.5Q271 -178 271 -140ZM181 60 257 533H175L72 426L52 431L77 588H619L594 431L572 426L504 533H422L347 60L439 35L426 0H84L81 35Z" glyph-name="Tcommaaccent" horiz-adv-x="566" unicode="&#354;" /><glyph d="M153 -124Q153 -85 177.5 -65.5Q202 -46 236 -46Q273 -46 297.5 -65.5Q322 -85 322 -124Q322 -162 297.5 -182Q273 -202 236 -202Q202 -202 177.5 -182Q153 -162 153 -124ZM181 60 257 533H175L72 426L52 431L77 588H619L594 431L572 426L504 533H422L347 60L439 35L426 0H84L81 35Z" glyph-name="Tdotbelow" horiz-adv-x="566" unicode="&#7788;" /><glyph d="M244 179H272Q304 179 325.5 184.5Q347 190 360.5 204Q374 218 382 241.5Q390 265 395 300Q410 415 307 415H281ZM335 467Q438 467 497.5 431.5Q557 396 557 312Q557 249 532.5 212.5Q508 176 468.5 157Q429 138 380 132.5Q331 127 283 127H236L226 64L326 35L313 0H7L5 32L66 55L142 533L88 556L100 588H372L375 556L302 533L290 467Z" glyph-name="Thorn" horiz-adv-x="557" unicode="&#222;" /><glyph d="M540 209Q523 99 464.5 44.5Q406 -10 294 -10Q183 -10 123 31Q63 72 63 167Q63 181 64 201.5Q65 222 69 245L116 533L62 556L74 588H345L348 556L281 533L231 213Q226 185 226 159Q226 108 250.5 81Q275 54 321 54Q382 54 418.5 91Q455 128 469 219L519 533L449 556L461 588H666L669 556L590 533Z" glyph-name="U" horiz-adv-x="615" unicode="U" /><glyph d="M360 618 339 650 432 761Q454 788 477.5 789Q501 790 521 760Q543 730 535 710.5Q527 691 493 677ZM540 209Q523 99 464.5 44.5Q406 -10 294 -10Q183 -10 123 31Q63 72 63 167Q63 181 64 201.5Q65 222 69 245L116 533L62 556L74 588H345L348 556L281 533L231 213Q226 185 226 159Q226 108 250.5 81Q275 54 321 54Q382 54 418.5 91Q455 128 469 219L519 533L449 556L461 588H666L669 556L590 533Z" glyph-name="Uacute" horiz-adv-x="615" unicode="&#218;" /><glyph d="M389 714Q431 714 455.5 732Q480 750 493 780H543Q530 708 487 667.5Q444 627 376 627Q317 627 286 657.5Q255 688 255 744Q255 760 258 780H307Q309 750 328 732Q347 714 389 714ZM540 209Q523 99 464.5 44.5Q406 -10 294 -10Q183 -10 123 31Q63 72 63 167Q63 181 64 201.5Q65 222 69 245L116 533L62 556L74 588H345L348 556L281 533L231 213Q226 185 226 159Q226 108 250.5 81Q275 54 321 54Q382 54 418.5 91Q455 128 469 219L519 533L449 556L461 588H666L669 556L590 533Z" glyph-name="Ubreve" horiz-adv-x="615" unicode="&#364;" /><glyph d="M358 620 229 774H370L422 705L507 774H574L395 620ZM540 209Q523 99 464.5 44.5Q406 -10 294 -10Q183 -10 123 31Q63 72 63 167Q63 181 64 201.5Q65 222 69 245L116 533L62 556L74 588H345L348 556L281 533L231 213Q226 185 226 159Q226 108 250.5 81Q275 54 321 54Q382 54 418.5 91Q455 128 469 219L519 533L449 556L461 588H666L669 556L590 533Z" glyph-name="Ucaron" horiz-adv-x="615" unicode="&#467;" /><glyph d="M445 782 574 628H433L381 697L296 628H229L408 782ZM540 209Q523 99 464.5 44.5Q406 -10 294 -10Q183 -10 123 31Q63 72 63 167Q63 181 64 201.5Q65 222 69 245L116 533L62 556L74 588H345L348 556L281 533L231 213Q226 185 226 159Q226 108 250.5 81Q275 54 321 54Q382 54 418.5 91Q455 128 469 219L519 533L449 556L461 588H666L669 556L590 533Z" glyph-name="Ucircumflex" horiz-adv-x="615" unicode="&#219;" /><glyph d="M413 691Q413 726 435 744Q457 762 488 762Q522 762 544 744Q566 726 566 691Q566 657 544 639Q522 621 488 621Q457 621 435 639Q413 657 413 691ZM217 692Q217 727 239 745Q261 763 292 763Q326 763 347.5 745Q369 727 369 692Q369 657 347.5 639.5Q326 622 292 622Q261 622 239 639.5Q217 657 217 692ZM540 209Q523 99 464.5 44.5Q406 -10 294 -10Q183 -10 123 31Q63 72 63 167Q63 181 64 201.5Q65 222 69 245L116 533L62 556L74 588H345L348 556L281 533L231 213Q226 185 226 159Q226 108 250.5 81Q275 54 321 54Q382 54 418.5 91Q455 128 469 219L519 533L449 556L461 588H666L669 556L590 533Z" glyph-name="Udieresis" horiz-adv-x="615" unicode="&#220;" /><glyph d="M187 -124Q187 -85 211.5 -65.5Q236 -46 270 -46Q307 -46 331.5 -65.5Q356 -85 356 -124Q356 -162 331.5 -182Q307 -202 270 -202Q236 -202 211.5 -182Q187 -162 187 -124ZM540 209Q523 99 464.5 44.5Q406 -10 294 -10Q183 -10 123 31Q63 72 63 167Q63 181 64 201.5Q65 222 69 245L116 533L62 556L74 588H345L348 556L281 533L231 213Q226 185 226 159Q226 108 250.5 81Q275 54 321 54Q382 54 418.5 91Q455 128 469 219L519 533L449 556L461 588H666L669 556L590 533Z" glyph-name="Udotbelow" horiz-adv-x="615" unicode="&#7908;" /><glyph d="M379 677Q345 691 337 710.5Q329 730 350 760Q370 790 394 789Q418 788 440 761L533 650L512 618ZM210 677Q176 691 168 710.5Q160 730 182 760Q202 790 226 789Q250 788 271 761L364 650L343 618ZM540 209Q523 99 464.5 44.5Q406 -10 294 -10Q183 -10 123 31Q63 72 63 167Q63 181 64 201.5Q65 222 69 245L116 533L62 556L74 588H345L348 556L281 533L231 213Q226 185 226 159Q226 108 250.5 81Q275 54 321 54Q382 54 418.5 91Q455 128 469 219L519 533L449 556L461 588H666L669 556L590 533Z" glyph-name="Udoublegrave" horiz-adv-x="615" unicode="&#532;" /><glyph d="M306 677Q272 691 264 710.5Q256 730 278 760Q298 790 322 789Q346 788 367 761L460 650L439 618ZM540 209Q523 99 464.5 44.5Q406 -10 294 -10Q183 -10 123 31Q63 72 63 167Q63 181 64 201.5Q65 222 69 245L116 533L62 556L74 588H345L348 556L281 533L231 213Q226 185 226 159Q226 108 250.5 81Q275 54 321 54Q382 54 418.5 91Q455 128 469 219L519 533L449 556L461 588H666L669 556L590 533Z" glyph-name="Ugrave" horiz-adv-x="615" unicode="&#217;" /><glyph d="M268 618 247 650 340 761Q362 788 385.5 789Q409 790 429 760Q451 730 443 710.5Q435 691 401 677ZM437 618 416 650 509 761Q530 788 554 789Q578 790 598 760Q620 730 611.5 710.5Q603 691 570 677ZM540 209Q523 99 464.5 44.5Q406 -10 294 -10Q183 -10 123 31Q63 72 63 167Q63 181 64 201.5Q65 222 69 245L116 533L62 556L74 588H345L348 556L281 533L231 213Q226 185 226 159Q226 108 250.5 81Q275 54 321 54Q382 54 418.5 91Q455 128 469 219L519 533L449 556L461 588H666L669 556L590 533Z" glyph-name="Uhungarumlaut" horiz-adv-x="615" unicode="&#368;" /><glyph d="M394 688Q352 688 327 670Q302 652 290 622H240Q252 694 295.5 734.5Q339 775 407 775Q466 775 497 744.5Q528 714 528 658Q528 641 525 622H475Q473 652 454.5 670Q436 688 394 688ZM540 209Q523 99 464.5 44.5Q406 -10 294 -10Q183 -10 123 31Q63 72 63 167Q63 181 64 201.5Q65 222 69 245L116 533L62 556L74 588H345L348 556L281 533L231 213Q226 185 226 159Q226 108 250.5 81Q275 54 321 54Q382 54 418.5 91Q455 128 469 219L519 533L449 556L461 588H666L669 556L590 533Z" glyph-name="Uinvertedbreve" horiz-adv-x="615" unicode="&#534;" /><glyph d="M234 654 243 732H531L521 654ZM540 209Q523 99 464.5 44.5Q406 -10 294 -10Q183 -10 123 31Q63 72 63 167Q63 181 64 201.5Q65 222 69 245L116 533L62 556L74 588H345L348 556L281 533L231 213Q226 185 226 159Q226 108 250.5 81Q275 54 321 54Q382 54 418.5 91Q455 128 469 219L519 533L449 556L461 588H666L669 556L590 533Z" glyph-name="Umacron" horiz-adv-x="615" unicode="&#362;" /><glyph d="M126 -143 135 -65H423L413 -143ZM540 209Q523 99 464.5 44.5Q406 -10 294 -10Q183 -10 123 31Q63 72 63 167Q63 181 64 201.5Q65 222 69 245L116 533L62 556L74 588H345L348 556L281 533L231 213Q226 185 226 159Q226 108 250.5 81Q275 54 321 54Q382 54 418.5 91Q455 128 469 219L519 533L449 556L461 588H666L669 556L590 533Z" glyph-name="Umacronbelow" horiz-adv-x="615" unicode="&#57643;" /><glyph d="M147 -122Q147 -79 170.5 -51Q194 -23 228 -6Q147 5 105 45.5Q63 86 63 167Q63 181 64 201.5Q65 222 69 245L116 533L62 556L74 588H345L348 556L281 533L231 213Q226 185 226 159Q226 108 250.5 81Q275 54 321 54Q382 54 418.5 91Q455 128 469 219L519 533L449 556L461 588H666L669 556L590 533L540 209Q523 106 472 52Q421 -2 324 -9Q259 -39 259 -92Q259 -116 274.5 -129.5Q290 -143 320 -143Q340 -143 363 -135.5Q386 -128 406 -112L424 -131Q402 -173 360 -196.5Q318 -220 268 -220Q243 -220 221 -214Q199 -208 182.5 -196Q166 -184 156.5 -165.5Q147 -147 147 -122Z" glyph-name="Uogonek" horiz-adv-x="615" unicode="&#370;" /><glyph d="M401 784Q373 784 357.5 764.5Q342 745 342 719Q342 696 354.5 682.5Q367 669 390 669Q419 669 434 689Q449 709 449 734Q449 757 436.5 770.5Q424 784 401 784ZM285 717Q285 741 293.5 762Q302 783 317.5 799.5Q333 816 355.5 825.5Q378 835 406 835Q452 835 479.5 806.5Q507 778 507 736Q507 711 498.5 689Q490 667 474 651Q458 635 436.5 625.5Q415 616 389 616Q336 616 310.5 644.5Q285 673 285 717ZM540 209Q523 99 464.5 44.5Q406 -10 294 -10Q183 -10 123 31Q63 72 63 167Q63 181 64 201.5Q65 222 69 245L116 533L62 556L74 588H345L348 556L281 533L231 213Q226 185 226 159Q226 108 250.5 81Q275 54 321 54Q382 54 418.5 91Q455 128 469 219L519 533L449 556L461 588H666L669 556L590 533Z" glyph-name="Uring" horiz-adv-x="615" unicode="&#366;" /><glyph d="M341 670Q305 692 272 682Q239 672 230 631L201 636Q193 679 208 711.5Q223 744 251 762Q279 780 314 781Q349 782 382 761L420 738Q458 715 488.5 719.5Q519 724 532 771L563 767Q573 721 559 687.5Q545 654 517.5 637.5Q490 621 452 623Q414 625 376 649ZM540 209Q523 99 464.5 44.5Q406 -10 294 -10Q183 -10 123 31Q63 72 63 167Q63 181 64 201.5Q65 222 69 245L116 533L62 556L74 588H345L348 556L281 533L231 213Q226 185 226 159Q226 108 250.5 81Q275 54 321 54Q382 54 418.5 91Q455 128 469 219L519 533L449 556L461 588H666L669 556L590 533Z" glyph-name="Utilde" horiz-adv-x="615" unicode="&#360;" /><glyph d="M526 531 462 553 473 588H649L651 558L601 529L302 0H183L87 529L45 558L58 588H316L314 550L251 536L296 257Q301 226 303 201.5Q305 177 306 160Q307 140 306 125H310Q316 141 325 161Q333 178 345 203Q357 228 374 258Z" glyph-name="V" horiz-adv-x="581" unicode="V" /><glyph d="M436 281Q434 307 433.5 330.5Q433 354 435 373Q436 395 439 415H435Q429 395 422 373Q416 354 407 330.5Q398 307 387 282L263 0H119L92 529L51 558L65 588H323L320 550L262 537L271 275Q272 246 270 218.5Q268 191 266 170Q263 144 259 123H263Q269 147 277 173Q284 195 293.5 222Q303 249 316 275L463 588H575L602 281Q605 249 605 220.5Q605 192 603 170Q601 144 599 123H603Q609 146 618 172Q625 194 635 221.5Q645 249 658 278L768 531L702 553L715 588H891V558L840 529L601 0H461Z" glyph-name="W" horiz-adv-x="831" unicode="W" /><glyph d="M483 618 462 650 555 761Q577 788 600.5 789Q624 790 644 760Q666 730 658 710.5Q650 691 616 677ZM436 281Q434 307 433.5 330.5Q433 354 435 373Q436 395 439 415H435Q429 395 422 373Q416 354 407 330.5Q398 307 387 282L263 0H119L92 529L51 558L65 588H323L320 550L262 537L271 275Q272 246 270 218.5Q268 191 266 170Q263 144 259 123H263Q269 147 277 173Q284 195 293.5 222Q303 249 316 275L463 588H575L602 281Q605 249 605 220.5Q605 192 603 170Q601 144 599 123H603Q609 146 618 172Q625 194 635 221.5Q645 249 658 278L768 531L702 553L715 588H891V558L840 529L601 0H461Z" glyph-name="Wacute" horiz-adv-x="831" unicode="&#7810;" /><glyph d="M569 782 698 628H557L505 697L420 628H353L532 782ZM436 281Q434 307 433.5 330.5Q433 354 435 373Q436 395 439 415H435Q429 395 422 373Q416 354 407 330.5Q398 307 387 282L263 0H119L92 529L51 558L65 588H323L320 550L262 537L271 275Q272 246 270 218.5Q268 191 266 170Q263 144 259 123H263Q269 147 277 173Q284 195 293.5 222Q303 249 316 275L463 588H575L602 281Q605 249 605 220.5Q605 192 603 170Q601 144 599 123H603Q609 146 618 172Q625 194 635 221.5Q645 249 658 278L768 531L702 553L715 588H891V558L840 529L601 0H461Z" glyph-name="Wcircumflex" horiz-adv-x="831" unicode="&#372;" /><glyph d="M555 691Q555 726 577 744Q599 762 630 762Q664 762 686 744Q708 726 708 691Q708 657 686 639Q664 621 630 621Q599 621 577 639Q555 657 555 691ZM359 692Q359 727 381 745Q403 763 434 763Q468 763 489.5 745Q511 727 511 692Q511 657 489.5 639.5Q468 622 434 622Q403 622 381 639.5Q359 657 359 692ZM436 281Q434 307 433.5 330.5Q433 354 435 373Q436 395 439 415H435Q429 395 422 373Q416 354 407 330.5Q398 307 387 282L263 0H119L92 529L51 558L65 588H323L320 550L262 537L271 275Q272 246 270 218.5Q268 191 266 170Q263 144 259 123H263Q269 147 277 173Q284 195 293.5 222Q303 249 316 275L463 588H575L602 281Q605 249 605 220.5Q605 192 603 170Q601 144 599 123H603Q609 146 618 172Q625 194 635 221.5Q645 249 658 278L768 531L702 553L715 588H891V558L840 529L601 0H461Z" glyph-name="Wdieresis" horiz-adv-x="831" unicode="&#7812;" /><glyph d="M430 677Q396 691 388 710.5Q380 730 402 760Q422 790 446 789Q470 788 491 761L584 650L563 618ZM436 281Q434 307 433.5 330.5Q433 354 435 373Q436 395 439 415H435Q429 395 422 373Q416 354 407 330.5Q398 307 387 282L263 0H119L92 529L51 558L65 588H323L320 550L262 537L271 275Q272 246 270 218.5Q268 191 266 170Q263 144 259 123H263Q269 147 277 173Q284 195 293.5 222Q303 249 316 275L463 588H575L602 281Q605 249 605 220.5Q605 192 603 170Q601 144 599 123H603Q609 146 618 172Q625 194 635 221.5Q645 249 658 278L768 531L702 553L715 588H891V558L840 529L601 0H461Z" glyph-name="Wgrave" horiz-adv-x="831" unicode="&#7808;" /><glyph d="M497 534 441 554 453 588H635L637 558L580 535L392 330L529 55L579 32L566 0H284L282 32L351 55L274 220L129 59L193 31L182 0H-20L-24 32L45 55L245 276L116 529L74 558L86 588H357L355 550L293 536L364 386Z" glyph-name="X" horiz-adv-x="602" unicode="X" /><glyph d="M310 396Q319 365 323 344Q327 323 329 309Q331 293 330 282H334Q339 293 346 307Q352 319 361.5 336Q371 353 385 374L487 531L420 552L431 588H624V553L564 535L363 227L336 60L428 35L415 0H74L71 35L171 60L197 227L97 524L50 557L62 588H329V550L268 534Z" glyph-name="Y" horiz-adv-x="554" unicode="Y" /><glyph d="M333 618 312 650 405 761Q427 788 450.5 789Q474 790 494 760Q516 730 508 710.5Q500 691 466 677ZM310 396Q319 365 323 344Q327 323 329 309Q331 293 330 282H334Q339 293 346 307Q352 319 361.5 336Q371 353 385 374L487 531L420 552L431 588H624V553L564 535L363 227L336 60L428 35L415 0H74L71 35L171 60L197 227L97 524L50 557L62 588H329V550L268 534Z" glyph-name="Yacute" horiz-adv-x="554" unicode="&#221;" /><glyph d="M418 782 547 628H406L354 697L269 628H202L381 782ZM310 396Q319 365 323 344Q327 323 329 309Q331 293 330 282H334Q339 293 346 307Q352 319 361.5 336Q371 353 385 374L487 531L420 552L431 588H624V553L564 535L363 227L336 60L428 35L415 0H74L71 35L171 60L197 227L97 524L50 557L62 588H329V550L268 534Z" glyph-name="Ycircumflex" horiz-adv-x="554" unicode="&#374;" /><glyph d="M395 691Q395 726 417 744Q439 762 470 762Q504 762 526 744Q548 726 548 691Q548 657 526 639Q504 621 470 621Q439 621 417 639Q395 657 395 691ZM199 692Q199 727 221 745Q243 763 274 763Q308 763 329.5 745Q351 727 351 692Q351 657 329.5 639.5Q308 622 274 622Q243 622 221 639.5Q199 657 199 692ZM310 396Q319 365 323 344Q327 323 329 309Q331 293 330 282H334Q339 293 346 307Q352 319 361.5 336Q371 353 385 374L487 531L420 552L431 588H624V553L564 535L363 227L336 60L428 35L415 0H74L71 35L171 60L197 227L97 524L50 557L62 588H329V550L268 534Z" glyph-name="Ydieresis" horiz-adv-x="554" unicode="&#376;" /><glyph d="M280 677Q246 691 238 710.5Q230 730 252 760Q272 790 296 789Q320 788 341 761L434 650L413 618ZM310 396Q319 365 323 344Q327 323 329 309Q331 293 330 282H334Q339 293 346 307Q352 319 361.5 336Q371 353 385 374L487 531L420 552L431 588H624V553L564 535L363 227L336 60L428 35L415 0H74L71 35L171 60L197 227L97 524L50 557L62 588H329V550L268 534Z" glyph-name="Ygrave" horiz-adv-x="554" unicode="&#7922;" /><glyph d="M225 654 234 732H522L512 654ZM310 396Q319 365 323 344Q327 323 329 309Q331 293 330 282H334Q339 293 346 307Q352 319 361.5 336Q371 353 385 374L487 531L420 552L431 588H624V553L564 535L363 227L336 60L428 35L415 0H74L71 35L171 60L197 227L97 524L50 557L62 588H329V550L268 534Z" glyph-name="Ymacron" horiz-adv-x="554" unicode="&#562;" /><glyph d="M334 670Q298 692 265 682Q232 672 223 631L194 636Q186 679 201 711.5Q216 744 244 762Q272 780 307 781Q342 782 375 761L413 738Q451 715 481.5 719.5Q512 724 525 771L556 767Q566 721 552 687.5Q538 654 510.5 637.5Q483 621 445 623Q407 625 369 649ZM310 396Q319 365 323 344Q327 323 329 309Q331 293 330 282H334Q339 293 346 307Q352 319 361.5 336Q371 353 385 374L487 531L420 552L431 588H624V553L564 535L363 227L336 60L428 35L415 0H74L71 35L171 60L197 227L97 524L50 557L62 588H329V550L268 534Z" glyph-name="Ytilde" horiz-adv-x="554" unicode="&#7928;" /><glyph d="M315 461Q329 481 341 494.5Q353 508 361 516Q371 526 378 532V536Q373 535 365 534Q357 533 345.5 533Q334 533 315 533H223L110 424L85 428L129 588H581L584 574L254 127Q238 106 226 92Q214 78 206 70Q196 60 188 55V51Q193 52 202 53Q210 54 222.5 54.5Q235 55 255 55H364L493 188L521 181L457 0H-15L-19 12Z" glyph-name="Z" horiz-adv-x="550" unicode="Z" /><glyph d="M297 618 276 650 369 761Q391 788 414.5 789Q438 790 458 760Q480 730 472 710.5Q464 691 430 677ZM306 461Q320 481 332 494.5Q344 508 352 516Q362 526 369 532V536Q364 535 356 534Q348 533 336.5 533Q325 533 306 533H214L101 424L76 428L120 588H572L575 574L245 127Q229 106 217 92Q205 78 197 70Q187 60 179 55V51Q184 52 193 53Q201 54 213.5 54.5Q226 55 246 55H355L484 188L512 181L448 0H-24L-28 12Z" glyph-name="Zacute" horiz-adv-x="541" unicode="&#377;" /><glyph d="M304 620 175 774H316L368 705L453 774H520L341 620ZM306 461Q320 481 332 494.5Q344 508 352 516Q362 526 369 532V536Q364 535 356 534Q348 533 336.5 533Q325 533 306 533H214L101 424L76 428L120 588H572L575 574L245 127Q229 106 217 92Q205 78 197 70Q187 60 179 55V51Q184 52 193 53Q201 54 213.5 54.5Q226 55 246 55H355L484 188L512 181L448 0H-24L-28 12Z" glyph-name="Zcaron" horiz-adv-x="541" unicode="&#381;" /><glyph d="M258 712Q258 751 282.5 770.5Q307 790 341 790Q378 790 402.5 770.5Q427 751 427 712Q427 674 402.5 654Q378 634 341 634Q307 634 282.5 654Q258 674 258 712ZM306 461Q320 481 332 494.5Q344 508 352 516Q362 526 369 532V536Q364 535 356 534Q348 533 336.5 533Q325 533 306 533H214L101 424L76 428L120 588H572L575 574L245 127Q229 106 217 92Q205 78 197 70Q187 60 179 55V51Q184 52 193 53Q201 54 213.5 54.5Q226 55 246 55H355L484 188L512 181L448 0H-24L-28 12Z" glyph-name="Zdotaccent" horiz-adv-x="541" unicode="&#379;" /><glyph d="M312 77Q294 33 258 11.5Q222 -10 175 -10Q143 -10 117 -0.5Q91 9 71.5 29Q52 49 41.5 81Q31 113 31 157Q31 222 51 275Q71 328 107 366Q143 404 192 425Q241 446 299 446Q325 446 352.5 440Q380 434 406 421L492 446H533L472 85Q476 81 483 79.5Q490 78 499 79Q508 80 517 84.5Q526 89 533 97L556 75Q517 -10 409 -10Q367 -10 341 9.5Q315 29 316 77ZM360 376Q351 385 340 388Q329 391 318 391Q291 391 268.5 373Q246 355 229 324Q212 293 202.5 252Q193 211 193 166Q193 87 243 87Q267 87 285 100.5Q303 114 318 139Z" glyph-name="a" horiz-adv-x="581" unicode="a" /><glyph d="M164 189H308L290 287Q285 313 283.5 335Q282 357 281 372Q280 390 281 404H277Q272 389 264 371Q257 355 246.5 334Q236 313 222 287ZM492 52 532 32 521 0H275L272 36L334 51L318 138H134L86 55L149 36L138 0H-26L-29 33L12 52L274 498H401Z" glyph-name="a.smcp" horiz-adv-x="553" unicode="&#57857;" /><glyph d="M269 336Q255 305 227.5 290Q200 275 164 275Q141 275 120.5 281.5Q100 288 84.5 302Q69 316 60 339.5Q51 363 51 396Q51 444 66.5 481.5Q82 519 109 545Q136 571 174 584.5Q212 598 257 598Q300 598 342 580L412 598H448L405 349Q408 343 422 342.5Q436 342 447 353L466 337Q449 302 420 288.5Q391 275 348 275Q316 275 294.5 287Q273 299 272 336ZM302 548Q297 553 289.5 555Q282 557 275 557Q257 557 241 545Q225 533 213.5 512Q202 491 195.5 463Q189 435 189 403Q189 352 225 352Q253 352 272 382Z" glyph-name="a.superior" horiz-adv-x="495" unicode="&#58209;" /><glyph d="M313 485 293 504 348 636Q355 653 367.5 664.5Q380 676 394 680.5Q408 685 423.5 682Q439 679 452 667Q480 642 475.5 611Q471 580 439 561ZM312 77Q294 33 258 11.5Q222 -10 175 -10Q143 -10 117 -0.5Q91 9 71.5 29Q52 49 41.5 81Q31 113 31 157Q31 222 51 275Q71 328 107 366Q143 404 192 425Q241 446 299 446Q325 446 352.5 440Q380 434 406 421L492 446H533L472 85Q476 81 483 79.5Q490 78 499 79Q508 80 517 84.5Q526 89 533 97L556 75Q517 -10 409 -10Q367 -10 341 9.5Q315 29 316 77ZM360 376Q351 385 340 388Q329 391 318 391Q291 391 268.5 373Q246 355 229 324Q212 293 202.5 252Q193 211 193 166Q193 87 243 87Q267 87 285 100.5Q303 114 318 139Z" glyph-name="aacute" horiz-adv-x="581" unicode="&#225;" /><glyph d="M164 189H308L290 287Q285 313 283.5 335Q282 357 281 372Q280 390 281 404H277Q272 389 264 371Q257 355 246.5 334Q236 313 222 287ZM304 545 284 564 339 696Q346 713 358.5 724.5Q371 736 385 740.5Q399 745 414.5 742Q430 739 443 727Q471 702 466.5 671Q462 640 430 621ZM492 52 532 32 521 0H275L272 36L334 51L318 138H134L86 55L149 36L138 0H-26L-29 33L12 52L274 498H401Z" glyph-name="aacute.smcp" horiz-adv-x="553" unicode="&#57889;" /><glyph d="M341 577Q386 577 416 601Q446 625 454 663H499Q497 628 485 596.5Q473 565 451 541.5Q429 518 398 504Q367 490 327 490Q267 490 235 523.5Q203 557 203 610Q203 622 204.5 635.5Q206 649 211 663H256Q251 625 273.5 601Q296 577 341 577ZM312 77Q294 33 258 11.5Q222 -10 175 -10Q143 -10 117 -0.5Q91 9 71.5 29Q52 49 41.5 81Q31 113 31 157Q31 222 51 275Q71 328 107 366Q143 404 192 425Q241 446 299 446Q325 446 352.5 440Q380 434 406 421L492 446H533L472 85Q476 81 483 79.5Q490 78 499 79Q508 80 517 84.5Q526 89 533 97L556 75Q517 -10 409 -10Q367 -10 341 9.5Q315 29 316 77ZM360 376Q351 385 340 388Q329 391 318 391Q291 391 268.5 373Q246 355 229 324Q212 293 202.5 252Q193 211 193 166Q193 87 243 87Q267 87 285 100.5Q303 114 318 139Z" glyph-name="abreve" horiz-adv-x="581" unicode="&#259;" /><glyph d="M164 189H308L290 287Q285 313 283.5 335Q282 357 281 372Q280 390 281 404H277Q272 389 264 371Q257 355 246.5 334Q236 313 222 287ZM356 644Q401 644 431 668Q461 692 469 730H514Q512 695 500 663.5Q488 632 466 608.5Q444 585 413 571Q382 557 342 557Q282 557 250 590.5Q218 624 218 677Q218 689 219.5 702.5Q221 716 226 730H271Q266 692 288.5 668Q311 644 356 644ZM492 52 532 32 521 0H275L272 36L334 51L318 138H134L86 55L149 36L138 0H-26L-29 33L12 52L274 498H401Z" glyph-name="abreve.smcp" horiz-adv-x="553" unicode="&#57897;" /><glyph d="M316 482 192 671H325L380 577L473 671H537L353 482ZM312 77Q294 33 258 11.5Q222 -10 175 -10Q143 -10 117 -0.5Q91 9 71.5 29Q52 49 41.5 81Q31 113 31 157Q31 222 51 275Q71 328 107 366Q143 404 192 425Q241 446 299 446Q325 446 352.5 440Q380 434 406 421L492 446H533L472 85Q476 81 483 79.5Q490 78 499 79Q508 80 517 84.5Q526 89 533 97L556 75Q517 -10 409 -10Q367 -10 341 9.5Q315 29 316 77ZM360 376Q351 385 340 388Q329 391 318 391Q291 391 268.5 373Q246 355 229 324Q212 293 202.5 252Q193 211 193 166Q193 87 243 87Q267 87 285 100.5Q303 114 318 139Z" glyph-name="acaron" horiz-adv-x="581" unicode="&#462;" /><glyph d="M164 189H308L290 287Q285 313 283.5 335Q282 357 281 372Q280 390 281 404H277Q272 389 264 371Q257 355 246.5 334Q236 313 222 287ZM319 551 195 740H328L383 646L476 740H540L356 551ZM492 52 532 32 521 0H275L272 36L334 51L318 138H134L86 55L149 36L138 0H-26L-29 33L12 52L274 498H401Z" glyph-name="acaron.smcp" horiz-adv-x="553" unicode="&#57895;" /><glyph d="M396 671 520 482H387L333 576L239 482H175L359 671ZM312 77Q294 33 258 11.5Q222 -10 175 -10Q143 -10 117 -0.5Q91 9 71.5 29Q52 49 41.5 81Q31 113 31 157Q31 222 51 275Q71 328 107 366Q143 404 192 425Q241 446 299 446Q325 446 352.5 440Q380 434 406 421L492 446H533L472 85Q476 81 483 79.5Q490 78 499 79Q508 80 517 84.5Q526 89 533 97L556 75Q517 -10 409 -10Q367 -10 341 9.5Q315 29 316 77ZM360 376Q351 385 340 388Q329 391 318 391Q291 391 268.5 373Q246 355 229 324Q212 293 202.5 252Q193 211 193 166Q193 87 243 87Q267 87 285 100.5Q303 114 318 139Z" glyph-name="acircumflex" horiz-adv-x="581" unicode="&#226;" /><glyph d="M164 189H308L290 287Q285 313 283.5 335Q282 357 281 372Q280 390 281 404H277Q272 389 264 371Q257 355 246.5 334Q236 313 222 287ZM400 739 524 550H391L337 644L243 550H179L363 739ZM492 52 532 32 521 0H275L272 36L334 51L318 138H134L86 55L149 36L138 0H-26L-29 33L12 52L274 498H401Z" glyph-name="acircumflex.smcp" horiz-adv-x="553" unicode="&#57891;" /><glyph d="M100 485 80 504 135 636Q142 653 154.5 664.5Q167 676 181 680.5Q195 685 210.5 682Q226 679 239 667Q267 642 262.5 611Q258 580 226 561Z" glyph-name="acute" horiz-adv-x="343" unicode="&#180;" /><glyph d="M101 618 80 650 173 761Q195 788 218.5 789Q242 790 262 760Q284 730 276 710.5Q268 691 234 677Z" glyph-name="acute.cap" horiz-adv-x="358" unicode="&#58402;" /><glyph d="M368 565Q368 600 390 618Q412 636 443 636Q477 636 499 618Q521 600 521 565Q521 531 499 513Q477 495 443 495Q412 495 390 513Q368 531 368 565ZM172 566Q172 601 194 619Q216 637 247 637Q281 637 302.5 619Q324 601 324 566Q324 531 302.5 513.5Q281 496 247 496Q216 496 194 513.5Q172 531 172 566ZM312 77Q294 33 258 11.5Q222 -10 175 -10Q143 -10 117 -0.5Q91 9 71.5 29Q52 49 41.5 81Q31 113 31 157Q31 222 51 275Q71 328 107 366Q143 404 192 425Q241 446 299 446Q325 446 352.5 440Q380 434 406 421L492 446H533L472 85Q476 81 483 79.5Q490 78 499 79Q508 80 517 84.5Q526 89 533 97L556 75Q517 -10 409 -10Q367 -10 341 9.5Q315 29 316 77ZM360 376Q351 385 340 388Q329 391 318 391Q291 391 268.5 373Q246 355 229 324Q212 293 202.5 252Q193 211 193 166Q193 87 243 87Q267 87 285 100.5Q303 114 318 139Z" glyph-name="adieresis" horiz-adv-x="581" unicode="&#228;" /><glyph d="M164 189H308L290 287Q285 313 283.5 335Q282 357 281 372Q280 390 281 404H277Q272 389 264 371Q257 355 246.5 334Q236 313 222 287ZM183 638Q183 673 205 691Q227 709 258 709Q292 709 313.5 691Q335 673 335 638Q335 603 313.5 585.5Q292 568 258 568Q227 568 205 585.5Q183 603 183 638ZM379 637Q379 672 401 690Q423 708 454 708Q488 708 510 690Q532 672 532 637Q532 603 510 585Q488 567 454 567Q423 567 401 585Q379 603 379 637ZM492 52 532 32 521 0H275L272 36L334 51L318 138H134L86 55L149 36L138 0H-26L-29 33L12 52L274 498H401Z" glyph-name="adieresis.smcp" horiz-adv-x="553" unicode="&#57892;" /><glyph d="M365 539Q365 574 387 592Q409 610 440 610Q474 610 496 592Q518 574 518 539Q518 505 496 487Q474 469 440 469Q409 469 387 487Q365 505 365 539ZM169 540Q169 575 191 593Q213 611 244 611Q278 611 299.5 593Q321 575 321 540Q321 505 299.5 487.5Q278 470 244 470Q213 470 191 487.5Q169 505 169 540ZM227 650 236 727H524L514 650ZM312 77Q294 33 258 11.5Q222 -10 175 -10Q143 -10 117 -0.5Q91 9 71.5 29Q52 49 41.5 81Q31 113 31 157Q31 222 51 275Q71 328 107 366Q143 404 192 425Q241 446 299 446Q325 446 352.5 440Q380 434 406 421L492 446H533L472 85Q476 81 483 79.5Q490 78 499 79Q508 80 517 84.5Q526 89 533 97L556 75Q517 -10 409 -10Q367 -10 341 9.5Q315 29 316 77ZM360 376Q351 385 340 388Q329 391 318 391Q291 391 268.5 373Q246 355 229 324Q212 293 202.5 252Q193 211 193 166Q193 87 243 87Q267 87 285 100.5Q303 114 318 139Z" glyph-name="adieresismacron" horiz-adv-x="581" unicode="&#479;" /><glyph d="M164 189H308L290 287Q285 313 283.5 335Q282 357 281 372Q280 390 281 404H277Q272 389 264 371Q257 355 246.5 334Q236 313 222 287ZM174 609Q174 644 196 662Q218 680 249 680Q283 680 304.5 662Q326 644 326 609Q326 574 304.5 556.5Q283 539 249 539Q218 539 196 556.5Q174 574 174 609ZM370 608Q370 643 392 661Q414 679 445 679Q479 679 501 661Q523 643 523 608Q523 574 501 556Q479 538 445 538Q414 538 392 556Q370 574 370 608ZM229 719 238 796H526L516 719ZM492 52 532 32 521 0H275L272 36L334 51L318 138H134L86 55L149 36L138 0H-26L-29 33L12 52L274 498H401Z" glyph-name="adieresismacron.smcp" horiz-adv-x="553" unicode="&#57902;" /><glyph d="M265 576Q265 615 290 634.5Q315 654 349 654Q386 654 410.5 634.5Q435 615 435 576Q435 537 410.5 517.5Q386 498 349 498Q315 498 290 517.5Q265 537 265 576ZM312 77Q294 33 258 11.5Q222 -10 175 -10Q143 -10 117 -0.5Q91 9 71.5 29Q52 49 41.5 81Q31 113 31 157Q31 222 51 275Q71 328 107 366Q143 404 192 425Q241 446 299 446Q325 446 352.5 440Q380 434 406 421L492 446H533L472 85Q476 81 483 79.5Q490 78 499 79Q508 80 517 84.5Q526 89 533 97L556 75Q517 -10 409 -10Q367 -10 341 9.5Q315 29 316 77ZM360 376Q351 385 340 388Q329 391 318 391Q291 391 268.5 373Q246 355 229 324Q212 293 202.5 252Q193 211 193 166Q193 87 243 87Q267 87 285 100.5Q303 114 318 139Z" glyph-name="adotabove" horiz-adv-x="581" unicode="&#551;" /><glyph d="M164 189H308L290 287Q285 313 283.5 335Q282 357 281 372Q280 390 281 404H277Q272 389 264 371Q257 355 246.5 334Q236 313 222 287ZM267 645Q267 684 292 703.5Q317 723 351 723Q388 723 412.5 703.5Q437 684 437 645Q437 606 412.5 586.5Q388 567 351 567Q317 567 292 586.5Q267 606 267 645ZM492 52 532 32 521 0H275L272 36L334 51L318 138H134L86 55L149 36L138 0H-26L-29 33L12 52L274 498H401Z" glyph-name="adotabove.smcp" horiz-adv-x="553" unicode="&#57900;" /><glyph d="M326 568Q297 590 293 611Q289 632 317 657Q343 680 366.5 674Q390 668 405 636L470 507L442 481ZM151 568Q122 590 118 611Q114 632 142 657Q168 680 191.5 674Q215 668 230 636L295 507L267 481ZM312 77Q294 33 258 11.5Q222 -10 175 -10Q143 -10 117 -0.5Q91 9 71.5 29Q52 49 41.5 81Q31 113 31 157Q31 222 51 275Q71 328 107 366Q143 404 192 425Q241 446 299 446Q325 446 352.5 440Q380 434 406 421L492 446H533L472 85Q476 81 483 79.5Q490 78 499 79Q508 80 517 84.5Q526 89 533 97L556 75Q517 -10 409 -10Q367 -10 341 9.5Q315 29 316 77ZM360 376Q351 385 340 388Q329 391 318 391Q291 391 268.5 373Q246 355 229 324Q212 293 202.5 252Q193 211 193 166Q193 87 243 87Q267 87 285 100.5Q303 114 318 139Z" glyph-name="adoublegrave" horiz-adv-x="581" /><glyph d="M164 189H308L290 287Q285 313 283.5 335Q282 357 281 372Q280 390 281 404H277Q272 389 264 371Q257 355 246.5 334Q236 313 222 287ZM340 628Q311 650 307 671Q303 692 331 717Q357 740 380.5 734Q404 728 419 696L484 567L456 541ZM165 628Q136 650 132 671Q128 692 156 717Q182 740 205.5 734Q229 728 244 696L309 567L281 541ZM492 52 532 32 521 0H275L272 36L334 51L318 138H134L86 55L149 36L138 0H-26L-29 33L12 52L274 498H401Z" glyph-name="adoublegrave.smcp" horiz-adv-x="553" unicode="&#57899;" /><glyph d="M222 75Q236 75 254 79.5Q272 84 284 92Q266 131 266 182V199Q221 198 194 182Q167 166 167 129Q167 75 222 75ZM522 394Q449 394 432 244Q494 244 526 266Q558 288 558 347Q558 369 549.5 381.5Q541 394 522 394ZM682 321Q682 283 664.5 258Q647 233 614.5 218.5Q582 204 535 199Q488 194 429 197Q429 145 452.5 110.5Q476 76 527 76Q564 76 591.5 89.5Q619 103 647 129L671 109Q655 74 633.5 51Q612 28 586 14.5Q560 1 529.5 -4.5Q499 -10 465 -10Q356 -10 302 61Q279 24 241.5 7Q204 -10 153 -10Q90 -10 54.5 17.5Q19 45 19 103Q19 145 40 173.5Q61 202 96 219Q131 236 176.5 242Q222 248 272 245Q275 259 279 273Q283 287 288 300Q280 325 256 338Q232 351 199 351Q167 351 143.5 343Q120 335 89 315L73 343Q99 395 147.5 420.5Q196 446 254 446Q294 446 324.5 434.5Q355 423 373 403Q437 446 529 446Q598 446 640 416Q682 386 682 321Z" glyph-name="ae" horiz-adv-x="712" unicode="&#230;" /><glyph d="M405 455Q396 439 384 421Q373 405 358.5 384Q344 363 325 339L228 219H371L409 455ZM345 55 363 168H186L95 55L166 36L158 0H-26L-29 33L12 52L327 443L269 466L276 498H805L782 355L760 350L684 447H566L540 280H613L670 349L691 345L662 162L641 158L606 229H532L507 68L529 51H635L755 172L780 166L735 0H286L284 32Z" glyph-name="ae.smcp" horiz-adv-x="816" unicode="&#57905;" /><glyph d="M222 75Q236 75 254 79.5Q272 84 284 92Q266 131 266 182V199Q221 198 194 182Q167 166 167 129Q167 75 222 75ZM522 394Q449 394 432 244Q494 244 526 266Q558 288 558 347Q558 369 549.5 381.5Q541 394 522 394ZM381 485 361 504 416 636Q423 653 435.5 664.5Q448 676 462 680.5Q476 685 491.5 682Q507 679 520 667Q548 642 543.5 611Q539 580 507 561ZM682 321Q682 283 664.5 258Q647 233 614.5 218.5Q582 204 535 199Q488 194 429 197Q429 145 452.5 110.5Q476 76 527 76Q564 76 591.5 89.5Q619 103 647 129L671 109Q655 74 633.5 51Q612 28 586 14.5Q560 1 529.5 -4.5Q499 -10 465 -10Q356 -10 302 61Q279 24 241.5 7Q204 -10 153 -10Q90 -10 54.5 17.5Q19 45 19 103Q19 145 40 173.5Q61 202 96 219Q131 236 176.5 242Q222 248 272 245Q275 259 279 273Q283 287 288 300Q280 325 256 338Q232 351 199 351Q167 351 143.5 343Q120 335 89 315L73 343Q99 395 147.5 420.5Q196 446 254 446Q294 446 324.5 434.5Q355 423 373 403Q437 446 529 446Q598 446 640 416Q682 386 682 321Z" glyph-name="aeacute" horiz-adv-x="712" unicode="&#509;" /><glyph d="M405 455Q396 439 384 421Q373 405 358.5 384Q344 363 325 339L228 219H371L409 455ZM526 545 506 564 561 696Q568 713 580.5 724.5Q593 736 607 740.5Q621 745 636.5 742Q652 739 665 727Q693 702 688.5 671Q684 640 652 621ZM345 55 363 168H186L95 55L166 36L158 0H-26L-29 33L12 52L327 443L269 466L276 498H805L782 355L760 350L684 447H566L540 280H613L670 349L691 345L662 162L641 158L606 229H532L507 68L529 51H635L755 172L780 166L735 0H286L284 32Z" glyph-name="aeacute.smcp" horiz-adv-x="816" unicode="&#57906;" /><glyph d="M222 75Q236 75 254 79.5Q272 84 284 92Q266 131 266 182V199Q221 198 194 182Q167 166 167 129Q167 75 222 75ZM522 394Q449 394 432 244Q494 244 526 266Q558 288 558 347Q558 369 549.5 381.5Q541 394 522 394ZM263 508 272 585H560L550 508ZM682 321Q682 283 664.5 258Q647 233 614.5 218.5Q582 204 535 199Q488 194 429 197Q429 145 452.5 110.5Q476 76 527 76Q564 76 591.5 89.5Q619 103 647 129L671 109Q655 74 633.5 51Q612 28 586 14.5Q560 1 529.5 -4.5Q499 -10 465 -10Q356 -10 302 61Q279 24 241.5 7Q204 -10 153 -10Q90 -10 54.5 17.5Q19 45 19 103Q19 145 40 173.5Q61 202 96 219Q131 236 176.5 242Q222 248 272 245Q275 259 279 273Q283 287 288 300Q280 325 256 338Q232 351 199 351Q167 351 143.5 343Q120 335 89 315L73 343Q99 395 147.5 420.5Q196 446 254 446Q294 446 324.5 434.5Q355 423 373 403Q437 446 529 446Q598 446 640 416Q682 386 682 321Z" glyph-name="aemacron" horiz-adv-x="712" unicode="&#483;" /><glyph d="M405 455Q396 439 384 421Q373 405 358.5 384Q344 363 325 339L228 219H371L409 455ZM408 569 417 646H705L695 569ZM345 55 363 168H186L95 55L166 36L158 0H-26L-29 33L12 52L327 443L269 466L276 498H805L782 355L760 350L684 447H566L540 280H613L670 349L691 345L662 162L641 158L606 229H532L507 68L529 51H635L755 172L780 166L735 0H286L284 32Z" glyph-name="aemacron.smcp" horiz-adv-x="816" unicode="&#57907;" /><glyph d="M296 415Q353 450 384.5 489.5Q416 529 416 572Q416 592 407.5 606.5Q399 621 374 621Q349 621 337.5 592.5Q326 564 316 517ZM30 310Q55 316 78 323Q101 330 124 338L159 516Q169 567 187.5 600Q206 633 231 652.5Q256 672 286.5 679.5Q317 687 352 687Q484 687 484 572Q484 537 469.5 506Q455 475 428.5 446.5Q402 418 365 393.5Q328 369 283 348L228 69Q277 69 320.5 82.5Q364 96 402 127L425 105Q390 50 330.5 20.5Q271 -9 199 -9Q124 -9 98 31.5Q72 72 86 146L114 288Q96 283 78 279Q60 275 42 271Z" glyph-name="afii61289" horiz-adv-x="477" unicode="&#8467;" /><glyph d="M963 129Q884 129 839 165Q794 201 794 269Q794 309 806.5 342.5Q819 376 844.5 400.5Q870 425 909 438.5Q948 452 1001 452Q1079 452 1125 415Q1171 378 1171 310Q1171 271 1158.5 238Q1146 205 1120.5 180.5Q1095 156 1056 142.5Q1017 129 963 129ZM963 165Q980 165 990.5 177Q1001 189 1007.5 209.5Q1014 230 1018.5 257.5Q1023 285 1028 316Q1035 367 1029 391Q1023 415 1001 415Q984 415 974 403Q964 391 957 370.5Q950 350 945.5 323Q941 296 937 265Q929 213 935 189Q941 165 963 165ZM779 56H1116L1096 0H779ZM756 628Q802 628 831 606Q860 584 860 546Q860 510 840 491.5Q820 473 793 473Q759 473 744 493Q729 513 729 536Q729 559 737 570Q745 581 752 586Q729 586 715.5 568.5Q702 551 695 506L615 0H526L381 295Q361 333 349.5 363.5Q338 394 332 415Q325 440 322 459H318Q317 438 314 414Q312 394 309 367Q306 340 301 312L275 150Q268 108 257.5 77.5Q247 47 231 27.5Q215 8 191.5 -1Q168 -10 135 -10Q89 -10 59.5 12Q30 34 30 72Q30 108 50 126Q70 144 99 144Q133 144 148 124.5Q163 105 163 82Q163 59 155 48Q147 37 139 32Q163 32 176.5 48.5Q190 65 197 110L264 533L210 556L222 588H421L536 349Q552 315 561 287Q570 259 575 238Q580 213 582 194H586Q587 216 589 241Q591 262 593 289Q595 316 600 344L620 468Q627 510 637 540Q647 570 663 589.5Q679 609 701.5 618.5Q724 628 756 628Z" glyph-name="afii61352" horiz-adv-x="1242" unicode="&#8470;" /><glyph d="M271 561Q239 580 234.5 611Q230 642 259 667Q272 679 287 682Q302 685 316.5 680.5Q331 676 343 664.5Q355 653 362 636L417 504L397 485ZM312 77Q294 33 258 11.5Q222 -10 175 -10Q143 -10 117 -0.5Q91 9 71.5 29Q52 49 41.5 81Q31 113 31 157Q31 222 51 275Q71 328 107 366Q143 404 192 425Q241 446 299 446Q325 446 352.5 440Q380 434 406 421L492 446H533L472 85Q476 81 483 79.5Q490 78 499 79Q508 80 517 84.5Q526 89 533 97L556 75Q517 -10 409 -10Q367 -10 341 9.5Q315 29 316 77ZM360 376Q351 385 340 388Q329 391 318 391Q291 391 268.5 373Q246 355 229 324Q212 293 202.5 252Q193 211 193 166Q193 87 243 87Q267 87 285 100.5Q303 114 318 139Z" glyph-name="agrave" horiz-adv-x="581" unicode="&#224;" /><glyph d="M164 189H308L290 287Q285 313 283.5 335Q282 357 281 372Q280 390 281 404H277Q272 389 264 371Q257 355 246.5 334Q236 313 222 287ZM257 621Q225 640 220.5 671Q216 702 245 727Q258 739 273 742Q288 745 302.5 740.5Q317 736 329 724.5Q341 713 348 696L403 564L383 545ZM492 52 532 32 521 0H275L272 36L334 51L318 138H134L86 55L149 36L138 0H-26L-29 33L12 52L274 498H401Z" glyph-name="agrave.smcp" horiz-adv-x="553" unicode="&#57890;" /><glyph d="M359 578Q314 578 284 554Q254 530 246 492H201Q203 527 215 558.5Q227 590 248.5 613.5Q270 637 301 650.5Q332 664 372 664Q432 664 464.5 631Q497 598 497 545Q497 533 495.5 519.5Q494 506 489 492H444Q449 530 426.5 554Q404 578 359 578ZM312 77Q294 33 258 11.5Q222 -10 175 -10Q143 -10 117 -0.5Q91 9 71.5 29Q52 49 41.5 81Q31 113 31 157Q31 222 51 275Q71 328 107 366Q143 404 192 425Q241 446 299 446Q325 446 352.5 440Q380 434 406 421L492 446H533L472 85Q476 81 483 79.5Q490 78 499 79Q508 80 517 84.5Q526 89 533 97L556 75Q517 -10 409 -10Q367 -10 341 9.5Q315 29 316 77ZM360 376Q351 385 340 388Q329 391 318 391Q291 391 268.5 373Q246 355 229 324Q212 293 202.5 252Q193 211 193 166Q193 87 243 87Q267 87 285 100.5Q303 114 318 139Z" glyph-name="ainvertedbreve" horiz-adv-x="581" unicode="&#515;" /><glyph d="M164 189H308L290 287Q285 313 283.5 335Q282 357 281 372Q280 390 281 404H277Q272 389 264 371Q257 355 246.5 334Q236 313 222 287ZM360 643Q315 643 285 619Q255 595 247 557H202Q204 592 216 623.5Q228 655 249.5 678.5Q271 702 302 715.5Q333 729 373 729Q433 729 465.5 696Q498 663 498 610Q498 598 496.5 584.5Q495 571 490 557H445Q450 595 427.5 619Q405 643 360 643ZM492 52 532 32 521 0H275L272 36L334 51L318 138H134L86 55L149 36L138 0H-26L-29 33L12 52L274 498H401Z" glyph-name="ainvertedbreve.smcp" horiz-adv-x="553" unicode="&#57898;" /><glyph d="M98 -150Q106 -158 120 -164.5Q134 -171 152 -171Q169 -171 180.5 -162.5Q192 -154 192 -137Q192 -116 181 -103Q170 -90 146 -82L164 -38Q296 -38 296 -131Q296 -179 261.5 -199.5Q227 -220 176 -220Q140 -220 117 -208.5Q94 -197 80 -175Z" glyph-name="altcedilla" horiz-adv-x="391" unicode="&#58390;" /><glyph d="M197 508 206 585H494L484 508ZM312 77Q294 33 258 11.5Q222 -10 175 -10Q143 -10 117 -0.5Q91 9 71.5 29Q52 49 41.5 81Q31 113 31 157Q31 222 51 275Q71 328 107 366Q143 404 192 425Q241 446 299 446Q325 446 352.5 440Q380 434 406 421L492 446H533L472 85Q476 81 483 79.5Q490 78 499 79Q508 80 517 84.5Q526 89 533 97L556 75Q517 -10 409 -10Q367 -10 341 9.5Q315 29 316 77ZM360 376Q351 385 340 388Q329 391 318 391Q291 391 268.5 373Q246 355 229 324Q212 293 202.5 252Q193 211 193 166Q193 87 243 87Q267 87 285 100.5Q303 114 318 139Z" glyph-name="amacron" horiz-adv-x="581" unicode="&#257;" /><glyph d="M164 189H308L290 287Q285 313 283.5 335Q282 357 281 372Q280 390 281 404H277Q272 389 264 371Q257 355 246.5 334Q236 313 222 287ZM204 575 213 652H501L491 575ZM492 52 532 32 521 0H275L272 36L334 51L318 138H134L86 55L149 36L138 0H-26L-29 33L12 52L274 498H401Z" glyph-name="amacron.smcp" horiz-adv-x="553" unicode="&#57896;" /><glyph d="M341 458Q341 484 357 501Q373 518 402 518Q390 535 372 541.5Q354 548 332 548Q295 548 272.5 523.5Q250 499 250 457Q250 420 267.5 393.5Q285 367 335 357L339 327Q259 312 218 277.5Q177 243 177 175Q177 150 184 128.5Q191 107 205.5 91Q220 75 242.5 66Q265 57 296 57Q323 57 348 65.5Q373 74 391.5 90Q410 106 421 130Q432 154 432 185Q432 220 417 240.5Q402 261 376 261Q342 261 330 243Q369 234 369 196Q369 173 355 158.5Q341 144 313 144Q288 144 272 158Q256 172 256 204Q256 225 266.5 242.5Q277 260 295 272Q313 284 337 290.5Q361 297 388 297Q426 297 458 300Q490 303 499 314Q482 316 469.5 329Q457 342 457 364Q457 386 472.5 401Q488 416 515 416Q540 416 557 401Q574 386 574 355Q574 310 538.5 289Q503 268 441 268V264Q461 252 477 228Q493 204 493 169Q493 128 476 94.5Q459 61 428 38Q397 15 353 2.5Q309 -10 254 -10Q203 -10 158.5 -1Q114 8 81.5 28Q49 48 30 80Q11 112 11 158Q11 201 26.5 232.5Q42 264 68.5 285Q95 306 130 318Q165 330 205 334V338Q187 341 169.5 350Q152 359 139 374Q126 389 118 408.5Q110 428 110 452Q110 489 126.5 516.5Q143 544 169.5 562Q196 580 230 588.5Q264 597 300 597Q346 597 378.5 587.5Q411 578 430.5 561.5Q450 545 459 523.5Q468 502 468 479Q468 458 461.5 444Q455 430 445.5 421Q436 412 424 408.5Q412 405 401 405Q375 405 358 418.5Q341 432 341 458Z" glyph-name="ampersand" horiz-adv-x="554" unicode="&amp;" /><glyph d="M307 389Q307 411 320.5 425.5Q334 440 359 440Q349 455 333.5 460Q318 465 299 465Q268 465 247 444.5Q226 424 226 389Q226 354 242.5 332.5Q259 311 303 303L306 278Q234 268 200 237Q166 206 166 148Q166 105 192 78.5Q218 52 269 52Q292 52 313.5 57.5Q335 63 351 74.5Q367 86 376.5 104.5Q386 123 386 150Q386 181 372.5 198Q359 215 337 215Q308 215 298 200Q331 192 331 160Q331 140 319 127.5Q307 115 283 115Q262 115 248 127Q234 139 234 166Q234 208 268 230Q302 252 353 252Q382 252 408 254.5Q434 257 442 266Q427 268 416.5 279Q406 290 406 310Q406 329 419.5 341.5Q433 354 456 354Q478 354 492.5 341Q507 328 507 301Q507 263 476 242Q445 221 393 221V218Q413 207 426.5 187.5Q440 168 440 138Q440 66 383.5 28Q327 -10 233 -10Q189 -10 149.5 -3Q110 4 80 20.5Q50 37 32.5 64.5Q15 92 15 133Q15 168 28.5 195Q42 222 64.5 240.5Q87 259 117 270Q147 281 181 284V287Q150 292 125 317.5Q100 343 100 384Q100 416 115.5 439.5Q131 463 156 478Q181 493 212.5 500.5Q244 508 276 508Q314 508 340.5 499.5Q367 491 383.5 477Q400 463 407.5 444.5Q415 426 415 406Q415 371 396.5 357Q378 343 358 343Q336 343 321.5 355Q307 367 307 389Z" glyph-name="ampersand.smcp" horiz-adv-x="510" unicode="&#58369;" /><glyph d="M52 277 324 699H388L171 277L255 -141H193Z" glyph-name="anglebracketleft" horiz-adv-x="342" unicode="&#12296;" /><glyph d="M52 287 324 709H388L171 287L255 -131H193Z" glyph-name="anglebracketleft.cap" horiz-adv-x="342" unicode="&#58519;" /><glyph d="M51 247 316 628H380L170 247L260 -133H196Z" glyph-name="anglebracketleft.smcp" horiz-adv-x="359" unicode="&#58527;" /><glyph d="M321 281 50 -141H-15L202 281L118 699H180Z" glyph-name="anglebracketright" horiz-adv-x="342" unicode="&#12297;" /><glyph d="M321 291 50 -131H-15L202 291L118 709H180Z" glyph-name="anglebracketright.cap" horiz-adv-x="342" unicode="&#58520;" /><glyph d="M329 248 64 -133H0L210 248L120 628H184Z" glyph-name="anglebracketright.smcp" horiz-adv-x="359" unicode="&#58512;" /><glyph d="M492 52 532 32 521 0H275L272 36L334 51L290 287Q285 313 283.5 335Q282 357 281 372Q280 390 281 404H277Q272 389 264 371Q257 355 246.5 334Q236 313 222 287L86 55L149 36L138 0H-26L-29 33L12 52L274 498H401Z" glyph-name="anocross.smcp" horiz-adv-x="553" unicode="&#57888;" /><glyph d="M360 376Q351 385 340 388Q329 391 318 391Q291 391 268.5 373Q246 355 229 324Q212 293 202.5 252Q193 211 193 166Q193 87 243 87Q267 87 285 100.5Q303 114 318 139ZM258 -122Q258 -74 286.5 -44.5Q315 -15 354 2Q335 11 325.5 29Q316 47 316 77H312Q294 33 258 11.5Q222 -10 175 -10Q143 -10 117 -0.5Q91 9 71.5 29Q52 49 41.5 81Q31 113 31 157Q31 222 51 275Q71 328 107 366Q143 404 192 425Q241 446 299 446Q325 446 352.5 440Q380 434 406 421L492 446H533L472 85Q476 81 483 79.5Q490 78 499 79Q508 80 517 84.5Q526 89 533 97L556 75Q538 45 506 25.5Q474 6 436 -8Q402 -21 386 -39.5Q370 -58 370 -88Q370 -143 430 -143Q450 -143 473.5 -135.5Q497 -128 517 -112L535 -131Q513 -173 471 -196.5Q429 -220 379 -220Q354 -220 332 -214Q310 -208 293.5 -196Q277 -184 267.5 -165.5Q258 -147 258 -122Z" glyph-name="aogonek" horiz-adv-x="581" unicode="&#261;" /><glyph d="M164 189H309L290 287Q285 313 283.5 335Q282 357 281 372Q280 390 281 404H277Q272 389 264 371Q257 355 246.5 334Q236 313 222 287ZM124 -122Q124 -90 138.5 -65.5Q153 -41 175.5 -22Q198 -3 226.5 10.5Q255 24 283 34L334 51L318 138H134L86 55L149 36L138 0H-26L-29 33L12 52L274 498H401L492 52L532 32L521 0H320Q277 -16 256.5 -38Q236 -60 236 -92Q236 -116 252 -129.5Q268 -143 297 -143Q317 -143 340 -135.5Q363 -128 383 -112L401 -131Q379 -173 337 -196.5Q295 -220 245 -220Q220 -220 198 -214Q176 -208 159.5 -196Q143 -184 133.5 -165.5Q124 -147 124 -122Z" glyph-name="aogonek.smcp" horiz-adv-x="553" unicode="&#57903;" /><glyph d="M331 160Q310 160 284.5 166Q259 172 233 179Q207 186 183 192Q159 198 141 198Q110 198 85 188.5Q60 179 35 161L47 232Q77 255 102.5 264Q128 273 158 273Q180 273 203.5 267.5Q227 262 250.5 255Q274 248 296.5 242.5Q319 237 339 237Q367 237 389 243.5Q411 250 439 271L427 195Q405 175 382.5 167.5Q360 160 331 160ZM351 285Q330 285 304.5 291Q279 297 253 304.5Q227 312 203 318Q179 324 161 324Q130 324 105 314.5Q80 305 56 286L66 358Q97 381 122.5 390Q148 399 178 399Q200 399 223.5 393Q247 387 270 380.5Q293 374 315.5 368Q338 362 358 362Q387 362 408.5 369Q430 376 458 396L447 320Q425 300 402.5 292.5Q380 285 351 285Z" glyph-name="approxequal" horiz-adv-x="503" unicode="&#8776;" /><glyph d="M356 651Q328 651 312.5 632Q297 613 297 586Q297 563 309.5 550Q322 537 345 537Q374 537 389 556.5Q404 576 404 601Q404 624 391.5 637.5Q379 651 356 651ZM240 584Q240 608 248.5 629Q257 650 272.5 666.5Q288 683 310.5 692.5Q333 702 361 702Q407 702 434.5 673.5Q462 645 462 603Q462 578 453.5 556Q445 534 429 518Q413 502 391.5 492.5Q370 483 344 483Q291 483 265.5 511.5Q240 540 240 584ZM312 77Q294 33 258 11.5Q222 -10 175 -10Q143 -10 117 -0.5Q91 9 71.5 29Q52 49 41.5 81Q31 113 31 157Q31 222 51 275Q71 328 107 366Q143 404 192 425Q241 446 299 446Q325 446 352.5 440Q380 434 406 421L492 446H533L472 85Q476 81 483 79.5Q490 78 499 79Q508 80 517 84.5Q526 89 533 97L556 75Q517 -10 409 -10Q367 -10 341 9.5Q315 29 316 77ZM360 376Q351 385 340 388Q329 391 318 391Q291 391 268.5 373Q246 355 229 324Q212 293 202.5 252Q193 211 193 166Q193 87 243 87Q267 87 285 100.5Q303 114 318 139Z" glyph-name="aring" horiz-adv-x="581" unicode="&#229;" /><glyph d="M360 720Q332 720 316.5 701Q301 682 301 655Q301 632 313.5 619Q326 606 349 606Q378 606 393 625.5Q408 645 408 670Q408 693 395.5 706.5Q383 720 360 720ZM164 189H308L290 287Q285 313 283.5 335Q282 357 281 372Q280 390 281 404H277Q272 389 264 371Q257 355 246.5 334Q236 313 222 287ZM244 653Q244 677 252.5 698Q261 719 276.5 735.5Q292 752 314.5 761.5Q337 771 365 771Q411 771 438.5 742.5Q466 714 466 672Q466 647 457.5 625Q449 603 433 587Q417 571 395.5 561.5Q374 552 348 552Q295 552 269.5 580.5Q244 609 244 653ZM492 52 532 32 521 0H275L272 36L334 51L318 138H134L86 55L149 36L138 0H-26L-29 33L12 52L274 498H401Z" glyph-name="aring.smcp" horiz-adv-x="553" unicode="&#57894;" /><glyph d="M312 77Q294 33 258 11.5Q222 -10 175 -10Q143 -10 117 -0.5Q91 9 71.5 29Q52 49 41.5 81Q31 113 31 157Q31 222 51 275Q71 328 107 366Q143 404 192 425Q241 446 299 446Q325 446 352.5 440Q380 434 406 421L492 446H533L472 85Q476 81 483 79.5Q490 78 499 79Q508 80 517 84.5Q526 89 533 97L556 75Q517 -10 409 -10Q367 -10 341 9.5Q315 29 316 77ZM360 376Q351 385 340 388Q329 391 318 391Q291 391 268.5 373Q246 355 229 324Q212 293 202.5 252Q193 211 193 166Q193 87 243 87Q267 87 285 100.5Q303 114 318 139ZM287 682 276 708 398 808Q427 831 457 826.5Q487 822 501 790Q508 774 506 760Q504 746 495.5 735Q487 724 472.5 717Q458 710 440 707ZM354 617Q326 617 310 601.5Q294 586 294 563Q294 522 343 522Q372 522 387 538.5Q402 555 402 576Q402 594 389.5 605.5Q377 617 354 617ZM237 561Q237 601 270 631Q303 661 359 661Q406 661 433 636.5Q460 612 460 578Q460 557 451 538.5Q442 520 426.5 506Q411 492 389 484Q367 476 341 476Q289 476 263 500.5Q237 525 237 561Z" glyph-name="aringacute" horiz-adv-x="581" unicode="&#507;" /><glyph d="M358 668Q330 668 314 652.5Q298 637 298 614Q298 573 346 573Q376 573 391 589Q406 605 406 627Q406 645 393.5 656.5Q381 668 358 668ZM164 189H308L290 287Q285 313 283.5 335Q282 357 281 372Q280 390 281 404H277Q272 389 264 371Q257 355 246.5 334Q236 313 222 287ZM290 732 280 759 402 858Q431 882 461 877Q491 872 504 841Q518 809 498.5 786Q479 763 443 758ZM241 611Q241 652 273.5 681.5Q306 711 363 711Q409 711 436 687Q463 663 463 628Q463 607 454.5 588.5Q446 570 430.5 556.5Q415 543 393 535Q371 527 345 527Q292 527 266.5 551Q241 575 241 611ZM492 52 532 32 521 0H275L272 36L334 51L318 138H134L86 55L149 36L138 0H-26L-29 33L12 52L274 498H401Z" glyph-name="aringacute.smcp" horiz-adv-x="553" unicode="&#57901;" /><glyph d="M241 242Q258 228 270.5 216Q283 204 291 194Q301 183 307 173H311Q310 179 309 189Q308 197 307.5 210.5Q307 224 307 243V589H393V243Q393 224 392 210.5Q391 197 390 189Q389 179 388 173H392Q398 183 408 194Q424 213 459 242L608 365H632L657 294L374 -9H326L42 294L67 365H91Z" glyph-name="arrowdown" horiz-adv-x="697" unicode="&#8595;" /><glyph d="M425 35V12L354 -14L51 270V318L354 602L425 576V552L302 403Q273 368 254 352Q243 342 233 336V332Q239 333 249 334Q257 335 270.5 336Q284 337 303 337H649V251H303Q284 251 270.5 251.5Q257 252 249 253Q239 254 233 256V252Q243 246 254 236Q273 219 302 185Z" glyph-name="arrowleft" horiz-adv-x="690" unicode="&#8592;" /><glyph d="M388 185Q402 202 414 215Q426 228 436 236Q447 246 457 252V256Q451 254 441 253Q433 252 419.5 251.5Q406 251 387 251H41V337H387Q406 337 419.5 336Q433 335 441 334Q451 333 457 332V336Q447 342 436 352Q426 360 414 373Q402 386 388 403L265 552V576L336 602L639 318V270L336 -14L265 12V35Z" glyph-name="arrowright" horiz-adv-x="690" unicode="&#8594;" /><glyph d="M91 224H67L42 295L326 598H374L657 295L632 224H608L459 347Q442 361 429 373Q416 385 408 395Q398 406 392 416H388Q389 410 390 400Q391 392 392 378.5Q393 365 393 346V0H307V346Q307 365 307.5 378.5Q308 392 309 400Q310 410 311 416H307Q301 406 291 395Q283 385 270.5 373Q258 361 241 347Z" glyph-name="arrowup" horiz-adv-x="697" unicode="&#8593;" /><glyph d="M255 588H313L425 289L330 284L265 462L138 284L40 289Z" glyph-name="asciicircum" horiz-adv-x="450" unicode="^" /><glyph d="M141 224Q105 247 72 237Q39 227 30 185L1 190Q-7 233 8 266Q23 299 51 317Q79 335 114 336Q149 337 182 316L220 293Q239 281 256.5 276Q274 271 288.5 274.5Q303 278 314.5 290.5Q326 303 332 327L363 323Q373 276 359 242.5Q345 209 317.5 192.5Q290 176 252 177.5Q214 179 176 203Z" glyph-name="asciitilde" horiz-adv-x="430" unicode="~" /><glyph d="M162 647 223 650Q225 617 234 588.5Q243 560 257 534Q271 560 280 588Q289 616 291 650L352 647L385 595Q357 577 337 555.5Q317 534 301 508Q331 509 360.5 515Q390 521 419 537L448 482L419 428Q389 444 360 449.5Q331 455 301 456Q317 431 336.5 409.5Q356 388 385 370L352 317L291 315Q289 348 280 376Q271 404 256 430Q242 404 233.5 376.5Q225 349 223 315L162 317L129 370Q157 387 177 409Q197 431 212 456Q183 455 154 449.5Q125 444 96 428L66 482L96 537Q125 521 154 515Q183 509 213 508Q198 534 178 555.5Q158 577 129 595Z" glyph-name="asterisk" horiz-adv-x="427" unicode="*" /><glyph d="M569 81Q573 76 579.5 72.5Q586 69 597 69Q615 69 636 81.5Q657 94 675 118Q693 142 704.5 178.5Q716 215 716 263Q716 329 694 379Q672 429 632.5 463Q593 497 538.5 514Q484 531 420 531Q351 531 291 506.5Q231 482 186.5 438.5Q142 395 116.5 334.5Q91 274 91 202Q91 137 109.5 79Q128 21 166.5 -22.5Q205 -66 264.5 -92Q324 -118 407 -118Q449 -118 484.5 -114.5Q520 -111 553.5 -103.5Q587 -96 621 -84Q655 -72 693 -55L706 -83Q676 -101 645 -115.5Q614 -130 578.5 -140.5Q543 -151 501 -156.5Q459 -162 407 -162Q314 -162 245 -135Q176 -108 130.5 -59.5Q85 -11 62.5 56Q40 123 40 202Q40 288 69.5 357Q99 426 150.5 474.5Q202 523 271 549Q340 575 420 575Q498 575 562 554Q626 533 671.5 493.5Q717 454 742 395.5Q767 337 767 262Q767 197 750 149.5Q733 102 703.5 70.5Q674 39 634 23.5Q594 8 549 8Q501 8 470.5 25Q440 42 431 87H427Q407 45 378.5 26.5Q350 8 303 8Q252 8 216 45Q180 82 180 156Q180 215 197 263Q214 311 244.5 345Q275 379 318 397.5Q361 416 412 416Q465 416 511 393L583 405H621ZM465 351Q453 364 436 364Q414 364 396.5 347Q379 330 367 302Q355 274 349 237Q343 200 343 160Q343 131 352.5 114.5Q362 98 383 98Q399 98 408.5 109.5Q418 121 430 144Z" glyph-name="at" horiz-adv-x="807" unicode="@" /><glyph d="M579 159Q583 154 589.5 150.5Q596 147 607 147Q625 147 646 159.5Q667 172 685 196Q703 220 714.5 256.5Q726 293 726 341Q726 407 704 457Q682 507 642.5 541Q603 575 548.5 592Q494 609 430 609Q361 609 301 584.5Q241 560 196.5 516.5Q152 473 126.5 412.5Q101 352 101 280Q101 215 119.5 157Q138 99 176.5 55.5Q215 12 274.5 -14Q334 -40 417 -40Q459 -40 494.5 -36.5Q530 -33 563.5 -25.5Q597 -18 631 -6Q665 6 703 23L716 -5Q686 -23 655 -37.5Q624 -52 588.5 -62.5Q553 -73 511 -78.5Q469 -84 417 -84Q324 -84 255 -57Q186 -30 140.5 18.5Q95 67 72.5 134Q50 201 50 280Q50 366 79.5 435Q109 504 160.5 552.5Q212 601 281 627Q350 653 430 653Q508 653 572 632Q636 611 681.5 571.5Q727 532 752 473.5Q777 415 777 340Q777 275 760 227.5Q743 180 713.5 148.5Q684 117 644 101.5Q604 86 559 86Q511 86 480.5 103Q450 120 441 165H437Q417 123 388.5 104.5Q360 86 313 86Q262 86 226 123Q190 160 190 234Q190 293 207 341Q224 389 254.5 423Q285 457 328 475.5Q371 494 422 494Q475 494 521 471L593 483H631ZM475 429Q463 442 446 442Q424 442 406.5 425Q389 408 377 380Q365 352 359 315Q353 278 353 238Q353 209 362.5 192.5Q372 176 393 176Q409 176 418.5 187.5Q428 199 440 222Z" glyph-name="at.cap" horiz-adv-x="807" unicode="&#58643;" /><glyph d="M307 543Q271 566 238 556Q205 546 196 504L167 509Q159 552 174 585Q189 618 217 636Q245 654 280 655Q315 656 348 635L386 612Q405 600 422.5 595Q440 590 454.5 593.5Q469 597 480.5 609.5Q492 622 498 646L529 642Q539 595 525 561.5Q511 528 483.5 511.5Q456 495 418 496.5Q380 498 342 522ZM312 77Q294 33 258 11.5Q222 -10 175 -10Q143 -10 117 -0.5Q91 9 71.5 29Q52 49 41.5 81Q31 113 31 157Q31 222 51 275Q71 328 107 366Q143 404 192 425Q241 446 299 446Q325 446 352.5 440Q380 434 406 421L492 446H533L472 85Q476 81 483 79.5Q490 78 499 79Q508 80 517 84.5Q526 89 533 97L556 75Q517 -10 409 -10Q367 -10 341 9.5Q315 29 316 77ZM360 376Q351 385 340 388Q329 391 318 391Q291 391 268.5 373Q246 355 229 324Q212 293 202.5 252Q193 211 193 166Q193 87 243 87Q267 87 285 100.5Q303 114 318 139Z" glyph-name="atilde" horiz-adv-x="581" unicode="&#227;" /><glyph d="M164 189H308L290 287Q285 313 283.5 335Q282 357 281 372Q280 390 281 404H277Q272 389 264 371Q257 355 246.5 334Q236 313 222 287ZM313 603Q277 626 244 616Q211 606 202 564L173 569Q165 612 180 645Q195 678 223 696Q251 714 286 715Q321 716 354 695L392 672Q411 660 428.5 655Q446 650 460.5 653.5Q475 657 486.5 669.5Q498 682 504 706L535 702Q545 655 531 621.5Q517 588 489.5 571.5Q462 555 424 556.5Q386 558 348 582ZM492 52 532 32 521 0H275L272 36L334 51L318 138H134L86 55L149 36L138 0H-26L-29 33L12 52L274 498H401Z" glyph-name="atilde.smcp" horiz-adv-x="553" unicode="&#57893;" /><glyph d="M244 366Q268 411 302.5 428.5Q337 446 377 446Q409 446 436 435Q463 424 483 403Q503 382 514.5 351Q526 320 526 280Q526 212 504.5 158.5Q483 105 445 67.5Q407 30 353.5 10Q300 -10 236 -10Q181 -10 126 1Q71 12 27 36L122 587L81 633L85 653L271 681H299L240 366ZM189 60Q201 52 212.5 50Q224 48 238 48Q266 48 288 66Q310 84 325 114Q340 144 347.5 183.5Q355 223 355 267Q355 306 341.5 328.5Q328 351 302 351Q282 351 266 342Q250 333 233 314Z" glyph-name="b" horiz-adv-x="557" unicode="b" /><glyph d="M267 280H286Q338 280 366 301Q394 322 394 379Q394 417 375 432Q356 447 321 447H293ZM259 229 234 67 255 51H276Q297 51 315.5 55.5Q334 60 348.5 71Q363 82 371.5 100Q380 118 380 146Q380 189 360 209Q340 229 293 229ZM553 378Q553 349 541 327.5Q529 306 509 291.5Q489 277 463.5 270Q438 263 410 262V258Q479 253 514 225Q549 197 549 140Q549 99 529.5 72Q510 45 478.5 29Q447 13 406.5 6.5Q366 0 325 0H13L11 32L73 55L135 443L80 466L92 498H386Q478 498 515.5 465.5Q553 433 553 378Z" glyph-name="b.smcp" horiz-adv-x="578" unicode="&#57858;" /><glyph d="M229 539Q247 574 273.5 586Q300 598 329 598Q353 598 374 590Q395 582 410.5 567Q426 552 435.5 529.5Q445 507 445 478Q445 429 428.5 391Q412 353 382.5 327.5Q353 302 311.5 288.5Q270 275 221 275Q178 275 134 281.5Q90 288 52 307L108 677L80 710L82 726L234 746H257L226 539ZM194 327Q202 322 207 321Q212 320 221 320Q241 320 255.5 332.5Q270 345 280 366Q290 387 294.5 414Q299 441 299 471Q299 494 290.5 508.5Q282 523 265 523Q253 523 242.5 518Q232 513 220 501Z" glyph-name="b.superior" horiz-adv-x="465" unicode="&#58210;" /><glyph d="M259 -141H188L91 701H162Z" glyph-name="backslash" horiz-adv-x="319" unicode="\" /><glyph d="M264 -101H193L101 701H172Z" glyph-name="backslash.cap" horiz-adv-x="325" unicode="&#58466;" /><glyph d="M334 -133H263L56 628H129Z" glyph-name="backslash.smcp" horiz-adv-x="369" unicode="&#58472;" /><glyph d="M123 701H193L60 -141H-9Z" glyph-name="bar" horiz-adv-x="159" unicode="|" /><glyph d="M123 701H193L66 -101H-3Z" glyph-name="bar.cap" horiz-adv-x="159" unicode="&#58467;" /><glyph d="M120 628H190L70 -134H1Z" glyph-name="bar.smcp" horiz-adv-x="170" unicode="&#58473;" /><glyph d="M374 546Q344 546 320 527.5Q296 509 277 478.5Q258 448 245 407.5Q232 367 224 322H454Q456 343 457.5 364.5Q459 386 459 407Q459 470 440.5 508Q422 546 374 546ZM297 42Q327 42 351 60.5Q375 79 394 110Q413 141 426 182Q439 223 447 268H216Q214 245 213 223Q212 201 212 180Q212 117 231 79.5Q250 42 297 42ZM297 -10Q239 -10 191.5 6Q144 22 110.5 53.5Q77 85 59 131Q41 177 41 238Q41 317 65 383Q89 449 133 497Q177 545 238 571.5Q299 598 374 598Q432 598 479.5 582Q527 566 561 534.5Q595 503 613 456.5Q631 410 631 349Q631 270 607 204Q583 138 539 90.5Q495 43 433.5 16.5Q372 -10 297 -10Z" glyph-name="barredO" horiz-adv-x="651" /><glyph d="M250 39Q269 39 283.5 50.5Q298 62 308.5 82.5Q319 103 326 130.5Q333 158 338 190H207V186Q206 178 204 160.5Q202 143 202 125Q202 89 211.5 64Q221 39 250 39ZM303 397Q283 397 268.5 384.5Q254 372 243.5 351Q233 330 226 301Q219 272 214 239H345L347 250Q348 258 348.5 265Q349 272 349 279Q354 339 343.5 368Q333 397 303 397ZM250 -10Q150 -10 94 41.5Q38 93 38 184Q38 239 54 286.5Q70 334 102.5 369.5Q135 405 185 425.5Q235 446 303 446Q404 446 459.5 394.5Q515 343 515 252Q515 197 499 149Q483 101 450.5 66Q418 31 368 10.5Q318 -10 250 -10Z" glyph-name="barredo" horiz-adv-x="549" /><glyph d="M328 458Q304 458 285 443Q266 428 251 403Q236 378 225 345.5Q214 313 207 279H396Q398 295 399 309.5Q400 324 400 338Q400 362 397 383.5Q394 405 386.5 421.5Q379 438 364.5 448Q350 458 328 458ZM266 39Q290 39 309.5 55Q329 71 344.5 97.5Q360 124 371 158Q382 192 389 228H198Q196 210 195 192.5Q194 175 194 160Q194 136 197 114.5Q200 93 207.5 76Q215 59 229 49Q243 39 266 39ZM263 -10Q211 -10 168.5 3.5Q126 17 95.5 44Q65 71 48 110Q31 149 31 200Q31 272 52.5 329Q74 386 113 426Q152 466 207 487Q262 508 330 508Q382 508 424.5 494.5Q467 481 497.5 454Q528 427 545 388Q562 349 562 298Q562 226 540.5 169Q519 112 480 72Q441 32 386 11Q331 -10 263 -10Z" glyph-name="barredo.smcp" horiz-adv-x="583" unicode="&#58007;" /><glyph d="M128 276Q150 270 169.5 261Q189 252 204 238.5Q219 225 228 206Q237 187 237 162Q237 154 236.5 144.5Q236 135 235 128L220 32Q218 23 218 16Q218 9 218 3Q218 -50 240 -74.5Q262 -99 303 -108L298 -143Q259 -143 226 -136Q193 -129 169 -112Q145 -95 132 -67.5Q119 -40 119 1Q119 16 122 36L135 121Q138 137 138 155Q138 209 109.5 230.5Q81 252 20 261L25 295Q60 300 87.5 308.5Q115 317 134.5 332.5Q154 348 166.5 372.5Q179 397 185 435L201 536Q215 625 274 662Q333 699 431 699L426 664Q369 654 338.5 622Q308 590 300 533L283 428Q278 394 263.5 369Q249 344 228 326Q207 308 181.5 297Q156 286 129 280Z" glyph-name="braceleft" horiz-adv-x="390" unicode="{" /><glyph d="M128 286Q150 280 169.5 271Q189 262 204 248.5Q219 235 228 216Q237 197 237 172Q237 164 236.5 154.5Q236 145 235 138L220 42Q218 33 218 26Q218 19 218 13Q218 -40 240 -64.5Q262 -89 303 -98L298 -133Q259 -133 226 -126Q193 -119 169 -102Q145 -85 132 -57.5Q119 -30 119 11Q119 26 122 46L135 131Q138 147 138 165Q138 219 109.5 240.5Q81 262 20 271L25 305Q60 310 87.5 318.5Q115 327 134.5 342.5Q154 358 166.5 382.5Q179 407 185 445L201 546Q215 635 274 672Q333 709 431 709L426 674Q369 664 338.5 632Q308 600 300 543L283 438Q278 404 263.5 379Q249 354 228 336Q207 318 181.5 307Q156 296 129 290Z" glyph-name="braceleft.cap" horiz-adv-x="390" unicode="&#58517;" /><glyph d="M139 245Q160 239 180 230Q200 221 215.5 207Q231 193 240 174.5Q249 156 249 131Q249 115 246 96L237 42Q236 35 235.5 27.5Q235 20 235 12Q235 -31 256.5 -60Q278 -89 320 -98L315 -133Q276 -133 243 -126Q210 -119 186.5 -102Q163 -85 149.5 -58Q136 -31 136 10Q136 27 139 47L146 89Q149 105 149 123Q149 151 142 169.5Q135 188 120 200Q105 212 82.5 218.5Q60 225 30 230L36 264Q71 269 98 277.5Q125 286 144.5 301.5Q164 317 176.5 341.5Q189 366 195 404L204 457Q212 505 231 537.5Q250 570 279 590.5Q308 611 347 619.5Q386 628 435 628L430 593Q320 571 302 453L293 397Q288 363 273.5 338Q259 313 238 295Q217 277 191.5 266Q166 255 139 249Z" glyph-name="braceleft.smcp" horiz-adv-x="400" unicode="&#58525;" /><glyph d="M287 280Q265 285 245.5 294Q226 303 211 316.5Q196 330 187 349Q178 368 178 394Q178 402 178.5 411.5Q179 421 180 428L195 524Q197 533 197 540Q197 547 197 553Q197 606 175.5 630.5Q154 655 112 664L117 699Q157 699 190 691.5Q223 684 246.5 667.5Q270 651 283 623Q296 595 296 555Q296 539 293 520L280 435Q277 418 277 401Q277 347 305.5 325.5Q334 304 395 295L390 261Q355 256 327.5 247.5Q300 239 280.5 223.5Q261 208 248.5 183Q236 158 230 121L214 20Q200 -70 140.5 -106.5Q81 -143 -16 -143L-11 -108Q46 -99 76.5 -66.5Q107 -34 115 23L132 128Q137 162 151.5 187Q166 212 187 229.5Q208 247 233.5 258.5Q259 270 286 276Z" glyph-name="braceright" horiz-adv-x="390" unicode="}" /><glyph d="M287 290Q265 295 245.5 304Q226 313 211 326.5Q196 340 187 359Q178 378 178 404Q178 412 178.5 421.5Q179 431 180 438L195 534Q197 543 197 550Q197 557 197 563Q197 616 175.5 640.5Q154 665 112 674L117 709Q157 709 190 701.5Q223 694 246.5 677.5Q270 661 283 633Q296 605 296 565Q296 549 293 530L280 445Q277 428 277 411Q277 357 305.5 335.5Q334 314 395 305L390 271Q355 266 327.5 257.5Q300 249 280.5 233.5Q261 218 248.5 193Q236 168 230 131L214 30Q200 -60 140.5 -96.5Q81 -133 -16 -133L-11 -98Q46 -89 76.5 -56.5Q107 -24 115 33L132 138Q137 172 151.5 197Q166 222 187 239.5Q208 257 233.5 268.5Q259 280 286 286Z" glyph-name="braceright.cap" horiz-adv-x="390" unicode="&#58518;" /><glyph d="M291 250Q269 255 249 264Q229 273 214 287Q199 301 190 320Q181 339 181 364Q181 380 184 398L193 453Q194 460 194.5 467.5Q195 475 195 483Q195 526 173 555Q151 584 109 593L114 628Q153 628 186 621Q219 614 243 597Q267 580 280 552.5Q293 525 293 485Q293 467 290 448L284 406Q282 398 281.5 390Q281 382 281 372Q281 344 288 325.5Q295 307 310 295Q325 283 347.5 276Q370 269 400 265L394 231Q359 226 332 217.5Q305 209 285.5 193.5Q266 178 253 153Q240 128 234 91L225 38Q209 -58 150.5 -95.5Q92 -133 -6 -133L0 -98Q57 -87 88 -51.5Q119 -16 128 42L136 98Q141 132 156 157Q171 182 192 199.5Q213 217 238.5 228.5Q264 240 291 246Z" glyph-name="braceright.smcp" horiz-adv-x="400" unicode="&#58526;" /><glyph d="M182 701H395L389 660L268 641L154 -80L269 -99L262 -141H50Z" glyph-name="bracketleft" horiz-adv-x="353" unicode="[" /><glyph d="M182 711H395L389 670L268 651L154 -70L269 -89L262 -131H50Z" glyph-name="bracketleft.cap" horiz-adv-x="353" unicode="&#58515;" /><glyph d="M167 628H380L375 587L254 568L152 -73L267 -92L260 -134H48Z" glyph-name="bracketleft.smcp" horiz-adv-x="345" unicode="&#58523;" /><glyph d="M197 -141H-16L-10 -100L111 -81L225 640L110 659L117 701H329Z" glyph-name="bracketright" horiz-adv-x="353" unicode="]" /><glyph d="M197 -131H-16L-10 -90L111 -71L225 650L110 669L117 711H329Z" glyph-name="bracketright.cap" horiz-adv-x="353" unicode="&#58516;" /><glyph d="M198 -134H-15L-9 -93L112 -74L213 567L98 586L105 628H317Z" glyph-name="bracketright.smcp" horiz-adv-x="345" unicode="&#58524;" /><glyph d="M218 577Q263 577 293 601Q323 625 331 663H376Q374 628 362 596.5Q350 565 328 541.5Q306 518 275 504Q244 490 204 490Q144 490 112 523.5Q80 557 80 610Q80 622 81.5 635.5Q83 649 88 663H133Q128 625 150.5 601Q173 577 218 577Z" glyph-name="breve" horiz-adv-x="456" unicode="&#728;" /><glyph d="M214 714Q256 714 280.5 732Q305 750 318 780H368Q355 708 312 667.5Q269 627 201 627Q142 627 111 657.5Q80 688 80 744Q80 760 83 780H132Q134 750 153 732Q172 714 214 714Z" glyph-name="breve.cap" horiz-adv-x="448" unicode="&#58406;" /><glyph d="M69 243H139L78 -141H9ZM141 701H211L151 317H81Z" glyph-name="brokenbar" horiz-adv-x="177" unicode="&#166;" /><glyph d="M54 265H124L66 -101H-3ZM123 701H193L135 335H65Z" glyph-name="brokenbar.cap" horiz-adv-x="159" unicode="&#58469;" /><glyph d="M53 204H123L70 -134H1ZM120 628H190L137 291H67Z" glyph-name="brokenbar.smcp" horiz-adv-x="170" unicode="&#58475;" /><glyph d="M40 243Q40 270 50 293Q60 316 77 333.5Q94 351 117.5 361Q141 371 167 371Q194 371 217 361Q240 351 257 333.5Q274 316 284 293Q294 270 294 243Q294 217 284 194Q274 171 257 154Q240 137 217 127Q194 117 167 117Q141 117 117.5 127Q94 137 77 154Q60 171 50 194Q40 217 40 243Z" glyph-name="bullet" horiz-adv-x="334" unicode="&#8226;" /><glyph d="M46 288Q46 315 56 338Q66 361 83 378.5Q100 396 123 406Q146 416 172 416Q199 416 222 406Q245 396 262.5 378.5Q280 361 290 338Q300 315 300 288Q300 262 290 239Q280 216 262.5 199Q245 182 222 172Q199 162 172 162Q146 162 123 172Q100 182 83 199Q66 216 56 239Q46 262 46 288Z" glyph-name="bullet.cap" horiz-adv-x="334" unicode="&#58470;" /><glyph d="M345 396Q334 400 326.5 401Q319 402 309 402Q285 402 264 387Q243 372 228 346Q213 320 204.5 285Q196 250 196 210Q196 143 219.5 109.5Q243 76 300 76Q329 76 354.5 87.5Q380 99 409 127L432 109Q401 42 349 16Q297 -10 230 -10Q186 -10 149 3Q112 16 86 41Q60 66 45.5 101.5Q31 137 31 182Q31 243 50.5 292Q70 341 105.5 375.5Q141 410 190.5 428Q240 446 301 446Q329 446 355 439.5Q381 433 401 420.5Q421 408 432.5 388.5Q444 369 444 343Q444 303 421 284.5Q398 266 372 266Q341 266 321 282.5Q301 299 301 328Q301 352 314 370.5Q327 389 345 396Z" glyph-name="c" horiz-adv-x="460" unicode="c" /><glyph d="M462 82Q424 31 373.5 10.5Q323 -10 260 -10Q198 -10 154.5 7Q111 24 83.5 53.5Q56 83 43.5 121.5Q31 160 31 203Q31 281 56 338.5Q81 396 123 433.5Q165 471 219 489.5Q273 508 331 508Q359 508 385 503Q411 498 437 492L496 508L471 355L449 350L412 401Q392 430 374.5 445.5Q357 461 330 461Q299 461 273.5 433Q248 405 230 362Q212 319 202.5 269Q193 219 193 176Q193 111 221.5 85.5Q250 60 298 60Q338 60 370 73Q402 86 443 113Z" glyph-name="c.smcp" horiz-adv-x="497" unicode="&#57859;" /><glyph d="M296 560Q288 565 282 565.5Q276 566 268 566Q252 566 238 556.5Q224 547 213.5 529.5Q203 512 197 488.5Q191 465 191 437Q191 388 210 365Q229 342 272 342Q310 342 349 374L367 361Q344 310 302.5 292.5Q261 275 210 275Q140 275 95.5 312.5Q51 350 51 415Q51 461 66 495.5Q81 530 108.5 553Q136 576 174.5 587Q213 598 260 598Q281 598 301.5 593.5Q322 589 338 579.5Q354 570 364 555.5Q374 541 374 521Q374 490 356 476Q338 462 317 462Q292 462 276.5 474.5Q261 487 261 510Q261 528 271 541.5Q281 555 296 560Z" glyph-name="c.superior" horiz-adv-x="394" unicode="&#58211;" /><glyph d="M649 60Q661 52 672.5 50Q684 48 698 48Q726 48 748 66Q770 84 785 114Q800 144 807.5 183.5Q815 223 815 267Q815 306 801 328.5Q787 351 761 351Q742 351 726 342Q710 333 692 314ZM578 568Q559 597 520 617Q481 637 432 637Q384 637 356 612Q328 587 328 536Q328 507 340.5 482Q353 457 375 433Q406 422 425 399.5Q444 377 444 343Q444 303 421 284.5Q398 266 372 266Q341 266 321 282.5Q301 299 301 328Q301 352 314 370.5Q327 389 345 396Q334 400 326.5 401Q319 402 309 402Q285 402 264 387Q243 372 228 346Q213 320 204.5 285Q196 250 196 210Q196 143 219.5 109.5Q243 76 300 76Q329 76 354.5 87.5Q380 99 409 127L432 109Q401 42 349 16Q297 -10 230 -10Q186 -10 149 3Q112 16 86 41Q60 66 45.5 101.5Q31 137 31 182Q31 243 50.5 292Q70 341 105.5 375.5Q141 410 190.5 428Q240 446 301 446Q309 446 316.5 445.5Q324 445 332 444V450Q312 463 297.5 487.5Q283 512 283 545Q283 576 292.5 602Q302 628 321.5 647Q341 666 370 676.5Q399 687 438 687Q501 687 547 667Q593 647 617 618L724 681H758L700 366H704Q728 411 762.5 428.5Q797 446 836 446Q868 446 895.5 435Q923 424 943 403Q963 382 974.5 351Q986 320 986 280Q986 212 964.5 158.5Q943 105 905 67.5Q867 30 813.5 10Q760 -10 696 -10Q641 -10 586 1Q531 12 487 36Z" glyph-name="c_b" horiz-adv-x="1017" /><glyph d="M704 358H708Q730 397 761 421.5Q792 446 842 446Q898 446 930 415.5Q962 385 962 326Q962 309 959 290L924 85Q928 81 935 79.5Q942 78 951 79Q960 80 969 84.5Q978 89 985 97L1008 75Q971 -10 865 -10Q819 -10 792 10.5Q765 31 763 73Q763 82 763.5 94.5Q764 107 769 131L795 278Q800 307 789 322Q778 337 757 337Q735 337 721 325Q707 313 693 296L644 0H483L578 568Q559 597 520 617Q481 637 432 637Q384 637 356 612Q328 587 328 536Q328 507 340.5 482Q353 457 375 433Q406 422 425 399.5Q444 377 444 343Q444 303 421 284.5Q398 266 372 266Q341 266 321 282.5Q301 299 301 328Q301 352 314 370.5Q327 389 345 396Q334 400 326.5 401Q319 402 309 402Q285 402 264 387Q243 372 228 346Q213 320 204.5 285Q196 250 196 210Q196 143 219.5 109.5Q243 76 300 76Q329 76 354.5 87.5Q380 99 409 127L432 109Q401 42 349 16Q297 -10 230 -10Q186 -10 149 3Q112 16 86 41Q60 66 45.5 101.5Q31 137 31 182Q31 243 50.5 292Q70 341 105.5 375.5Q141 410 190.5 428Q240 446 301 446Q309 446 316.5 445.5Q324 445 332 444V450Q312 463 297.5 487.5Q283 512 283 545Q283 576 292.5 602Q302 628 321.5 647Q341 666 370 676.5Q399 687 438 687Q501 687 547 667Q593 647 617 618L725 681H759Z" glyph-name="c_h" horiz-adv-x="1024" /><glyph d="M345 396Q334 400 326.5 401Q319 402 309 402Q285 402 264 387Q243 372 228 346Q213 320 204.5 285Q196 250 196 210Q196 143 219.5 109.5Q243 76 300 76Q329 76 354.5 87.5Q380 99 409 127L432 109Q401 42 349 16Q297 -10 230 -10Q186 -10 149 3Q112 16 86 41Q60 66 45.5 101.5Q31 137 31 182Q31 243 50.5 292Q70 341 105.5 375.5Q141 410 190.5 428Q240 446 301 446Q309 446 316.5 445.5Q324 445 332 444V450Q312 463 297.5 487.5Q283 512 283 545Q283 576 292.5 602Q302 628 321.5 647Q341 666 370 676.5Q399 687 438 687Q501 687 547 667Q593 647 617 618L725 681H759L686 255L725 261L854 382L800 400L810 436H997L1005 402L934 380L838 287L919 79Q937 75 953 79.5Q969 84 987 102L1007 85Q1000 59 986 40.5Q972 22 953 11Q934 0 911.5 -5Q889 -10 865 -10Q815 -10 790.5 13.5Q766 37 751 82L709 207L677 211L644 0H482L578 568Q559 597 520 617Q481 637 432 637Q384 637 356 612Q328 587 328 536Q328 507 340.5 482Q353 457 375 433Q406 422 425 399.5Q444 377 444 343Q444 303 421 284.5Q398 266 372 266Q341 266 321 282.5Q301 299 301 328Q301 352 314 370.5Q327 389 345 396Z" glyph-name="c_k" horiz-adv-x="1013" /><glyph d="M578 568Q559 597 520 617Q481 637 432 637Q384 637 356 612Q328 587 328 536Q328 507 340.5 482Q353 457 375 433Q406 422 425 399.5Q444 377 444 343Q444 303 421 284.5Q398 266 372 266Q341 266 321 282.5Q301 299 301 328Q301 352 314 370.5Q327 389 345 396Q334 400 326.5 401Q319 402 309 402Q285 402 264 387Q243 372 228 346Q213 320 204.5 285Q196 250 196 210Q196 143 219.5 109.5Q243 76 300 76Q329 76 354.5 87.5Q380 99 409 127L432 109Q401 42 349 16Q297 -10 230 -10Q186 -10 149 3Q112 16 86 41Q60 66 45.5 101.5Q31 137 31 182Q31 243 50.5 292Q70 341 105.5 375.5Q141 410 190.5 428Q240 446 301 446Q309 446 316.5 445.5Q324 445 332 444V450Q312 463 297.5 487.5Q283 512 283 545Q283 576 292.5 602Q302 628 321.5 647Q341 666 370 676.5Q399 687 438 687Q501 687 547 667Q593 647 617 618L725 681H759L658 85Q662 81 669 79.5Q676 78 685 79Q694 80 703 84.5Q712 89 719 97L742 75Q705 -10 599 -10Q553 -10 526 10.5Q499 31 497 73Q497 82 497.5 94.5Q498 107 503 131Z" glyph-name="c_l" horiz-adv-x="761" /><glyph d="M652 57Q663 52 674.5 50Q686 48 697 48Q725 48 747 66Q769 84 784 114Q799 144 806.5 183.5Q814 223 814 267Q814 306 800 328.5Q786 351 760 351Q740 351 724.5 343Q709 335 692 316ZM694 361H698Q726 410 761 428Q796 446 836 446Q868 446 895 435Q922 424 942 403Q962 382 973.5 351Q985 320 985 280Q985 212 963.5 158.5Q942 105 904.5 67.5Q867 30 815 10Q763 -10 702 -10Q679 -10 666 -7.5Q653 -5 642 -1L617 -162L687 -181L674 -210H409V-182L456 -165L570 568Q551 597 512 617Q473 637 424 637Q376 637 344.5 612Q313 587 313 536Q313 508 327 484.5Q341 461 362 438Q398 427 421 404Q444 381 444 343Q444 303 421 284.5Q398 266 372 266Q341 266 321 282.5Q301 299 301 328Q301 352 314 370.5Q327 389 345 396Q334 400 326.5 401Q319 402 309 402Q285 402 264 387Q243 372 228 346Q213 320 204.5 285Q196 250 196 210Q196 143 219.5 109.5Q243 76 300 76Q329 76 354.5 87.5Q380 99 409 127L432 109Q401 42 349 16Q297 -10 230 -10Q186 -10 149 3Q112 16 86 41Q60 66 45.5 101.5Q31 137 31 182Q31 243 50.5 292Q70 341 105.5 375.5Q141 410 190.5 428Q240 446 301 446Q306 446 310.5 446Q315 446 320 445V450Q300 462 284.5 486Q269 510 269 545Q269 607 310.5 647Q352 687 429 687Q498 687 542.5 665.5Q587 644 609 618L710 681H744Z" glyph-name="c_p" horiz-adv-x="1016" /><glyph d="M715 436H837L823 382H707L669 176Q666 162 664 148Q662 134 662 121Q662 94 674.5 82Q687 70 711 70Q728 70 746.5 74.5Q765 79 784 90L801 61Q770 25 729.5 7.5Q689 -10 632 -10Q569 -10 536.5 16.5Q504 43 504 97Q504 117 505.5 136Q507 155 513 184L554 382H485L491 417L567 436L605 565Q595 584 576.5 597.5Q558 611 535.5 620Q513 629 489.5 633Q466 637 446 637Q389 637 356.5 612Q324 587 324 536Q324 507 338 482Q352 457 375 433Q406 422 425 399.5Q444 377 444 343Q444 303 421 284.5Q398 266 372 266Q341 266 321 282.5Q301 299 301 328Q301 352 314 370.5Q327 389 345 396Q334 400 326.5 401Q319 402 309 402Q285 402 264 387Q243 372 228 346Q213 320 204.5 285Q196 250 196 210Q196 143 219.5 109.5Q243 76 300 76Q329 76 354.5 87.5Q380 99 409 127L432 109Q401 42 349 16Q297 -10 230 -10Q186 -10 149 3Q112 16 86 41Q60 66 45.5 101.5Q31 137 31 182Q31 243 50.5 292Q70 341 105.5 375.5Q141 410 190.5 428Q240 446 301 446Q309 446 315.5 445.5Q322 445 330 444V449Q311 462 295 486Q279 510 279 545Q279 607 321.5 647Q364 687 448 687Q511 687 556 667Q601 647 627 617L728 681H762Z" glyph-name="c_t" horiz-adv-x="812" /><glyph d="M260 485 240 504 295 636Q302 653 314.5 664.5Q327 676 341 680.5Q355 685 370.5 682Q386 679 399 667Q427 642 422.5 611Q418 580 386 561ZM345 396Q334 400 326.5 401Q319 402 309 402Q285 402 264 387Q243 372 228 346Q213 320 204.5 285Q196 250 196 210Q196 143 219.5 109.5Q243 76 300 76Q329 76 354.5 87.5Q380 99 409 127L432 109Q401 42 349 16Q297 -10 230 -10Q186 -10 149 3Q112 16 86 41Q60 66 45.5 101.5Q31 137 31 182Q31 243 50.5 292Q70 341 105.5 375.5Q141 410 190.5 428Q240 446 301 446Q329 446 355 439.5Q381 433 401 420.5Q421 408 432.5 388.5Q444 369 444 343Q444 303 421 284.5Q398 266 372 266Q341 266 321 282.5Q301 299 301 328Q301 352 314 370.5Q327 389 345 396Z" glyph-name="cacute" horiz-adv-x="460" unicode="&#263;" /><glyph d="M462 82Q424 31 373.5 10.5Q323 -10 260 -10Q198 -10 154.5 7Q111 24 83.5 53.5Q56 83 43.5 121.5Q31 160 31 203Q31 281 56 338.5Q81 396 123 433.5Q165 471 219 489.5Q273 508 331 508Q359 508 385 503Q411 498 437 492L496 508L471 355L449 350L412 401Q392 430 374.5 445.5Q357 461 330 461Q299 461 273.5 433Q248 405 230 362Q212 319 202.5 269Q193 219 193 176Q193 111 221.5 85.5Q250 60 298 60Q338 60 370 73Q402 86 443 113ZM299 545 279 564 334 696Q341 713 353.5 724.5Q366 736 380 740.5Q394 745 409.5 742Q425 739 438 727Q466 702 461.5 671Q457 640 425 621Z" glyph-name="cacute.smcp" horiz-adv-x="497" unicode="&#57908;" /><glyph d="M204 482 80 671H213L268 577L361 671H425L241 482Z" glyph-name="caron" horiz-adv-x="505" unicode="&#711;" /><glyph d="M209 620 80 774H221L273 705L358 774H425L246 620Z" glyph-name="caron.cap" horiz-adv-x="505" unicode="&#58413;" /><glyph d="M89 614Q91 645 102 660.5Q113 676 139 674Q150 674 162 670Q174 666 183.5 658.5Q193 651 198.5 640Q204 629 202 616Q199 599 190 585L118 460L80 469Z" glyph-name="caronSlovak" horiz-adv-x="283" unicode="&#58387;" /><glyph d="M263 482 139 671H272L327 577L420 671H484L300 482ZM345 396Q334 400 326.5 401Q319 402 309 402Q285 402 264 387Q243 372 228 346Q213 320 204.5 285Q196 250 196 210Q196 143 219.5 109.5Q243 76 300 76Q329 76 354.5 87.5Q380 99 409 127L432 109Q401 42 349 16Q297 -10 230 -10Q186 -10 149 3Q112 16 86 41Q60 66 45.5 101.5Q31 137 31 182Q31 243 50.5 292Q70 341 105.5 375.5Q141 410 190.5 428Q240 446 301 446Q329 446 355 439.5Q381 433 401 420.5Q421 408 432.5 388.5Q444 369 444 343Q444 303 421 284.5Q398 266 372 266Q341 266 321 282.5Q301 299 301 328Q301 352 314 370.5Q327 389 345 396Z" glyph-name="ccaron" horiz-adv-x="460" unicode="&#269;" /><glyph d="M462 82Q424 31 373.5 10.5Q323 -10 260 -10Q198 -10 154.5 7Q111 24 83.5 53.5Q56 83 43.5 121.5Q31 160 31 203Q31 281 56 338.5Q81 396 123 433.5Q165 471 219 489.5Q273 508 331 508Q359 508 385 503Q411 498 437 492L496 508L471 355L449 350L412 401Q392 430 374.5 445.5Q357 461 330 461Q299 461 273.5 433Q248 405 230 362Q212 319 202.5 269Q193 219 193 176Q193 111 221.5 85.5Q250 60 298 60Q338 60 370 73Q402 86 443 113ZM303 542 179 731H312L367 637L460 731H524L340 542Z" glyph-name="ccaron.smcp" horiz-adv-x="497" unicode="&#57910;" /><glyph d="M98 -150Q106 -158 120 -164.5Q134 -171 152 -171Q169 -171 180.5 -162.5Q192 -154 192 -137Q192 -116 181 -103Q170 -90 146 -82L177 -4Q110 10 70.5 58Q31 106 31 182Q31 243 50.5 292Q70 341 105.5 375.5Q141 410 190.5 428Q240 446 301 446Q329 446 355 439.5Q381 433 401 420.5Q421 408 432.5 388.5Q444 369 444 343Q444 303 421 284.5Q398 266 372 266Q341 266 321 282.5Q301 299 301 328Q301 352 314 370.5Q327 389 345 396Q334 400 326.5 401Q319 402 309 402Q285 402 264 387Q243 372 228 346Q213 320 204.5 285Q196 250 196 210Q196 143 219.5 109.5Q243 76 300 76Q329 76 354.5 87.5Q380 99 409 127L432 109Q401 42 349 16Q297 -10 230 -10H218L205 -40Q221 -42 237.5 -48Q254 -54 267 -64.5Q280 -75 288 -91.5Q296 -108 296 -131Q296 -179 261.5 -199.5Q227 -220 176 -220Q140 -220 117 -208.5Q94 -197 80 -175Z" glyph-name="ccedilla" horiz-adv-x="460" unicode="&#231;" /><glyph d="M119 -150Q127 -158 141 -164.5Q155 -171 173 -171Q190 -171 201.5 -162.5Q213 -154 213 -137Q213 -116 202 -103Q191 -90 167 -82L198 -4Q153 4 121.5 23Q90 42 69.5 69.5Q49 97 40 131Q31 165 31 203Q31 281 56 338.5Q81 396 123 433.5Q165 471 219 489.5Q273 508 331 508Q359 508 385 503Q411 498 437 492L496 508L471 355L449 350L412 401Q392 430 374.5 445.5Q357 461 330 461Q299 461 273.5 433Q248 405 230 362Q212 319 202.5 269Q193 219 193 176Q193 111 221.5 85.5Q250 60 298 60Q338 60 370 73Q402 86 443 113L462 82Q424 31 373.5 10.5Q323 -10 260 -10Q255 -10 249.5 -10Q244 -10 239 -9L226 -40Q242 -42 258.5 -48Q275 -54 288 -64.5Q301 -75 309 -91.5Q317 -108 317 -131Q317 -179 282.5 -199.5Q248 -220 197 -220Q161 -220 138 -208.5Q115 -197 101 -175Z" glyph-name="ccedilla.smcp" horiz-adv-x="497" unicode="&#57912;" /><glyph d="M343 671 467 482H334L280 576L186 482H122L306 671ZM345 396Q334 400 326.5 401Q319 402 309 402Q285 402 264 387Q243 372 228 346Q213 320 204.5 285Q196 250 196 210Q196 143 219.5 109.5Q243 76 300 76Q329 76 354.5 87.5Q380 99 409 127L432 109Q401 42 349 16Q297 -10 230 -10Q186 -10 149 3Q112 16 86 41Q60 66 45.5 101.5Q31 137 31 182Q31 243 50.5 292Q70 341 105.5 375.5Q141 410 190.5 428Q240 446 301 446Q329 446 355 439.5Q381 433 401 420.5Q421 408 432.5 388.5Q444 369 444 343Q444 303 421 284.5Q398 266 372 266Q341 266 321 282.5Q301 299 301 328Q301 352 314 370.5Q327 389 345 396Z" glyph-name="ccircumflex" horiz-adv-x="460" unicode="&#265;" /><glyph d="M381 731 505 542H372L318 636L224 542H160L344 731ZM462 82Q424 31 373.5 10.5Q323 -10 260 -10Q198 -10 154.5 7Q111 24 83.5 53.5Q56 83 43.5 121.5Q31 160 31 203Q31 281 56 338.5Q81 396 123 433.5Q165 471 219 489.5Q273 508 331 508Q359 508 385 503Q411 498 437 492L496 508L471 355L449 350L412 401Q392 430 374.5 445.5Q357 461 330 461Q299 461 273.5 433Q248 405 230 362Q212 319 202.5 269Q193 219 193 176Q193 111 221.5 85.5Q250 60 298 60Q338 60 370 73Q402 86 443 113Z" glyph-name="ccircumflex.smcp" horiz-adv-x="497" unicode="&#57909;" /><glyph d="M212 576Q212 615 237 634.5Q262 654 296 654Q333 654 357.5 634.5Q382 615 382 576Q382 537 357.5 517.5Q333 498 296 498Q262 498 237 517.5Q212 537 212 576ZM345 396Q334 400 326.5 401Q319 402 309 402Q285 402 264 387Q243 372 228 346Q213 320 204.5 285Q196 250 196 210Q196 143 219.5 109.5Q243 76 300 76Q329 76 354.5 87.5Q380 99 409 127L432 109Q401 42 349 16Q297 -10 230 -10Q186 -10 149 3Q112 16 86 41Q60 66 45.5 101.5Q31 137 31 182Q31 243 50.5 292Q70 341 105.5 375.5Q141 410 190.5 428Q240 446 301 446Q329 446 355 439.5Q381 433 401 420.5Q421 408 432.5 388.5Q444 369 444 343Q444 303 421 284.5Q398 266 372 266Q341 266 321 282.5Q301 299 301 328Q301 352 314 370.5Q327 389 345 396Z" glyph-name="cdotaccent" horiz-adv-x="460" unicode="&#267;" /><glyph d="M260 645Q260 684 285 703.5Q310 723 344 723Q381 723 405.5 703.5Q430 684 430 645Q430 606 405.5 586.5Q381 567 344 567Q310 567 285 586.5Q260 606 260 645ZM462 82Q424 31 373.5 10.5Q323 -10 260 -10Q198 -10 154.5 7Q111 24 83.5 53.5Q56 83 43.5 121.5Q31 160 31 203Q31 281 56 338.5Q81 396 123 433.5Q165 471 219 489.5Q273 508 331 508Q359 508 385 503Q411 498 437 492L496 508L471 355L449 350L412 401Q392 430 374.5 445.5Q357 461 330 461Q299 461 273.5 433Q248 405 230 362Q212 319 202.5 269Q193 219 193 176Q193 111 221.5 85.5Q250 60 298 60Q338 60 370 73Q402 86 443 113Z" glyph-name="cdotaccent.smcp" horiz-adv-x="497" unicode="&#57911;" /><glyph d="M98 -150Q106 -158 120 -164.5Q134 -171 152 -171Q169 -171 180.5 -162.5Q192 -154 192 -137Q192 -116 181 -103Q170 -90 146 -82L188 21H232L205 -40Q221 -42 237.5 -48Q254 -54 267 -64.5Q280 -75 288 -91.5Q296 -108 296 -131Q296 -179 261.5 -199.5Q227 -220 176 -220Q140 -220 117 -208.5Q94 -197 80 -175Z" glyph-name="cedilla" horiz-adv-x="376" unicode="&#184;" /><glyph d="M176 207Q176 156 191 124Q206 92 233 77L284 399Q262 393 242.5 379Q223 365 208 341.5Q193 318 184.5 284.5Q176 251 176 207ZM396 371Q387 382 371 391Q355 400 330 402L276 65Q280 64 289 64Q334 64 365 80.5Q396 97 425 128L452 109Q421 44 372 18Q323 -8 264 -10L248 -114H203L220 -8Q179 -4 145 11.5Q111 27 86.5 52.5Q62 78 48.5 113Q35 148 35 193Q35 249 53 294Q71 339 104.5 371.5Q138 404 185.5 423Q233 442 292 445L309 552H354L337 445Q367 442 393 432.5Q419 423 438.5 408Q458 393 469 373.5Q480 354 480 330Q480 293 461 276.5Q442 260 417 260Q391 260 372.5 274.5Q354 289 354 316Q354 337 365 352Q376 367 396 371Z" glyph-name="cent" horiz-adv-x="511" unicode="&#162;" /><glyph d="M301 671 425 482H292L238 576L144 482H80L264 671Z" glyph-name="circumflex" horiz-adv-x="505" unicode="&#710;" /><glyph d="M296 782 425 628H284L232 697L147 628H80L259 782Z" glyph-name="circumflex.cap" horiz-adv-x="505" unicode="&#58403;" /><glyph d="M60 338Q60 356 67 371.5Q74 387 85.5 398.5Q97 410 112.5 417Q128 424 146 424Q163 424 178.5 417Q194 410 206 398.5Q218 387 225 371.5Q232 356 232 338Q232 320 225 304.5Q218 289 206 277.5Q194 266 178.5 259.5Q163 253 146 253Q128 253 112.5 259.5Q97 266 85.5 277.5Q74 289 67 304.5Q60 320 60 338ZM21 77Q21 95 28 110.5Q35 126 46.5 137.5Q58 149 73.5 156Q89 163 107 163Q124 163 139.5 156Q155 149 167 137.5Q179 126 186 110.5Q193 95 193 77Q193 59 186 43.5Q179 28 167 16.5Q155 5 139.5 -1.5Q124 -8 107 -8Q89 -8 73.5 -1.5Q58 5 46.5 16.5Q35 28 28 43.5Q21 59 21 77Z" glyph-name="colon" horiz-adv-x="259" unicode=":" /><glyph d="M127 30Q122 9 107.5 1.5Q93 -6 82 -6Q47 -6 29.5 17.5Q12 41 12 71Q12 109 36.5 133Q61 157 97 157Q143 157 171 125.5Q199 94 199 46Q199 4 180 -30.5Q161 -65 130 -90Q99 -115 61 -130.5Q23 -146 -16 -150L-25 -116Q8 -108 37 -93.5Q66 -79 88 -59.5Q110 -40 122.5 -17Q135 6 135 30Z" glyph-name="comma" horiz-adv-x="266" unicode="," /><glyph d="M204 -140Q200 -157 187 -163.5Q174 -170 164 -170Q132 -170 116.5 -150Q101 -130 101 -104Q101 -71 124 -51.5Q147 -32 182 -32Q227 -32 251.5 -58.5Q276 -85 276 -123Q276 -159 261 -184.5Q246 -210 220 -226Q194 -242 160 -250.5Q126 -259 89 -260L80 -240Q149 -223 180.5 -200.5Q212 -178 212 -140Z" glyph-name="commaaccent" horiz-adv-x="356" unicode="&#58388;" /><glyph d="M151 731Q155 748 168.5 754.5Q182 761 191 761Q223 761 239 741.5Q255 722 255 696Q255 662 232 642.5Q209 623 174 623Q129 623 104.5 649.5Q80 676 80 714Q80 750 95 775.5Q110 801 136 817Q162 833 195.5 841Q229 849 267 851L276 831Q207 814 175 792Q143 770 143 731Z" glyph-name="commaaccent.cap" horiz-adv-x="356" unicode="&#58414;" /><glyph d="M500 179Q479 154 446 138Q413 122 362 122Q277 122 231 167.5Q185 213 185 291Q185 335 199.5 367.5Q214 400 239 421Q264 442 298 452.5Q332 463 372 463Q391 463 409 460Q427 457 446 452L484 463V355L468 352L440 386Q424 404 408.5 414Q393 424 370 424Q330 424 315 392Q300 360 300 291Q300 232 321 201Q342 170 385 170Q415 170 437.5 176.5Q460 183 485 200ZM78 294Q78 233 99.5 181.5Q121 130 158.5 93Q196 56 246 35.5Q296 15 353 15Q410 15 460 35.5Q510 56 547.5 93Q585 130 607 181.5Q629 233 629 294Q629 355 607 406Q585 457 547.5 494Q510 531 460 552Q410 573 353 573Q296 573 246 552Q196 531 158.5 494Q121 457 99.5 406Q78 355 78 294ZM45 294Q45 361 69 417Q93 473 134.5 514Q176 555 232 578Q288 601 351 601Q415 601 471 578Q527 555 568.5 514Q610 473 634 417Q658 361 658 294Q658 227 634 171Q610 115 568.5 74.5Q527 34 471 11Q415 -12 351 -12Q288 -12 232 11Q176 34 134.5 74.5Q93 115 69 171Q45 227 45 294Z" glyph-name="copyright" horiz-adv-x="683" unicode="&#169;" /><glyph d="M262 559Q254 563 248.5 564Q243 565 236 565Q218 565 204 553.5Q190 542 180 522Q170 502 165 476Q160 450 160 422Q160 377 179.5 353.5Q199 330 234 330Q256 330 270.5 337Q285 344 309 362L326 349Q277 261 171 261Q144 261 118.5 269Q93 277 73.5 294.5Q54 312 42 338.5Q30 365 30 402Q30 446 45 482Q60 518 87 543.5Q114 569 150.5 583Q187 597 230 597Q272 597 303 578.5Q334 560 334 521Q334 492 317.5 478Q301 464 282 464Q259 464 244.5 476Q230 488 230 510Q230 528 239.5 540.5Q249 553 262 559Z" glyph-name="cordinal" horiz-adv-x="354" unicode="&#57729;" /><glyph d="M412 325Q382 287 344 272.5Q306 258 255 258Q208 258 174.5 270.5Q141 283 120 304Q99 325 89.5 352.5Q80 380 80 411Q80 467 99 507.5Q118 548 150 574Q182 600 223.5 612.5Q265 625 310 625Q330 625 350 622Q370 619 390 614L435 625L417 517L401 514L369 551Q354 569 340.5 580Q327 591 309 591Q286 591 269 568.5Q252 546 240.5 514Q229 482 223.5 447.5Q218 413 218 388Q218 363 223.5 348Q229 333 239 325Q249 317 262 314.5Q275 312 290 312Q319 312 342.5 320Q366 328 397 347Z" glyph-name="cordinal.smcp" horiz-adv-x="435" unicode="&#58195;" /><glyph d="M169 303Q169 282 177 263.5Q185 245 198.5 231.5Q212 218 230.5 210Q249 202 270 202Q291 202 309 210Q327 218 341 231.5Q355 245 363 263.5Q371 282 371 303Q371 324 363 342.5Q355 361 341 374.5Q327 388 309 396Q291 404 270 404Q249 404 230.5 396Q212 388 198.5 374.5Q185 361 177 342.5Q169 324 169 303ZM440 411Q472 361 472 305Q472 247 442 199L514 127L452 65L383 134Q330 98 269 98Q211 98 158 129L88 59L25 122L95 192Q62 245 62 305Q62 367 99 418L29 489L91 551L162 478Q211 507 270 507Q326 507 379 474L449 544L512 483Z" glyph-name="currency" horiz-adv-x="539" unicode="&#164;" /><glyph d="M358 633 362 653 548 681H576L475 85Q479 81 486 79.5Q493 78 502 79Q511 80 520 84.5Q529 89 536 97L559 75Q520 -10 412 -10Q369 -10 343.5 9.5Q318 29 319 77H315Q291 32 256.5 11Q222 -10 175 -10Q143 -10 117 -0.5Q91 9 71.5 29Q52 49 41.5 81Q31 113 31 157Q31 222 51 275Q71 328 107 366Q143 404 192 425Q241 446 299 446Q342 446 371 433L399 587ZM360 375Q351 383 338 386Q325 389 314 389Q288 389 266 371Q244 353 227.5 322.5Q211 292 202 251.5Q193 211 193 166Q193 87 243 87Q267 87 286.5 101Q306 115 321 140Z" glyph-name="d" horiz-adv-x="578" unicode="d" /><glyph d="M257 44Q339 44 377.5 108Q416 172 427 288Q431 337 424.5 368.5Q418 400 402 418.5Q386 437 362.5 444Q339 451 310 451H294L232 59ZM326 498Q383 498 431.5 487Q480 476 515.5 452Q551 428 571.5 388.5Q592 349 592 292Q592 211 563.5 155Q535 99 488.5 64.5Q442 30 382.5 15Q323 0 260 0H13L11 32L72 55L134 443L80 466L92 498Z" glyph-name="d.smcp" horiz-adv-x="622" unicode="&#57860;" /><glyph d="M288 710 292 726 442 746H465L406 349Q408 343 422 342.5Q436 342 447 353L467 337Q450 302 420.5 288.5Q391 275 348 275Q317 275 295.5 287Q274 299 272 335H269Q251 304 226 289.5Q201 275 164 275Q141 275 120.5 281.5Q100 288 84.5 302Q69 316 60 339.5Q51 363 51 396Q51 444 66.5 481.5Q82 519 109.5 545Q137 571 174.5 584.5Q212 598 256 598Q287 598 305 590L317 677ZM297 546Q292 551 284 553Q276 555 270 555Q253 555 238 542.5Q223 530 212 509Q201 488 195 461Q189 434 189 404Q189 352 225 352Q254 352 272 381Z" glyph-name="d.superior" horiz-adv-x="497" unicode="&#58212;" /><glyph d="M64 279 27 343 86 408 243 370V587L322 635L383 587L307 370L476 408L513 343L454 279L297 318L264 -87L180 -170L125 -87L235 318Z" glyph-name="dagger" horiz-adv-x="508" unicode="&#8224;" /><glyph d="M262 318 92 279 54 343 114 408 271 370V587L350 635L411 587L334 370L504 408L540 343L482 279L325 318L294 145L465 185L502 121L442 56L286 93V-123L208 -171L145 -123L223 93L52 56L16 121L75 185L232 145Z" glyph-name="daggerdbl" horiz-adv-x="558" unicode="&#8225;" /><glyph d="M611 614Q613 645 624 660.5Q635 676 661 674Q672 674 684 670Q696 666 705.5 658.5Q715 651 720.5 640Q726 629 724 616Q721 599 712 585L640 460L602 469ZM358 633 362 653 548 681H576L475 85Q479 81 486 79.5Q493 78 502 79Q511 80 520 84.5Q529 89 536 97L559 75Q520 -10 412 -10Q369 -10 343.5 9.5Q318 29 319 77H315Q291 32 256.5 11Q222 -10 175 -10Q143 -10 117 -0.5Q91 9 71.5 29Q52 49 41.5 81Q31 113 31 157Q31 222 51 275Q71 328 107 366Q143 404 192 425Q241 446 299 446Q342 446 371 433L399 587ZM360 375Q351 383 338 386Q325 389 314 389Q288 389 266 371Q244 353 227.5 322.5Q211 292 202 251.5Q193 211 193 166Q193 87 243 87Q267 87 286.5 101Q306 115 321 140Z" glyph-name="dcaron" horiz-adv-x="578" unicode="&#271;" /><glyph d="M257 44Q339 44 377.5 108Q416 172 427 288Q431 337 424.5 368.5Q418 400 402 418.5Q386 437 362.5 444Q339 451 310 451H294L232 59ZM326 498Q383 498 431.5 487Q480 476 515.5 452Q551 428 571.5 388.5Q592 349 592 292Q592 211 563.5 155Q535 99 488.5 64.5Q442 30 382.5 15Q323 0 260 0H13L11 32L72 55L134 443L80 466L92 498ZM330 542 206 731H339L394 637L487 731H551L367 542Z" glyph-name="dcaron.smcp" horiz-adv-x="622" unicode="&#57913;" /><glyph d="M360 375Q351 383 338 386Q325 389 314 389Q288 389 266 371Q244 353 227.5 322.5Q211 292 202 251.5Q193 211 193 166Q193 87 243 87Q267 87 286.5 101Q306 115 321 140ZM114 -150Q122 -158 136 -164.5Q150 -171 168 -171Q185 -171 196.5 -162.5Q208 -154 208 -137Q208 -116 197 -103Q186 -90 162 -82L191 -9Q187 -9 183 -9.5Q179 -10 175 -10Q143 -10 117 -0.5Q91 9 71.5 29Q52 49 41.5 81Q31 113 31 157Q31 222 51 275Q71 328 107 366Q143 404 192 425Q241 446 299 446Q342 446 371 433L399 587L358 633L362 653L548 681H576L475 85Q479 81 486 79.5Q493 78 502 79Q511 80 520 84.5Q529 89 536 97L559 75Q520 -10 412 -10Q369 -10 343.5 9.5Q318 29 319 77H315Q286 23 239 2L221 -40Q237 -42 253.5 -48Q270 -54 283 -64.5Q296 -75 304 -91.5Q312 -108 312 -131Q312 -179 277.5 -199.5Q243 -220 192 -220Q156 -220 133 -208.5Q110 -197 96 -175Z" glyph-name="dcedilla" horiz-adv-x="578" unicode="&#7697;" /><glyph d="M257 44Q339 44 377.5 108Q416 172 427 288Q431 337 424.5 368.5Q418 400 402 418.5Q386 437 362.5 444Q339 451 310 451H294L232 59ZM156 -150Q164 -158 178 -164.5Q192 -171 210 -171Q227 -171 238.5 -162.5Q250 -154 250 -137Q250 -116 239 -103Q228 -90 204 -82L237 0H13L11 32L72 55L134 443L80 466L92 498H326Q383 498 431.5 487Q480 476 515.5 452Q551 428 571.5 388.5Q592 349 592 292Q592 214 566 159.5Q540 105 496.5 70.5Q453 36 397 19Q341 2 281 0L263 -40Q279 -42 295.5 -48Q312 -54 325 -64.5Q338 -75 346 -91.5Q354 -108 354 -131Q354 -179 319.5 -199.5Q285 -220 234 -220Q198 -220 175 -208.5Q152 -197 138 -175Z" glyph-name="dcedilla.smcp" horiz-adv-x="622" unicode="&#57914;" /><glyph d="M360 375Q351 383 338 386Q325 389 314 389Q288 389 266 371Q244 353 227.5 322.5Q211 292 202 251.5Q193 211 193 166Q193 87 243 87Q267 87 286.5 101Q306 115 321 140ZM358 633 362 653 548 681H576L555 556H607L600 506H546L475 85Q479 81 486 79.5Q493 78 502 79Q511 80 520 84.5Q529 89 536 97L559 75Q520 -10 412 -10Q369 -10 343.5 9.5Q318 29 319 77H315Q291 32 256.5 11Q222 -10 175 -10Q143 -10 117 -0.5Q91 9 71.5 29Q52 49 41.5 81Q31 113 31 157Q31 222 51 275Q71 328 107 366Q143 404 192 425Q241 446 299 446Q342 446 371 433L384 506H236L243 556H393L399 587Z" glyph-name="dcroat" horiz-adv-x="578" unicode="&#273;" /><glyph d="M257 44Q339 44 377.5 108Q416 172 427 288Q431 337 424.5 368.5Q418 400 402 418.5Q386 437 362.5 444Q339 451 310 451H294L267 280H354L345 229H259L232 59ZM46 280H108L134 443L80 466L92 498H326Q383 498 431.5 487Q480 476 515.5 452Q551 428 571.5 388.5Q592 349 592 292Q592 211 563.5 155Q535 99 488.5 64.5Q442 30 382.5 15Q323 0 260 0H13L11 32L72 55L100 229H37Z" glyph-name="dcroat.smcp" horiz-adv-x="622" unicode="&#57916;" /><glyph d="M161 -124Q161 -85 185.5 -65.5Q210 -46 244 -46Q281 -46 305.5 -65.5Q330 -85 330 -124Q330 -162 305.5 -182Q281 -202 244 -202Q210 -202 185.5 -182Q161 -162 161 -124ZM358 633 362 653 548 681H576L475 85Q479 81 486 79.5Q493 78 502 79Q511 80 520 84.5Q529 89 536 97L559 75Q520 -10 412 -10Q369 -10 343.5 9.5Q318 29 319 77H315Q291 32 256.5 11Q222 -10 175 -10Q143 -10 117 -0.5Q91 9 71.5 29Q52 49 41.5 81Q31 113 31 157Q31 222 51 275Q71 328 107 366Q143 404 192 425Q241 446 299 446Q342 446 371 433L399 587ZM360 375Q351 383 338 386Q325 389 314 389Q288 389 266 371Q244 353 227.5 322.5Q211 292 202 251.5Q193 211 193 166Q193 87 243 87Q267 87 286.5 101Q306 115 321 140Z" glyph-name="ddotbelow" horiz-adv-x="578" unicode="&#7693;" /><glyph d="M158 -124Q158 -85 182.5 -65.5Q207 -46 241 -46Q278 -46 302.5 -65.5Q327 -85 327 -124Q327 -162 302.5 -182Q278 -202 241 -202Q207 -202 182.5 -182Q158 -162 158 -124ZM257 44Q339 44 377.5 108Q416 172 427 288Q431 337 424.5 368.5Q418 400 402 418.5Q386 437 362.5 444Q339 451 310 451H294L232 59ZM326 498Q383 498 431.5 487Q480 476 515.5 452Q551 428 571.5 388.5Q592 349 592 292Q592 211 563.5 155Q535 99 488.5 64.5Q442 30 382.5 15Q323 0 260 0H13L11 32L72 55L134 443L80 466L92 498Z" glyph-name="ddotbelow.smcp" horiz-adv-x="622" unicode="&#57915;" /><glyph d="M199 531Q171 531 154 511Q137 491 137 464Q137 441 150 426.5Q163 412 186 412Q215 412 231 432.5Q247 453 247 479Q247 502 234.5 516.5Q222 531 199 531ZM63 461Q63 489 73 513.5Q83 538 101 556.5Q119 575 144.5 586Q170 597 202 597Q256 597 287 564Q318 531 318 483Q318 454 308 429Q298 404 280 385Q262 366 237 355.5Q212 345 182 345Q122 345 92.5 378.5Q63 412 63 461Z" glyph-name="degree" horiz-adv-x="305" unicode="&#176;" /><glyph d="M276 565Q276 600 298 618Q320 636 351 636Q385 636 407 618Q429 600 429 565Q429 531 407 513Q385 495 351 495Q320 495 298 513Q276 531 276 565ZM80 566Q80 601 102 619Q124 637 155 637Q189 637 210.5 619Q232 601 232 566Q232 531 210.5 513.5Q189 496 155 496Q124 496 102 513.5Q80 531 80 566Z" glyph-name="dieresis" horiz-adv-x="509" unicode="&#168;" /><glyph d="M276 691Q276 726 298 744Q320 762 351 762Q385 762 407 744Q429 726 429 691Q429 657 407 639Q385 621 351 621Q320 621 298 639Q276 657 276 691ZM80 692Q80 727 102 745Q124 763 155 763Q189 763 210.5 745Q232 727 232 692Q232 657 210.5 639.5Q189 622 155 622Q124 622 102 639.5Q80 657 80 692Z" glyph-name="dieresis.cap" horiz-adv-x="509" unicode="&#58409;" /><glyph d="M199 437Q199 460 214.5 476Q230 492 252 492Q275 492 291.5 476Q308 460 308 437Q308 414 291.5 398Q275 382 252 382Q230 382 214.5 398Q199 414 199 437ZM153 138Q153 161 168.5 177.5Q184 194 206 194Q229 194 245.5 177.5Q262 161 262 138Q262 115 245.5 100Q229 85 206 85Q184 85 168.5 100Q153 115 153 138ZM35 253 46 326H432L421 253Z" glyph-name="divide" horiz-adv-x="477" unicode="&#247;" /><glyph d="M219 470Q219 443 231 426.5Q243 410 274 396L298 549Q263 544 241 524.5Q219 505 219 470ZM348 129Q348 161 333.5 179.5Q319 198 290 212L263 40Q298 44 323 64Q348 84 348 129ZM210 -9Q125 -3 76 32.5Q27 68 27 121Q27 147 44 169Q61 191 95 191Q127 192 143 174.5Q159 157 159 129Q159 109 146.5 94Q134 79 117 77Q132 60 157.5 51Q183 42 217 40L247 230L221 241Q162 264 129.5 303Q97 342 97 405Q97 453 113.5 488.5Q130 524 158 547.5Q186 571 224 583Q262 595 306 597L322 697H368L352 597Q386 594 417 585Q448 576 472 561Q496 546 510 524.5Q524 503 524 476Q524 451 509.5 431Q495 411 460 411Q432 411 416.5 427Q401 443 401 463Q401 485 411 498Q421 511 438 516Q402 544 344 549L317 379L340 370Q403 345 441 304Q479 263 479 194Q479 141 462.5 103.5Q446 66 416.5 41.5Q387 17 345.5 5Q304 -7 255 -9L239 -110H194Z" glyph-name="dollar" horiz-adv-x="558" unicode="$" /><glyph d="M80 576Q80 615 105 634.5Q130 654 164 654Q201 654 225.5 634.5Q250 615 250 576Q250 537 225.5 517.5Q201 498 164 498Q130 498 105 517.5Q80 537 80 576Z" glyph-name="dotaccent" horiz-adv-x="330" unicode="&#729;" /><glyph d="M80 712Q80 751 104.5 770.5Q129 790 163 790Q200 790 224.5 770.5Q249 751 249 712Q249 674 224.5 654Q200 634 163 634Q129 634 104.5 654Q80 674 80 712Z" glyph-name="dotaccent.cap" horiz-adv-x="329" unicode="&#58408;" /><glyph d="M80 -124Q80 -85 104.5 -65.5Q129 -46 163 -46Q200 -46 224.5 -65.5Q249 -85 249 -124Q249 -162 224.5 -182Q200 -202 163 -202Q129 -202 104.5 -182Q80 -162 80 -124Z" glyph-name="dotbelow" horiz-adv-x="329" unicode="&#58389;" /><glyph d="M208 85Q212 81 219 79.5Q226 78 235 79Q244 80 253 84.5Q262 89 269 97L292 75Q255 -10 149 -10Q103 -10 76 10.5Q49 31 47 73Q47 82 47.5 94.5Q48 107 53 131L92 359Q75 365 60 359.5Q45 354 32 340L11 361Q23 396 57.5 421Q92 446 144 446Q195 446 222.5 424.5Q250 403 250 360Q250 352 248.5 337.5Q247 323 244 306Z" glyph-name="dotlessi" horiz-adv-x="309" unicode="&#305;" /><glyph d="M101 359Q70 370 41 340L20 361Q32 396 66.5 421Q101 446 153 446Q204 446 231.5 424.5Q259 403 259 360Q259 352 257.5 337.5Q256 323 254 306L199 -19Q191 -63 172 -100Q153 -137 121.5 -163.5Q90 -190 46 -205Q2 -220 -56 -220Q-110 -220 -142 -199.5Q-174 -179 -174 -139Q-174 -102 -152 -83Q-130 -64 -100 -64Q-68 -64 -52 -83Q-36 -102 -36 -129Q-36 -148 -41.5 -160Q-47 -172 -55 -180Q-30 -180 -8.5 -163.5Q13 -147 21 -102Z" glyph-name="dotlessj" horiz-adv-x="299" unicode="&#567;" /><glyph d="M253 701H322L189 -141H120ZM141 701H211L78 -141H9Z" glyph-name="doublebar" horiz-adv-x="288" unicode="&#8214;" /><glyph d="M235 701H304L177 -101H108ZM123 701H193L66 -101H-3Z" glyph-name="doublebar.cap" horiz-adv-x="270" unicode="&#58468;" /><glyph d="M231 628H301L181 -134H112ZM120 628H190L70 -134H1Z" glyph-name="doublebar.smcp" horiz-adv-x="281" unicode="&#58474;" /><glyph d="M289 568Q260 590 256 611Q252 632 280 657Q306 680 329.5 674Q353 668 368 636L433 507L405 481ZM114 568Q85 590 81 611Q77 632 105 657Q131 680 154.5 674Q178 668 193 636L258 507L230 481Z" glyph-name="doublegrave" horiz-adv-x="513" unicode="&#58386;" /><glyph d="M293 677Q259 691 251 710.5Q243 730 264 760Q284 790 308 789Q332 788 354 761L447 650L426 618ZM124 677Q90 691 82 710.5Q74 730 96 760Q116 790 140 789Q164 788 185 761L278 650L257 618Z" glyph-name="doublegrave.cap" horiz-adv-x="527" unicode="&#58412;" /><glyph d="M287 394Q252 394 228.5 349Q205 304 197 229Q323 231 323 347Q323 369 314.5 381.5Q306 394 287 394ZM448 321Q448 280 430 253Q412 226 379 210Q346 194 299.5 188Q253 182 196 182Q196 136 218.5 106Q241 76 292 76Q329 76 356.5 89.5Q384 103 412 129L436 109Q420 74 398.5 51Q377 28 351 14.5Q325 1 294.5 -4.5Q264 -10 230 -10Q186 -10 149 3Q112 16 86 41Q60 66 45.5 101.5Q31 137 31 182Q31 243 50 292Q69 341 104 375.5Q139 410 187 428Q235 446 294 446Q363 446 405.5 416Q448 386 448 321Z" glyph-name="e" horiz-adv-x="477" unicode="e" /><glyph d="M259 229 234 68 256 51H363L483 172L508 166L462 0H13L11 32L73 55L135 443L80 466L92 498H532L509 355L487 350L412 447H293L267 280H340L397 349L418 345L389 162L368 158L333 229Z" glyph-name="e.smcp" horiz-adv-x="543" unicode="&#57861;" /><glyph d="M250 559Q225 559 211 528Q197 497 192 443Q231 443 252 465Q273 487 273 529Q273 559 250 559ZM376 505Q376 475 363 456Q350 437 325.5 426.5Q301 416 267 412Q233 408 191 408Q192 381 209.5 361.5Q227 342 264 342Q292 342 313 351Q334 360 352 376L372 361Q359 335 342 318Q325 301 304 291.5Q283 282 259.5 278.5Q236 275 210 275Q140 275 95.5 312.5Q51 350 51 414Q51 461 66 495.5Q81 530 108 553Q135 576 172.5 587Q210 598 255 598Q308 598 342 576.5Q376 555 376 505Z" glyph-name="e.superior" horiz-adv-x="396" unicode="&#58213;" /><glyph d="M264 485 244 504 299 636Q306 653 318.5 664.5Q331 676 345 680.5Q359 685 374.5 682Q390 679 403 667Q431 642 426.5 611Q422 580 390 561ZM287 394Q252 394 228.5 349Q205 304 197 229Q323 231 323 347Q323 369 314.5 381.5Q306 394 287 394ZM448 321Q448 280 430 253Q412 226 379 210Q346 194 299.5 188Q253 182 196 182Q196 136 218.5 106Q241 76 292 76Q329 76 356.5 89.5Q384 103 412 129L436 109Q420 74 398.5 51Q377 28 351 14.5Q325 1 294.5 -4.5Q264 -10 230 -10Q186 -10 149 3Q112 16 86 41Q60 66 45.5 101.5Q31 137 31 182Q31 243 50 292Q69 341 104 375.5Q139 410 187 428Q235 446 294 446Q363 446 405.5 416Q448 386 448 321Z" glyph-name="eacute" horiz-adv-x="477" unicode="&#233;" /><glyph d="M259 229 234 68 256 51H363L483 172L508 166L462 0H13L11 32L73 55L135 443L80 466L92 498H532L509 355L487 350L412 447H293L267 280H340L397 349L418 345L389 162L368 158L333 229ZM309 545 289 564 344 696Q351 713 363.5 724.5Q376 736 390 740.5Q404 745 419.5 742Q435 739 448 727Q476 702 471.5 671Q467 640 435 621Z" glyph-name="eacute.smcp" horiz-adv-x="543" unicode="&#57917;" /><glyph d="M291 577Q336 577 366 601Q396 625 404 663H449Q447 628 435 596.5Q423 565 401 541.5Q379 518 348 504Q317 490 277 490Q217 490 185 523.5Q153 557 153 610Q153 622 154.5 635.5Q156 649 161 663H206Q201 625 223.5 601Q246 577 291 577ZM287 394Q252 394 228.5 349Q205 304 197 229Q323 231 323 347Q323 369 314.5 381.5Q306 394 287 394ZM448 321Q448 280 430 253Q412 226 379 210Q346 194 299.5 188Q253 182 196 182Q196 136 218.5 106Q241 76 292 76Q329 76 356.5 89.5Q384 103 412 129L436 109Q420 74 398.5 51Q377 28 351 14.5Q325 1 294.5 -4.5Q264 -10 230 -10Q186 -10 149 3Q112 16 86 41Q60 66 45.5 101.5Q31 137 31 182Q31 243 50 292Q69 341 104 375.5Q139 410 187 428Q235 446 294 446Q363 446 405.5 416Q448 386 448 321Z" glyph-name="ebreve" horiz-adv-x="477" unicode="&#277;" /><glyph d="M259 229 234 68 256 51H363L483 172L508 166L462 0H13L11 32L73 55L135 443L80 466L92 498H532L509 355L487 350L412 447H293L267 280H340L397 349L418 345L389 162L368 158L333 229ZM334 637Q379 637 409 661Q439 685 447 723H492Q490 688 478 656.5Q466 625 444 601.5Q422 578 391 564Q360 550 320 550Q260 550 228 583.5Q196 617 196 670Q196 682 197.5 695.5Q199 709 204 723H249Q244 685 266.5 661Q289 637 334 637Z" glyph-name="ebreve.smcp" horiz-adv-x="543" unicode="&#57923;" /><glyph d="M267 482 143 671H276L331 577L424 671H488L304 482ZM287 394Q252 394 228.5 349Q205 304 197 229Q323 231 323 347Q323 369 314.5 381.5Q306 394 287 394ZM448 321Q448 280 430 253Q412 226 379 210Q346 194 299.5 188Q253 182 196 182Q196 136 218.5 106Q241 76 292 76Q329 76 356.5 89.5Q384 103 412 129L436 109Q420 74 398.5 51Q377 28 351 14.5Q325 1 294.5 -4.5Q264 -10 230 -10Q186 -10 149 3Q112 16 86 41Q60 66 45.5 101.5Q31 137 31 182Q31 243 50 292Q69 341 104 375.5Q139 410 187 428Q235 446 294 446Q363 446 405.5 416Q448 386 448 321Z" glyph-name="ecaron" horiz-adv-x="477" unicode="&#283;" /><glyph d="M259 229 234 68 256 51H363L483 172L508 166L462 0H13L11 32L73 55L135 443L80 466L92 498H532L509 355L487 350L412 447H293L267 280H340L397 349L418 345L389 162L368 158L333 229ZM311 542 187 731H320L375 637L468 731H532L348 542Z" glyph-name="ecaron.smcp" horiz-adv-x="543" unicode="&#57921;" /><glyph d="M347 671 471 482H338L284 576L190 482H126L310 671ZM287 394Q252 394 228.5 349Q205 304 197 229Q323 231 323 347Q323 369 314.5 381.5Q306 394 287 394ZM448 321Q448 280 430 253Q412 226 379 210Q346 194 299.5 188Q253 182 196 182Q196 136 218.5 106Q241 76 292 76Q329 76 356.5 89.5Q384 103 412 129L436 109Q420 74 398.5 51Q377 28 351 14.5Q325 1 294.5 -4.5Q264 -10 230 -10Q186 -10 149 3Q112 16 86 41Q60 66 45.5 101.5Q31 137 31 182Q31 243 50 292Q69 341 104 375.5Q139 410 187 428Q235 446 294 446Q363 446 405.5 416Q448 386 448 321Z" glyph-name="ecircumflex" horiz-adv-x="477" unicode="&#234;" /><glyph d="M391 731 515 542H382L328 636L234 542H170L354 731ZM259 229 234 68 256 51H363L483 172L508 166L462 0H13L11 32L73 55L135 443L80 466L92 498H532L509 355L487 350L412 447H293L267 280H340L397 349L418 345L389 162L368 158L333 229Z" glyph-name="ecircumflex.smcp" horiz-adv-x="543" unicode="&#57919;" /><glyph d="M319 565Q319 600 341 618Q363 636 394 636Q428 636 450 618Q472 600 472 565Q472 531 450 513Q428 495 394 495Q363 495 341 513Q319 531 319 565ZM123 566Q123 601 145 619Q167 637 198 637Q232 637 253.5 619Q275 601 275 566Q275 531 253.5 513.5Q232 496 198 496Q167 496 145 513.5Q123 531 123 566ZM287 394Q252 394 228.5 349Q205 304 197 229Q323 231 323 347Q323 369 314.5 381.5Q306 394 287 394ZM448 321Q448 280 430 253Q412 226 379 210Q346 194 299.5 188Q253 182 196 182Q196 136 218.5 106Q241 76 292 76Q329 76 356.5 89.5Q384 103 412 129L436 109Q420 74 398.5 51Q377 28 351 14.5Q325 1 294.5 -4.5Q264 -10 230 -10Q186 -10 149 3Q112 16 86 41Q60 66 45.5 101.5Q31 137 31 182Q31 243 50 292Q69 341 104 375.5Q139 410 187 428Q235 446 294 446Q363 446 405.5 416Q448 386 448 321Z" glyph-name="edieresis" horiz-adv-x="477" unicode="&#235;" /><glyph d="M364 625Q364 660 386 678Q408 696 439 696Q473 696 495 678Q517 660 517 625Q517 591 495 573Q473 555 439 555Q408 555 386 573Q364 591 364 625ZM168 626Q168 661 190 679Q212 697 243 697Q277 697 298.5 679Q320 661 320 626Q320 591 298.5 573.5Q277 556 243 556Q212 556 190 573.5Q168 591 168 626ZM259 229 234 68 256 51H363L483 172L508 166L462 0H13L11 32L73 55L135 443L80 466L92 498H532L509 355L487 350L412 447H293L267 280H340L397 349L418 345L389 162L368 158L333 229Z" glyph-name="edieresis.smcp" horiz-adv-x="543" unicode="&#57904;" /><glyph d="M216 576Q216 615 241 634.5Q266 654 300 654Q337 654 361.5 634.5Q386 615 386 576Q386 537 361.5 517.5Q337 498 300 498Q266 498 241 517.5Q216 537 216 576ZM287 394Q252 394 228.5 349Q205 304 197 229Q323 231 323 347Q323 369 314.5 381.5Q306 394 287 394ZM448 321Q448 280 430 253Q412 226 379 210Q346 194 299.5 188Q253 182 196 182Q196 136 218.5 106Q241 76 292 76Q329 76 356.5 89.5Q384 103 412 129L436 109Q420 74 398.5 51Q377 28 351 14.5Q325 1 294.5 -4.5Q264 -10 230 -10Q186 -10 149 3Q112 16 86 41Q60 66 45.5 101.5Q31 137 31 182Q31 243 50 292Q69 341 104 375.5Q139 410 187 428Q235 446 294 446Q363 446 405.5 416Q448 386 448 321Z" glyph-name="edotaccent" horiz-adv-x="477" unicode="&#279;" /><glyph d="M261 636Q261 675 286 694.5Q311 714 345 714Q382 714 406.5 694.5Q431 675 431 636Q431 597 406.5 577.5Q382 558 345 558Q311 558 286 577.5Q261 597 261 636ZM259 229 234 68 256 51H363L483 172L508 166L462 0H13L11 32L73 55L135 443L80 466L92 498H532L509 355L487 350L412 447H293L267 280H340L397 349L418 345L389 162L368 158L333 229Z" glyph-name="edotaccent.smcp" horiz-adv-x="543" unicode="&#57926;" /><glyph d="M277 568Q248 590 244 611Q240 632 268 657Q294 680 317.5 674Q341 668 356 636L421 507L393 481ZM102 568Q73 590 69 611Q65 632 93 657Q119 680 142.5 674Q166 668 181 636L246 507L218 481ZM287 394Q252 394 228.5 349Q205 304 197 229Q323 231 323 347Q323 369 314.5 381.5Q306 394 287 394ZM448 321Q448 280 430 253Q412 226 379 210Q346 194 299.5 188Q253 182 196 182Q196 136 218.5 106Q241 76 292 76Q329 76 356.5 89.5Q384 103 412 129L436 109Q420 74 398.5 51Q377 28 351 14.5Q325 1 294.5 -4.5Q264 -10 230 -10Q186 -10 149 3Q112 16 86 41Q60 66 45.5 101.5Q31 137 31 182Q31 243 50 292Q69 341 104 375.5Q139 410 187 428Q235 446 294 446Q363 446 405.5 416Q448 386 448 321Z" glyph-name="edoublegrave" horiz-adv-x="477" unicode="&#513;" /><glyph d="M322 628Q293 650 289 671Q285 692 313 717Q339 740 362.5 734Q386 728 401 696L466 567L438 541ZM147 628Q118 650 114 671Q110 692 138 717Q164 740 187.5 734Q211 728 226 696L291 567L263 541ZM259 229 234 68 256 51H363L483 172L508 166L462 0H13L11 32L73 55L135 443L80 466L92 498H532L509 355L487 350L412 447H293L267 280H340L397 349L418 345L389 162L368 158L333 229Z" glyph-name="edoublegrave.smcp" horiz-adv-x="543" unicode="&#57925;" /><glyph d="M222 561Q190 580 185.5 611Q181 642 210 667Q223 679 238 682Q253 685 267.5 680.5Q282 676 294 664.5Q306 653 313 636L368 504L348 485ZM287 394Q252 394 228.5 349Q205 304 197 229Q323 231 323 347Q323 369 314.5 381.5Q306 394 287 394ZM448 321Q448 280 430 253Q412 226 379 210Q346 194 299.5 188Q253 182 196 182Q196 136 218.5 106Q241 76 292 76Q329 76 356.5 89.5Q384 103 412 129L436 109Q420 74 398.5 51Q377 28 351 14.5Q325 1 294.5 -4.5Q264 -10 230 -10Q186 -10 149 3Q112 16 86 41Q60 66 45.5 101.5Q31 137 31 182Q31 243 50 292Q69 341 104 375.5Q139 410 187 428Q235 446 294 446Q363 446 405.5 416Q448 386 448 321Z" glyph-name="egrave" horiz-adv-x="477" unicode="&#232;" /><glyph d="M259 229 234 68 256 51H363L483 172L508 166L462 0H13L11 32L73 55L135 443L80 466L92 498H532L509 355L487 350L412 447H293L267 280H340L397 349L418 345L389 162L368 158L333 229ZM266 621Q234 640 229.5 671Q225 702 254 727Q267 739 282 742Q297 745 311.5 740.5Q326 736 338 724.5Q350 713 357 696L412 564L392 545Z" glyph-name="egrave.smcp" horiz-adv-x="543" unicode="&#57918;" /><glyph d="M295 317Q315 317 333.5 328.5Q352 340 366 360.5Q380 381 388.5 409Q397 437 397 470Q397 506 381.5 527Q366 548 331 548Q290 548 262 505Q234 462 234 390Q234 358 248.5 337.5Q263 317 295 317ZM177 307Q133 322 110 354.5Q87 387 87 432Q87 468 103 498Q119 528 150.5 550.5Q182 573 227 585.5Q272 598 331 598Q383 598 422.5 586Q462 574 488 554Q514 534 527 506.5Q540 479 540 449Q540 422 530.5 396.5Q521 371 502.5 351Q484 331 455.5 317Q427 303 389 297V293Q446 282 475.5 246Q505 210 505 161Q505 117 485.5 85Q466 53 431.5 32Q397 11 348.5 0.5Q300 -10 242 -10Q192 -10 150.5 0Q109 10 79 29.5Q49 49 32.5 77.5Q16 106 16 143Q16 178 29 206Q42 234 64 254.5Q86 275 115 287.5Q144 300 177 303ZM279 274Q255 274 236 262.5Q217 251 204 231.5Q191 212 184 185Q177 158 177 127Q177 84 193 60.5Q209 37 241 37Q289 37 316.5 80.5Q344 124 344 191Q344 228 327.5 251Q311 274 279 274Z" glyph-name="eight" horiz-adv-x="566" unicode="8" /><glyph d="M205 -16Q227 -16 247.5 9Q268 34 268 76Q268 101 258 111Q248 121 231 121Q219 121 207.5 113.5Q196 106 187.5 94Q179 82 174 66Q169 50 169 32Q169 8 177 -4Q185 -16 205 -16ZM124 -24Q63 -8 63 55Q63 75 73 93Q83 111 103.5 124.5Q124 138 155 146Q186 154 229 154Q304 154 339.5 125Q375 96 375 58Q375 24 349.5 -0.5Q324 -25 271 -30V-34Q311 -39 332 -61.5Q353 -84 353 -115Q353 -170 304 -194Q255 -218 176 -218Q144 -218 115.5 -212Q87 -206 66 -194Q45 -182 32.5 -164Q20 -146 20 -122Q20 -80 49.5 -54.5Q79 -29 124 -28ZM197 -49Q182 -49 170 -56.5Q158 -64 149.5 -76Q141 -88 137 -103.5Q133 -119 133 -135Q133 -159 143 -172.5Q153 -186 172 -186Q196 -186 215 -162.5Q234 -139 234 -98Q234 -77 225.5 -63Q217 -49 197 -49Z" glyph-name="eight.inf" horiz-adv-x="401" unicode="&#58745;" /><glyph d="M310 578Q265 578 235 554Q205 530 197 492H152Q154 527 166 558.5Q178 590 199.5 613.5Q221 637 252 650.5Q283 664 323 664Q383 664 415.5 631Q448 598 448 545Q448 533 446.5 519.5Q445 506 440 492H395Q400 530 377.5 554Q355 578 310 578ZM287 394Q252 394 228.5 349Q205 304 197 229Q323 231 323 347Q323 369 314.5 381.5Q306 394 287 394ZM448 321Q448 280 430 253Q412 226 379 210Q346 194 299.5 188Q253 182 196 182Q196 136 218.5 106Q241 76 292 76Q329 76 356.5 89.5Q384 103 412 129L436 109Q420 74 398.5 51Q377 28 351 14.5Q325 1 294.5 -4.5Q264 -10 230 -10Q186 -10 149 3Q112 16 86 41Q60 66 45.5 101.5Q31 137 31 182Q31 243 50 292Q69 341 104 375.5Q139 410 187 428Q235 446 294 446Q363 446 405.5 416Q448 386 448 321Z" glyph-name="einvertedbreve" horiz-adv-x="477" unicode="&#519;" /><glyph d="M354 638Q309 638 279 614Q249 590 241 552H196Q198 587 210 618.5Q222 650 243.5 673.5Q265 697 296 710.5Q327 724 367 724Q427 724 459.5 691Q492 658 492 605Q492 593 490.5 579.5Q489 566 484 552H439Q444 590 421.5 614Q399 638 354 638ZM259 229 234 68 256 51H363L483 172L508 166L462 0H13L11 32L73 55L135 443L80 466L92 498H532L509 355L487 350L412 447H293L267 280H340L397 349L418 345L389 162L368 158L333 229Z" glyph-name="einvertedbreve.smcp" horiz-adv-x="543" unicode="&#57924;" /><glyph d="M572 77Q572 95 579 110.5Q586 126 597.5 137.5Q609 149 624.5 156Q640 163 657 163Q675 163 690.5 156Q706 149 718 137.5Q730 126 737 110.5Q744 95 744 77Q744 59 737 43.5Q730 28 718 16.5Q706 5 690.5 -1.5Q675 -8 657 -8Q640 -8 624.5 -1.5Q609 5 597.5 16.5Q586 28 579 43.5Q572 59 572 77ZM309 77Q309 95 315.5 110.5Q322 126 333.5 137.5Q345 149 360.5 156Q376 163 394 163Q412 163 427.5 156Q443 149 454.5 137.5Q466 126 473 110.5Q480 95 480 77Q480 59 473 43.5Q466 28 454.5 16.5Q443 5 427.5 -1.5Q412 -8 394 -8Q359 -8 334 17Q309 42 309 77ZM46 77Q46 95 52.5 110.5Q59 126 70.5 137.5Q82 149 97.5 156Q113 163 131 163Q149 163 164.5 156Q180 149 191.5 137.5Q203 126 210 110.5Q217 95 217 77Q217 59 210 43.5Q203 28 191.5 16.5Q180 5 164.5 -1.5Q149 -8 131 -8Q96 -8 71 17Q46 42 46 77Z" glyph-name="ellipsis" horiz-adv-x="790" unicode="&#8230;" /><glyph d="M146 508 155 585H443L433 508ZM287 394Q252 394 228.5 349Q205 304 197 229Q323 231 323 347Q323 369 314.5 381.5Q306 394 287 394ZM448 321Q448 280 430 253Q412 226 379 210Q346 194 299.5 188Q253 182 196 182Q196 136 218.5 106Q241 76 292 76Q329 76 356.5 89.5Q384 103 412 129L436 109Q420 74 398.5 51Q377 28 351 14.5Q325 1 294.5 -4.5Q264 -10 230 -10Q186 -10 149 3Q112 16 86 41Q60 66 45.5 101.5Q31 137 31 182Q31 243 50 292Q69 341 104 375.5Q139 410 187 428Q235 446 294 446Q363 446 405.5 416Q448 386 448 321Z" glyph-name="emacron" horiz-adv-x="477" unicode="&#275;" /><glyph d="M191 568 200 645H488L478 568ZM259 229 234 68 256 51H363L483 172L508 166L462 0H13L11 32L73 55L135 443L80 466L92 498H532L509 355L487 350L412 447H293L267 280H340L397 349L418 345L389 162L368 158L333 229Z" glyph-name="emacron.smcp" horiz-adv-x="543" unicode="&#57922;" /><glyph d="M50 272H960L950 194H40Z" glyph-name="emdash" horiz-adv-x="1000" unicode="&#8212;" /><glyph d="M51 332H961L951 254H41Z" glyph-name="emdash.cap" horiz-adv-x="1000" unicode="&#58502;" /><glyph glyph-name="emspace" horiz-adv-x="1000" unicode="&#8195;" /><glyph d="M50 272H460L450 194H40Z" glyph-name="endash" horiz-adv-x="500" unicode="&#8211;" /><glyph d="M51 332H461L451 254H41Z" glyph-name="endash.cap" horiz-adv-x="500" unicode="&#58500;" /><glyph d="M354 278Q359 307 347.5 322Q336 337 316 337Q293 337 278 325Q263 313 249 296L199 0H36L98 359Q79 364 65.5 359.5Q52 355 38 339L16 360Q31 403 68.5 424.5Q106 446 151 446Q202 446 227 421.5Q252 397 252 353H256Q277 392 314 419Q351 446 400 446Q457 446 489 415.5Q521 385 521 326Q521 309 518 290L463 -19Q455 -63 436 -100Q417 -137 386 -163.5Q355 -190 311 -205Q267 -220 209 -220Q155 -220 122.5 -199.5Q90 -179 90 -139Q90 -102 112 -83Q134 -64 164 -64Q197 -64 212.5 -83Q228 -102 228 -129Q228 -148 222.5 -160Q217 -172 209 -180Q235 -180 256.5 -163.5Q278 -147 286 -102Z" glyph-name="eng" horiz-adv-x="566" unicode="&#331;" /><glyph d="M235 270Q221 292 211.5 312.5Q202 333 197 350Q190 369 187 386H183Q182 361 180 335Q178 312 175 283.5Q172 255 167 225L140 55L216 32L202 0H13L11 32L72 55L134 443L80 466L92 498H290L414 283Q426 260 434.5 241Q443 222 448 208Q454 191 457 177H461Q461 197 463 222Q465 242 467 269.5Q469 297 474 327L492 443L427 466L439 498H628L631 466L557 443L492 27Q483 -33 469 -74.5Q455 -116 433 -142Q411 -168 380.5 -179.5Q350 -191 308 -191Q260 -191 228.5 -170.5Q197 -150 197 -109Q197 -71 218.5 -52.5Q240 -34 269 -34Q304 -34 320 -54.5Q336 -75 336 -100Q336 -123 327.5 -135.5Q319 -148 311 -153Q353 -153 373.5 -131Q394 -109 405 -60L415 -17Z" glyph-name="eng.smcp" horiz-adv-x="601" unicode="&#58155;" /><glyph glyph-name="enspace" horiz-adv-x="500" unicode="&#8194;" /><glyph d="M287 394Q252 394 228.5 349Q205 304 197 229Q323 231 323 347Q323 369 314.5 381.5Q306 394 287 394ZM114 -122Q114 -80 135.5 -52.5Q157 -25 189 -7Q117 4 74 53Q31 102 31 182Q31 243 50 292Q69 341 104 375.5Q139 410 187 428Q235 446 294 446Q363 446 405.5 416Q448 386 448 321Q448 280 430 253Q412 226 379 210Q346 194 299.5 188Q253 182 196 182Q196 136 218.5 106Q241 76 292 76Q329 76 356.5 89.5Q384 103 412 129L436 109Q424 82 409 64Q394 46 376.5 33.5Q359 21 340.5 13Q322 5 303 -1Q259 -15 242 -39.5Q225 -64 225 -92Q225 -116 241 -129.5Q257 -143 286 -143Q306 -143 329.5 -135.5Q353 -128 373 -112L390 -131Q369 -173 326.5 -196.5Q284 -220 235 -220Q210 -220 188 -214Q166 -208 149.5 -196Q133 -184 123.5 -165.5Q114 -147 114 -122Z" glyph-name="eogonek" horiz-adv-x="477" unicode="&#281;" /><glyph d="M209 -122Q209 -76 236.5 -46.5Q264 -17 302 0H13L11 32L73 55L135 443L80 466L92 498H532L509 355L487 350L412 447H293L267 280H340L397 349L418 345L389 162L368 158L333 229H259L234 68L256 51H363L483 172L508 166L462 0H408Q364 -16 342.5 -38Q321 -60 321 -92Q321 -116 336.5 -129.5Q352 -143 382 -143Q402 -143 425 -135.5Q448 -128 468 -112L486 -131Q464 -173 422 -196.5Q380 -220 330 -220Q305 -220 283 -214Q261 -208 244.5 -196Q228 -184 218.5 -165.5Q209 -147 209 -122Z" glyph-name="eogonek.smcp" horiz-adv-x="543" unicode="&#57929;" /><glyph d="M58 322 70 396H456L444 322ZM35 179 47 254H433L421 179Z" glyph-name="equal" horiz-adv-x="501" unicode="=" /><glyph d="M74 23 85 95H458L447 23ZM51 -118 62 -47H436L424 -118Z" glyph-name="equal.inf" horiz-adv-x="509" unicode="&#58749;" /><glyph d="M334 546Q239 546 182 489V320H487V489Q430 546 334 546ZM334 598Q407 598 460 572.5Q513 547 547 504.5Q581 462 597 407.5Q613 353 613 295V269H182V101Q210 74 247.5 59Q285 44 334 44Q401 44 446.5 71Q492 98 518 146H584Q555 78 493.5 34.5Q432 -9 334 -9Q261 -9 208.5 17Q156 43 122 85.5Q88 128 72 182.5Q56 237 56 295Q56 353 72 407.5Q88 462 122 504.5Q156 547 208.5 572.5Q261 598 334 598Z" glyph-name="estimated" horiz-adv-x="647" unicode="&#8494;" /><glyph d="M350 308Q350 347 347 382Q338 387 328.5 389Q319 391 308 391Q276 391 255.5 367.5Q235 344 223 308Q211 272 206 228Q201 184 201 143Q201 87 214.5 64Q228 41 251 41Q276 41 294.5 60Q313 79 325.5 114Q338 149 344 198.5Q350 248 350 308ZM249 583Q223 604 187.5 622.5Q152 641 106 659L114 692Q184 683 240.5 664Q297 645 342 617L447 655L462 609L389 583Q458 525 489 450.5Q520 376 520 298Q520 219 496.5 161Q473 103 434 65Q395 27 345.5 8.5Q296 -10 244 -10Q143 -10 87 41.5Q31 93 31 184Q31 242 50 290.5Q69 339 103.5 373.5Q138 408 186 427Q234 446 292 446Q303 446 315.5 444.5Q328 443 339 439Q324 501 287 547L123 489L107 532Z" glyph-name="eth" horiz-adv-x="551" unicode="&#240;" /><glyph d="M257 44Q339 44 377.5 108Q416 172 427 288Q431 337 424.5 368.5Q418 400 402 418.5Q386 437 362.5 444Q339 451 310 451H294L267 280H354L345 229H259L232 59ZM46 280H108L134 443L80 466L92 498H326Q383 498 431.5 487Q480 476 515.5 452Q551 428 571.5 388.5Q592 349 592 292Q592 211 563.5 155Q535 99 488.5 64.5Q442 30 382.5 15Q323 0 260 0H13L11 32L72 55L100 229H37Z" glyph-name="eth.smcp" horiz-adv-x="622" unicode="&#58156;" /><glyph d="M39 77Q39 95 46 110.5Q53 126 64.5 137.5Q76 149 91.5 156Q107 163 125 163Q142 163 157.5 156Q173 149 185 137.5Q197 126 204 110.5Q211 95 211 77Q211 59 204 43.5Q197 28 185 16.5Q173 5 157.5 -1.5Q142 -8 125 -8Q107 -8 91.5 -1.5Q76 5 64.5 16.5Q53 28 46 43.5Q39 59 39 77ZM108 520 120 588H293L280 520L167 208H119Z" glyph-name="exclam" horiz-adv-x="285" unicode="!" /><glyph d="M40 69Q40 101 63 124Q86 147 118 147Q134 147 148 141Q162 135 172.5 124.5Q183 114 189.5 99.5Q196 85 196 69Q196 53 189.5 39Q183 25 172.5 14.5Q162 4 148 -2Q134 -8 118 -8Q86 -8 63 14.5Q40 37 40 69ZM94 420 109 498H282L267 420L161 189H113Z" glyph-name="exclam.smcp" horiz-adv-x="293" unicode="&#58434;" /><glyph d="M247 363Q247 345 240 329.5Q233 314 221.5 302.5Q210 291 194.5 284Q179 277 161 277Q144 277 128.5 284Q113 291 101 302.5Q89 314 82 329.5Q75 345 75 363Q75 381 82 396.5Q89 412 101 423.5Q113 435 128.5 441.5Q144 448 161 448Q179 448 194.5 441.5Q210 435 221.5 423.5Q233 412 240 396.5Q247 381 247 363ZM178 -80 166 -148H-7L6 -80L119 232H167Z" glyph-name="exclamdown" horiz-adv-x="266" unicode="&#161;" /><glyph d="M279 503Q279 485 272 469.5Q265 454 253.5 442.5Q242 431 226.5 424Q211 417 193 417Q176 417 160.5 424Q145 431 133 442.5Q121 454 114 469.5Q107 485 107 503Q107 521 114 536.5Q121 552 133 563.5Q145 575 160.5 581.5Q176 588 193 588Q211 588 226.5 581.5Q242 575 253.5 563.5Q265 552 272 536.5Q279 521 279 503ZM210 60 198 -8H25L38 60L151 372H199Z" glyph-name="exclamdown.cap" horiz-adv-x="285" unicode="&#58433;" /><glyph d="M264 429Q264 397 241 374Q218 351 186 351Q170 351 156 357Q142 363 131.5 373.5Q121 384 114.5 398.5Q108 413 108 429Q108 445 114.5 459Q121 473 131.5 483.5Q142 494 156 500Q170 506 186 506Q218 506 241 483.5Q264 461 264 429ZM210 78 195 0H22L37 78L143 309H191Z" glyph-name="exclamdown.smcp" horiz-adv-x="293" unicode="&#58435;" /><glyph d="M254 155V151Q318 142 354 103Q390 64 390 5Q390 -52 365.5 -90Q341 -128 303 -150Q265 -172 219.5 -181Q174 -190 133 -190Q92 -190 61 -180.5Q30 -171 10 -155Q-10 -139 -20 -117.5Q-30 -96 -30 -73Q-30 -39 -10 -17.5Q10 4 42 4Q72 4 88.5 -15.5Q105 -35 105 -59Q105 -85 89 -101.5Q73 -118 49 -118Q68 -152 126 -152Q174 -152 204.5 -120Q235 -88 235 -22Q235 40 194 73.5Q153 107 88 116L84 144L255 393H142L45 283L23 287L51 436H445L449 422Z" glyph-name="ezh" horiz-adv-x="465" unicode="&#658;" /><glyph d="M263 172Q322 158 356 115Q390 72 390 5Q390 -52 365.5 -89.5Q341 -127 303 -149.5Q265 -172 219.5 -181Q174 -190 133 -190Q92 -190 61 -180.5Q30 -171 10 -155Q-10 -139 -20 -117.5Q-30 -96 -30 -73Q-30 -39 -10 -17.5Q10 4 42 4Q72 4 88.5 -15.5Q105 -35 105 -59Q105 -85 89 -101.5Q73 -118 49 -118Q68 -152 126 -152Q174 -152 204.5 -116.5Q235 -81 235 -15Q235 48 199 88Q163 128 97 137L93 165L303 455H175L78 335L55 339L83 498H493L497 484L263 176Z" glyph-name="ezh.smcp" horiz-adv-x="477" unicode="&#58158;" /><glyph d="M249 482 125 671H258L313 577L406 671H470L286 482ZM254 155V151Q318 142 354 103Q390 64 390 5Q390 -52 365.5 -90Q341 -128 303 -150Q265 -172 219.5 -181Q174 -190 133 -190Q92 -190 61 -180.5Q30 -171 10 -155Q-10 -139 -20 -117.5Q-30 -96 -30 -73Q-30 -39 -10 -17.5Q10 4 42 4Q72 4 88.5 -15.5Q105 -35 105 -59Q105 -85 89 -101.5Q73 -118 49 -118Q68 -152 126 -152Q174 -152 204.5 -120Q235 -88 235 -22Q235 40 194 73.5Q153 107 88 116L84 144L255 393H142L45 283L23 287L51 436H445L449 422Z" glyph-name="ezhcaron" horiz-adv-x="465" unicode="&#495;" /></font>
</defs>
</svg>
