<?xml version="1.0" encoding="utf-8"?>
<!-- Generator: Adobe Illustrator 19.1.0, SVG Export Plug-In . SVG Version: 6.00 Build 0)  -->
<!DOCTYPE svg PUBLIC "-//W3C//DTD SVG 1.1//EN" "http://www.w3.org/Graphics/SVG/1.1/DTD/svg11.dtd">
<svg version="1.1" id="Layer_1" xmlns="http://www.w3.org/2000/svg" xmlns:xlink="http://www.w3.org/1999/xlink" x="0px" y="0px"
	 viewBox="0 0 40 40" style="enable-background:new 0 0 40 40;" xml:space="preserve">
<style type="text/css">
	.st0{fill:#FFFFFF;}
	.st1{fill:#AAAFB8;}
	.st2{fill:#D90037;}
	.st3{fill:#A4B2BB;}
	.st4{fill:#8997A0;}
</style>
<g>
	<g>
		<path class="st0" d="M4,39.5c-1.9,0-3.5-1.6-3.5-3.5V26c0-1.9,1.6-3.5,3.5-3.5h10c1.9,0,3.5,1.6,3.5,3.5v10c0,1.9-1.6,3.5-3.5,3.5
			H4z"/>
		<path class="st1" d="M14,23c1.7,0,3,1.3,3,3v10c0,1.7-1.3,3-3,3H4c-1.7,0-3-1.3-3-3V26c0-1.7,1.3-3,3-3H14 M14,22H4
			c-2.2,0-4,1.8-4,4v10c0,2.2,1.8,4,4,4h10c2.2,0,4-1.8,4-4V26C18,23.8,16.2,22,14,22L14,22z"/>
	</g>
	<g>
		<g>
			<path class="st0" d="M26,17.5c-1.9,0-3.5-1.6-3.5-3.5V4c0-1.9,1.6-3.5,3.5-3.5h10c1.9,0,3.5,1.6,3.5,3.5v10
				c0,1.9-1.6,3.5-3.5,3.5H26z"/>
			<path class="st1" d="M36,1c1.7,0,3,1.3,3,3v10c0,1.7-1.3,3-3,3H26c-1.7,0-3-1.3-3-3V4c0-1.7,1.3-3,3-3H36 M36,0H26
				c-2.2,0-4,1.8-4,4v10c0,2.2,1.8,4,4,4h10c2.2,0,4-1.8,4-4V4C40,1.8,38.2,0,36,0L36,0z"/>
		</g>
		<path class="st2" d="M29,13.7c-0.3,0-0.6-0.1-0.9-0.4l-2.8-2.8c-0.5-0.5-0.5-1.3,0-1.8c0.5-0.5,1.3-0.5,1.8,0l2,2l6-6
			c0.5-0.5,1.3-0.5,1.8,0c0.5,0.5,0.5,1.3,0,1.8l-6.8,6.8C29.6,13.5,29.3,13.7,29,13.7z"/>
	</g>
</g>
</svg>
