<?xml version="1.0" encoding="utf-8"?>
<!-- Generator: Adobe Illustrator 20.0.0, SVG Export Plug-In . SVG Version: 6.00 Build 0)  -->
<svg version="1.1" id="Layer_1" xmlns="http://www.w3.org/2000/svg" xmlns:xlink="http://www.w3.org/1999/xlink" x="0px" y="0px"
	 viewBox="0 0 14 14" style="enable-background:new 0 0 14 14;" xml:space="preserve">
<style type="text/css">
	.st0{fill:#808080;}
	.st1{fill:#FFFFFF;}
</style>
<g>
	<circle class="st0" cx="7" cy="7" r="7"/>
	<path class="st1" d="M3.8,4.3C3.7,4.4,3.7,4.5,3.9,4.7l1.2,0.9c0,0,0.1,0.1,0.2,0.1c0.1,0,0.2,0,0.2-0.1c0.3-0.4,0.6-0.7,0.8-0.8
		C6.5,4.5,6.7,4.5,7,4.5c0.3,0,0.6,0.1,0.8,0.2C8.1,4.9,8.2,5,8.2,5.2c0,0.2-0.1,0.4-0.2,0.6C7.9,5.9,7.7,6.1,7.4,6.2
		C7,6.4,6.6,6.6,6.3,7S5.8,7.7,5.8,8.1v0.3c0,0.1,0,0.2,0.1,0.2C6,8.7,6,8.8,6.1,8.8h1.8c0.1,0,0.2,0,0.2-0.1
		c0.1-0.1,0.1-0.1,0.1-0.2c0-0.1,0.1-0.3,0.2-0.5c0.1-0.2,0.3-0.3,0.5-0.5c0.2-0.1,0.3-0.2,0.4-0.3C9.4,7.2,9.5,7.1,9.7,7
		c0.2-0.1,0.3-0.3,0.4-0.4c0.1-0.1,0.2-0.3,0.3-0.6c0.1-0.2,0.1-0.5,0.1-0.7c0-0.5-0.2-1-0.5-1.5C9.7,3.3,9.2,3,8.7,2.7
		c-0.5-0.2-1-0.4-1.5-0.4C5.7,2.3,4.6,3,3.8,4.3L3.8,4.3z M5.8,11.4c0,0.1,0,0.2,0.1,0.2C6,11.6,6,11.7,6.1,11.7h1.8
		c0.1,0,0.2,0,0.2-0.1c0.1-0.1,0.1-0.1,0.1-0.2V9.6c0-0.1,0-0.2-0.1-0.2C8,9.4,8,9.3,7.9,9.3H6.1C6,9.3,6,9.4,5.9,9.4
		C5.9,9.5,5.8,9.5,5.8,9.6V11.4z"/>
</g>
</svg>
