<?xml version="1.0" encoding="utf-8"?>
<!-- Generator: Adobe Illustrator 19.1.0, SVG Export Plug-In . SVG Version: 6.00 Build 0)  -->
<!DOCTYPE svg PUBLIC "-//W3C//DTD SVG 1.1//EN" "http://www.w3.org/Graphics/SVG/1.1/DTD/svg11.dtd">
<svg version="1.1" id="Layer_1" xmlns="http://www.w3.org/2000/svg" xmlns:xlink="http://www.w3.org/1999/xlink" x="0px" y="0px"
	 viewBox="0 0 40 40" style="enable-background:new 0 0 40 40;" xml:space="preserve">
<style type="text/css">
	.st0{fill:#FFFFFF;}
	.st1{fill:#AAAFB8;}
	.st2{fill:#D90037;}
	.st3{fill:#A4B2BB;}
	.st4{fill:#8997A0;}
</style>
<g>
	<g>
		<path class="st0" d="M9,39.5c-4.7,0-8.5-3.8-8.5-8.5s3.8-8.5,8.5-8.5s8.5,3.8,8.5,8.5S13.7,39.5,9,39.5z"/>
		<path class="st1" d="M9,23c4.4,0,8,3.6,8,8s-3.6,8-8,8s-8-3.6-8-8S4.6,23,9,23 M9,22c-5,0-9,4-9,9s4,9,9,9s9-4,9-9S14,22,9,22
			L9,22z"/>
	</g>
	<g>
		<g>
			<path class="st0" d="M31,17.5c-4.7,0-8.5-3.8-8.5-8.5s3.8-8.5,8.5-8.5s8.5,3.8,8.5,8.5S35.7,17.5,31,17.5z"/>
			<path class="st1" d="M31,1c4.4,0,8,3.6,8,8s-3.6,8-8,8s-8-3.6-8-8S26.6,1,31,1 M31,0c-5,0-9,4-9,9s4,9,9,9s9-4,9-9S36,0,31,0
				L31,0z"/>
		</g>
		<g>
			<circle class="st2" cx="31" cy="9" r="4"/>
		</g>
	</g>
</g>
</svg>
