<?xml version="1.0" standalone="no"?>
<!DOCTYPE svg PUBLIC "-//W3C//DTD SVG 1.1//EN" "http://www.w3.org/Graphics/SVG/1.1/DTD/svg11.dtd" >
<svg xmlns="http://www.w3.org/2000/svg">
<metadata></metadata>
<defs>
<font id="lettermedium" horiz-adv-x="1202" >
<font-face units-per-em="2048" ascent="1638" descent="-410" />
<missing-glyph horiz-adv-x="552" />
<glyph unicode="&#xfb01;" horiz-adv-x="1247" d="M45 901v174h178v96q0 150 90.5 232t255.5 82q109 0 174 -23l-26 -180q-81 21 -129 21q-70 0 -103.5 -29t-33.5 -96v-103h241v-174h-241v-901h-228v901h-178zM872 0v1075h226v-1075h-226zM872 1249v213h226v-213h-226z" />
<glyph unicode="&#xfb02;" horiz-adv-x="1255" d="M45 901v174h178v96q0 150 90.5 232t255.5 82q109 0 174 -23l-26 -180q-81 21 -129 21q-70 0 -103.5 -29t-33.5 -96v-103h241v-174h-241v-901h-228v901h-178zM879 0v1462h225v-1462h-225z" />
<glyph horiz-adv-x="0" />
<glyph horiz-adv-x="682" />
<glyph horiz-adv-x="0" />
<glyph horiz-adv-x="0" />
<glyph horiz-adv-x="552" />
<glyph unicode="&#xd;" horiz-adv-x="552" />
<glyph unicode=" "  horiz-adv-x="552" />
<glyph unicode="&#x09;" horiz-adv-x="552" />
<glyph unicode="&#xa0;" horiz-adv-x="552" />
<glyph unicode="!" horiz-adv-x="569" d="M160 0v256h250v-256h-250zM160 1051v313h250v-313l-66 -623h-119z" />
<glyph unicode="&#x22;" horiz-adv-x="858" d="M92 1286v78h254v-78l-72 -455h-110zM512 1286v78h254v-78l-72 -455h-110z" />
<glyph unicode="#" horiz-adv-x="1308" d="M76 381v135h254l61 334h-231v135h254l69 379h150l-68 -379h285l70 379h149l-70 -379h232v-135h-254l-59 -334h231v-135h-256l-68 -381h-151l69 381h-286l-68 -381h-149l67 381h-231zM481 516h287l59 334h-286z" />
<glyph unicode="$" d="M55 274l185 103q102 -183 323 -211v432q-47 10 -86.5 21t-86.5 29.5t-84 39.5t-73.5 52t-60 67.5t-38.5 85.5t-15 106q0 172 122.5 277t321.5 113v131h115v-136q129 -14 239 -76t185 -169l-166 -107q-104 131 -258 160v-389q74 -18 132 -37.5t120.5 -53.5t103.5 -76 t67.5 -104.5t26.5 -138.5q0 -169 -121 -283t-329 -133v-174h-115v174q-175 10 -305.5 88t-202.5 209zM340 1022q0 -82 54.5 -122.5t168.5 -70.5v371q-98 -5 -160.5 -48.5t-62.5 -129.5zM678 166q109 8 170 62t61 145q0 86 -56.5 128t-174.5 72v-407z" />
<glyph unicode="%" horiz-adv-x="1593" d="M72 1040q0 146 94.5 244t239.5 98t239 -98t94 -244q0 -147 -94 -245.5t-239 -98.5t-239.5 98.5t-94.5 245.5zM225 1040q0 -81 50.5 -135.5t130.5 -54.5q78 0 128 54.5t50 135.5t-50 135t-128 54q-80 0 -130.5 -54t-50.5 -135zM352 0l715 1364h176l-717 -1364h-174z M856 326q0 146 95 244t239 98q145 0 239.5 -98t94.5 -244q0 -147 -94.5 -245.5t-239.5 -98.5q-144 0 -239 98.5t-95 245.5zM1012 326q0 -81 50 -136t128 -55t129 55t51 136q0 80 -50.5 134t-129.5 54t-128.5 -53.5t-49.5 -134.5z" />
<glyph unicode="&#x26;" horiz-adv-x="1402" d="M61 367q0 254 304 381q-79 88 -113.5 155t-34.5 152q0 159 110 246.5t285 87.5q169 0 278 -85t109 -233q0 -122 -78.5 -211t-230.5 -158l295 -299q83 123 117 248l198 -47q-58 -197 -178 -342l260 -262h-297l-118 119q-189 -144 -418 -144q-137 0 -246.5 45t-175.5 135.5 t-66 211.5zM289 393q0 -101 79 -164t207 -63q142 0 259 92l-355 367q-88 -42 -139 -97t-51 -135zM428 1059q0 -59 34 -110t107 -126q54 25 91 46.5t71.5 50.5t52 64.5t17.5 76.5q0 74 -53.5 116t-133.5 42q-78 0 -132 -42t-54 -118z" />
<glyph unicode="'" horiz-adv-x="436" d="M92 1286v78h252v-78l-72 -455h-110z" />
<glyph unicode="(" horiz-adv-x="608" d="M76 621q0 491 354 874l139 -102q-295 -337 -295 -772q0 -436 295 -773l-139 -102q-354 386 -354 875z" />
<glyph unicode=")" horiz-adv-x="608" d="M39 -152q297 336 297 773q0 436 -297 772l141 102q352 -386 352 -874q0 -491 -352 -875z" />
<glyph unicode="*" horiz-adv-x="927" d="M84 897q77 46 136.5 70.5t172.5 56.5q-113 34 -172.5 58t-136.5 69l80 139q76 -42 127 -82t137 -123q-28 113 -36.5 177.5t-8.5 154.5h160q0 -92 -8 -156.5t-35 -175.5q86 82 137 122.5t125 82.5l82 -139q-79 -45 -138 -69t-171 -58q112 -32 171.5 -56.5t137.5 -70.5 l-82 -137q-73 42 -124 81.5t-138 121.5q27 -111 35 -174.5t8 -157.5h-160q0 91 8.5 154.5t36.5 177.5q-88 -82 -139 -122t-125 -81z" />
<glyph unicode="+" d="M98 526v193h406v407h194v-407h406v-193h-406v-405h-194v405h-406z" />
<glyph unicode="," horiz-adv-x="528" d="M127 -240q59 42 93 98t34 109v33h-121v258h262v-217q0 -114 -45.5 -202.5t-144.5 -166.5z" />
<glyph unicode="-" horiz-adv-x="819" d="M119 475v201h581v-201h-581z" />
<glyph unicode="." horiz-adv-x="528" d="M133 0v258h262v-258h-262z" />
<glyph unicode="/" horiz-adv-x="763" d="M66 -221l450 1683h186l-450 -1683h-186z" />
<glyph unicode="0" d="M88 684q0 111 15 208.5t52 191t93.5 160t146 107t203.5 40.5q115 0 205 -40.5t147 -107t94.5 -160t52.5 -191.5t15 -208q0 -111 -15 -209.5t-52.5 -191.5t-94.5 -160t-147 -107.5t-205 -40.5q-114 0 -203.5 40.5t-146 107t-93.5 160t-52 192t-15 209.5zM330 684 q0 -510 268 -510t268 510q0 506 -268 506t-268 -506z" />
<glyph unicode="1" d="M168 1190q301 55 422 174h180v-1165h317v-199h-890v199h335v897q-57 -28 -151 -54t-184 -36z" />
<glyph unicode="2" d="M84 1104q86 134 212 209.5t288 75.5q205 0 337 -116t132 -310q0 -176 -137 -348.5t-451 -405.5h639v-209h-985v170q261 208 402.5 340.5t210.5 238.5t69 201q0 109 -66 167.5t-172 58.5q-93 0 -168 -50t-121 -133z" />
<glyph unicode="3" d="M63 279l209 98q45 -95 128 -144t194 -49q124 0 192 59.5t68 159.5q0 95 -70 148t-206 53h-111v199h115q114 0 174.5 52.5t60.5 141.5q0 86 -61 134.5t-168 48.5q-200 0 -309 -168l-181 112q184 265 502 265q203 0 331 -102.5t128 -262.5q0 -103 -54 -179.5t-147 -121.5 q117 -45 179.5 -132.5t62.5 -197.5q0 -178 -137.5 -298t-368.5 -120q-374 0 -531 304z" />
<glyph unicode="4" d="M61 305v187q127 225 196 459.5t69 412.5h233q0 -178 -72.5 -410.5t-199.5 -445.5h428v567h233v-567h193v-203h-193v-305h-233v305h-654z" />
<glyph unicode="5" d="M80 248l199 112q46 -88 123.5 -131t175.5 -43q125 0 201.5 70t76.5 190q0 117 -73.5 185.5t-202.5 68.5q-174 0 -277 -127l-143 66l47 725h819v-217h-627l-30 -334q111 78 272 78q199 0 330 -120.5t131 -319.5q0 -94 -34 -179t-97 -151.5t-162.5 -106t-222.5 -39.5 q-347 0 -506 273z" />
<glyph unicode="6" d="M100 492q0 123 35 242.5t101 229t145.5 205t183.5 195.5h336q-156 -120 -289.5 -266.5t-191.5 -276.5q47 48 121 70t149 22q190 0 314 -124.5t124 -327.5q0 -216 -141.5 -351t-372.5 -135q-237 0 -375.5 135.5t-138.5 381.5zM346 457q0 -124 71 -197.5t199 -73.5 q125 0 195 73.5t70 197.5q0 123 -69.5 195.5t-195.5 72.5q-128 0 -199 -73.5t-71 -194.5z" />
<glyph unicode="7" d="M94 1155v209h1016v-172q-537 -715 -545 -1192h-264q20 494 528 1155h-735z" />
<glyph unicode="8" d="M84 387q0 116 62 208t178 138q-191 93 -191 293q0 164 134 263.5t335 99.5q130 0 236 -43.5t168.5 -127t62.5 -192.5q0 -201 -190 -293q116 -46 177.5 -137.5t61.5 -208.5q0 -180 -138 -296t-378 -116q-241 0 -379.5 116t-138.5 296zM332 403q0 -110 71.5 -170.5 t198.5 -60.5q126 0 197 60t71 171q0 108 -69.5 169t-198.5 61t-199.5 -61t-70.5 -169zM375 1001q0 -90 60.5 -139t164.5 -49q105 0 166 48.5t61 139.5q0 90 -61.5 140.5t-163.5 50.5q-103 0 -165 -50t-62 -141z" />
<glyph unicode="9" d="M72 903q0 216 142.5 351t373.5 135q236 0 375 -136t139 -381q0 -123 -35 -242t-102 -228.5t-146 -204.5t-184 -197h-336q155 118 289 264.5t194 276.5q-47 -47 -121 -68.5t-149 -21.5q-191 0 -315.5 124t-124.5 328zM322 907q0 -124 68.5 -196t195.5 -72q128 0 199 73.5 t71 194.5q0 124 -71 197.5t-199 73.5q-126 0 -195 -73.5t-69 -197.5z" />
<glyph unicode=":" horiz-adv-x="606" d="M172 0v258h262v-258h-262zM172 817v258h262v-258h-262z" />
<glyph unicode=";" horiz-adv-x="606" d="M166 -240q59 42 93 98t34 109v33h-121v258h262v-217q0 -114 -45.5 -202.5t-144.5 -166.5zM172 817v258h262v-258h-262z" />
<glyph unicode="&#x3c;" d="M211 625l594 592l133 -134l-455 -458l455 -457l-133 -133z" />
<glyph unicode="=" d="M98 319v195h1006v-195h-1006zM98 733v193h1006v-193h-1006z" />
<glyph unicode="&#x3e;" d="M264 168l459 457l-459 458l133 134l594 -592l-594 -590z" />
<glyph unicode="?" horiz-adv-x="1087" d="M61 1210q207 181 461 181q207 0 340 -113.5t133 -306.5q0 -178 -117 -290.5t-300 -143.5v-109h-224v303q36 -10 90 -10q137 0 221.5 64t84.5 178q0 98 -67 157.5t-183 59.5q-173 0 -307 -125zM336 0v242h262v-242h-262z" />
<glyph unicode="@" horiz-adv-x="1736" d="M86 616q0 160 57.5 302t160 246.5t252 165.5t323.5 61q173 0 320.5 -60.5t248.5 -163.5t158 -242.5t57 -295.5q0 -191 -91.5 -305.5t-246.5 -114.5q-171 0 -235 135q-96 -139 -271 -139q-160 0 -256 115t-96 290q0 177 96.5 292.5t257.5 115.5q137 0 228 -107v90h184 v-546q0 -127 115 -127q88 0 135 79t47 209q0 185 -78 332.5t-226.5 232.5t-342.5 85q-191 0 -341 -89.5t-229.5 -237t-79.5 -323.5q0 -134 47 -252.5t130 -206.5t206 -139t267 -51q185 0 325 88l60 -110q-187 -101 -394 -101q-173 0 -320.5 59.5t-250 162.5t-160 245.5 t-57.5 304.5zM657 610q0 -107 50.5 -176t144.5 -69t145.5 69.5t51.5 175.5q0 108 -52 178t-147 70q-93 0 -143 -70t-50 -178z" />
<glyph unicode="A" horiz-adv-x="1384" d="M16 0l535 1364h283l534 -1364h-268l-129 348h-565l-130 -348h-260zM469 549h436l-215 604z" />
<glyph unicode="B" horiz-adv-x="1363" d="M170 0v1364h598q215 0 333 -88.5t118 -247.5q0 -97 -48 -173t-131 -120q114 -47 173 -136t59 -206q0 -175 -120.5 -284t-340.5 -109h-641zM410 211h389q107 0 166 52.5t59 146.5q0 92 -56.5 148t-162.5 56h-395v-403zM410 811h354q101 0 157 48.5t56 133.5 q0 160 -221 160h-346v-342z" />
<glyph unicode="C" horiz-adv-x="1386" d="M88 684q0 204 83.5 364.5t236.5 250.5t350 90q366 0 559 -297l-189 -121q-128 205 -364 205q-193 0 -309.5 -135.5t-116.5 -354.5q0 -223 116 -360.5t308 -137.5q233 0 364 215l199 -114q-93 -151 -235.5 -232.5t-329.5 -81.5q-198 0 -351 90t-237 251.5t-84 367.5z" />
<glyph unicode="D" horiz-adv-x="1476" d="M170 0v1364h541q160 0 289 -52t213 -143.5t128.5 -216t44.5 -270.5t-45 -270t-128.5 -216t-212.5 -144t-289 -52h-541zM412 217h299q206 0 316 124.5t110 340.5t-110 340.5t-316 124.5h-299v-930z" />
<glyph unicode="E" horiz-adv-x="1271" d="M170 0v1364h993v-209h-753v-332h655v-209h-655v-405h774v-209h-1014z" />
<glyph unicode="F" horiz-adv-x="1239" d="M170 0v1364h1012v-209h-772v-352h653v-209h-653v-594h-240z" />
<glyph unicode="G" horiz-adv-x="1478" d="M88 684q0 207 83.5 367t237.5 249t355 89q181 0 322.5 -76.5t232.5 -216.5l-197 -119q-58 98 -150 148.5t-210 50.5q-198 0 -311 -135.5t-113 -356.5q0 -230 115 -363t315 -133q162 0 271 87t122 239h-377v209h613q10 -48 10 -111q0 -131 -43 -246.5t-122.5 -202.5 t-203 -137.5t-274.5 -50.5q-202 0 -356 90.5t-237 251.5t-83 367z" />
<glyph unicode="H" horiz-adv-x="1497" d="M170 0v1364h240v-537h675v537h242v-1364h-242v612h-675v-612h-240z" />
<glyph unicode="I" horiz-adv-x="577" d="M170 0v1364h238v-1364h-238z" />
<glyph unicode="J" horiz-adv-x="1052" d="M12 211l195 117q80 -138 229 -138q112 0 165.5 65.5t53.5 184.5v924h240v-920q0 -225 -125 -347t-336 -122q-294 0 -422 236z" />
<glyph unicode="K" horiz-adv-x="1349" d="M170 0v1364h238v-682l608 682h289l-508 -567l561 -797h-285l-440 623l-225 -252v-371h-238z" />
<glyph unicode="L" horiz-adv-x="1171" d="M170 0v1364h238v-1147h733v-217h-971z" />
<glyph unicode="M" horiz-adv-x="1816" d="M170 0v1364h352l389 -1065l389 1065h347v-1364h-234v1112l-405 -1112h-201l-404 1110v-1110h-233z" />
<glyph unicode="N" horiz-adv-x="1497" d="M170 0v1364h303l625 -1032v1032h229v-1364h-287l-641 1057v-1057h-229z" />
<glyph unicode="O" horiz-adv-x="1527" d="M86 682q0 149 47.5 278.5t134 224.5t214.5 149.5t282 54.5t282 -54.5t214.5 -149.5t134 -224.5t47.5 -278.5t-47.5 -278.5t-134 -224.5t-214.5 -149.5t-282 -54.5t-282 54.5t-214.5 149.5t-134 224.5t-47.5 278.5zM336 682q0 -215 114.5 -350t313.5 -135q197 0 312.5 135 t115.5 350t-115.5 350t-312.5 135q-199 0 -313.5 -135t-114.5 -350z" />
<glyph unicode="P" horiz-adv-x="1310" d="M170 0v1364h594q232 0 364 -119t132 -319t-132 -318.5t-364 -118.5h-354v-489h-240zM410 698h352q122 0 187 60t65 168q0 109 -65 169t-187 60h-352v-457z" />
<glyph unicode="Q" horiz-adv-x="1527" d="M86 684q0 148 47.5 277.5t134 224t215 149t281.5 54.5t281.5 -54.5t215 -149t134 -224t47.5 -277.5q0 -160 -55 -297t-156 -233l151 -181l-157 -131l-162 197q-137 -64 -299 -64q-153 0 -281.5 55t-215 150t-134 225t-47.5 279zM336 684q0 -216 115 -351.5t313 -135.5 q84 0 145 30l-135 166l150 121l149 -178q119 132 119 348q0 214 -115.5 348.5t-312.5 134.5q-198 0 -313 -134.5t-115 -348.5z" />
<glyph unicode="R" horiz-adv-x="1363" d="M170 0v1364h612q223 0 350.5 -112.5t127.5 -299.5q0 -139 -76.5 -239t-196.5 -146l309 -567h-268l-274 522h-344v-522h-240zM410 723h370q105 0 169.5 58.5t64.5 156.5q0 101 -66 159t-172 58h-366v-432z" />
<glyph unicode="S" horiz-adv-x="1261" d="M57 279l193 112q66 -109 171.5 -161t231.5 -52q129 0 207 53.5t78 147.5q0 99 -101 147q-59 28 -228 61l-1 1h-1h-2h-1l-1 1h-1h-1h-1h-1l-1 1h-1h-1q-83 17 -145 35.5t-127.5 50.5t-106.5 72.5t-67.5 102.5t-26.5 140q0 184 137 291t358 107q164 0 304 -63.5t231 -190.5 l-180 -121q-63 85 -157.5 128.5t-205.5 43.5q-110 0 -179 -42.5t-69 -131.5q0 -24 5.5 -44t19.5 -36t26.5 -28.5t39.5 -24t43 -18.5t53 -16.5t55 -13.5t62 -14q77 -16 132.5 -31t119.5 -38.5t106.5 -53t80 -70t55.5 -95.5t18 -123q0 -192 -146 -311.5t-393 -119.5 q-199 0 -351 81t-231 223z" />
<glyph unicode="T" horiz-adv-x="1249" d="M55 1155v209h1139v-209h-451v-1155h-239v1155h-449z" />
<glyph unicode="U" horiz-adv-x="1456" d="M156 518v846h239v-846q0 -150 87.5 -235.5t244.5 -85.5q155 0 245.5 86t90.5 235v846h237v-846q0 -251 -158.5 -397t-414.5 -146q-257 0 -414 145.5t-157 397.5z" />
<glyph unicode="V" horiz-adv-x="1318" d="M14 1364h260l385 -1083l390 1083h256l-517 -1364h-256z" />
<glyph unicode="W" horiz-adv-x="1945" d="M47 1364h256l258 -1042l303 1042h221l301 -1047l259 1047h258l-381 -1364h-265l-286 1016l-289 -1016h-266z" />
<glyph unicode="X" horiz-adv-x="1351" d="M2 0l522 711l-479 653h289l344 -494l346 494h281l-476 -653l521 -711h-291l-385 537l-383 -537h-289z" />
<glyph unicode="Y" horiz-adv-x="1294" d="M4 1364h281l364 -602l367 602h276l-526 -819v-545h-240v545z" />
<glyph unicode="Z" horiz-adv-x="1255" d="M80 0v188l758 967h-727v209h1042v-180l-762 -975h780v-209h-1091z" />
<glyph unicode="[" horiz-adv-x="630" d="M154 -221v1683h456v-159h-260v-1364h260v-160h-456z" />
<glyph unicode="\" horiz-adv-x="763" d="M61 1462h187l450 -1683h-186z" />
<glyph unicode="]" horiz-adv-x="632" d="M20 -61h263v1364h-263v159h459v-1683h-459v160z" />
<glyph unicode="^" d="M45 893l471 471h172l471 -471l-133 -135l-422 424l-426 -424z" />
<glyph unicode="_" horiz-adv-x="1222" d="M0 -154h1223v-102h-1223v102z" />
<glyph unicode="`" horiz-adv-x="657" d="M123 1462l201 33q50 -105 176 -258l-86 -59q-90 49 -174 129.5t-117 154.5z" />
<glyph unicode="a" horiz-adv-x="1355" d="M82 537q0 160 59 287t172 201.5t262 74.5q228 0 363 -182v157h227v-825q0 -53 17 -75.5t57 -22.5q39 0 59 14l27 -156q-56 -26 -137 -26q-86 0 -149.5 40.5t-86.5 129.5q-126 -179 -372 -179q-153 0 -267 74.5t-172.5 201.5t-58.5 286zM322 537q0 -158 78 -258.5 t225 -100.5q149 0 231 101.5t82 257.5q0 157 -82 258.5t-231 101.5q-147 0 -225 -101t-78 -259z" />
<glyph unicode="b" horiz-adv-x="1312" d="M150 0v1462h225v-544q138 182 364 182q149 0 262 -74.5t171.5 -201t58.5 -285.5q0 -160 -59 -287.5t-172 -202t-261 -74.5q-225 0 -364 183v-158h-225zM375 537q0 -157 82 -258t231 -101q147 0 225 100.5t78 258.5q0 157 -78 258.5t-225 101.5q-148 0 -230.5 -102.5 t-82.5 -257.5z" />
<glyph unicode="c" horiz-adv-x="1120" d="M80 537q0 161 64.5 288.5t186.5 201t281 73.5q147 0 259.5 -64.5t185.5 -175.5l-170 -121q-43 76 -110 119t-154 43q-139 0 -221.5 -102t-82.5 -260q0 -161 83.5 -263t222.5 -102q166 0 268 156l170 -117q-72 -109 -185.5 -173.5t-263.5 -64.5q-160 0 -282.5 74t-187 201 t-64.5 287z" />
<glyph unicode="d" horiz-adv-x="1314" d="M82 537q0 160 59 287t172 201.5t262 74.5q228 0 363 -182v544h227v-1462h-227v158q-136 -183 -363 -183q-149 0 -262 74.5t-172 201.5t-59 286zM322 537q0 -158 78 -258.5t225 -100.5q149 0 231 101.5t82 257.5q0 157 -82 258.5t-231 101.5q-147 0 -225 -101t-78 -259z " />
<glyph unicode="e" horiz-adv-x="1222" d="M82 532q0 160 64 288.5t188 204t289 75.5q159 0 279.5 -71t182.5 -193t62 -277q0 -42 -4 -78h-819q7 -146 95.5 -225.5t233.5 -79.5q186 0 312 135l147 -141q-185 -195 -467 -195q-264 0 -413.5 156t-149.5 401zM328 645h592q-12 131 -93.5 202t-201.5 71 q-126 0 -207 -76t-90 -197z" />
<glyph unicode="f" horiz-adv-x="743" d="M45 901v174h178v96q0 150 90.5 232t255.5 82q109 0 174 -23l-26 -180q-81 21 -129 21q-70 0 -103.5 -29t-33.5 -96v-103h241v-174h-241v-901h-228v901h-178z" />
<glyph unicode="g" horiz-adv-x="1316" d="M84 575q0 226 138 375.5t353 149.5q240 0 367 -182v157h227v-887q0 -132 -26.5 -227.5t-91.5 -167.5q-151 -170 -471 -170q-266 0 -455 125l98 180q148 -106 357 -106q79 0 143.5 17.5t114 54.5t77 98.5t27.5 144.5v101q-63 -89 -161.5 -135t-211.5 -46q-142 0 -253 68 t-171.5 185.5t-60.5 264.5zM324 580q0 -142 79.5 -235t225.5 -93t230.5 93t84.5 235q0 141 -83 232t-232 91q-147 0 -226 -91t-79 -232z" />
<glyph unicode="h" horiz-adv-x="1234" d="M150 0v1462h225v-544q137 182 352 182q175 0 273 -108t98 -292v-700h-226v649q0 244 -213 244q-122 0 -203 -80t-81 -211v-602h-225z" />
<glyph unicode="i" horiz-adv-x="524" d="M150 0v1075h225v-1075h-225zM150 1249v213h225v-213h-225z" />
<glyph unicode="j" horiz-adv-x="526" d="M-184 -332l61 176q53 -24 111 -24q86 0 124 47t38 137v1071h227v-1065q0 -189 -100 -286t-269 -97q-112 0 -192 41zM150 1249v213h227v-213h-227z" />
<glyph unicode="k" horiz-adv-x="1198" d="M150 0v1462h225v-905l491 518h277l-420 -432l473 -643h-278l-351 492l-192 -197v-295h-225z" />
<glyph unicode="l" horiz-adv-x="528" d="M152 0v1462h225v-1462h-225z" />
<glyph unicode="m" horiz-adv-x="1896" d="M150 0v1075h225v-153q133 178 336 178q118 0 197.5 -53t115.5 -152q71 100 167 152.5t208 52.5q174 0 267 -105.5t93 -287.5v-707h-225v653q0 50 -8.5 88.5t-29 75t-62.5 56.5t-103 20q-115 0 -189.5 -78.5t-74.5 -208.5v-606h-225v653q0 50 -8.5 88.5t-29 75t-62.5 56.5 t-103 20q-116 0 -190 -78.5t-74 -208.5v-606h-225z" />
<glyph unicode="n" horiz-adv-x="1234" d="M150 0v1075h225v-157q137 182 352 182q175 0 273 -108t98 -292v-700h-226v649q0 244 -213 244q-122 0 -203 -80t-81 -211v-602h-225z" />
<glyph unicode="o" horiz-adv-x="1253" d="M82 537q0 250 148.5 406.5t396.5 156.5t396 -156.5t148 -406.5q0 -249 -148 -405.5t-396 -156.5t-396.5 156.5t-148.5 405.5zM322 537q0 -160 81.5 -262.5t223.5 -102.5t222.5 102.5t80.5 262.5q0 162 -80.5 264t-222.5 102q-143 0 -224 -102.5t-81 -263.5z" />
<glyph unicode="p" horiz-adv-x="1312" d="M150 -356v1431h225v-157q138 182 364 182q149 0 262 -75t171.5 -201.5t58.5 -284.5q0 -160 -59 -287.5t-172 -202t-261 -74.5q-224 0 -364 181v-512h-225zM375 537q0 -156 83 -257.5t230 -101.5t225 101.5t78 257.5q0 158 -78 259t-225 101q-148 0 -230.5 -102 t-82.5 -258z" />
<glyph unicode="q" horiz-adv-x="1314" d="M82 537q0 159 59 286t172 202t262 75q228 0 363 -182v157h227v-1431h-227v512q-137 -181 -363 -181q-149 0 -262 74.5t-172 201.5t-59 286zM322 539q0 -157 78 -259t225 -102q148 0 230.5 102.5t82.5 258.5t-82.5 257t-230.5 101q-147 0 -225 -100.5t-78 -257.5z" />
<glyph unicode="r" horiz-adv-x="831" d="M150 0v1075h225v-174q57 89 135 142t168 53q86 0 143 -37l-65 -221q-62 32 -123 32q-108 0 -183 -87.5t-75 -235.5v-547h-225z" />
<glyph unicode="s" horiz-adv-x="1093" d="M55 217l160 113q60 -84 152.5 -127t199.5 -43q102 0 163 37t61 106q0 29 -13 50.5t-32 35.5t-58 26t-73.5 19t-96.5 17q-75 13 -129.5 27.5t-109.5 39.5t-89 58t-55.5 83.5t-21.5 114.5q0 107 60 182.5t153 109.5t209 34q150 0 268.5 -54t193.5 -135l-143 -131 q-55 63 -139 99t-183 36q-84 0 -142 -30.5t-58 -89.5q0 -23 8 -41t28 -31.5t38 -23t54 -18.5t59.5 -13.5t68.5 -12.5q78 -14 133 -28t114.5 -39.5t95.5 -58t59.5 -84t23.5 -117.5q0 -160 -123 -256.5t-336 -96.5q-165 0 -294.5 62t-205.5 180z" />
<glyph unicode="t" horiz-adv-x="856" d="M12 901v174h217v387h228v-387h331v-174h-331v-565q0 -160 145 -160q77 0 135 47l90 -168q-107 -80 -256 -80q-203 0 -290 138q-52 77 -52 225v563h-217z" />
<glyph unicode="u" horiz-adv-x="1234" d="M137 375v700h225v-649q0 -244 213 -244q123 0 204 80t81 211v602h225v-1075h-225v156q-139 -181 -352 -181q-175 0 -273 108t-98 292z" />
<glyph unicode="v" horiz-adv-x="1120" d="M18 1075h254l291 -807l289 807h250l-426 -1075h-234z" />
<glyph unicode="w" horiz-adv-x="1644" d="M49 1075h244l194 -786l236 786h207l233 -786l193 786h239l-299 -1075h-241l-232 782l-237 -782h-240z" />
<glyph unicode="x" horiz-adv-x="1138" d="M20 0l404 561l-367 514h271l245 -370l244 370h266l-364 -516l397 -559h-274l-273 408l-276 -408h-273z" />
<glyph unicode="y" horiz-adv-x="1234" d="M121 -254l98 174q131 -98 322 -98q144 0 231.5 67t87.5 207v142q-139 -181 -352 -181q-175 0 -273 108t-98 292v618h225v-565q0 -246 213 -246q123 0 204 80t81 211v520h225v-930q0 -244 -116 -368q-148 -154 -428 -154q-245 0 -420 123z" />
<glyph unicode="z" horiz-adv-x="1067" d="M80 0v174l577 703h-553v198h861v-172l-576 -704h594v-199h-903z" />
<glyph unicode="{" horiz-adv-x="757" d="M39 541v159h74q93 0 131.5 49t38.5 138v239q0 163 94 253.5t250 90.5h114v-159h-82q-178 0 -178 -199v-197q0 -226 -180 -294q180 -65 180 -293v-199q0 -199 178 -199h82v-159h-114q-156 0 -250 90.5t-94 253.5v239q0 89 -38.5 138t-131.5 49h-74z" />
<glyph unicode="|" horiz-adv-x="481" d="M154 -221v1683h174v-1683h-174z" />
<glyph unicode="}" horiz-adv-x="757" d="M16 -70h82q97 0 139 51.5t42 147.5v197q0 227 180 295q-180 65 -180 292v199q0 96 -42 147.5t-139 51.5h-82v159h117q156 0 249 -90.5t93 -253.5v-239q0 -187 172 -187h72v-159h-72q-172 0 -172 -187v-239q0 -163 -93 -253.5t-249 -90.5h-117v159z" />
<glyph unicode="~" horiz-adv-x="1253" d="M92 553q92 132 172.5 191t188.5 59q92 0 186 -64q72 -49 108 -66.5t78 -17.5q55 0 108.5 33t119.5 115l114 -92q-92 -132 -172 -191t-188 -59q-93 0 -186 63q-72 49 -108.5 66.5t-78.5 17.5q-55 0 -108 -32.5t-119 -114.5z" />
<glyph unicode="&#xa1;" horiz-adv-x="573" d="M162 23l65 620h119l66 -620v-314h-250v314zM162 819v256h250v-256h-250z" />
<glyph unicode="&#xa2;" d="M109 537q0 230 131 386t348 175v168h114v-170q124 -12 220.5 -74t162.5 -162l-170 -121q-75 134 -213 158v-721q134 22 220 154l170 -117q-65 -98 -163.5 -160t-226.5 -73v-173h-114v173q-218 19 -348.5 173.5t-130.5 383.5zM344 539q0 -143 63.5 -239.5t180.5 -119.5 v715q-117 -21 -180.5 -117.5t-63.5 -238.5z" />
<glyph unicode="&#xa3;" d="M43 569v154h156q-25 65 -36 96t-19.5 73t-8.5 83q0 189 136.5 301.5t349.5 112.5q323 0 495 -279l-198 -106q-100 165 -285 165q-109 0 -178.5 -56.5t-69.5 -158.5q0 -20 3.5 -43t6.5 -37t13 -42l12.5 -35t16.5 -40t14 -34h385v-154h-342q18 -56 18 -108t-27 -117 t-77 -111q64 29 147 29q67 0 162.5 -30.5t136.5 -30.5q52 0 86 28t57 90l183 -106q-100 -238 -301 -238q-69 0 -204 45.5t-208 45.5q-65 0 -150.5 -23t-162.5 -68l-84 177q213 115 213 278q0 62 -27 139h-213z" />
<glyph unicode="&#xa4;" d="M106 266l154 150q-59 94 -59 205q0 112 59 206l-154 152l138 137l153 -153q88 57 203 57t203 -57l155 153l136 -137l-152 -154q57 -96 57 -204q0 -107 -57 -203l152 -152l-136 -137l-153 152q-92 -60 -205 -60q-109 0 -205 60l-151 -152zM367 621q0 -97 68 -165.5 t165 -68.5q98 0 167 68.5t69 165.5q0 98 -69 166.5t-167 68.5q-97 0 -165 -68.5t-68 -166.5z" />
<glyph unicode="&#xa5;" d="M39 1364h276l291 -594l285 594h272l-350 -645h264v-117h-327l-31 -51v-113h358v-119h-358v-319h-238v319h-360v119h360v111l-30 53h-330v117h268z" />
<glyph unicode="&#xa6;" horiz-adv-x="464" d="M158 -221v647h149v-647h-149zM158 815v647h149v-647h-149z" />
<glyph unicode="&#xa7;" horiz-adv-x="1142" d="M76 836q0 117 39 218.5t110 176t177 117.5t233 43q238 0 405 -144l-127 -162q-115 109 -278 109q-91 0 -162.5 -34.5t-114.5 -98.5l269 -160q76 -45 136 -89t117.5 -101.5t95 -118.5t60.5 -138.5t23 -162.5q0 -117 -39 -218.5t-110 -176t-177 -117.5t-233 -43 q-240 0 -404 141l125 162q115 -109 281 -109q90 0 165.5 34t116.5 95l-276 166q-76 46 -136 90t-117.5 101.5t-95 118.5t-60.5 138.5t-23 162.5zM285 852q0 -84 23.5 -152.5t78 -132.5t116.5 -115.5t167 -125.5l176 -125q8 36 8 73q0 68 -17.5 127t-46 106t-81 99t-105 94 t-135.5 101l-174 125q-10 -45 -10 -74z" />
<glyph unicode="&#xa8;" horiz-adv-x="657" d="M16 1217v186h183v-186h-183zM459 1217v186h180v-186h-180z" />
<glyph unicode="&#xa9;" horiz-adv-x="1599" d="M80 682q0 146 57.5 279.5t154 229.5t230 153t279.5 57q117 0 226.5 -36.5t198 -103t155 -154.5t103 -198t36.5 -227q0 -116 -36.5 -226t-103 -198.5t-155 -155t-198.5 -103t-226 -36.5q-146 0 -279.5 57t-230 153.5t-154 230t-57.5 278.5zM203 682q0 -122 47.5 -232 t127.5 -190t190.5 -127t232.5 -47q161 0 298 79.5t216.5 217t79.5 299.5q0 122 -47 232.5t-126.5 190t-189.5 126.5t-231 47t-231.5 -47t-191 -126.5t-128 -190t-47.5 -232.5zM383 682q0 174 123 297t295 123q113 0 206.5 -54.5t157.5 -158.5l-137 -90q-38 65 -97 99 t-128 34q-103 0 -176.5 -73.5t-73.5 -176.5q0 -102 74 -176t176 -74q69 0 128 35.5t99 101.5l139 -90q-63 -104 -159 -159.5t-209 -55.5q-172 0 -295 122.5t-123 295.5z" />
<glyph unicode="&#xaa;" horiz-adv-x="903" d="M88 872q0 73 33.5 119.5t83.5 63t108.5 26.5t108.5 12.5t83.5 19t33.5 48.5q0 40 -41 58t-97 18q-120 0 -221 -70l-65 123q131 88 301 88q150 0 222.5 -64t72.5 -202v-270q0 -28 9 -39.5t32 -11.5q26 0 43 10l22 -119q-35 -18 -102 -18q-119 0 -146 88q-81 -95 -235 -95 q-109 0 -177.5 57.5t-68.5 157.5zM252 879q0 -45 33.5 -68t83.5 -23q74 0 124 38.5t50 111.5v84q-27 -22 -59 -31.5t-93 -17.5q-30 -5 -46 -8t-37 -9.5t-31 -15.5t-17.5 -24.5t-7.5 -36.5z" />
<glyph unicode="&#xab;" horiz-adv-x="987" d="M55 498v80l310 401l120 -92l-241 -350l241 -351l-120 -92zM465 498v80l307 401l123 -92l-242 -350l242 -351l-123 -92z" />
<glyph unicode="&#xac;" horiz-adv-x="1236" d="M106 526v193h1004v-598h-190v405h-814z" />
<glyph unicode="&#xad;" horiz-adv-x="819" d="M119 475v201h581v-201h-581z" />
<glyph unicode="&#xae;" horiz-adv-x="946" d="M82 997q0 162 114.5 277t276.5 115q161 0 276 -115.5t115 -276.5q0 -162 -114.5 -276.5t-276.5 -114.5q-163 0 -277 114t-114 277zM135 997q0 -139 99.5 -238.5t238.5 -99.5q138 0 237 99.5t99 238.5t-99 238.5t-237 99.5q-139 0 -238.5 -99.5t-99.5 -238.5zM313 797v403 h189q64 0 103.5 -35t39.5 -92q0 -44 -21 -75.5t-57 -43.5l88 -157h-100l-68 143h-86v-143h-88zM401 1010h97q24 0 40.5 17t16.5 44q0 26 -16.5 41.5t-40.5 15.5h-97v-118z" />
<glyph unicode="&#xaf;" horiz-adv-x="692" d="M20 1237v137h637v-137h-637z" />
<glyph unicode="&#xb0;" horiz-adv-x="780" d="M76 1071q0 131 92.5 224.5t222.5 93.5q129 0 222.5 -94t93.5 -224q0 -129 -93.5 -222t-222.5 -93q-130 0 -222.5 93t-92.5 222zM217 1071q0 -69 52 -120.5t122 -51.5t121 51.5t51 120.5q0 71 -51 122.5t-121 51.5q-71 0 -122.5 -51.5t-51.5 -122.5z" />
<glyph unicode="&#xb1;" d="M98 0v193h1006v-193h-1006zM98 696v193h406v381h194v-381h406v-193h-406v-377h-194v377h-406z" />
<glyph unicode="&#xb2;" horiz-adv-x="794" d="M45 1380q126 191 336 191q142 0 231.5 -74.5t89.5 -202.5q0 -74 -34 -138.5t-105.5 -134.5t-210.5 -179h383v-158h-661v131q259 197 351.5 292.5t92.5 176.5q0 59 -44 93t-107 34q-56 0 -104 -29.5t-79 -81.5z" />
<glyph unicode="&#xb3;" horiz-adv-x="806" d="M45 879l154 53q57 -107 204 -107q71 0 112.5 33.5t41.5 85.5q0 49 -37 77t-100 28h-115v151h109q46 0 84.5 26.5t38.5 78.5q0 54 -43 81t-107 27q-130 0 -192 -98l-136 74q118 182 340 182q134 0 223 -64.5t89 -181.5q0 -125 -101 -184q67 -26 97 -81.5t30 -121.5 q0 -118 -92.5 -194t-241.5 -76q-259 0 -358 211z" />
<glyph unicode="&#xb4;" horiz-adv-x="657" d="M186 1237q126 153 176 258l201 -33q-33 -74 -117 -154.5t-174 -129.5z" />
<glyph unicode="&#xb5;" d="M123 -356v1431h225v-647q0 -121 51.5 -187.5t157.5 -66.5q113 0 188.5 77t75.5 214v610h226v-827q0 -51 14.5 -73.5t50.5 -22.5t51 12l21 -158q-45 -22 -123 -22q-84 0 -141.5 41.5t-69.5 121.5q-55 -85 -136 -128.5t-167 -43.5q-65 0 -117.5 25.5t-81.5 67.5v-424h-225z " />
<glyph unicode="&#xb6;" horiz-adv-x="1153" d="M72 936q0 192 123.5 310t306.5 118h493v-1550h-106v1409h-127v-1409h-156v692h-104q-187 0 -308.5 118t-121.5 312z" />
<glyph unicode="&#xb7;" horiz-adv-x="540" d="M119 623q0 63 45 108t108 45q62 0 106 -45t44 -108q0 -62 -44.5 -107t-105.5 -45q-63 0 -108 45t-45 107z" />
<glyph unicode="&#xb8;" horiz-adv-x="657" d="M92 -154q61 -61 144 -61q44 0 73 23t29 63q0 77 -105 139l62 35q88 -31 141 -88.5t53 -128.5q0 -81 -64.5 -130.5t-162.5 -49.5q-113 0 -170 53v145z" />
<glyph unicode="&#xb9;" horiz-adv-x="684" d="M59 1446q205 35 283 108h131v-716h186v-154h-577v154h217v520q-96 -34 -217 -49z" />
<glyph unicode="&#xba;" horiz-adv-x="886" d="M78 1018q0 160 99 260t265 100t266.5 -100t100.5 -260q0 -159 -101 -260t-266 -101t-264.5 101t-99.5 260zM254 1018q0 -92 50.5 -151.5t137.5 -59.5q89 0 139 59t50 152q0 95 -49.5 154t-139.5 59q-87 0 -137.5 -59.5t-50.5 -153.5z" />
<glyph unicode="&#xbb;" horiz-adv-x="987" d="M92 186l242 351l-242 350l123 92l307 -401v-80l-307 -404zM500 186l243 351l-243 350l123 92l307 -401v-80l-307 -404z" />
<glyph unicode="&#xbc;" horiz-adv-x="2004" d="M109 1255q202 35 282 109h131v-717h187v-153h-578v153h217v520q-96 -34 -217 -49zM430 0l961 1364h170l-961 -1364h-170zM1196 188v136q72 125 118.5 274.5t49.5 271.5h172q-3 -121 -46.5 -262t-113.5 -268h252v330h168v-330h125v-152h-125v-188h-170v188h-430z" />
<glyph unicode="&#xbd;" horiz-adv-x="2004" d="M104 1255q204 35 283 109h131v-717h187v-153h-578v153h217v520q-96 -34 -217 -49zM426 0l960 1364h170l-960 -1364h-170zM1217 696q132 191 335 191q143 0 232.5 -75t89.5 -204q0 -107 -73.5 -200.5t-276.5 -249.5h385v-158h-664v131q259 197 352 293t93 176 q0 59 -43.5 94t-106.5 35q-56 0 -104.5 -30.5t-79.5 -82.5z" />
<glyph unicode="&#xbe;" horiz-adv-x="2004" d="M76 688l153 53q57 -106 205 -106q71 0 112.5 33.5t41.5 85.5q0 49 -36.5 76.5t-100.5 27.5h-115v152h108q46 0 84.5 26t38.5 78q0 54 -42.5 81.5t-104.5 27.5q-132 0 -195 -99l-135 74q118 182 338 182q136 0 224.5 -64t88.5 -181q0 -128 -100 -185q66 -26 96.5 -81.5 t30.5 -120.5q0 -118 -93 -194.5t-241 -76.5q-259 0 -358 211zM451 0l960 1364h170l-960 -1364h-170zM1217 188v136q72 125 118 274t49 272h172q-3 -121 -46 -262t-113 -268h252v330h168v-330h125v-152h-125v-188h-170v188h-430z" />
<glyph unicode="&#xbf;" horiz-adv-x="1083" d="M109 104q0 178 117 291t300 144v108h224v-303q-36 10 -91 10q-137 0 -221 -63.5t-84 -177.5q0 -98 67 -157.5t183 -59.5q174 0 307 124l131 -155q-205 -180 -460 -180q-207 0 -340 113t-133 306zM506 834v241h262v-241h-262z" />
<glyph unicode="&#xc0;" horiz-adv-x="1384" d="M16 0l535 1364h283l534 -1364h-268l-129 348h-565l-130 -348h-260zM434 1720l201 33q50 -105 176 -258l-86 -59q-90 49 -174 129.5t-117 154.5zM469 549h436l-215 604z" />
<glyph unicode="&#xc1;" horiz-adv-x="1384" d="M16 0l535 1364h283l534 -1364h-268l-129 348h-565l-130 -348h-260zM469 549h436l-215 604zM589 1495q126 153 176 258l201 -33q-33 -74 -117 -154.5t-174 -129.5z" />
<glyph unicode="&#xc2;" horiz-adv-x="1384" d="M16 0l535 1364h283l534 -1364h-268l-129 348h-565l-130 -348h-260zM344 1540q146 96 262 203h168q120 -108 262 -203l-57 -96q-79 23 -156.5 64t-132.5 87q-53 -46 -130.5 -87t-158.5 -64zM469 549h436l-215 604z" />
<glyph unicode="&#xc3;" horiz-adv-x="1384" d="M16 0l535 1364h283l534 -1364h-268l-129 348h-565l-130 -348h-260zM342 1528q32 80 90.5 130t128.5 50q51 0 140 -39t128 -39q75 0 140 80l86 -57q-34 -81 -92 -132t-128 -51q-53 0 -141 40t-125 40q-78 0 -141 -80zM469 549h436l-215 604z" />
<glyph unicode="&#xc4;" horiz-adv-x="1384" d="M16 0l535 1364h283l534 -1364h-268l-129 348h-565l-130 -348h-260zM376 1475v186h183v-186h-183zM469 549h436l-215 604zM819 1475v186h180v-186h-180z" />
<glyph unicode="&#xc5;" horiz-adv-x="1372" d="M10 0l508 1290q-84 64 -84 166q0 97 74 165.5t178 68.5q106 0 180 -68.5t74 -165.5q0 -102 -84 -166l506 -1290h-268l-129 348h-566l-129 -348h-260zM463 549h436l-215 604zM571 1454q0 -47 34 -80t83 -33t81 32.5t32 80.5q0 50 -32 84.5t-81 34.5t-83 -34.5t-34 -84.5z " />
<glyph unicode="&#xc6;" horiz-adv-x="1894" d="M-14 0l696 1364h1104v-209h-647v-334h551v-209h-551v-403h667v-209h-909v348h-475l-176 -348h-260zM518 549h379v616h-78z" />
<glyph unicode="&#xc7;" horiz-adv-x="1388" d="M90 684q0 204 83.5 364.5t236.5 250.5t350 90q366 0 559 -297l-189 -121q-128 205 -364 205q-193 0 -309.5 -135.5t-116.5 -354.5q0 -223 116 -360.5t308 -137.5q233 0 364 215l199 -114q-85 -138 -211 -218.5t-289 -93.5q76 -66 76 -149q0 -81 -64.5 -130.5 t-162.5 -49.5q-113 0 -170 53v145q61 -61 143 -61q44 0 73.5 23t29.5 63q0 55 -60 109q-271 23 -436.5 217t-165.5 487z" />
<glyph unicode="&#xc8;" horiz-adv-x="1271" d="M170 0v1364h993v-209h-753v-332h655v-209h-655v-405h774v-209h-1014zM418 1722l201 33q50 -105 176 -258l-86 -59q-90 49 -174 129.5t-117 154.5z" />
<glyph unicode="&#xc9;" horiz-adv-x="1271" d="M170 0v1364h993v-209h-753v-332h655v-209h-655v-405h774v-209h-1014zM587 1497q126 153 176 258l201 -33q-33 -74 -117 -154.5t-174 -129.5z" />
<glyph unicode="&#xca;" horiz-adv-x="1271" d="M170 0v1364h993v-209h-753v-332h655v-209h-655v-405h774v-209h-1014zM338 1542q146 96 262 203h168q120 -108 262 -203l-57 -96q-79 23 -156.5 64t-132.5 87q-53 -46 -130.5 -87t-158.5 -64z" />
<glyph unicode="&#xcb;" horiz-adv-x="1271" d="M170 0v1364h993v-209h-753v-332h655v-209h-655v-405h774v-209h-1014zM366 1477v186h183v-186h-183zM809 1477v186h180v-186h-180z" />
<glyph unicode="&#xcc;" horiz-adv-x="577" d="M31 1720l201 33q50 -105 176 -258l-86 -59q-90 49 -174 129.5t-117 154.5zM170 0v1364h238v-1364h-238z" />
<glyph unicode="&#xcd;" horiz-adv-x="577" d="M170 0v1364h238v-1364h-238zM172 1495q126 153 176 258l201 -33q-33 -74 -117 -154.5t-174 -129.5z" />
<glyph unicode="&#xce;" horiz-adv-x="577" d="M-57 1540q146 96 262 203h168q120 -108 262 -203l-57 -96q-79 23 -156.5 64t-132.5 87q-53 -46 -130.5 -87t-158.5 -64zM170 0v1364h238v-1364h-238z" />
<glyph unicode="&#xcf;" horiz-adv-x="577" d="M-23 1475v186h183v-186h-183zM170 0v1364h238v-1364h-238zM420 1475v186h180v-186h-180z" />
<glyph unicode="&#xd0;" horiz-adv-x="1501" d="M-20 598v193h215v573h550q159 0 286.5 -51t210 -142t126 -215.5t43.5 -273.5q0 -148 -43.5 -272.5t-126 -216t-210 -142.5t-286.5 -51h-550v598h-215zM436 209h307q198 0 308 125t110 348t-110 348t-308 125h-307v-364h352v-193h-352v-389z" />
<glyph unicode="&#xd1;" horiz-adv-x="1497" d="M170 0v1364h303l625 -1032v1032h229v-1364h-287l-641 1057v-1057h-229zM412 1528q32 80 90.5 130t128.5 50q51 0 140 -39t128 -39q75 0 140 80l86 -57q-34 -81 -92 -132t-128 -51q-53 0 -141 40t-125 40q-78 0 -141 -80z" />
<glyph unicode="&#xd2;" horiz-adv-x="1527" d="M86 682q0 149 47.5 278.5t134 224.5t214.5 149.5t282 54.5t282 -54.5t214.5 -149.5t134 -224.5t47.5 -278.5t-47.5 -278.5t-134 -224.5t-214.5 -149.5t-282 -54.5t-282 54.5t-214.5 149.5t-134 224.5t-47.5 278.5zM336 682q0 -215 114.5 -350t313.5 -135q197 0 312.5 135 t115.5 350t-115.5 350t-312.5 135q-199 0 -313.5 -135t-114.5 -350zM510 1720l201 33q50 -105 176 -258l-86 -59q-90 49 -174 129.5t-117 154.5z" />
<glyph unicode="&#xd3;" horiz-adv-x="1527" d="M86 682q0 149 47.5 278.5t134 224.5t214.5 149.5t282 54.5t282 -54.5t214.5 -149.5t134 -224.5t47.5 -278.5t-47.5 -278.5t-134 -224.5t-214.5 -149.5t-282 -54.5t-282 54.5t-214.5 149.5t-134 224.5t-47.5 278.5zM336 682q0 -215 114.5 -350t313.5 -135q197 0 312.5 135 t115.5 350t-115.5 350t-312.5 135q-199 0 -313.5 -135t-114.5 -350zM663 1495q126 153 176 258l201 -33q-33 -74 -117 -154.5t-174 -129.5z" />
<glyph unicode="&#xd4;" horiz-adv-x="1527" d="M86 682q0 149 47.5 278.5t134 224.5t214.5 149.5t282 54.5t282 -54.5t214.5 -149.5t134 -224.5t47.5 -278.5t-47.5 -278.5t-134 -224.5t-214.5 -149.5t-282 -54.5t-282 54.5t-214.5 149.5t-134 224.5t-47.5 278.5zM336 682q0 -215 114.5 -350t313.5 -135q197 0 312.5 135 t115.5 350t-115.5 350t-312.5 135q-199 0 -313.5 -135t-114.5 -350zM418 1540q146 96 262 203h168q120 -108 262 -203l-57 -96q-79 23 -156.5 64t-132.5 87q-53 -46 -130.5 -87t-158.5 -64z" />
<glyph unicode="&#xd5;" horiz-adv-x="1527" d="M86 682q0 149 47.5 278.5t134 224.5t214.5 149.5t282 54.5t282 -54.5t214.5 -149.5t134 -224.5t47.5 -278.5t-47.5 -278.5t-134 -224.5t-214.5 -149.5t-282 -54.5t-282 54.5t-214.5 149.5t-134 224.5t-47.5 278.5zM336 682q0 -215 114.5 -350t313.5 -135q197 0 312.5 135 t115.5 350t-115.5 350t-312.5 135q-199 0 -313.5 -135t-114.5 -350zM410 1528q32 80 90.5 130t128.5 50q51 0 140 -39t128 -39q75 0 140 80l86 -57q-34 -81 -92 -132t-128 -51q-53 0 -141 40t-125 40q-78 0 -141 -80z" />
<glyph unicode="&#xd6;" horiz-adv-x="1527" d="M86 682q0 149 47.5 278.5t134 224.5t214.5 149.5t282 54.5t282 -54.5t214.5 -149.5t134 -224.5t47.5 -278.5t-47.5 -278.5t-134 -224.5t-214.5 -149.5t-282 -54.5t-282 54.5t-214.5 149.5t-134 224.5t-47.5 278.5zM336 682q0 -215 114.5 -350t313.5 -135q197 0 312.5 135 t115.5 350t-115.5 350t-312.5 135q-199 0 -313.5 -135t-114.5 -350zM450 1475v186h183v-186h-183zM893 1475v186h180v-186h-180z" />
<glyph unicode="&#xd7;" d="M106 266l359 357l-359 356l138 137l358 -356l356 356l136 -137l-357 -356l357 -357l-136 -137l-356 356l-358 -356z" />
<glyph unicode="&#xd8;" horiz-adv-x="1527" d="M86 682q0 149 47.5 278.5t134 224.5t214.5 149.5t282 54.5q194 0 350 -91l66 93l108 -76l-67 -94q106 -95 163.5 -235t57.5 -304q0 -149 -47.5 -278.5t-134 -224.5t-214.5 -149.5t-282 -54.5q-201 0 -352 91l-64 -93l-108 76l65 92q-106 95 -162.5 235t-56.5 306z M336 682q0 -212 108 -342l537 770q-94 57 -217 57q-199 0 -313.5 -135t-114.5 -350zM545 254q91 -57 219 -57q197 0 312.5 135t115.5 350q0 207 -111 340z" />
<glyph unicode="&#xd9;" horiz-adv-x="1456" d="M156 518v846h239v-846q0 -150 87.5 -235.5t244.5 -85.5q155 0 245.5 86t90.5 235v846h237v-846q0 -251 -158.5 -397t-414.5 -146q-257 0 -414 145.5t-157 397.5zM479 1720l201 33q50 -105 176 -258l-86 -59q-90 49 -174 129.5t-117 154.5z" />
<glyph unicode="&#xda;" horiz-adv-x="1456" d="M156 518v846h239v-846q0 -150 87.5 -235.5t244.5 -85.5q155 0 245.5 86t90.5 235v846h237v-846q0 -251 -158.5 -397t-414.5 -146q-257 0 -414 145.5t-157 397.5zM624 1495q126 153 176 258l201 -33q-33 -74 -117 -154.5t-174 -129.5z" />
<glyph unicode="&#xdb;" horiz-adv-x="1456" d="M156 518v846h239v-846q0 -150 87.5 -235.5t244.5 -85.5q155 0 245.5 86t90.5 235v846h237v-846q0 -251 -158.5 -397t-414.5 -146q-257 0 -414 145.5t-157 397.5zM383 1540q146 96 262 203h168q120 -108 262 -203l-57 -96q-79 23 -156.5 64t-132.5 87q-53 -46 -130.5 -87 t-158.5 -64z" />
<glyph unicode="&#xdc;" horiz-adv-x="1456" d="M156 518v846h239v-846q0 -150 87.5 -235.5t244.5 -85.5q155 0 245.5 86t90.5 235v846h237v-846q0 -251 -158.5 -397t-414.5 -146q-257 0 -414 145.5t-157 397.5zM417 1475v186h183v-186h-183zM860 1475v186h180v-186h-180z" />
<glyph unicode="&#xdd;" horiz-adv-x="1294" d="M4 1364h281l364 -602l367 602h276l-526 -819v-545h-240v545zM510 1495q126 153 176 258l201 -33q-33 -74 -117 -154.5t-174 -129.5z" />
<glyph unicode="&#xde;" horiz-adv-x="1312" d="M170 0v1364h240v-193h354q232 0 364 -119t132 -319t-132 -318t-364 -118h-354v-297h-240zM410 506h352q122 0 187 59.5t65 167.5q0 110 -65 170t-187 60h-352v-457z" />
<glyph unicode="&#xdf;" horiz-adv-x="1300" d="M150 0v1073q0 191 133 302.5t358 111.5q211 0 347 -100.5t136 -276.5q0 -207 -196 -311q144 -44 218.5 -142.5t74.5 -240.5q0 -204 -132.5 -322.5t-353.5 -118.5q-143 0 -243 41l47 199q65 -39 170 -39q127 0 200.5 69t73.5 189q0 127 -80.5 186.5t-222.5 59.5h-121v192 h88q108 0 177 54t69 155q0 107 -73 159t-187 52t-187 -58.5t-73 -162.5v-1071h-223z" />
<glyph unicode="&#xe0;" horiz-adv-x="1355" d="M82 537q0 160 59 287t172 201.5t262 74.5q228 0 363 -182v157h227v-825q0 -53 17 -75.5t57 -22.5q39 0 59 14l27 -156q-56 -26 -137 -26q-86 0 -149.5 40.5t-86.5 129.5q-126 -179 -372 -179q-153 0 -267 74.5t-172.5 201.5t-58.5 286zM322 537q0 -158 78 -258.5 t225 -100.5q149 0 231 101.5t82 257.5q0 157 -82 258.5t-231 101.5q-147 0 -225 -101t-78 -259zM383 1462l201 33q50 -105 176 -258l-86 -59q-90 49 -174 129.5t-117 154.5z" />
<glyph unicode="&#xe1;" horiz-adv-x="1355" d="M82 537q0 160 59 287t172 201.5t262 74.5q228 0 363 -182v157h227v-825q0 -53 17 -75.5t57 -22.5q39 0 59 14l27 -156q-56 -26 -137 -26q-86 0 -149.5 40.5t-86.5 129.5q-126 -179 -372 -179q-153 0 -267 74.5t-172.5 201.5t-58.5 286zM322 537q0 -158 78 -258.5 t225 -100.5q149 0 231 101.5t82 257.5q0 157 -82 258.5t-231 101.5q-147 0 -225 -101t-78 -259zM514 1237q126 153 176 258l201 -33q-33 -74 -117 -154.5t-174 -129.5z" />
<glyph unicode="&#xe2;" horiz-adv-x="1355" d="M82 537q0 160 59 287t172 201.5t262 74.5q228 0 363 -182v157h227v-825q0 -53 17 -75.5t57 -22.5q39 0 59 14l27 -156q-56 -26 -137 -26q-86 0 -149.5 40.5t-86.5 129.5q-126 -179 -372 -179q-153 0 -267 74.5t-172.5 201.5t-58.5 286zM279 1282q146 96 262 203h168 q120 -108 262 -203l-58 -96q-78 23 -155.5 64t-132.5 87q-53 -46 -130.5 -87t-158.5 -64zM322 537q0 -158 78 -258.5t225 -100.5q149 0 231 101.5t82 257.5q0 157 -82 258.5t-231 101.5q-147 0 -225 -101t-78 -259z" />
<glyph unicode="&#xe3;" horiz-adv-x="1355" d="M82 537q0 160 59 287t172 201.5t262 74.5q228 0 363 -182v157h227v-825q0 -53 17 -75.5t57 -22.5q39 0 59 14l27 -156q-56 -26 -137 -26q-86 0 -149.5 40.5t-86.5 129.5q-126 -179 -372 -179q-153 0 -267 74.5t-172.5 201.5t-58.5 286zM270 1270q32 80 90.5 130t128.5 50 q51 0 140.5 -39t128.5 -39q74 0 139 80l86 -57q-34 -81 -92 -132t-127 -51q-52 0 -140 40t-126 40q-79 0 -142 -80zM322 537q0 -158 78 -258.5t225 -100.5q149 0 231 101.5t82 257.5q0 157 -82 258.5t-231 101.5q-147 0 -225 -101t-78 -259z" />
<glyph unicode="&#xe4;" horiz-adv-x="1355" d="M82 537q0 160 59 287t172 201.5t262 74.5q228 0 363 -182v157h227v-825q0 -53 17 -75.5t57 -22.5q39 0 59 14l27 -156q-56 -26 -137 -26q-86 0 -149.5 40.5t-86.5 129.5q-126 -179 -372 -179q-153 0 -267 74.5t-172.5 201.5t-58.5 286zM313 1217v186h183v-186h-183z M322 537q0 -158 78 -258.5t225 -100.5q149 0 231 101.5t82 257.5q0 157 -82 258.5t-231 101.5q-147 0 -225 -101t-78 -259zM756 1217v186h180v-186h-180z" />
<glyph unicode="&#xe5;" horiz-adv-x="1355" d="M82 537q0 160 59 287t172 201.5t262 74.5q228 0 363 -182v157h227v-825q0 -53 17 -75.5t57 -22.5q39 0 59 14l27 -156q-56 -26 -137 -26q-86 0 -149.5 40.5t-86.5 129.5q-126 -179 -372 -179q-153 0 -267 74.5t-172.5 201.5t-58.5 286zM322 537q0 -158 78 -258.5 t225 -100.5q149 0 231 101.5t82 257.5q0 157 -82 258.5t-231 101.5q-147 0 -225 -101t-78 -259zM397 1386q0 89 67 152.5t165 63.5q97 0 163 -63.5t66 -152.5q0 -88 -65.5 -149t-163.5 -61q-99 0 -165.5 61t-66.5 149zM516 1386q0 -45 33.5 -77.5t79.5 -32.5q45 0 77.5 32.5 t32.5 77.5q0 46 -33 79.5t-77 33.5q-46 0 -79.5 -33.5t-33.5 -79.5z" />
<glyph unicode="&#xe6;" horiz-adv-x="2062" d="M82 539q0 158 59 285t172 201.5t262 74.5q228 0 363 -182v157h227v-135q133 160 334 160q222 0 356 -153t134 -392q0 -36 -4 -72h-820q7 -146 96 -227.5t232 -81.5q183 0 309 135l150 -139q-185 -195 -467 -195q-155 0 -270 60t-181 170q-63 -106 -174.5 -168t-251.5 -62 q-159 0 -279 72.5t-183.5 200t-63.5 291.5zM322 537q0 -158 78 -258.5t225 -100.5q149 0 231 101.5t82 257.5q0 157 -82 258.5t-231 101.5q-147 0 -225 -101t-78 -259zM1167 641h592q-10 132 -92 204.5t-203 72.5q-125 0 -205.5 -76t-91.5 -201z" />
<glyph unicode="&#xe7;" horiz-adv-x="1124" d="M82 537q0 161 64.5 288.5t186.5 201t281 73.5q147 0 259.5 -64.5t185.5 -175.5l-170 -121q-43 76 -110 119t-154 43q-138 0 -220.5 -102t-82.5 -260q0 -161 83 -263t222 -102q166 0 268 156l170 -117q-63 -95 -159.5 -157t-221.5 -76q78 -68 78 -152q0 -81 -64.5 -130.5 t-162.5 -49.5q-113 0 -170 53v145q61 -61 143 -61q44 0 73 23t29 63q0 56 -59 109q-215 21 -342 175.5t-127 381.5z" />
<glyph unicode="&#xe8;" horiz-adv-x="1222" d="M82 532q0 160 64 288.5t188 204t289 75.5q159 0 279.5 -71t182.5 -193t62 -277q0 -42 -4 -78h-819q7 -146 95.5 -225.5t233.5 -79.5q186 0 312 135l147 -141q-185 -195 -467 -195q-264 0 -413.5 156t-149.5 401zM328 645h592q-12 131 -93.5 202t-201.5 71 q-126 0 -207 -76t-90 -197zM367 1462l200 33q50 -105 176 -258l-86 -59q-90 49 -173.5 129.5t-116.5 154.5z" />
<glyph unicode="&#xe9;" horiz-adv-x="1222" d="M82 532q0 160 64 288.5t188 204t289 75.5q159 0 279.5 -71t182.5 -193t62 -277q0 -42 -4 -78h-819q7 -146 95.5 -225.5t233.5 -79.5q186 0 312 135l147 -141q-185 -195 -467 -195q-264 0 -413.5 156t-149.5 401zM328 645h592q-12 131 -93.5 202t-201.5 71 q-126 0 -207 -76t-90 -197zM504 1237q126 153 176 258l201 -33q-33 -74 -117 -154.5t-174 -129.5z" />
<glyph unicode="&#xea;" horiz-adv-x="1222" d="M82 532q0 160 64 288.5t188 204t289 75.5q159 0 279.5 -71t182.5 -193t62 -277q0 -42 -4 -78h-819q7 -146 95.5 -225.5t233.5 -79.5q186 0 312 135l147 -141q-185 -195 -467 -195q-264 0 -413.5 156t-149.5 401zM270 1282q146 96 262 203h168q117 -105 263 -203l-58 -96 q-79 23 -156.5 64t-132.5 87q-53 -47 -130.5 -87.5t-157.5 -63.5zM328 645h592q-12 131 -93.5 202t-201.5 71q-126 0 -207 -76t-90 -197z" />
<glyph unicode="&#xeb;" horiz-adv-x="1222" d="M82 532q0 160 64 288.5t188 204t289 75.5q159 0 279.5 -71t182.5 -193t62 -277q0 -42 -4 -78h-819q7 -146 95.5 -225.5t233.5 -79.5q186 0 312 135l147 -141q-185 -195 -467 -195q-264 0 -413.5 156t-149.5 401zM309 1217v186h183v-186h-183zM328 645h592 q-12 131 -93.5 202t-201.5 71q-126 0 -207 -76t-90 -197zM752 1217v186h180v-186h-180z" />
<glyph unicode="&#xec;" horiz-adv-x="524" d="M2 1462l201 33q50 -105 176 -258l-86 -59q-90 49 -174 129.5t-117 154.5zM150 0v1075h225v-1075h-225z" />
<glyph unicode="&#xed;" horiz-adv-x="524" d="M147 1237q129 156 177 258l200 -33q-33 -74 -117 -154.5t-174 -129.5zM150 0v1075h225v-1075h-225z" />
<glyph unicode="&#xee;" horiz-adv-x="524" d="M-84 1282q146 96 262 203h168q120 -108 262 -203l-57 -96q-79 23 -156.5 64t-132.5 87q-53 -46 -130.5 -87t-158.5 -64zM150 0v1075h225v-1075h-225z" />
<glyph unicode="&#xef;" horiz-adv-x="524" d="M-14 1217v186h180v-186h-180zM150 0v1075h225v-1075h-225zM358 1217v186h183v-186h-183z" />
<glyph unicode="&#xf0;" horiz-adv-x="1273" d="M84 498q0 225 135.5 372.5t351.5 147.5q184 0 301 -111q-67 137 -213 273l-253 -115l-41 96l194 90q-87 62 -170 101l170 135q131 -74 219 -148l248 111l41 -96l-199 -90q303 -303 303 -693q0 -288 -153 -444q-152 -152 -393 -152t-391 146.5t-150 376.5zM324 496 q0 -141 79.5 -232.5t225.5 -91.5q149 0 232 92t83 232q0 142 -84.5 234.5t-232.5 92.5q-145 0 -224 -93t-79 -234z" />
<glyph unicode="&#xf1;" horiz-adv-x="1234" d="M150 0v1075h225v-157q137 182 352 182q175 0 273 -108t98 -292v-700h-226v649q0 244 -213 244q-122 0 -203 -80t-81 -211v-602h-225zM299 1270q32 80 90.5 130t128.5 50q51 0 140 -39t128 -39q75 0 140 80l86 -57q-34 -81 -92 -132t-127 -51q-53 0 -141 40t-126 40 q-78 0 -141 -80z" />
<glyph unicode="&#xf2;" horiz-adv-x="1253" d="M82 537q0 250 148.5 406.5t396.5 156.5t396 -156.5t148 -406.5q0 -249 -148 -405.5t-396 -156.5t-396.5 156.5t-148.5 405.5zM322 537q0 -160 81.5 -262.5t223.5 -102.5t222.5 102.5t80.5 262.5q0 162 -80.5 264t-222.5 102q-143 0 -224 -102.5t-81 -263.5zM389 1462 l201 33q50 -105 176 -258l-86 -59q-90 49 -174 129.5t-117 154.5z" />
<glyph unicode="&#xf3;" horiz-adv-x="1253" d="M82 537q0 250 148.5 406.5t396.5 156.5t396 -156.5t148 -406.5q0 -249 -148 -405.5t-396 -156.5t-396.5 156.5t-148.5 405.5zM322 537q0 -160 81.5 -262.5t223.5 -102.5t222.5 102.5t80.5 262.5q0 162 -80.5 264t-222.5 102q-143 0 -224 -102.5t-81 -263.5zM489 1237 q129 156 177 258l200 -33q-33 -74 -117 -154.5t-174 -129.5z" />
<glyph unicode="&#xf4;" horiz-adv-x="1253" d="M82 537q0 250 148.5 406.5t396.5 156.5t396 -156.5t148 -406.5q0 -249 -148 -405.5t-396 -156.5t-396.5 156.5t-148.5 405.5zM281 1282q146 96 262 203h168q120 -108 262 -203l-58 -96q-78 23 -155.5 64t-132.5 87q-53 -46 -130.5 -87t-158.5 -64zM322 537 q0 -160 81.5 -262.5t223.5 -102.5t222.5 102.5t80.5 262.5q0 162 -80.5 264t-222.5 102q-143 0 -224 -102.5t-81 -263.5z" />
<glyph unicode="&#xf5;" horiz-adv-x="1253" d="M82 537q0 250 148.5 406.5t396.5 156.5t396 -156.5t148 -406.5q0 -249 -148 -405.5t-396 -156.5t-396.5 156.5t-148.5 405.5zM270 1270q32 80 90.5 130t128.5 50q51 0 140.5 -39t128.5 -39q74 0 139 80l86 -57q-34 -81 -92 -132t-127 -51q-52 0 -140 40t-126 40 q-79 0 -142 -80zM322 537q0 -160 81.5 -262.5t223.5 -102.5t222.5 102.5t80.5 262.5q0 162 -80.5 264t-222.5 102q-143 0 -224 -102.5t-81 -263.5z" />
<glyph unicode="&#xf6;" horiz-adv-x="1253" d="M82 537q0 250 148.5 406.5t396.5 156.5t396 -156.5t148 -406.5q0 -249 -148 -405.5t-396 -156.5t-396.5 156.5t-148.5 405.5zM315 1217v186h183v-186h-183zM322 537q0 -160 81.5 -262.5t223.5 -102.5t222.5 102.5t80.5 262.5q0 162 -80.5 264t-222.5 102 q-143 0 -224 -102.5t-81 -263.5zM758 1217v186h180v-186h-180z" />
<glyph unicode="&#xf7;" d="M98 526v193h1006v-193h-1006zM457 229q0 59 42 102.5t103 43.5q58 0 100.5 -43.5t42.5 -102.5t-42.5 -102t-100.5 -43q-61 0 -103 43t-42 102zM457 1016q0 59 42 102t103 43q58 0 100.5 -43t42.5 -102q0 -60 -42 -103t-101 -43q-61 0 -103 43t-42 103z" />
<glyph unicode="&#xf8;" horiz-adv-x="1253" d="M82 537q0 250 148.5 406.5t396.5 156.5q146 0 272 -66l47 66l101 -70l-48 -65q172 -155 172 -428q0 -249 -148 -405.5t-396 -156.5q-155 0 -275 66l-45 -66l-100 70l45 64q-82 75 -126 185t-44 243zM322 537q0 -147 63 -236l395 563q-68 43 -153 43q-144 0 -224.5 -103.5 t-80.5 -266.5zM471 211q64 -43 156 -43q142 0 223.5 103.5t81.5 265.5q0 143 -66 237z" />
<glyph unicode="&#xf9;" horiz-adv-x="1234" d="M137 375v700h225v-649q0 -244 213 -244q123 0 204 80t81 211v602h225v-1075h-225v156q-139 -181 -352 -181q-175 0 -273 108t-98 292zM342 1462l201 33q50 -105 176 -258l-86 -59q-90 49 -174 129.5t-117 154.5z" />
<glyph unicode="&#xfa;" horiz-adv-x="1234" d="M137 375v700h225v-649q0 -244 213 -244q123 0 204 80t81 211v602h225v-1075h-225v156q-139 -181 -352 -181q-175 0 -273 108t-98 292zM524 1237q126 153 176 258l201 -33q-33 -74 -117 -154.5t-174 -129.5z" />
<glyph unicode="&#xfb;" horiz-adv-x="1234" d="M137 375v700h225v-649q0 -244 213 -244q123 0 204 80t81 211v602h225v-1075h-225v156q-139 -181 -352 -181q-175 0 -273 108t-98 292zM266 1282q146 96 262 203h168q120 -108 262 -203l-57 -96q-79 23 -156.5 64t-132.5 87q-53 -47 -130.5 -87.5t-157.5 -63.5z" />
<glyph unicode="&#xfc;" horiz-adv-x="1234" d="M137 375v700h225v-649q0 -244 213 -244q123 0 204 80t81 211v602h225v-1075h-225v156q-139 -181 -352 -181q-175 0 -273 108t-98 292zM299 1217v186h182v-186h-182zM741 1217v186h181v-186h-181z" />
<glyph unicode="&#xfd;" horiz-adv-x="1236" d="M123 -254l98 174q131 -98 322 -98q144 0 231.5 67t87.5 207v142q-139 -181 -352 -181q-175 0 -273 108t-98 292v618h226v-565q0 -246 213 -246q122 0 203 80t81 211v520h225v-930q0 -244 -116 -368q-148 -154 -428 -154q-245 0 -420 123zM516 1237q126 153 176 258 l201 -33q-33 -74 -117 -154.5t-174 -129.5z" />
<glyph unicode="&#xfe;" horiz-adv-x="1312" d="M150 -356v1818h225v-544q138 182 362 182q150 0 263.5 -75t172 -201.5t58.5 -284.5q0 -245 -134.5 -404.5t-359.5 -159.5q-222 0 -362 181v-512h-225zM375 537q0 -156 83.5 -257.5t231.5 -101.5q146 0 223.5 101.5t77.5 257.5q0 158 -77.5 259t-223.5 101 q-151 0 -233 -101.5t-82 -258.5z" />
<glyph unicode="&#xff;" horiz-adv-x="1236" d="M123 -254l98 174q131 -98 322 -98q144 0 231.5 67t87.5 207v142q-139 -181 -352 -181q-175 0 -273 108t-98 292v618h226v-565q0 -246 213 -246q122 0 203 80t81 211v520h225v-930q0 -244 -116 -368q-148 -154 -428 -154q-245 0 -420 123zM299 1217v186h182v-186h-182z M741 1217v186h181v-186h-181z" />
<glyph unicode="&#x152;" horiz-adv-x="2023" d="M90 682q0 197 77 349.5t232 242.5t367 90h1149v-209h-692v-332h596v-209h-596v-405h712v-209h-1169q-160 0 -289 52t-213 144t-129 216t-45 270zM340 682q0 -219 110 -346t316 -127h217v946h-217q-206 0 -316 -127t-110 -346z" />
<glyph unicode="&#x153;" horiz-adv-x="2050" d="M82 537q0 246 144.5 404.5t387.5 158.5q140 0 248 -57.5t174 -161.5q67 103 174 161t246 58q237 0 378.5 -153t141.5 -392q0 -20 -6 -74h-817q7 -145 96 -225t234 -80q187 0 307 133l152 -139q-188 -195 -469 -195q-293 0 -437 218q-68 -102 -176 -160t-246 -58 q-161 0 -283 74t-185.5 201t-63.5 287zM322 537q0 -160 80 -262.5t219 -102.5t219 102.5t80 262.5q0 161 -80 263.5t-219 102.5t-219 -102.5t-80 -263.5zM1155 645h592q-12 131 -93 202t-202 71q-126 0 -206 -75.5t-91 -197.5z" />
<glyph unicode="&#x178;" horiz-adv-x="1294" d="M4 1364h281l364 -602l367 602h276l-526 -819v-545h-240v545zM333 1475v186h183v-186h-183zM776 1475v186h180v-186h-180z" />
<glyph unicode="&#x2c6;" horiz-adv-x="675" d="M-4 1282q146 96 262 203h168q120 -108 262 -203l-57 -96q-79 23 -156.5 64t-132.5 87q-53 -46 -130.5 -87t-158.5 -64z" />
<glyph unicode="&#x2dc;" horiz-adv-x="708" d="M-4 1270q32 80 90.5 130t128.5 50q51 0 140 -39t128 -39q75 0 140 80l86 -57q-34 -81 -92 -132t-128 -51q-53 0 -141 40t-125 40q-78 0 -141 -80z" />
<glyph unicode="&#x2000;" horiz-adv-x="877" />
<glyph unicode="&#x2001;" horiz-adv-x="1755" />
<glyph unicode="&#x2002;" horiz-adv-x="877" />
<glyph unicode="&#x2003;" horiz-adv-x="1755" />
<glyph unicode="&#x2004;" horiz-adv-x="585" />
<glyph unicode="&#x2005;" horiz-adv-x="438" />
<glyph unicode="&#x2006;" horiz-adv-x="292" />
<glyph unicode="&#x2007;" horiz-adv-x="292" />
<glyph unicode="&#x2008;" horiz-adv-x="219" />
<glyph unicode="&#x2009;" horiz-adv-x="351" />
<glyph unicode="&#x200a;" horiz-adv-x="97" />
<glyph unicode="&#x2010;" horiz-adv-x="819" d="M119 475v201h581v-201h-581z" />
<glyph unicode="&#x2011;" horiz-adv-x="819" d="M119 475v201h581v-201h-581z" />
<glyph unicode="&#x2012;" horiz-adv-x="819" d="M119 475v201h581v-201h-581z" />
<glyph unicode="&#x2013;" d="M98 526v193h1006v-193h-1006z" />
<glyph unicode="&#x2014;" horiz-adv-x="1892" d="M117 526v193h1659v-193h-1659z" />
<glyph unicode="&#x2018;" horiz-adv-x="487" d="M111 809v211q0 111 46 198.5t144 170.5l78 -89q-129 -95 -129 -215v-41h123v-235h-262z" />
<glyph unicode="&#x2019;" horiz-adv-x="458" d="M102 874q127 94 127 216v38h-120v236h262v-209q0 -112 -46 -200t-145 -171z" />
<glyph unicode="&#x201a;" horiz-adv-x="532" d="M129 -240q60 43 93.5 99t33.5 116v39h-121v236h262v-209q0 -113 -46 -200.5t-144 -168.5z" />
<glyph unicode="&#x201c;" horiz-adv-x="907" d="M111 809v211q0 111 46 198.5t144 170.5l78 -89q-129 -95 -129 -215v-41h123v-235h-262zM530 809v209q0 112 46.5 200t146.5 171l76 -89q-127 -94 -127 -215v-41h121v-235h-263z" />
<glyph unicode="&#x201d;" horiz-adv-x="878" d="M102 874q127 94 127 216v38h-120v236h262v-209q0 -112 -46 -200t-145 -171zM524 874q127 96 127 216v38h-121v236h261v-209q0 -112 -46 -200t-145 -171z" />
<glyph unicode="&#x201e;" horiz-adv-x="952" d="M129 -240q60 43 93.5 99t33.5 116v39h-121v236h262v-209q0 -113 -46 -200.5t-144 -168.5zM551 -240q59 43 93 99.5t34 115.5v39h-121v236h260v-209q0 -113 -46 -200.5t-144 -168.5z" />
<glyph unicode="&#x2022;" horiz-adv-x="774" d="M88 682q0 124 87 211.5t210 87.5t211 -87.5t88 -211.5q0 -123 -88 -210t-211 -87t-210 87t-87 210z" />
<glyph unicode="&#x2026;" horiz-adv-x="1521" d="M133 0v258h262v-258h-262zM631 0v258h260v-258h-260zM1128 0v258h261v-258h-261z" />
<glyph unicode="&#x202f;" horiz-adv-x="351" />
<glyph unicode="&#x2039;" horiz-adv-x="577" d="M55 498v80l310 401l120 -92l-241 -350l241 -351l-120 -92z" />
<glyph unicode="&#x203a;" horiz-adv-x="579" d="M92 186l242 351l-242 350l123 92l307 -401v-80l-307 -404z" />
<glyph unicode="&#x205f;" horiz-adv-x="438" />
<glyph unicode="&#x20ac;" d="M29 492v116h131q-2 18 -2 70q0 58 4 76h-133v114h147q51 238 220 379.5t405 141.5q225 0 377 -125l-127 -168q-107 80 -238 80q-144 0 -244.5 -82.5t-140.5 -225.5h483v-114h-505q-5 -31 -5 -72q0 -56 2 -74h508v-116h-483q38 -142 138.5 -223t234.5 -81q159 0 264 109 l133 -160q-149 -162 -403 -162q-236 0 -402.5 140t-216.5 377h-147z" />
<glyph unicode="&#x2122;" horiz-adv-x="1472" d="M90 1245v119h518v-119h-196v-471h-129v471h-193zM698 774v590h181l147 -451l150 451h176v-590h-121v445l-148 -445h-114l-148 445v-445h-123z" />
<glyph unicode="&#xe000;" horiz-adv-x="1075" d="M0 0v1075h1075v-1075h-1075z" />
</font>
</defs>
</svg>
