<?xml version="1.0" encoding="utf-8"?>
<!-- Generator: Adobe Illustrator 19.2.0, SVG Export Plug-In . SVG Version: 6.00 Build 0)  -->
<svg version="1.1" id="Layer_1" xmlns="http://www.w3.org/2000/svg" xmlns:xlink="http://www.w3.org/1999/xlink" x="0px" y="0px"
	 viewBox="0 0 39.709 34.763" style="enable-background:new 0 0 39.709 34.763;" xml:space="preserve">
<style type="text/css">
	.st0{display:none;fill:#F69134;}
	.st1{fill:#FBC199;}
	.st2{display:none;fill:#1D1D1D;}
</style>
<rect x="-7.042" y="-10.202" class="st0" width="53.792" height="55.167"/>
<path class="st1" d="M36.476,6.104h-0.841V6.057c0-0.42-0.343-0.763-0.763-0.763H33.15c-0.42,0-0.763,0.343-0.763,0.763v0.047
	h-3.153V4.602C29.233,2.064,27.169,0,24.632,0h-9.555c-2.537,0-4.602,2.064-4.602,4.602v1.503H7.488V6.057
	c0-0.42-0.343-0.763-0.763-0.763H5.003c-0.42,0-0.763,0.343-0.763,0.763v0.047H3.233C1.455,6.104,0,7.559,0,9.338v21.214
	c0,1.778,1.455,3.233,3.233,3.233H4.24V34c0,0.42,0.343,0.763,0.763,0.763h1.721c0.42,0,0.763-0.343,0.763-0.763v-0.216h24.899V34
	c0,0.42,0.343,0.763,0.763,0.763h1.721c0.42,0,0.763-0.343,0.763-0.763v-0.216h0.841c1.778,0,3.233-1.455,3.233-3.233V9.338
	C39.709,7.559,38.254,6.104,36.476,6.104z M25.847,6.104H13.861V4.602c0-0.67,0.545-1.216,1.216-1.216h9.555
	c0.67,0,1.216,0.545,1.216,1.216V6.104z"/>
<path class="st2" d="M106.476,6.104h-0.841V6.057c0-0.42-0.343-0.763-0.763-0.763h-1.721c-0.42,0-0.763,0.343-0.763,0.763v0.047
	h-3.153V4.602C99.233,2.064,97.169,0,94.632,0h-9.555c-2.537,0-4.602,2.064-4.602,4.602v1.503h-2.987V6.057
	c0-0.42-0.343-0.763-0.763-0.763h-1.721c-0.42,0-0.763,0.343-0.763,0.763v0.047h-1.007C71.455,6.104,70,7.559,70,9.338v21.214
	c0,1.778,1.455,3.233,3.233,3.233h1.007V34c0,0.42,0.343,0.763,0.763,0.763h1.721c0.42,0,0.763-0.343,0.763-0.763v-0.216h24.899V34
	c0,0.42,0.343,0.763,0.763,0.763h1.721c0.42,0,0.763-0.343,0.763-0.763v-0.216h0.841c1.778,0,3.233-1.455,3.233-3.233V9.338
	C109.709,7.559,108.254,6.104,106.476,6.104z M95.847,6.104H83.861V4.602c0-0.67,0.545-1.216,1.216-1.216h9.555
	c0.67,0,1.216,0.545,1.216,1.216V6.104z"/>
</svg>
