<svg id="FC_Icons" data-name="FC Icons" xmlns="http://www.w3.org/2000/svg" viewBox="0 0 53.55 55.61" width="44" height="44"><defs><style>.cls-1,.cls-2{fill:#d47fc0;}.cls-1{fill-rule:evenodd;}</style></defs><title>bkg-cancellation</title><path class="cls-1" d="M1.15,5.36H9.49v4.78a5.08,5.08,0,1,0,10.15,0V5.36H34v4.78a5.08,5.08,0,1,0,10.15,0V5.36h8.29a1.15,1.15,0,0,1,1.15,1.15V39.66a2.51,2.51,0,0,1-.74,2L41.72,54.47A3.67,3.67,0,0,1,39,55.61H1.15A1.15,1.15,0,0,1,0,54.46v-48A1.15,1.15,0,0,1,1.15,5.36h0ZM49.36,37.92V20.08a0.67,0.67,0,0,0-.66-0.66H4.85a0.67,0.67,0,0,0-.65.66V50.74a0.67,0.67,0,0,0,.65.66H37.62a1.63,1.63,0,0,0,1.79-1.81V42.71a2.68,2.68,0,0,1,3-3h5.18a1.62,1.62,0,0,0,1.79-1.8h0ZM35.77,3.29a3.27,3.27,0,1,1,6.55,0v6.85a3.27,3.27,0,1,1-6.55,0V3.29h0Zm-24.48,0a3.27,3.27,0,1,1,6.55,0v6.85a3.27,3.27,0,1,1-6.55,0V3.29h0Zm21,23.11,3.48,3.48L21.24,44.43,17.76,41Z"/><rect class="cls-2" x="24.32" y="25.12" width="4.92" height="20.58" transform="translate(-17.2 29.31) rotate(-45)"/></svg>