<?xml version="1.0" encoding="utf-8"?>
<!-- Generator: Adobe Illustrator 19.2.0, SVG Export Plug-In . SVG Version: 6.00 Build 0)  -->
<svg version="1.1" id="Layer_1" xmlns="http://www.w3.org/2000/svg" xmlns:xlink="http://www.w3.org/1999/xlink" x="0px" y="0px"
	 viewBox="0 0 70.67 46.218" style="enable-background:new 0 0 70.67 46.218;" xml:space="preserve">
<style type="text/css">
	.st0{fill:#D47FC0;}
</style>
<path class="st0" d="M61.046,29.97c3.652,0,6.624,2.971,6.624,6.624s-2.971,6.624-6.624,6.624c-3.652,0-6.624-2.971-6.624-6.624
	S57.394,29.97,61.046,29.97 M61.046,26.97c-5.315,0-9.624,4.309-9.624,9.624s4.309,9.624,9.624,9.624s9.624-4.309,9.624-9.624
	S66.361,26.97,61.046,26.97L61.046,26.97z"/>
<path class="st0" d="M63.723,20.135c-0.285-0.086-0.462-0.136-0.597-0.168c-0.741-0.176-1.394-0.615-1.799-1.26l-5.491-8.744
	c1.102-0.495,1.877-1.599,1.877-2.88V2.526c0-0.699-0.567-1.265-1.265-1.265h-1.895c-1.325,0-2.462,0.829-2.929,1.992L50.5,1.465
	c-0.524-0.834-1.427-1.354-2.411-1.388L45.868,0L47.9,4.814h-6.193c-0.516,0-0.938,0.422-0.938,0.938s0.422,0.938,0.938,0.938h6.817
	c0.055,0,0.102-0.022,0.154-0.031l5.469,12.953c0.237,0.561-0.004,1.22-0.56,1.47c-4.999,2.25-8.624,7.025-9.212,12.702H30.816
	l-0.229-0.5l-0.169-1.101c-0.546-3.567-0.489-7.218,0.169-10.761c0-1.112-0.797-2.013-1.78-2.013h0.11
	c0-3.061-2.481-5.542-5.542-5.542H11.279c-3.061,0-5.542,2.481-5.542,5.542h0.316c-0.681,0-1.302,0.439-1.6,1.13l-3.786,8.777
	c-2.082,4.826,0.96,10.429,5.664,10.578c1.398,3.589,4.879,6.136,8.962,6.136c4.078,0,7.555-2.541,8.957-6.122h2.506h2.05h18.664
	c1.141,0,2.042-0.968,1.96-2.106l-0.105-1.462c-0.013-0.177-0.039-0.392-0.025-0.592c-0.003-0.111-0.011-0.222-0.011-0.334
	c0-5.916,4.813-10.729,10.728-10.729c1.788,0,3.523,0.438,5.076,1.274c0.542,0.292,1.216,0.122,1.56-0.388
	C67.901,23.724,66.296,20.908,63.723,20.135z M15.293,43.03c-2.366,0-4.44-1.251-5.612-3.122h11.224
	C19.734,41.779,17.659,43.03,15.293,43.03z"/>
</svg>
