<svg id="Layer_1" data-name="Layer 1" xmlns="http://www.w3.org/2000/svg" viewBox="0 0 100.25 92.54" width="44" height="44"><defs><style>.cls-1{fill:none;stroke:#16a3ac;stroke-miterlimit:10;stroke-width:7px;}.cls-2{fill:#16a3ac;}</style></defs><title>bkg-rental</title><rect class="cls-1" x="15.84" y="3.5" width="68.56" height="33.84" rx="8.6" ry="8.6"/><rect class="cls-2" x="81.62" y="60.54" width="14.94" height="32" rx="5.67" ry="5.67"/><path class="cls-2" d="M89.68,33H10.57A10.57,10.57,0,0,0,0,43.57v31.6H100.25V43.57A10.57,10.57,0,0,0,89.68,33ZM19.57,57.67A6.67,6.67,0,1,1,26.23,51,6.67,6.67,0,0,1,19.57,57.67Zm60,0A6.67,6.67,0,1,1,86.23,51,6.67,6.67,0,0,1,79.57,57.67Z" transform="translate(0 -0.13)"/><rect class="cls-2" x="3.62" y="60.54" width="14.94" height="32" rx="5.67" ry="5.67"/></svg>