<?xml version="1.0" encoding="utf-8"?>
<!-- Generator: Adobe Illustrator 20.0.0, SVG Export Plug-In . SVG Version: 6.00 Build 0)  -->
<svg version="1.1" xmlns="http://www.w3.org/2000/svg" xmlns:xlink="http://www.w3.org/1999/xlink" x="0px" y="0px"
	 viewBox="0 0 500 100" style="enable-background:new 0 0 500 100;" xml:space="preserve">
<style type="text/css">
	.st0{fill:#E0E0E0;}
	.st1{fill-rule:evenodd;clip-rule:evenodd;fill:#C0C0C0;}
</style>
<g id="BG">
	<rect class="st0" width="500" height="100"/>
</g>
<g id="Shadows">
	<polygon class="st1" points="266.428,31.959 391.428,100 269.939,100 226.003,70.812 228.938,63.25 269.5,63.25 274.792,57.958 
		274.792,51.083 271.438,47.729 271.438,43.083 	"/>
</g>
<g id="Icons">
	<g>
		<g>
			<path d="M267.059,60.499c-2.499,0-4.53-2.032-4.53-4.538c0-2.499,2.032-4.53,4.53-4.53c2.506,0,4.538,2.032,4.538,4.53
				C271.597,58.467,269.565,60.499,267.059,60.499z M228.469,55.96c0-2.499,2.034-4.53,4.532-4.53c2.504,0,4.538,2.032,4.538,4.53
				c0,2.506-2.034,4.538-4.538,4.538C230.503,60.499,228.469,58.467,228.469,55.96z M235.364,36.26c5.88-3.87,23.399-3.87,29.272,0
				c1.148,0.751,2.618,3.781,3.962,7.496h-37.194C232.746,40.042,234.215,37.011,235.364,36.26z M279.661,41.91
				c-0.292-0.361-0.734-0.57-1.193-0.57h-5.844c-1.44-3.797-3.315-7.524-5.446-8.928c-7.38-4.861-26.969-4.861-34.35,0
				c-2.132,1.404-4.006,5.132-5.454,8.928h-5.836c-0.465,0-0.901,0.209-1.193,0.57c-0.294,0.359-0.405,0.824-0.315,1.283l0.87,4.185
				c0.142,0.712,0.772,1.223,1.5,1.223h1.732c-1.673,1.928-2.483,4.359-2.491,6.781c-0.013,3.002,1.125,5.71,3.211,7.63
				c0.023,0.015,0.046,0.038,0.067,0.052v5.867c0,1.268,1.029,2.303,2.305,2.303h5.385c1.269,0,2.305-1.035,2.305-2.303v-2.356
				h30.178v2.356c0,1.268,1.029,2.303,2.305,2.303h5.385c1.269,0,2.305-1.035,2.305-2.303v-5.754
				c2.205-2.018,3.263-4.801,3.278-7.584c0.008-2.506-0.841-5.026-2.612-6.992h1.846c0.728,0,1.358-0.511,1.508-1.223l0.864-4.185
				C280.059,42.734,279.947,42.269,279.661,41.91z"/>
		</g>
	</g>
</g>
</svg>
