<?xml version="1.0" encoding="utf-8"?>
<!-- Generator: Adobe Illustrator 20.0.0, SVG Export Plug-In . SVG Version: 6.00 Build 0)  -->
<svg version="1.1" xmlns="http://www.w3.org/2000/svg" xmlns:xlink="http://www.w3.org/1999/xlink" x="0px" y="0px"
	 viewBox="0 0 20 125.4" style="enable-background:new 0 0 20 125.4;" xml:space="preserve">
<style type="text/css">
	.st0{fill:#FFFFFF;}
	.st1{fill:#303030;}
</style>
<g id="Layer_1">
	<g>
		<circle class="st0" cx="10" cy="10" r="10"/>
		<path class="st1" d="M14,8.5c-0.3,1.1-0.8,2.2-1.5,3.4c-0.7,1.2-1.5,2.1-2.4,2.9c-0.9,0.8-1.7,1.2-2.4,1.2c-0.2,0-0.4,0-0.5-0.1
			c0,0-0.1,0-0.1-0.1c-0.1,0-0.1,0-0.1-0.1c-0.4-0.2-0.7-0.4-0.9-0.7c-0.2-0.2-0.3-0.3-0.3-0.5c-0.1-0.4,0.1-1,0.5-1.6
			S7.3,12,7.7,12c0.2,0,0.6,0.1,1,0.4l0.1,0.1l0.1,0c0.3,0,0.9-0.7,1.7-2c0.5-0.8,0.8-1.4,0.9-1.9c0-0.2,0.1-0.3,0.1-0.4
			c0-0.1,0-0.2,0-0.2l0,0l0,0l-0.1-0.1c-0.3-0.1-0.5-0.3-0.6-0.4c-0.1-0.1-0.2-0.3-0.3-0.5c-0.2-0.4-0.1-0.9,0.2-1.7
			C11,4.4,11.5,4.1,12,4.1c0.3,0,0.7,0.2,1.3,0.5l0.1,0.1c0,0,0.1,0,0.1,0.1c0.4,0.2,0.6,0.7,0.7,1.3C14.3,6.7,14.2,7.5,14,8.5z"/>
	</g>
</g>
<g id="Layer_2">
	<circle class="st0" cx="10" cy="115.4" r="10"/>
	<path d="M14,113.9c-0.3,1.1-0.8,2.2-1.5,3.4c-0.7,1.2-1.5,2.1-2.4,2.9c-0.9,0.8-1.7,1.2-2.4,1.2c-0.2,0-0.4,0-0.5-0.1
		c0,0-0.1,0-0.1-0.1c-0.1,0-0.1,0-0.1-0.1c-0.4-0.2-0.7-0.4-0.9-0.7c-0.2-0.2-0.3-0.3-0.3-0.5c-0.1-0.4,0.1-1,0.5-1.6
		s0.9-0.9,1.4-0.9c0.2,0,0.6,0.1,1,0.4l0.1,0.1l0.1,0c0.3,0,0.9-0.7,1.7-2c0.5-0.8,0.8-1.4,0.9-1.9c0-0.2,0.1-0.3,0.1-0.4
		c0-0.1,0-0.2,0-0.2l0,0l0,0l-0.1-0.1c-0.3-0.1-0.5-0.3-0.6-0.4c-0.1-0.1-0.2-0.3-0.3-0.5c-0.2-0.4-0.1-0.9,0.2-1.7
		c0.3-0.8,0.8-1.1,1.3-1.1c0.3,0,0.7,0.2,1.3,0.5l0.1,0.1c0,0,0.1,0,0.1,0.1c0.4,0.2,0.6,0.7,0.7,1.3C14.3,112,14.2,112.9,14,113.9z
		"/>
</g>
</svg>
