<?xml version="1.0" encoding="utf-8"?>
<!-- Generator: Adobe Illustrator 20.0.0, SVG Export Plug-In . SVG Version: 6.00 Build 0)  -->
<svg version="1.1" xmlns="http://www.w3.org/2000/svg" xmlns:xlink="http://www.w3.org/1999/xlink" x="0px" y="0px"
	 viewBox="0 0 500 100" style="enable-background:new 0 0 500 100;" xml:space="preserve">
<style type="text/css">
	.st0{fill:#E0E0E0;}
	.st1{fill-rule:evenodd;clip-rule:evenodd;fill:#C0C0C0;}
</style>
<g id="BG">
	<g>
		<rect class="st0" width="500" height="100"/>
	</g>
</g>
<g id="Shadows">
	<path class="st1" d="M268.786,28.186l-5.036,3.772l5.036,14.875v8.417l-7.661,5.042h-26.058c0.276,0.779,0.433,1.615,0.433,2.488
		c0,4.128-3.346,7.474-7.474,7.474c-3.196,0-5.916-2.01-6.984-4.831V65.5l2.208,5.203L267.351,100h133.366L268.786,28.186z
		 M276.404,70.254c-3.687,0-6.676-2.989-6.676-6.676s2.989-6.676,6.676-6.676s6.676,2.989,6.676,6.676
		S280.091,70.254,276.404,70.254z"/>
</g>
<g id="Icons">
	<g>
		<g>
			<path d="M250.713,43.59h-25.306c-0.297,0-0.57-0.167-0.692-0.441c-0.766-1.618-1.458-3.296-0.721-4.383
				c0.706-1.056,2.43-1.482,5.956-1.482c2.248,0,5.081,0.175,8.081,0.366c3.722,0.235,7.937,0.502,12.084,0.502
				c0.28,0,0.531,0.152,0.667,0.387c0.07,0.115,0.646,1.2,0.716,3.79c0.006,0.22,0,0.41-0.023,0.585
				C251.434,43.301,251.108,43.59,250.713,43.59z"/>
			<path d="M222.527,62.297c2.574,0.167,6.936,0.418,10.968,0.447c0,3.039-2.469,5.506-5.506,5.506
				c-3.039,0-5.506-2.467-5.506-5.506C222.483,62.593,222.512,62.449,222.527,62.297z M272.161,61.613
				c0.805-0.212,1.633-0.418,2.446-0.622c1.589-0.395,3.13-0.784,4.534-1.2c1.171,0.85,1.944,2.224,1.944,3.774
				c0,2.582-2.104,4.686-4.686,4.686s-4.678-2.104-4.678-4.686C271.722,62.867,271.889,62.214,272.161,61.613z M215.001,60.055
				c-0.008,0.214,0.045,0.533,0.334,0.828c0.212,0.214,0.653,0.669,3.364,1.048c-0.029,0.266-0.045,0.541-0.045,0.813
				c0,5.151,4.192,9.335,9.335,9.335c4.647,0,8.499-3.418,9.205-7.861h19.726c3.57,0,5.993-0.136,8.256-1.968
				c0.021,0.441,0.113,1.056,0.167,1.291c0.045,0.229,0.28,0.389,0.554,0.243c0.28-0.144,1.276-0.614,2.036-0.896
				c-0.016,0.229-0.039,0.457-0.039,0.684c0,4.694,3.821,8.507,8.507,8.507c4.694,0,8.507-3.813,8.507-8.507
				c0-2.005-0.698-3.844-1.861-5.302c0.873-0.486,1.526-1.025,1.8-1.662c0.259-0.609,0.191-1.262-0.198-1.929
				c-1.769-3.06-5.065-4.968-8.612-4.968c-0.115,0-0.229,0.016-0.342,0.023c0.053-0.714,0.084-2.005-0.297-2.773
				c-0.371-0.745-1.351-0.912-2.384-1.095c-0.486-0.089-1.489-0.264-1.641-0.486c-0.638-0.986-3.63-7.632-4.299-9.774l2.005-0.251
				c0.334-0.045,0.601-0.296,0.661-0.622c0.138-0.789,0.776-4.801-0.416-6.228c-0.321-0.381-0.752-0.585-1.239-0.585
				c-1.657,0.06-6.98,2.02-6.98,3.447c0,0.146,0.052,0.397,0.251,0.988c-0.183-0.152-0.426-0.235-0.669-0.167
				c-1.192,0.29-2.263,0.677-2.308,0.692c-0.397,0.144-0.601,0.577-0.465,0.98c0.115,0.311,0.41,0.502,0.721,0.502
				c0.091,0,0.175-0.016,0.259-0.047c0.016,0,1.048-0.371,2.158-0.646c0.264-0.068,0.447-0.266,0.531-0.509
				c0.016-0.008,0.023-0.008,0.039-0.008c0.113,0.319,0.249,0.7,0.41,1.147c-0.334,0.259-0.609,0.434-0.609,0.434
				c-0.358,0.227-0.463,0.698-0.235,1.056c0.144,0.235,0.387,0.356,0.646,0.356c0.136,0,0.28-0.037,0.402-0.121
				c0.016,0,0.152-0.091,0.334-0.22c0.227,0.622,0.486,1.328,0.782,2.149c1.064,2.901,2.158,5.893,2.401,6.797
				c0.447,1.625-0.35,10.984-4.513,12.191c-2.248,0.646-4.876,1.001-7.404,1.001c-1.596,0-3.062-0.144-3.92-0.387
				c-1.079-0.303-2.917-1.641-3.578-3.356c-0.418-1.102-0.296-2.195,0.373-3.267c0.933-1.497,1.738-2.438,2.324-3.128
				c0.546-0.646,0.941-1.118,1.139-1.664c0.084-0.235,0.045-0.494-0.099-0.698c-0.144-0.206-0.371-0.319-0.622-0.319h-23.387
				c-0.173,0-0.348,0.06-0.486,0.175c-0.819,0.682-2.627,2.232-3.235,2.755l-3.09,0.062c-0.183,0.008-0.358,0.076-0.494,0.196
				l-2.545,2.263c-0.198,0.183-0.296,0.465-0.235,0.729l0.478,2.333c0.052,0.264,0.243,0.478,0.494,0.57l0.463,0.159
				C216.566,55.727,215.061,58.37,215.001,60.055z"/>
		</g>
	</g>
</g>
</svg>
