<svg id="Artwork_aboveguides" xmlns="http://www.w3.org/2000/svg" viewBox="0 0 186 186">
  <title>nav</title>
  <path d="M145.47,56.3H124.63V48.16a7.09,7.09,0,1,0-14.18,0V56.3H75.54V48.16a7.09,7.09,0,1,0-14.18,0V56.3H40.53a3.86,3.86,0,0,0-3.86,3.86v81a3.86,3.86,0,0,0,3.86,3.86H145.47a3.86,3.86,0,0,0,3.86-3.86v-81A3.86,3.86,0,0,0,145.47,56.3ZM66.66,130H52.47V115.77H66.66V130Zm0-22.18H52.47V93.59H66.66v14.19Zm0-22.18H52.47V71.41H66.66V85.59ZM88.95,130H74.76V115.77H88.95V130Zm0-44.37H74.76V71.41H88.95V85.59ZM111.24,130H97.05V115.77h14.19V130Zm0-22.18H97.05V93.59h14.19v14.19Zm0-22.18H97.05V71.41h14.19V85.59ZM133.53,130H119.34V115.77h14.19V130Zm0-22.18H119.34V93.59h14.19v14.19Zm0-22.18H119.34V71.41h14.19V85.59Z"/>
</svg>
