<svg id="Artwork_aboveguides" xmlns="http://www.w3.org/2000/svg" viewBox="0 0 186 186">
  <title>nav</title>
  <path d="M130.28,34.13H79.87A6.53,6.53,0,0,0,75.25,36L50.77,60.52a6.53,6.53,0,0,0-1.91,4.62v80.2a6.53,6.53,0,0,0,6.53,6.53h74.89a6.53,6.53,0,0,0,6.53-6.53V40.66A6.53,6.53,0,0,0,130.28,34.13ZM53.87,64.54L79.28,39.13V60a4.49,4.49,0,0,1-4.49,4.49H53.87Zm64.28,57.66H67.52a2.5,2.5,0,0,1,0-5h50.63A2.5,2.5,0,0,1,118.15,122.2Zm0-15.5H67.52a2.5,2.5,0,0,1,0-5h50.63A2.5,2.5,0,0,1,118.15,106.71Zm0-15.5H67.52a2.5,2.5,0,0,1,0-5h50.63A2.5,2.5,0,0,1,118.15,91.21Z"/>
</svg>
