<?xml version="1.0" encoding="utf-8"?>
<!-- Generator: Adobe Illustrator 20.0.0, SVG Export Plug-In . SVG Version: 6.00 Build 0)  -->
<svg version="1.1" xmlns="http://www.w3.org/2000/svg" xmlns:xlink="http://www.w3.org/1999/xlink" x="0px" y="0px"
	 viewBox="0 0 500 100" style="enable-background:new 0 0 500 100;" xml:space="preserve">
<style type="text/css">
	.st0{fill:#E0E0E0;}
	.st1{fill-rule:evenodd;clip-rule:evenodd;fill:#C0C0C0;}
</style>
<g id="BG">
	<rect class="st0" width="500" height="100"/>
</g>
<g id="Shadows">
	<polygon class="st1" points="389.241,100 264.316,32 264.244,35 264.244,72.491 261.438,75.297 236.11,75.297 231.032,80.375 
		260.573,100 	"/>
</g>
<g id="Icons">
	<g>
		<g>
			<g>
				<path d="M268.083,57.236h-1.035v-6.201h1.035c1.71,0,3.097,1.387,3.097,3.097C271.181,55.844,269.793,57.236,268.083,57.236z
					 M258.962,72.156l-10.571-4.461l3.245-7.684l10.57,4.46L258.962,72.156z M233.986,39.667c-0.571,0-1.035-0.464-1.035-1.035
					c0-0.57,0.464-1.033,1.035-1.033h25.833c0.57,0,1.028,0.464,1.028,1.033c0,0.571-0.459,1.035-1.028,1.035h-0.42
					c0.258,0.606,0.42,1.302,0.42,2.069c0,2.316-1.363,4.132-3.104,4.132c-1.736,0-3.097-1.816-3.097-4.132
					c0-0.767,0.156-1.463,0.418-2.069H233.986z M241.215,23.132c-0.57,0-1.035-0.464-1.035-1.033c0-0.566,0.465-1.029,1.035-1.029
					h1.035v2.063H241.215z M244.319,25.201h6.195v6.201h-6.195V25.201z M244.319,21.069h2.063v2.063h-2.063V21.069z M248.451,21.069
					h2.063v2.063h-2.063V21.069z M252.583,21.069h1.035c0.57,0,1.035,0.464,1.035,1.029c0,0.57-0.465,1.033-1.035,1.033h-1.035
					V21.069z M268.083,48.965h-1.035V36.422c0-2.769-2.25-5.019-5.021-5.019h-9.445v-6.201h1.035c1.71,0,3.097-1.392,3.097-3.103
					c0-1.706-1.387-3.099-3.097-3.099h-12.403c-1.71,0-3.097,1.392-3.097,3.099c0,1.71,1.387,3.103,3.097,3.103h1.035v6.201h-10.479
					c-2.771,0-5.021,2.25-5.021,5.019v36.46c0,2.089,1.281,3.88,3.097,4.632v0.712c0,1.528,1.246,2.774,2.776,2.774h5.818
					c1.528,0,2.775-1.246,2.775-2.774v-0.323h11.368v0.323c0,1.528,1.246,2.774,2.775,2.774h5.818c1.529,0,2.776-1.246,2.776-2.774
					v-0.712c1.816-0.752,3.097-2.548,3.097-4.632V59.299h1.035c2.851,0,5.167-2.316,5.167-5.167
					C273.25,51.286,270.934,48.965,268.083,48.965z"/>
			</g>
		</g>
		<g>
			<rect x="253.195" y="62.416" transform="matrix(0.3888 -0.9213 0.9213 0.3888 95.1524 275.6038)" width="4.206" height="7.34"/>
		</g>
	</g>
</g>
</svg>
