<?xml version="1.0" encoding="utf-8"?>
<!-- Generator: Adobe Illustrator 20.0.0, SVG Export Plug-In . SVG Version: 6.00 Build 0)  -->
<svg version="1.1" xmlns="http://www.w3.org/2000/svg" xmlns:xlink="http://www.w3.org/1999/xlink" x="0px" y="0px"
	 viewBox="0 0 500 100" style="enable-background:new 0 0 500 100;" xml:space="preserve">
<style type="text/css">
	.st0{fill:#E0E0E0;}
	.st1{fill-rule:evenodd;clip-rule:evenodd;fill:#C0C0C0;}
</style>
<g id="BG">
	<rect class="st0" width="500" height="100"/>
</g>
<g id="Shadows">
	<polygon class="st1" points="410.908,100 276.837,27.022 265.167,35.5 265.167,38.667 260.594,44.202 258.618,45.667 
		256.391,46.758 258.167,53.833 246.333,64.833 220.937,59.209 282.34,100 	"/>
</g>
<g id="Icons">
	<g>
		<g>
			<ellipse transform="matrix(0.8979 -0.4401 0.4401 0.8979 14.0471 123.7035)" cx="273.73" cy="31.566" rx="5.776" ry="5.778"/>
			<path d="M260.594,44.202c-0.461,2.247-0.259,4.259,1.98,4.876c0,0,10.3,2.829,10.304,2.83l0.005,0.001
				c1.673,0.458,3.385-0.527,3.841-2.187c0.455-1.661-0.519-3.38-2.18-3.839c-0.002-0.001-0.003-0.001-0.006-0.002l-5.253-1.443
				l-2.076-1.385c0.628-3.058,0.405-1.972,0.964-4.691c0.295-1.432-0.802-3.263-1.445-4.577c-1.211-2.467-4.19-3.488-6.657-2.278
				l-3.449,1.692l5.502,3.675c-0.127,0.437-0.425,1.946-0.525,2.433L237.3,23.083c-1.06-0.712-2.499-0.425-3.21,0.64
				c-0.71,1.063-0.424,2.5,0.64,3.21L260.594,44.202z"/>
			<path d="M279.671,71.344c-0.654-1.097-2.073-1.453-3.175-0.797l-3.187,1.907l-21.086-7.256l9.943-8.376
				c1.89-1.59,1.792-4.547-0.212-6.008l-5.563-4.055l1.997-0.979l0.231-0.113l-11.612-7.753l-0.002,0.001
				c-1.939,0.951-3.172,2.752-3.495,4.732c-0.401,2.444,0.621,4.57,2.93,6.312l7.078,5.158l-9.637,8.209l-20.811-7.163
				c-1.212-0.419-2.528,0.224-2.943,1.434c-0.417,1.21,0.227,2.526,1.435,2.943l51.257,17.642c0.245,0.085,0.501,0.126,0.754,0.126
				c0.414,0,0.825-0.11,1.189-0.329l4.112-2.461C279.971,73.863,280.328,72.441,279.671,71.344z"/>
		</g>
	</g>
</g>
</svg>
