<?xml version="1.0" encoding="utf-8"?>
<!-- Generator: Adobe Illustrator 19.1.0, SVG Export Plug-In . SVG Version: 6.00 Build 0)  -->
<!DOCTYPE svg PUBLIC "-//W3C//DTD SVG 1.1//EN" "http://www.w3.org/Graphics/SVG/1.1/DTD/svg11.dtd">
<svg version="1.1" id="Layer_1" xmlns="http://www.w3.org/2000/svg" xmlns:xlink="http://www.w3.org/1999/xlink" x="0px" y="0px"
	 viewBox="0 0 40 40" style="enable-background:new 0 0 40 40;" xml:space="preserve">
<style type="text/css">
	.st0{fill:#FFFFFF;}
	.st1{fill:#AAAFB8;}
	.st2{fill:#D90037;}
	.st3{fill:#A4B2BB;}
	.st4{fill:#8997A0;}
</style>
<g>
	<g>
		<g>
			<circle class="st3" cx="9" cy="31" r="9"/>
		</g>
		<g>
			<path class="st0" d="M8.3,33.1c0-0.1,0-0.2,0-0.3c0-0.4,0.1-0.8,0.2-1.1c0.1-0.2,0.2-0.5,0.4-0.7c0.1-0.2,0.4-0.4,0.8-0.7
				s0.6-0.6,0.7-0.8s0.2-0.4,0.2-0.6c0-0.4-0.2-0.8-0.5-1.1s-0.7-0.5-1.2-0.5c-0.4,0-0.8,0.1-1.1,0.4c-0.3,0.3-0.5,0.7-0.6,1.3
				L6,28.9c0.1-0.8,0.4-1.4,0.9-1.8s1.1-0.6,1.9-0.6c0.8,0,1.5,0.2,2,0.7s0.8,1,0.8,1.7c0,0.4-0.1,0.7-0.3,1s-0.5,0.7-1,1.2
				c-0.3,0.3-0.6,0.5-0.7,0.7S9.4,32,9.4,32.2c-0.1,0.2-0.1,0.5-0.1,0.9H8.3z M8.2,35.2V34h1.2v1.2H8.2z"/>
		</g>
	</g>
	<g>
		<circle class="st4" cx="31" cy="9" r="9"/>
	</g>
	<g>
		<path class="st0" d="M30.3,11.1c0-0.1,0-0.2,0-0.3c0-0.4,0.1-0.8,0.2-1.1c0.1-0.2,0.2-0.5,0.4-0.7c0.1-0.2,0.4-0.4,0.8-0.7
			s0.6-0.6,0.7-0.8s0.2-0.4,0.2-0.6c0-0.4-0.2-0.8-0.5-1.1c-0.3-0.3-0.7-0.5-1.2-0.5c-0.4,0-0.8,0.1-1.1,0.4s-0.5,0.7-0.6,1.3
			L28,6.9c0.1-0.8,0.4-1.4,0.9-1.8s1.1-0.6,1.9-0.6c0.8,0,1.5,0.2,2,0.7s0.8,1,0.8,1.7c0,0.4-0.1,0.7-0.3,1s-0.5,0.7-1,1.2
			c-0.3,0.3-0.6,0.5-0.7,0.7s-0.2,0.3-0.2,0.5s-0.1,0.5-0.1,0.9H30.3z M30.2,13.2V12h1.2v1.2H30.2z"/>
	</g>
</g>
</svg>
