<svg id="Isolation_Mode" data-name="Isolation Mode" xmlns="http://www.w3.org/2000/svg" viewBox="0 0 139.75 182.62" width="14" height="19"><defs><style>.cls-1{fill:#fff;}</style></defs><title>btn-purchase</title><path class="cls-1" d="M127.75,62.87H121.5a42.76,42.76,0,0,0,.27-4.77V42.54A42.59,42.59,0,0,0,79.24,0H60.51A42.59,42.59,0,0,0,18,42.54V58.1a42.76,42.76,0,0,0,.27,4.77H12a12,12,0,0,0-12,12v95.75a12,12,0,0,0,12,12H127.75a12,12,0,0,0,12-12V74.87A12,12,0,0,0,127.75,62.87ZM78.88,124.23v27.67a9,9,0,0,1-18,0V124.23A19.57,19.57,0,1,1,78.88,124.23ZM104.77,58.1a25.55,25.55,0,0,1-.45,4.77H35.43A25.55,25.55,0,0,1,35,58.1V42.54A25.57,25.57,0,0,1,60.51,17H79.24a25.57,25.57,0,0,1,25.54,25.54V58.1Z"/></svg>